<svg xmlns="http://www.w3.org/2000/svg" xmlns:xlink="http://www.w3.org/1999/xlink" version="1.1">
  <symbol id="ssi">
    <path d="M100.15,33.66c0,6.28,2.84,11.23,8.46,14.71l0.06,0,13.23,7,1.34,0.66c5.76,2.79,12.28,6,12.28,12.38,0,8.26-7.34,15.24-16,15.24-9.09,0-13.59-6.47-15.76-11.91L103,69.87,95.4,73.3,96,75c3.77,10.45,12.69,16.94,23.29,16.94a26,26,0,0,0,17.13-6.55,22.08,22.08,0,0,0,7.63-16.57c0-7-2.93-12.17-9.22-16.14l-0.07,0-14-7.3-0.6-.28c-5.63-2.67-11.46-5.43-11.46-11.58a11.73,11.73,0,0,1,11.76-12c5.58,0,9.87,2.51,13.13,7.68l1.18,1.89L141,25.93l-0.79-1.43a22.48,22.48,0,0,0-19.49-11.25c-11.94,0-20.6,8.59-20.6,20.41" transform="translate(-12.34 -13.25)"/>
    <path d="M156,33.66c0,6.28,2.85,11.23,8.47,14.71l0.06,0,13.22,7,1.34,0.66c5.75,2.79,12.27,6,12.27,12.38,0,8.26-7.33,15.24-16,15.24-9.09,0-13.59-6.47-15.77-11.91l-0.76-1.9-7.57,3.43,0.62,1.7c3.77,10.45,12.69,16.94,23.28,16.94a26,26,0,0,0,17.13-6.55,22.09,22.09,0,0,0,7.64-16.57c0-7-2.94-12.17-9.23-16.14l-0.06,0-14-7.3L176,45.06c-5.63-2.67-11.46-5.43-11.46-11.58a11.73,11.73,0,0,1,11.76-12c5.57,0,9.87,2.51,13.12,7.68l1.19,1.89,6.26-5.16-0.79-1.43a22.48,22.48,0,0,0-19.49-11.25c-11.94,0-20.61,8.59-20.61,20.41" transform="translate(-12.34 -13.25)"/>
    <polygon points="205.4 0.96 198.8 0.96 198.8 77.73 207.36 77.73 207.36 0.96 205.4 0.96"/>
    <path d="M54.3,39.59c5.57-10,12.24-21.92,24.32-26.26H15.17a2.86,2.86,0,0,0-2.83,2.89V69h1.49c24,0,31.66-13.65,40.47-29.46" transform="translate(-12.34 -13.25)"/>
    <path d="M89.6,88.84V35.48H89c-4.28,0-7.39,4.79-13.48,15.72C67.43,65.68,55.76,86.59,27.7,91.73H86.77a2.86,2.86,0,0,0,2.83-2.89" transform="translate(-12.34 -13.25)"/>
    <path d="M232.65,14.06a5.72,5.72,0,1,1-5.81,5.7A5.7,5.7,0,0,1,232.65,14.06Zm0,0.92a4.65,4.65,0,0,0-4.7,4.78,4.69,4.69,0,1,0,9.37,0A4.64,4.64,0,0,0,232.65,15Zm-1.22,8.09h-1V16.48h2.53c1.57,0,2.34.58,2.34,1.88a1.72,1.72,0,0,1-1.73,1.82l1.88,2.9h-1.11l-1.76-2.87h-1.14v2.87Zm0-3.7h1.2c1.23,0,1.63-.35,1.63-1.08s-0.31-1-1.46-1h-1.37v2.06Z" transform="translate(-12.34 -13.25)"/>
    <text x="-12.34" y="-13.25"/>
  </symbol>
</svg>