<?xml version="1.0" standalone="no"?>
<!DOCTYPE svg PUBLIC "-//W3C//DTD SVG 1.1//EN" "http://www.w3.org/Graphics/SVG/1.1/DTD/svg11.dtd" >
<svg xmlns="http://www.w3.org/2000/svg" xmlns:xlink="http://www.w3.org/1999/xlink" version="1.1">
<metadata>
Created by FontForge 20161116 at Fri Aug 10 14:41:34 2012
 By Jimmy Wärting

</metadata>
<defs>
<font id="EnzoOT-Bold" horiz-adv-x="680" >
  <font-face 
    font-family="EnzoOT-Bold"
    font-weight="700"
    font-stretch="normal"
    units-per-em="1000"
    panose-1="2 11 8 4 2 1 1 1 1 2"
    ascent="828"
    descent="-172"
    x-height="528"
    cap-height="700"
    bbox="-650 -217 1410 982"
    underline-thickness="80"
    underline-position="-110"
    stemh="134"
    stemv="146"
    unicode-range="U+000D-FEFF"
  />
<missing-glyph horiz-adv-x="578" 
d="M44 0v700h490v-700h-490zM123 79h332v542h-332v-542z" />
    <glyph glyph-name="f_f" unicode="ff" horiz-adv-x="701" 
d="M576 0h-146v403h-182v-403h-146v403h-77v108h75c-3 18 -4 35 -4 51c0 104 57 168 174 168c23 0 48 -2 76 -7l-12 -110c-15 2 -27 3 -38 3c-43 0 -61 -14 -61 -54c0 -14 2 -31 6 -51h187c-3 18 -4 35 -4 51c0 104 57 168 174 168c23 0 48 -2 76 -7l-12 -110
c-15 2 -27 3 -38 3c-43 0 -61 -14 -61 -54c0 -14 2 -31 6 -51h116l-13 -108h-96v-403z" />
    <glyph glyph-name="f_f_i" unicode="ffi" horiz-adv-x="969" 
d="M831 588c-54 0 -86 21 -86 74c0 52 32 74 86 74s86 -22 86 -74c0 -53 -32 -74 -86 -74zM917 0h-137c-19 49 -22 113 -22 181v222h-182v-403h-146v403h-182v-403h-146v403h-77v108h75c-3 18 -4 35 -4 51c0 104 57 168 174 168c23 0 48 -2 76 -7l-12 -110
c-15 2 -27 3 -38 3c-43 0 -61 -14 -61 -54c0 -14 2 -31 6 -51h187c-3 18 -4 35 -4 51c0 104 57 168 174 168c23 0 48 -2 76 -7l-12 -110c-15 2 -27 3 -38 3c-43 0 -61 -14 -61 -54c0 -14 2 -31 6 -51h189l146 17v-357c0 -54 1 -124 13 -171z" />
    <glyph glyph-name="f_f_j" unicode="ffj" horiz-adv-x="969" 
d="M831 588c-54 0 -86 21 -86 74c0 52 32 74 86 74s86 -22 86 -74c0 -53 -32 -74 -86 -74zM804 -173l-96 62c34 48 50 100 50 167v347h-182v-403h-146v403h-182v-403h-146v403h-77v108h75c-3 18 -4 35 -4 51c0 104 57 168 174 168c23 0 48 -2 76 -7l-12 -110
c-15 2 -27 3 -38 3c-43 0 -61 -14 -61 -54c0 -14 2 -31 6 -51h187c-3 18 -4 35 -4 51c0 104 57 168 174 168c23 0 48 -2 76 -7l-12 -110c-15 2 -27 3 -38 3c-43 0 -61 -14 -61 -54c0 -14 2 -31 6 -51h189l146 17v-466c0 -111 -37 -173 -100 -235z" />
    <glyph glyph-name="f_f_l" unicode="ffl" horiz-adv-x="969" 
d="M917 0h-137c-19 49 -22 113 -22 181v520l146 17v-547c0 -54 1 -124 13 -171zM576 0h-146v403h-182v-403h-146v403h-77v108h75c-3 18 -4 35 -4 51c0 104 57 168 174 168c23 0 48 -2 76 -7l-12 -110c-15 2 -27 3 -38 3c-43 0 -61 -14 -61 -54c0 -14 2 -31 6 -51h187
c-3 18 -4 35 -4 51c0 104 57 168 174 168c23 0 48 -2 76 -7l-12 -110c-15 2 -27 3 -38 3c-43 0 -61 -14 -61 -54c0 -14 2 -31 6 -51h116l-13 -108h-96v-403z" />
    <glyph glyph-name="f_i" unicode="fi" horiz-adv-x="641" 
d="M503 588c-54 0 -86 21 -86 74c0 52 32 74 86 74s86 -22 86 -74c0 -53 -32 -74 -86 -74zM589 0h-137c-19 49 -22 113 -22 181v222h-182v-403h-146v403h-77v108h75c-3 18 -4 35 -4 51c0 104 57 168 174 168c23 0 48 -2 76 -7l-12 -110c-15 2 -27 3 -38 3
c-43 0 -61 -14 -61 -54c0 -14 2 -31 6 -51h189l146 17v-357c0 -54 1 -124 13 -171z" />
    <glyph glyph-name="f_j" unicode="fj" horiz-adv-x="641" 
d="M503 588c-54 0 -86 21 -86 74c0 52 32 74 86 74s86 -22 86 -74c0 -53 -32 -74 -86 -74zM476 -173l-96 62c34 48 50 100 50 167v347h-182v-403h-146v403h-77v108h75c-3 18 -4 35 -4 51c0 104 57 168 174 168c23 0 48 -2 76 -7l-12 -110c-15 2 -27 3 -38 3
c-43 0 -61 -14 -61 -54c0 -14 2 -31 6 -51h189l146 17v-466c0 -111 -37 -173 -100 -235z" />
    <glyph glyph-name="f_l" unicode="fl" horiz-adv-x="641" 
d="M248 0h-146v403h-77v108h75c-3 18 -4 35 -4 51c0 104 57 168 174 168c23 0 48 -2 76 -7l-12 -110c-15 2 -27 3 -38 3c-43 0 -61 -14 -61 -54c0 -14 2 -31 6 -51h116l-13 -108h-96v-403zM589 0h-137c-19 49 -22 113 -22 181v520l146 17v-547c0 -54 1 -124 13 -171z" />
    <glyph glyph-name=".notdef" horiz-adv-x="578" 
d="M44 0v700h490v-700h-490zM123 79h332v542h-332v-542z" />
    <glyph glyph-name=".null" horiz-adv-x="0" 
 />
    <glyph glyph-name=".null" horiz-adv-x="0" 
 />
    <glyph glyph-name="CR" unicode="&#xd;" horiz-adv-x="207" 
 />
    <glyph glyph-name="space" unicode=" " horiz-adv-x="207" 
 />
    <glyph glyph-name="exclam" unicode="!" horiz-adv-x="316" 
d="M229 219h-126l-22 474l167 16c-6 -177 -10 -338 -19 -490zM166 -8c-57 0 -88 29 -88 84s31 83 88 83c58 0 88 -28 88 -83s-30 -84 -88 -84z" />
    <glyph glyph-name="quotedbl" unicode="&#x22;" horiz-adv-x="405" 
d="M160 405h-113l-17 313h147zM358 405h-112l-18 313h147z" />
    <glyph glyph-name="numbersign" unicode="#" horiz-adv-x="867" 
d="M579 0h-145l30 139h-150l-25 -139h-146l33 139h-129l26 127h128l35 169h-130l27 126h128l22 139h149l-31 -139h148l24 139h148l-30 -139h129l-27 -126h-129l-34 -169h130l-27 -127h-129zM495 256l38 189h-164l-39 -189h165z" />
    <glyph glyph-name="dollar" unicode="$" horiz-adv-x="591" 
d="M359 -117h-119v108c-74 7 -142 26 -202 62l48 119c65 -35 139 -50 209 -50c61 0 110 19 110 75c0 59 -71 68 -140 86c-100 27 -214 65 -214 218c0 118 75 191 189 207v109h119v-109c57 -6 112 -21 167 -51l-45 -120c-56 28 -116 41 -172 41c-60 0 -108 -19 -108 -71
c0 -67 76 -70 123 -86c100 -27 236 -61 236 -213c0 -118 -69 -200 -201 -216v-109z" />
    <glyph glyph-name="percent" unicode="%" horiz-adv-x="1015" 
d="M245 280c-142 0 -199 69 -199 216s57 216 199 216c141 0 199 -69 199 -216s-58 -216 -199 -216zM245 370c67 0 79 47 79 126s-12 126 -79 126c-66 0 -79 -47 -79 -126s13 -126 79 -126zM770 -12c-142 0 -198 69 -198 216s56 216 198 216s199 -69 199 -216
s-57 -216 -199 -216zM770 78c68 0 79 47 79 126s-11 126 -79 126c-66 0 -79 -47 -79 -126s13 -126 79 -126zM697 688l-297 -700l-82 24l297 700z" />
    <glyph glyph-name="ampersand" unicode="&#x26;" horiz-adv-x="718" 
d="M584 0h-280c-171 0 -253 60 -253 197c0 107 80 154 144 161c-63 12 -112 67 -112 150c0 124 80 178 182 196l44 -119c-44 -9 -78 -33 -78 -89c0 -83 49 -88 124 -88h76v114l153 19v-115l98 -14v-115h-98v-297zM431 121v176h-93c-84 0 -127 -16 -127 -88
c0 -74 45 -88 159 -88h61z" />
    <glyph glyph-name="quotesingle" unicode="'" horiz-adv-x="207" 
d="M160 405h-113l-17 313h147z" />
    <glyph glyph-name="parenleft" unicode="(" horiz-adv-x="319" 
d="M277 -102l-104 -50c-69 104 -143 254 -143 441s74 337 143 441l104 -50c-67 -121 -113 -248 -113 -391s46 -270 113 -391z" />
    <glyph glyph-name="parenright" unicode=")" horiz-adv-x="319" 
d="M146 -152l-104 50c67 121 113 248 113 391s-46 270 -113 391l104 50c69 -104 143 -254 143 -441s-74 -337 -143 -441z" />
    <glyph glyph-name="asterisk" unicode="*" horiz-adv-x="484" 
d="M313 304l-71 110l-72 -109l-91 67l80 102l-126 33l37 109l123 -46l-7 130h116l-9 -130l121 47l37 -109l-126 -35l80 -102z" />
    <glyph glyph-name="plus" unicode="+" 
d="M409 71h-139v163h-175v138h175v163h139v-163h175v-138h-175v-163z" />
    <glyph glyph-name="comma" unicode="," horiz-adv-x="275" 
d="M133 -140h-105l58 338l161 10z" />
    <glyph glyph-name="hyphen" unicode="-" horiz-adv-x="439" 
d="M381 233h-323v139h323v-139z" />
    <glyph glyph-name="period" unicode="." horiz-adv-x="290" 
d="M145 -8c-58 0 -89 30 -89 88s31 88 89 88s89 -30 89 -88s-31 -88 -89 -88z" />
    <glyph glyph-name="slash" unicode="/" horiz-adv-x="367" 
d="M337 689l-175 -700l-132 22l175 700z" />
    <glyph glyph-name="zero" unicode="0" horiz-adv-x="648" 
d="M324 -12c-199 0 -277 115 -277 362s78 362 277 362s277 -115 277 -362s-78 -362 -277 -362zM324 122c101 0 124 80 124 228c0 150 -23 228 -124 228s-124 -78 -124 -228c0 -148 23 -228 124 -228z" />
    <glyph glyph-name="one" unicode="1" horiz-adv-x="282" 
d="M217 0h-152v680l152 20v-700z" />
    <glyph glyph-name="two" unicode="2" horiz-adv-x="573" 
d="M525 0h-454l-25 134c162 109 315 230 315 340c0 74 -31 103 -102 103c-58 0 -117 -14 -172 -43l-49 117c69 48 150 61 258 61c141 0 231 -70 231 -204c0 -147 -103 -256 -281 -374h279v-134z" />
    <glyph glyph-name="three" unicode="3" horiz-adv-x="586" 
d="M83 172c57 -32 123 -50 198 -50c71 0 120 25 120 103c0 64 -51 92 -125 92c-10 0 -21 -1 -32 -2l-64 -8l-29 117l195 142h-287v134h441l29 -134l-221 -156c177 0 244 -88 244 -201c0 -137 -88 -221 -264 -221c-103 0 -187 23 -256 68z" />
    <glyph glyph-name="four" unicode="4" horiz-adv-x="619" 
d="M513 0h-152v163h-286l-37 120c70 129 90 269 93 422l160 -12c-15 -158 -52 -300 -108 -410h178v244l152 18v-262h72v-120h-72v-163z" />
    <glyph glyph-name="five" unicode="5" horiz-adv-x="584" 
d="M81 172c61 -34 130 -50 200 -50c90 0 122 34 122 107c0 71 -49 90 -137 90c-42 0 -94 -9 -157 -29l-51 115l34 295h405v-134h-283l-22 -146c40 11 81 16 118 16c154 0 245 -87 245 -218c0 -127 -79 -230 -265 -230c-102 0 -190 21 -260 69z" />
    <glyph glyph-name="six" unicode="6" horiz-adv-x="617" 
d="M486 541c-46 26 -98 37 -153 37c-98 0 -134 -55 -137 -174c30 43 80 66 163 66c141 0 221 -86 221 -224c0 -149 -77 -258 -261 -258c-199 0 -277 115 -277 362c0 249 114 362 271 362c91 0 164 -13 226 -54zM197 283c6 -103 36 -161 123 -161c79 0 112 54 112 123
c0 80 -37 110 -107 110c-52 0 -99 -21 -128 -72z" />
    <glyph glyph-name="seven" unicode="7" horiz-adv-x="534" 
d="M289 0h-164c30 235 92 426 227 566h-319v134h453l25 -134c-154 -134 -204 -341 -222 -566z" />
    <glyph glyph-name="eight" unicode="8" horiz-adv-x="624" 
d="M466 359c79 -25 113 -81 113 -160c0 -127 -83 -211 -267 -211c-195 0 -267 90 -267 215c0 70 26 132 109 157c-67 26 -90 83 -90 153c0 101 73 199 248 199c177 0 251 -101 251 -202c0 -70 -29 -127 -97 -151zM260 295c-51 -19 -70 -51 -70 -84c0 -63 30 -98 124 -98
c88 0 118 30 118 80c0 64 -73 84 -172 102zM354 408c43 20 64 51 64 86c0 59 -29 93 -107 93c-74 0 -104 -28 -104 -76c0 -70 68 -85 147 -103z" />
    <glyph glyph-name="nine" unicode="9" horiz-adv-x="617" 
d="M131 159c46 -26 98 -37 153 -37c98 0 134 55 137 174c-30 -43 -80 -66 -163 -66c-141 0 -221 86 -221 224c0 149 77 258 261 258c199 0 277 -115 277 -362c0 -249 -114 -362 -271 -362c-91 0 -164 13 -226 54zM420 417c-6 103 -36 161 -123 161c-79 0 -112 -54 -112 -123
c0 -80 37 -110 107 -110c52 0 99 21 128 72z" />
    <glyph glyph-name="colon" unicode=":" horiz-adv-x="292" 
d="M146 -8c-58 0 -89 30 -89 88s31 88 89 88s89 -30 89 -88s-31 -88 -89 -88zM146 295c-58 0 -89 30 -89 88s31 88 89 88s89 -30 89 -88s-31 -88 -89 -88z" />
    <glyph glyph-name="semicolon" unicode=";" horiz-adv-x="304" 
d="M131 -140h-105l58 338l161 10zM158 295c-58 0 -89 30 -89 88s31 88 89 88s89 -30 89 -88s-31 -88 -89 -88z" />
    <glyph glyph-name="less" unicode="&#x3c;" 
d="M525 53l-430 196v111l430 200l59 -140l-346 -117l346 -111z" />
    <glyph glyph-name="equal" unicode="=" 
d="M584 348h-489v133h489v-133zM584 125h-489v133h489v-133z" />
    <glyph glyph-name="greater" unicode="&#x3e;" 
d="M154 52l-59 140l347 111l-347 117l59 140l430 -200v-111z" />
    <glyph glyph-name="question" unicode="?" horiz-adv-x="458" 
d="M267 219h-125l-10 173c96 12 138 34 138 101c0 80 -73 97 -208 97l15 119c17 3 36 4 52 4c204 0 301 -97 301 -221c0 -93 -43 -158 -158 -176zM204 -8c-57 0 -88 29 -88 84s31 83 88 83c58 0 88 -28 88 -83s-30 -84 -88 -84z" />
    <glyph glyph-name="at" unicode="@" horiz-adv-x="937" 
d="M680 -90c-78 -47 -169 -68 -273 -68c-211 0 -361 112 -361 369c0 350 174 501 477 501c221 0 368 -106 368 -317c0 -189 -93 -335 -327 -346l-15 69c-29 -44 -69 -71 -141 -71c-96 0 -149 63 -149 180c0 238 101 288 225 288c69 0 137 -12 194 -37
c-13 -111 -29 -237 -29 -320v-19c82 31 131 104 131 242c0 146 -69 235 -266 235c-243 0 -353 -132 -353 -395c0 -181 69 -281 257 -281c77 0 152 17 229 55zM557 411c-22 8 -53 11 -79 11c-64 0 -103 -46 -103 -182c0 -59 14 -101 70 -101c48 0 77 25 90 59z" />
    <glyph glyph-name="A" unicode="A" horiz-adv-x="647" 
d="M468 -9l-39 140h-219l-35 -131h-162l230 691l157 18l234 -700zM397 245l-79 283l-77 -283h156z" />
    <glyph glyph-name="B" unicode="B" horiz-adv-x="616" 
d="M213 408h76c75 0 124 5 124 88c0 70 -57 93 -117 93c-29 0 -58 -3 -83 -8v-173zM213 121h61c114 0 159 14 159 88c0 72 -43 88 -127 88h-93v-176zM60 0v684c62 14 144 28 221 28c145 0 280 -43 280 -204c0 -83 -49 -138 -112 -150c64 -7 144 -54 144 -161
c0 -137 -82 -197 -253 -197h-280z" />
    <glyph glyph-name="C" unicode="C" horiz-adv-x="583" 
d="M552 39c-70 -42 -134 -51 -204 -51c-216 0 -301 115 -301 362s85 362 301 362c70 0 134 -9 204 -51l-52 -119c-51 26 -98 35 -150 35c-126 0 -149 -85 -149 -227s23 -227 149 -227c52 0 99 9 150 35z" />
    <glyph glyph-name="D" unicode="D" 
d="M60 0v683c86 17 171 29 249 29c184 0 324 -74 324 -362c0 -258 -94 -350 -311 -350h-262zM213 134c206 0 266 2 266 216c0 185 -59 228 -155 228c-33 0 -70 -5 -111 -11v-433z" />
    <glyph glyph-name="E" unicode="E" horiz-adv-x="558" 
d="M513 0h-453v700h453v-135h-300v-137h243l-11 -121h-232v-172h300v-135z" />
    <glyph glyph-name="F" unicode="F" horiz-adv-x="530" 
d="M213 0h-153v700h453v-135h-300v-162h243l-11 -121h-232v-282z" />
    <glyph glyph-name="G" unicode="G" horiz-adv-x="668" 
d="M620 42c-77 -36 -167 -54 -264 -54c-199 0 -310 84 -310 362c0 263 139 362 304 362c88 0 163 -11 235 -52l-55 -125c-49 28 -103 38 -162 38c-110 0 -168 -57 -168 -220c0 -172 37 -232 160 -232c34 0 73 3 107 15v125h-125v112h278v-331z" />
    <glyph glyph-name="H" unicode="H" horiz-adv-x="670" 
d="M610 0h-153v293h-244v-293h-153v700h153v-273h244v273h153v-700z" />
    <glyph glyph-name="I" unicode="I" horiz-adv-x="273" 
d="M213 0h-153v700h153v-700z" />
    <glyph glyph-name="J" unicode="J" horiz-adv-x="299" 
d="M93 -173l-78 91c61 41 71 93 71 168v614h153v-609c0 -121 -30 -201 -146 -264z" />
    <glyph glyph-name="K" unicode="K" horiz-adv-x="631" 
d="M450 -13l-237 349v-336h-153v700h153v-323l208 323l177 -19l-235 -321l260 -339z" />
    <glyph glyph-name="L" unicode="L" horiz-adv-x="555" 
d="M526 0h-466v700h153v-565h313v-135z" />
    <glyph glyph-name="M" unicode="M" horiz-adv-x="851" 
d="M651 -9l-25 497l-127 -488h-141l-140 488l-22 -488h-153l63 700h188l134 -510l130 510h188l62 -697z" />
    <glyph glyph-name="N" unicode="N" horiz-adv-x="694" 
d="M634 0h-169l-173 316c-34 62 -70 121 -96 189c10 -98 10 -204 10 -298v-207h-146v682l176 27l153 -283c44 -82 82 -150 117 -226c-13 91 -18 190 -18 317v183h146v-700z" />
    <glyph glyph-name="O" unicode="O" horiz-adv-x="696" 
d="M348 -12c-216 0 -301 115 -301 362s85 362 301 362s301 -115 301 -362s-85 -362 -301 -362zM350 122c122 0 145 86 145 228s-23 228 -145 228c-126 0 -149 -86 -149 -228s23 -228 149 -228z" />
    <glyph glyph-name="P" unicode="P" horiz-adv-x="606" 
d="M213 0h-153v684c71 16 154 27 225 27c173 0 305 -61 305 -253c0 -170 -117 -239 -283 -239c-31 0 -62 3 -94 7v-226zM213 343c28 -3 55 -5 79 -5c84 0 144 24 144 118c0 93 -62 121 -141 121c-28 0 -56 -4 -82 -10v-224z" />
    <glyph glyph-name="Q" unicode="Q" horiz-adv-x="696" 
d="M563 -96l-141 -62c-54 45 -92 99 -114 148c-187 13 -261 128 -261 360c0 247 85 362 301 362s301 -115 301 -362c0 -207 -60 -322 -206 -353c22 -32 68 -63 120 -93zM350 122c122 0 145 86 145 228s-23 228 -145 228c-126 0 -149 -86 -149 -228s23 -228 149 -228z" />
    <glyph glyph-name="R" unicode="R" horiz-adv-x="632" 
d="M213 347h105c76 0 114 43 114 113c0 88 -58 117 -135 117c-28 0 -56 -4 -84 -10v-220zM448 -12l-126 244h-109v-232h-153v684c72 16 151 27 228 27c166 0 298 -59 298 -249c0 -109 -49 -173 -123 -204l153 -249z" />
    <glyph glyph-name="S" unicode="S" horiz-adv-x="591" 
d="M86 172c65 -35 139 -50 209 -50c61 0 110 19 110 75c0 59 -71 68 -140 86c-100 27 -214 65 -214 218c0 135 97 211 238 211c84 0 161 -13 237 -55l-45 -120c-56 28 -116 41 -172 41c-60 0 -108 -19 -108 -71c0 -67 76 -70 123 -86c100 -27 236 -61 236 -213
c0 -133 -87 -220 -255 -220c-100 0 -189 19 -267 65z" />
    <glyph glyph-name="T" unicode="T" horiz-adv-x="575" 
d="M364 0h-153v565h-181v135h515v-135h-181v-565z" />
    <glyph glyph-name="U" unicode="U" horiz-adv-x="692" 
d="M636 700v-350c0 -247 -82 -362 -289 -362c-210 0 -291 115 -291 362v350h153v-350c0 -150 30 -228 140 -228s136 78 136 228v350h151z" />
    <glyph glyph-name="V" unicode="V" horiz-adv-x="644" 
d="M401 0h-156l-232 691l166 18l150 -537l145 536l157 -17z" />
    <glyph glyph-name="W" unicode="W" horiz-adv-x="926" 
d="M571 0l-101 488l-98 -488h-174l-185 686l169 23l107 -534l103 515l150 19l114 -534l96 534l161 -16l-175 -693h-167z" />
    <glyph glyph-name="X" unicode="X" horiz-adv-x="652" 
d="M476 -22l-158 270l-126 -248h-179l216 365l-205 319l176 25l124 -239l119 230h173l-210 -335l233 -341z" />
    <glyph glyph-name="Y" unicode="Y" horiz-adv-x="650" 
d="M399 0h-153v256l-233 427l182 26l130 -317l136 308h176l-238 -444v-256z" />
    <glyph glyph-name="Z" unicode="Z" horiz-adv-x="584" 
d="M537 0h-475l-29 135l309 430h-295v135h460l24 -135l-309 -430h329z" />
    <glyph glyph-name="bracketleft" unicode="[" horiz-adv-x="342" 
d="M296 -140h-236v858h236v-117h-103v-624h103v-117z" />
    <glyph glyph-name="backslash" unicode="\" horiz-adv-x="364" 
d="M334 14l-130 -28l-174 700l130 28z" />
    <glyph glyph-name="bracketright" unicode="]" horiz-adv-x="342" 
d="M282 -140h-236v117h103v624h-103v117h236v-858z" />
    <glyph glyph-name="asciicircum" unicode="^" horiz-adv-x="500" 
d="M470 394l-118 -42l-101 241l-102 -240l-119 40l164 325h112z" />
    <glyph glyph-name="underscore" unicode="_" horiz-adv-x="500" 
d="M502 -154h-504v79h504v-79z" />
    <glyph glyph-name="grave" unicode="`" horiz-adv-x="275" 
d="M247 592l-106 -10l-113 175l153 9z" />
    <glyph glyph-name="a" unicode="a" horiz-adv-x="561" 
d="M359 171v57c-126 -7 -171 -29 -171 -72c0 -39 19 -55 76 -55c50 0 75 27 95 70zM519 17l-114 -28c-10 25 -19 52 -25 78c-29 -49 -74 -79 -153 -79c-133 0 -185 64 -185 163c0 103 62 158 317 173c-4 76 -42 95 -100 95c-50 0 -100 -13 -146 -36l-44 107
c63 36 134 50 213 50c139 0 223 -82 223 -208v-130c0 -61 1 -125 14 -185z" />
    <glyph glyph-name="b" unicode="b" horiz-adv-x="578" 
d="M60 20v680l146 18v-250c26 51 73 72 144 72c115 0 186 -73 186 -276c0 -208 -93 -276 -243 -276c-83 0 -159 9 -233 32zM206 115c26 -8 53 -11 76 -11c77 0 107 39 107 160c0 98 -14 158 -89 158c-46 0 -72 -23 -94 -63v-244z" />
    <glyph glyph-name="c" unicode="c" horiz-adv-x="463" 
d="M447 24c-45 -27 -97 -36 -155 -36c-179 0 -250 88 -250 276s71 276 250 276c58 0 110 -9 155 -36l-47 -107c-32 16 -69 24 -108 24c-88 0 -103 -58 -103 -157s15 -157 103 -157c39 0 76 8 108 24z" />
    <glyph glyph-name="d" unicode="d" horiz-adv-x="582" 
d="M372 169v237c-28 13 -54 18 -79 18c-74 0 -104 -41 -104 -160c0 -98 14 -158 89 -158c46 0 72 23 94 63zM532 17l-114 -28c-10 25 -19 52 -25 78c-29 -49 -76 -79 -152 -79c-130 0 -199 73 -199 276c0 224 115 276 225 276c41 0 82 -5 111 -32c-6 29 -6 63 -6 100v92
l146 18v-516c0 -61 1 -125 14 -185z" />
    <glyph glyph-name="e" unicode="e" horiz-adv-x="545" 
d="M492 46c-57 -39 -120 -58 -197 -58c-161 0 -253 68 -253 274c0 213 94 278 238 278c142 0 227 -54 227 -312l-314 -33c9 -64 39 -89 100 -89c55 0 104 11 155 41zM187 287l178 28c-2 78 -31 108 -85 108c-61 0 -93 -38 -93 -121v-15z" />
    <glyph glyph-name="f" unicode="f" horiz-adv-x="373" 
d="M248 0h-146v403h-77v108h75c-3 18 -4 35 -4 51c0 104 57 168 174 168c23 0 48 -2 76 -7l-12 -110c-15 2 -27 3 -38 3c-43 0 -61 -14 -61 -54c0 -14 2 -31 6 -51h116l-13 -108h-96v-403z" />
    <glyph glyph-name="g" unicode="g" horiz-adv-x="571" 
d="M141 -25c34 -13 75 -19 113 -19c69 0 114 25 114 128v29c-30 -55 -70 -78 -145 -78c-114 0 -185 71 -185 253c0 187 88 252 247 252c83 0 155 -9 229 -32v-420c0 -163 -98 -254 -253 -254c-47 0 -99 8 -149 28zM368 209v203c-28 10 -57 12 -84 12c-65 0 -99 -35 -99 -138
c0 -84 14 -136 89 -136c46 0 71 22 94 59z" />
    <glyph glyph-name="h" unicode="h" horiz-adv-x="580" 
d="M525 0h-146v291c0 90 -18 130 -75 130c-52 0 -75 -21 -98 -62v-359h-146v700l146 18v-251c27 52 72 73 145 73c154 0 174 -121 174 -229v-311z" />
    <glyph glyph-name="i" unicode="i" horiz-adv-x="276" 
d="M224 0h-137c-19 49 -22 113 -22 181v330l146 17v-357c0 -54 1 -124 13 -171zM138 588c-54 0 -86 21 -86 74c0 52 32 74 86 74s86 -22 86 -74c0 -53 -32 -74 -86 -74z" />
    <glyph glyph-name="j" unicode="j" horiz-adv-x="284" 
d="M72 -173l-72 89c54 40 73 80 73 158v437l146 17v-448c0 -111 -35 -196 -147 -253zM146 588c-54 0 -86 21 -86 74c0 52 32 74 86 74s86 -22 86 -74c0 -53 -32 -74 -86 -74z" />
    <glyph glyph-name="k" unicode="k" horiz-adv-x="540" 
d="M375 -12l-169 279v-267h-146v700l146 18v-421l143 231l163 -16l-164 -226l185 -264z" />
    <glyph glyph-name="l" unicode="l" horiz-adv-x="276" 
d="M224 0h-137c-19 49 -22 113 -22 181v520l146 17v-547c0 -54 1 -124 13 -171z" />
    <glyph glyph-name="m" unicode="m" horiz-adv-x="883" 
d="M828 0h-146v291c0 90 -17 130 -72 130c-50 0 -72 -21 -94 -62v-359h-146v343c0 47 -24 78 -72 78c-50 0 -72 -21 -94 -62v-359h-146v326c0 61 -1 125 -14 185l114 28c10 -25 19 -52 25 -78c28 49 72 79 151 79c89 0 136 -35 159 -83c28 53 74 83 153 83
c168 0 182 -121 182 -229v-311z" />
    <glyph glyph-name="n" unicode="n" horiz-adv-x="578" 
d="M523 0h-146v291c0 90 -18 130 -75 130c-52 0 -75 -21 -98 -62v-359h-146v326c0 61 -1 125 -14 185l114 28c10 -25 19 -52 25 -78c29 49 74 79 154 79c172 0 186 -121 186 -229v-311z" />
    <glyph glyph-name="o" unicode="o" horiz-adv-x="584" 
d="M292 105c88 0 103 60 103 159s-15 159 -103 159s-103 -60 -103 -159s15 -159 103 -159zM292 -12c-179 0 -250 88 -250 276s71 276 250 276s250 -88 250 -276s-71 -276 -250 -276z" />
    <glyph glyph-name="p" unicode="p" horiz-adv-x="576" 
d="M204 122c28 -13 54 -18 79 -18c74 0 104 41 104 160c0 98 -14 158 -89 158c-46 0 -72 -23 -94 -63v-237zM204 -154h-146v480c0 61 -1 125 -14 185l114 28c10 -25 19 -52 25 -78c29 49 76 79 152 79c130 0 199 -73 199 -276c0 -224 -115 -276 -225 -276
c-41 0 -82 5 -111 32c6 -29 6 -63 6 -100v-74z" />
    <glyph glyph-name="q" unicode="q" horiz-adv-x="579" 
d="M518 -136l-146 -18v214c-26 -51 -73 -72 -144 -72c-115 0 -186 73 -186 276c0 208 93 276 243 276c83 0 159 -9 233 -32v-644zM372 169v244c-26 8 -53 11 -76 11c-77 0 -107 -39 -107 -160c0 -98 14 -158 89 -158c46 0 72 23 94 63z" />
    <glyph glyph-name="r" unicode="r" horiz-adv-x="376" 
d="M204 0h-146v326c0 61 -1 125 -14 185l114 28c12 -29 23 -62 31 -93c27 49 71 86 153 94l19 -152h-15c-72 0 -113 -22 -142 -78v-310z" />
    <glyph glyph-name="s" unicode="s" horiz-adv-x="472" 
d="M68 142c55 -26 113 -41 165 -41c42 0 71 11 71 44c0 34 -39 45 -89 60c-79 23 -174 52 -174 172c0 101 82 163 193 163c70 0 132 -8 192 -44l-40 -103c-43 20 -86 30 -138 30c-37 0 -67 -11 -67 -44s37 -44 93 -60c82 -23 172 -53 172 -166c0 -112 -77 -165 -199 -165
c-91 0 -160 16 -217 50z" />
    <glyph glyph-name="t" unicode="t" horiz-adv-x="370" 
d="M310 46l-98 -68c-98 55 -112 164 -112 264v178h-77v108h77v150l146 18v-168h109l-13 -108h-96v-181c0 -80 15 -139 64 -193z" />
    <glyph glyph-name="u" unicode="u" horiz-adv-x="578" 
d="M534 17l-114 -28c-10 25 -19 52 -25 78c-29 -49 -74 -79 -154 -79c-172 0 -186 121 -186 229v294l146 17v-291c0 -90 18 -130 75 -130c52 0 75 21 98 62v342l146 17v-326c0 -61 1 -125 14 -185z" />
    <glyph glyph-name="v" unicode="v" horiz-adv-x="536" 
d="M351 0h-164l-175 514l158 22l104 -414l106 414l144 -14z" />
    <glyph glyph-name="w" unicode="w" horiz-adv-x="827" 
d="M670 0h-168l-84 361l-79 -361h-176l-151 515l154 22l96 -414l89 400l133 14l96 -414l89 414l146 -14z" />
    <glyph glyph-name="x" unicode="x" horiz-adv-x="542" 
d="M383 -19l-118 194l-98 -175h-157l169 270l-169 246l169 23l91 -173l80 162h162l-159 -249l179 -240z" />
    <glyph glyph-name="y" unicode="y" horiz-adv-x="532" 
d="M129 -172l-59 95c53 20 91 47 111 90l-171 501l158 22l104 -414l106 414l144 -14l-149 -448c-36 -109 -104 -204 -244 -246z" />
    <glyph glyph-name="z" unicode="z" horiz-adv-x="519" 
d="M471 0h-410l-27 117l247 294h-232v117h398l24 -117l-247 -294h261z" />
    <glyph glyph-name="braceleft" unicode="{" horiz-adv-x="389" 
d="M349 -152h-19c-109 0 -201 41 -201 147c0 166 0 225 -90 233l-9 121c98 10 99 63 99 234c0 105 90 147 198 147h22v-122c-67 0 -87 -15 -87 -90c0 -128 -15 -208 -94 -229c79 -21 94 -101 94 -229c0 -75 20 -90 87 -90v-122z" />
    <glyph glyph-name="bar" unicode="|" horiz-adv-x="320" 
d="M225 -140h-130v934h130v-934z" />
    <glyph glyph-name="braceright" unicode="}" horiz-adv-x="389" 
d="M40 -152v122c67 0 87 15 87 90c0 128 15 208 94 229c-79 21 -94 101 -94 229c0 75 -20 90 -87 90v122h19c109 0 201 -41 201 -147c0 -171 1 -224 99 -234l-9 -121c-90 -8 -90 -67 -90 -233c0 -106 -92 -147 -201 -147h-19z" />
    <glyph glyph-name="asciitilde" unicode="~" horiz-adv-x="548" 
d="M490 303c-53 -59 -101 -80 -144 -80c-57 0 -96 44 -148 44c-30 0 -61 -11 -93 -41l-47 78c53 59 101 80 144 80c57 0 96 -44 148 -44c29 0 61 11 93 41z" />
    <glyph glyph-name="uni00A0" unicode="&#xa0;" horiz-adv-x="207" 
 />
    <glyph glyph-name="exclamdown" unicode="&#xa1;" horiz-adv-x="308" 
d="M241 -161l-167 -16c6 177 10 338 19 490h126zM156 373c-58 0 -88 28 -88 83s30 84 88 84c57 0 88 -29 88 -84s-31 -83 -88 -83z" />
    <glyph glyph-name="cent" unicode="&#xa2;" horiz-adv-x="463" 
d="M316 -111h-115v109c-113 27 -159 113 -159 266c0 152 46 239 159 266v109h115v-100c48 -2 92 -12 131 -35l-47 -107c-32 16 -69 24 -108 24c-88 0 -103 -58 -103 -157s15 -157 103 -157c39 0 76 8 108 24l47 -107c-39 -23 -83 -33 -131 -35v-100z" />
    <glyph glyph-name="sterling" unicode="&#xa3;" horiz-adv-x="591" 
d="M544 0h-452l-23 135c45 43 53 83 53 140v24h-84v105h74c-7 41 -11 80 -11 116c0 131 96 192 224 192c79 0 155 -13 216 -59l-60 -110c-40 24 -86 33 -131 33c-83 0 -111 -30 -111 -95c0 -24 2 -50 6 -77h165v-105h-158c1 -9 1 -16 1 -22c0 -51 -12 -101 -46 -142h337
v-135z" />
    <glyph glyph-name="currency" unicode="&#xa4;" horiz-adv-x="655" 
d="M327 130c-35 0 -69 4 -95 17l-72 -72l-73 73l73 73c-13 26 -22 60 -22 94c0 35 10 69 23 95l-73 73l72 72l75 -75c26 13 57 20 92 20s66 -7 92 -20l75 75l73 -73l-72 -72c13 -26 21 -61 21 -95c0 -36 -8 -68 -21 -95l72 -72l-73 -73l-75 75c-26 -13 -57 -20 -92 -20z
M327 222c56 0 83 31 83 93s-27 93 -83 93s-83 -31 -83 -93s27 -93 83 -93z" />
    <glyph glyph-name="yen" unicode="&#xa5;" horiz-adv-x="650" 
d="M399 0h-153v138h-126v72h126v50h-126v72h86l-193 351l182 26l130 -317l136 308h176l-199 -368h87v-72h-126v-50h126v-72h-126v-138z" />
    <glyph glyph-name="brokenbar" unicode="&#xa6;" horiz-adv-x="320" 
d="M225 381h-130v413h130v-413zM225 -140h-130v413h130v-413z" />
    <glyph glyph-name="section" unicode="&#xa7;" horiz-adv-x="591" 
d="M379 193c22 10 39 32 39 62c0 72 -135 79 -207 113c-22 -10 -38 -32 -38 -61c0 -73 134 -80 206 -114zM289 -38c49 0 86 12 86 54c0 100 -340 57 -340 272c0 66 28 116 77 147c-28 26 -40 64 -40 101c0 125 109 176 229 176c83 0 154 -14 213 -51l-43 -103
c-53 29 -107 40 -170 40c-48 0 -85 -11 -85 -54c0 -97 340 -57 340 -272c0 -66 -29 -116 -78 -147c29 -27 40 -64 40 -101c0 -125 -108 -176 -229 -176c-83 0 -154 14 -213 51l43 103c53 -29 107 -40 170 -40z" />
    <glyph glyph-name="dieresis" unicode="&#xa8;" horiz-adv-x="478" 
d="M125 592c-50 0 -80 20 -80 70c0 51 30 72 80 72c49 0 79 -21 79 -72c0 -50 -30 -70 -79 -70zM354 592c-50 0 -79 20 -79 70c0 51 29 72 79 72s79 -21 79 -72c0 -50 -29 -70 -79 -70z" />
    <glyph glyph-name="copyright" unicode="&#xa9;" horiz-adv-x="803" 
d="M401 63c185 0 275 88 275 287s-90 287 -275 287c-184 0 -274 -88 -274 -287s90 -287 274 -287zM401 -12c-231 0 -355 127 -355 362s123 362 355 362c233 0 356 -127 356 -362s-123 -362 -356 -362zM539 159c-41 -27 -81 -35 -125 -35c-135 0 -188 72 -188 226
s53 226 188 226c44 0 84 -8 125 -35l-30 -72c-32 17 -62 22 -96 22c-80 0 -95 -53 -95 -141s15 -141 95 -141c34 0 64 5 96 22z" />
    <glyph glyph-name="ordfeminine" unicode="&#xaa;" horiz-adv-x="374" 
d="M329 290h-274v67h274v-67zM230 497v32c-73 -3 -96 -16 -96 -41c0 -23 13 -32 41 -32c29 0 43 16 55 41zM327 407l-70 -16c-6 14 -11 30 -14 45c-17 -28 -44 -46 -90 -46c-77 0 -108 37 -108 95c0 59 39 93 185 101c-2 44 -26 55 -58 55c-29 0 -59 -8 -85 -21l-25 63
c36 21 77 29 123 29c82 0 134 -48 134 -121v-76c0 -36 1 -74 8 -108z" />
    <glyph glyph-name="guillemotleft" unicode="&#xab;" horiz-adv-x="678" 
d="M278 77l-232 168v116l232 168l57 -124l-173 -102l173 -102zM576 77l-232 168v116l232 168l57 -124l-173 -102l173 -102z" />
    <glyph glyph-name="logicalnot" unicode="&#xac;" 
d="M584 89h-140v144h-349v139h489v-283z" />
    <glyph glyph-name="uni00AD" unicode="&#xad;" horiz-adv-x="439" 
d="M381 233h-323v139h323v-139z" />
    <glyph glyph-name="registered" unicode="&#xae;" horiz-adv-x="803" 
d="M586 157l-87 -32l-82 152h-80v-140h-90v423c45 11 97 18 142 18c102 0 188 -36 188 -156c0 -68 -31 -108 -77 -128zM337 348h69c45 0 79 18 79 74c0 59 -41 76 -91 76c-18 0 -39 -2 -57 -7v-143zM401 63c185 0 275 88 275 287s-90 287 -275 287
c-184 0 -274 -88 -274 -287s90 -287 274 -287zM401 -12c-231 0 -355 127 -355 362s123 362 355 362c233 0 356 -127 356 -362s-123 -362 -356 -362z" />
    <glyph glyph-name="macron" unicode="&#xaf;" horiz-adv-x="456" 
d="M414 586h-374v117h374v-117z" />
    <glyph glyph-name="degree" unicode="&#xb0;" horiz-adv-x="382" 
d="M187 519c42 0 63 24 63 69s-21 70 -63 70s-63 -25 -63 -70s21 -69 63 -69zM187 446c-96 0 -147 50 -147 142c0 91 51 142 147 142c97 0 147 -51 147 -142c0 -92 -50 -142 -147 -142z" />
    <glyph glyph-name="plusminus" unicode="&#xb1;" 
d="M408 195h-137v150h-176v128h176v150h137v-150h176v-128h-176v-150zM584 0h-489v128h489v-128z" />
    <glyph glyph-name="twosuperior" unicode="&#xb2;" horiz-adv-x="375" 
d="M321 305h-257l-16 83c86 58 172 126 172 182c0 38 -16 54 -52 54c-32 0 -65 -9 -96 -25l-30 71c40 28 91 37 149 37c78 0 131 -39 131 -116c0 -81 -55 -139 -152 -203h151v-83z" />
    <glyph glyph-name="threesuperior" unicode="&#xb3;" horiz-adv-x="381" 
d="M73 409c32 -17 68 -28 111 -28c35 0 60 13 60 52c0 32 -26 46 -64 46c-13 0 -30 -1 -53 -5l-18 71l105 72h-155v83h250l17 -83l-121 -81c98 0 133 -52 133 -113c0 -80 -52 -125 -150 -125c-60 0 -107 14 -146 40z" />
    <glyph glyph-name="acute" unicode="&#xb4;" horiz-adv-x="275" 
d="M133 582l-105 10l66 174l153 -9z" />
    <glyph glyph-name="mu" unicode="&#xb5;" horiz-adv-x="583" 
d="M534 17l-114 -28c-10 25 -19 52 -25 78c-24 -48 -83 -79 -137 -79c-20 0 -46 3 -63 14c5 -27 6 -55 6 -82v-74h-146v665l146 17v-291c0 -90 18 -130 75 -130c52 0 75 21 98 62v342l146 17v-326c0 -61 1 -125 14 -185z" />
    <glyph glyph-name="paragraph" unicode="&#xb6;" horiz-adv-x="595" 
d="M525 0h-120v595c-17 5 -41 6 -57 6v-601h-120v287c-131 0 -200 97 -200 206c0 125 90 219 285 219c61 0 132 -6 212 -25v-687z" />
    <glyph glyph-name="periodcentered" unicode="&#xb7;" horiz-adv-x="291" 
d="M146 248c-58 0 -89 31 -89 89s31 89 89 89s88 -31 88 -89s-30 -89 -88 -89z" />
    <glyph glyph-name="cedilla" unicode="&#xb8;" horiz-adv-x="278" 
d="M40 -182l19 69c18 -7 38 -11 54 -11c20 0 33 5 33 20s-10 29 -64 33l17 71h89l-7 -35c42 -8 57 -40 57 -78c0 -60 -53 -84 -110 -84c-31 0 -63 5 -88 15z" />
    <glyph glyph-name="onesuperior" unicode="&#xb9;" horiz-adv-x="230" 
d="M161 305h-93v383l93 12v-395z" />
    <glyph glyph-name="ordmasculine" unicode="&#xba;" horiz-adv-x="383" 
d="M192 461c49 0 57 34 57 90s-8 90 -57 90s-58 -34 -58 -90s9 -90 58 -90zM329 290h-274v67h274v-67zM191 390c-104 0 -146 51 -146 161s42 161 146 161s147 -51 147 -161s-43 -161 -147 -161z" />
    <glyph glyph-name="guillemotright" unicode="&#xbb;" horiz-adv-x="678" 
d="M102 77l-56 124l173 102l-173 102l56 124l233 -168v-116zM399 77l-56 124l173 102l-173 102l56 124l233 -168v-116z" />
    <glyph glyph-name="onequarter" unicode="&#xbc;" horiz-adv-x="745" 
d="M161 305h-93v383l93 12v-395zM480 685l-296 -698l-69 26l296 698zM662 0h-93v89h-162l-22 74c40 69 51 150 52 236l99 -8c-7 -89 -27 -167 -60 -228h93v126l93 11v-137h41v-74h-41v-89z" />
    <glyph glyph-name="onehalf" unicode="&#xbd;" horiz-adv-x="747" 
d="M161 305h-93v383l93 12v-395zM480 685l-296 -698l-69 26l296 698zM693 0h-257l-16 83c86 58 172 126 172 182c0 38 -16 54 -52 54c-32 0 -65 -9 -96 -25l-30 71c40 28 91 37 149 37c78 0 131 -39 131 -116c0 -81 -55 -139 -152 -203h151v-83z" />
    <glyph glyph-name="threequarters" unicode="&#xbe;" horiz-adv-x="879" 
d="M796 0h-93v89h-162l-22 74c40 69 51 150 52 236l99 -8c-7 -89 -27 -167 -60 -228h93v126l93 11v-137h41v-74h-41v-89zM73 409c32 -17 68 -28 111 -28c35 0 60 13 60 52c0 32 -26 46 -64 46c-13 0 -30 -1 -53 -5l-18 71l105 72h-155v83h250l17 -83l-121 -81
c98 0 133 -52 133 -113c0 -80 -52 -125 -150 -125c-60 0 -107 14 -146 40zM615 685l-296 -698l-69 26l296 698z" />
    <glyph glyph-name="questiondown" unicode="&#xbf;" horiz-adv-x="431" 
d="M387 -177c-17 -3 -36 -4 -52 -4c-204 0 -301 97 -301 221c0 93 43 158 158 176l5 97h125l10 -173c-96 -12 -138 -34 -138 -101c0 -80 73 -97 208 -97zM260 373c-58 0 -88 28 -88 83s30 84 88 84c57 0 88 -29 88 -84s-31 -83 -88 -83z" />
    <glyph glyph-name="Agrave" unicode="&#xc0;" horiz-adv-x="647" 
d="M468 -9l-39 140h-219l-35 -131h-162l230 691l157 18l234 -700zM397 245l-79 283l-77 -283h156zM396 759l-106 -10l-113 175l153 9z" />
    <glyph glyph-name="Aacute" unicode="&#xc1;" horiz-adv-x="647" 
d="M468 -9l-39 140h-219l-35 -131h-162l230 691l157 18l234 -700zM397 245l-79 283l-77 -283h156zM355 749l-105 10l66 174l153 -9z" />
    <glyph glyph-name="Acircumflex" unicode="&#xc2;" horiz-adv-x="647" 
d="M468 -9l-39 140h-219l-35 -131h-162l230 691l157 18l234 -700zM397 245l-79 283l-77 -283h156zM446 746l-127 81l-128 -81l-66 63l142 122h103l142 -122z" />
    <glyph glyph-name="Atilde" unicode="&#xc3;" horiz-adv-x="647" 
d="M468 -9l-39 140h-219l-35 -131h-162l230 691l157 18l234 -700zM397 245l-79 283l-77 -283h156zM534 829c-53 -59 -101 -80 -144 -80c-57 0 -96 44 -148 44c-30 0 -61 -11 -93 -41l-47 78c53 59 101 80 144 80c57 0 96 -44 148 -44c29 0 61 11 93 41z" />
    <glyph glyph-name="Adieresis" unicode="&#xc4;" horiz-adv-x="647" 
d="M468 -9l-39 140h-219l-35 -131h-162l230 691l157 18l234 -700zM397 245l-79 283l-77 -283h156zM204 750c-50 0 -80 20 -80 70c0 51 30 72 80 72c49 0 79 -21 79 -72c0 -50 -30 -70 -79 -70zM433 750c-50 0 -79 20 -79 70c0 51 29 72 79 72s79 -21 79 -72
c0 -50 -29 -70 -79 -70z" />
    <glyph glyph-name="Aring" unicode="&#xc5;" horiz-adv-x="647" 
d="M634 9l-166 -18l-39 140h-219l-35 -131h-162l217 653c-35 20 -53 55 -53 104c0 78 48 122 141 122s141 -44 141 -122c0 -44 -15 -76 -43 -97zM397 245l-79 283l-77 -283h156zM318 700c34 0 51 20 51 57s-17 57 -51 57s-51 -20 -51 -57s17 -57 51 -57z" />
    <glyph glyph-name="AE" unicode="&#xc6;" horiz-adv-x="958" 
d="M913 0h-453v131h-205l-67 -131h-178l387 700h516v-135h-300v-137h243l-11 -121h-232v-172h300v-135zM460 245v293l-152 -293h152z" />
    <glyph glyph-name="Ccedilla" unicode="&#xc7;" horiz-adv-x="583" 
d="M217 -182l19 69c18 -7 38 -11 54 -11c20 0 33 5 33 20s-10 29 -64 33l15 65c-162 24 -227 139 -227 356c0 247 85 362 301 362c70 0 134 -9 204 -51l-52 -119c-51 26 -98 35 -150 35c-126 0 -149 -85 -149 -227s23 -227 149 -227c52 0 99 9 150 35l52 -119
c-65 -39 -125 -49 -190 -51l-4 -23c42 -8 57 -40 57 -78c0 -60 -53 -84 -110 -84c-31 0 -63 5 -88 15z" />
    <glyph glyph-name="Egrave" unicode="&#xc8;" horiz-adv-x="558" 
d="M513 0h-453v700h453v-135h-300v-137h243l-11 -121h-232v-172h300v-135zM359 759l-106 -10l-113 175l153 9z" />
    <glyph glyph-name="Eacute" unicode="&#xc9;" horiz-adv-x="558" 
d="M513 0h-453v700h453v-135h-300v-137h243l-11 -121h-232v-172h300v-135zM309 749l-105 10l66 174l153 -9z" />
    <glyph glyph-name="Ecircumflex" unicode="&#xca;" horiz-adv-x="558" 
d="M513 0h-453v700h453v-135h-300v-137h243l-11 -121h-232v-172h300v-135zM412 746l-127 81l-128 -81l-66 63l142 122h103l142 -122z" />
    <glyph glyph-name="Edieresis" unicode="&#xcb;" horiz-adv-x="558" 
d="M513 0h-453v700h453v-135h-300v-137h243l-11 -121h-232v-172h300v-135zM174 751c-50 0 -80 20 -80 70c0 51 30 72 80 72c49 0 79 -21 79 -72c0 -50 -30 -70 -79 -70zM403 751c-50 0 -79 20 -79 70c0 51 29 72 79 72s79 -21 79 -72c0 -50 -29 -70 -79 -70z" />
    <glyph glyph-name="Igrave" unicode="&#xcc;" horiz-adv-x="273" 
d="M213 0h-153v700h153v-700zM203 759l-106 -10l-113 175l153 9z" />
    <glyph glyph-name="Iacute" unicode="&#xcd;" horiz-adv-x="273" 
d="M213 0h-153v700h153v-700zM163 749l-105 10l66 174l153 -9z" />
    <glyph glyph-name="Icircumflex" unicode="&#xce;" horiz-adv-x="273" 
d="M213 0h-153v700h153v-700zM265 746l-127 81l-128 -81l-66 63l142 122h103l142 -122z" />
    <glyph glyph-name="Idieresis" unicode="&#xcf;" horiz-adv-x="273" 
d="M213 0h-153v700h153v-700zM22 751c-50 0 -80 20 -80 70c0 51 30 72 80 72c49 0 79 -21 79 -72c0 -50 -30 -70 -79 -70zM251 751c-50 0 -79 20 -79 70c0 51 29 72 79 72s79 -21 79 -72c0 -50 -29 -70 -79 -70z" />
    <glyph glyph-name="Eth" unicode="&#xd0;" horiz-adv-x="719" 
d="M99 0v282h-66v135h66v266c86 17 171 29 249 29c184 0 324 -74 324 -362c0 -258 -94 -350 -311 -350h-262zM252 134c206 0 266 2 266 216c0 185 -59 228 -155 228c-33 0 -70 -5 -111 -11v-150h99v-135h-99v-148z" />
    <glyph glyph-name="Ntilde" unicode="&#xd1;" horiz-adv-x="694" 
d="M634 0h-169l-173 316c-34 62 -70 121 -96 189c10 -98 10 -204 10 -298v-207h-146v682l176 27l153 -283c44 -82 82 -150 117 -226c-13 91 -18 190 -18 317v183h146v-700zM571 830c-53 -59 -101 -80 -144 -80c-57 0 -96 44 -148 44c-30 0 -61 -11 -93 -41l-47 78
c53 59 101 80 144 80c57 0 96 -44 148 -44c29 0 61 11 93 41z" />
    <glyph glyph-name="Ograve" unicode="&#xd2;" horiz-adv-x="696" 
d="M348 -12c-216 0 -301 115 -301 362s85 362 301 362s301 -115 301 -362s-85 -362 -301 -362zM350 122c122 0 145 86 145 228s-23 228 -145 228c-126 0 -149 -86 -149 -228s23 -228 149 -228zM410 759l-106 -10l-113 175l153 9z" />
    <glyph glyph-name="Oacute" unicode="&#xd3;" horiz-adv-x="696" 
d="M348 -12c-216 0 -301 115 -301 362s85 362 301 362s301 -115 301 -362s-85 -362 -301 -362zM350 122c122 0 145 86 145 228s-23 228 -145 228c-126 0 -149 -86 -149 -228s23 -228 149 -228zM379 749l-105 10l66 174l153 -9z" />
    <glyph glyph-name="Ocircumflex" unicode="&#xd4;" horiz-adv-x="696" 
d="M348 -12c-216 0 -301 115 -301 362s85 362 301 362s301 -115 301 -362s-85 -362 -301 -362zM350 122c122 0 145 86 145 228s-23 228 -145 228c-126 0 -149 -86 -149 -228s23 -228 149 -228zM475 746l-127 81l-128 -81l-66 63l142 122h103l142 -122z" />
    <glyph glyph-name="Otilde" unicode="&#xd5;" horiz-adv-x="696" 
d="M348 -12c-216 0 -301 115 -301 362s85 362 301 362s301 -115 301 -362s-85 -362 -301 -362zM350 122c122 0 145 86 145 228s-23 228 -145 228c-126 0 -149 -86 -149 -228s23 -228 149 -228zM564 829c-53 -59 -101 -80 -144 -80c-57 0 -96 44 -148 44
c-30 0 -61 -11 -93 -41l-47 78c53 59 101 80 144 80c57 0 96 -44 148 -44c29 0 61 11 93 41z" />
    <glyph glyph-name="Odieresis" unicode="&#xd6;" horiz-adv-x="696" 
d="M348 -12c-216 0 -301 115 -301 362s85 362 301 362s301 -115 301 -362s-85 -362 -301 -362zM350 122c122 0 145 86 145 228s-23 228 -145 228c-126 0 -149 -86 -149 -228s23 -228 149 -228zM233 751c-50 0 -80 20 -80 70c0 51 30 72 80 72c49 0 79 -21 79 -72
c0 -50 -30 -70 -79 -70zM462 751c-50 0 -79 20 -79 70c0 51 29 72 79 72s79 -21 79 -72c0 -50 -29 -70 -79 -70z" />
    <glyph glyph-name="multiply" unicode="&#xd7;" 
d="M592 455l-153 -153l153 -153l-99 -99l-153 153l-153 -153l-99 99l153 153l-153 153l99 99l153 -153l153 153z" />
    <glyph glyph-name="Oslash" unicode="&#xd8;" horiz-adv-x="696" 
d="M245 -85h-158l58 132c-69 58 -98 157 -98 303c0 247 85 362 301 362c32 0 61 -3 87 -8l32 71h159l-61 -136c58 -59 84 -154 84 -289c0 -247 -85 -362 -301 -362c-25 0 -48 2 -69 5zM350 122c122 0 145 86 145 228s-23 228 -145 228c-126 0 -149 -86 -149 -228
s23 -228 149 -228z" />
    <glyph glyph-name="Ugrave" unicode="&#xd9;" horiz-adv-x="692" 
d="M636 700v-350c0 -247 -82 -362 -289 -362c-210 0 -291 115 -291 362v350h153v-350c0 -150 30 -228 140 -228s136 78 136 228v350h151zM418 759l-106 -10l-113 175l153 9z" />
    <glyph glyph-name="Uacute" unicode="&#xda;" horiz-adv-x="692" 
d="M636 700v-350c0 -247 -82 -362 -289 -362c-210 0 -291 115 -291 362v350h153v-350c0 -150 30 -228 140 -228s136 78 136 228v350h151zM389 749l-105 10l66 174l153 -9z" />
    <glyph glyph-name="Ucircumflex" unicode="&#xdb;" horiz-adv-x="692" 
d="M636 700v-350c0 -247 -82 -362 -289 -362c-210 0 -291 115 -291 362v350h153v-350c0 -150 30 -228 140 -228s136 78 136 228v350h151zM475 742l-127 81l-128 -81l-66 63l142 122h103l142 -122z" />
    <glyph glyph-name="Udieresis" unicode="&#xdc;" horiz-adv-x="692" 
d="M636 700v-350c0 -247 -82 -362 -289 -362c-210 0 -291 115 -291 362v350h153v-350c0 -150 30 -228 140 -228s136 78 136 228v350h151zM233 751c-50 0 -80 20 -80 70c0 51 30 72 80 72c49 0 79 -21 79 -72c0 -50 -30 -70 -79 -70zM462 751c-50 0 -79 20 -79 70
c0 51 29 72 79 72s79 -21 79 -72c0 -50 -29 -70 -79 -70z" />
    <glyph glyph-name="Yacute" unicode="&#xdd;" horiz-adv-x="650" 
d="M399 0h-153v256l-233 427l182 26l130 -317l136 308h176l-238 -444v-256zM369 749l-105 10l66 174l153 -9z" />
    <glyph glyph-name="Thorn" unicode="&#xde;" horiz-adv-x="607" 
d="M213 0h-153v700h153v-113c37 8 75 13 112 13c143 0 266 -70 266 -250c0 -170 -118 -240 -284 -240c-31 0 -62 2 -94 6v-116zM213 234c28 -3 55 -5 79 -5c83 0 145 24 145 117c0 95 -59 122 -132 122c-31 0 -62 -6 -92 -13v-221z" />
    <glyph glyph-name="germandbls" unicode="&#xdf;" horiz-adv-x="649" 
d="M250 23l33 111c28 -13 60 -22 88 -22c66 0 101 20 101 87c0 78 -65 96 -143 96h-25v112c76 6 108 23 108 94c0 69 -26 105 -102 105c-87 0 -104 -60 -104 -158v-448h-146v448c0 188 71 276 250 276c181 0 242 -97 242 -195c0 -90 -29 -146 -115 -166
c131 -9 184 -70 184 -178c0 -130 -78 -197 -208 -197c-55 0 -114 8 -163 35z" />
    <glyph glyph-name="agrave" unicode="&#xe0;" horiz-adv-x="561" 
d="M359 171v57c-126 -7 -171 -29 -171 -72c0 -39 19 -55 76 -55c50 0 75 27 95 70zM519 17l-114 -28c-10 25 -19 52 -25 78c-29 -49 -74 -79 -153 -79c-133 0 -185 64 -185 163c0 103 62 158 317 173c-4 76 -42 95 -100 95c-50 0 -100 -13 -146 -36l-44 107
c63 36 134 50 213 50c139 0 223 -82 223 -208v-130c0 -61 1 -125 14 -185zM359 592l-106 -10l-113 175l153 9z" />
    <glyph glyph-name="aacute" unicode="&#xe1;" horiz-adv-x="561" 
d="M359 171v57c-126 -7 -171 -29 -171 -72c0 -39 19 -55 76 -55c50 0 75 27 95 70zM519 17l-114 -28c-10 25 -19 52 -25 78c-29 -49 -74 -79 -153 -79c-133 0 -185 64 -185 163c0 103 62 158 317 173c-4 76 -42 95 -100 95c-50 0 -100 -13 -146 -36l-44 107
c63 36 134 50 213 50c139 0 223 -82 223 -208v-130c0 -61 1 -125 14 -185zM316 582l-105 10l66 174l153 -9z" />
    <glyph glyph-name="acircumflex" unicode="&#xe2;" horiz-adv-x="561" 
d="M359 171v57c-126 -7 -171 -29 -171 -72c0 -39 19 -55 76 -55c50 0 75 27 95 70zM519 17l-114 -28c-10 25 -19 52 -25 78c-29 -49 -74 -79 -153 -79c-133 0 -185 64 -185 163c0 103 62 158 317 173c-4 76 -42 95 -100 95c-50 0 -100 -13 -146 -36l-44 107
c63 36 134 50 213 50c139 0 223 -82 223 -208v-130c0 -61 1 -125 14 -185zM411 579l-127 81l-128 -81l-66 63l142 122h103l142 -122z" />
    <glyph glyph-name="atilde" unicode="&#xe3;" horiz-adv-x="561" 
d="M359 171v57c-126 -7 -171 -29 -171 -72c0 -39 19 -55 76 -55c50 0 75 27 95 70zM519 17l-114 -28c-10 25 -19 52 -25 78c-29 -49 -74 -79 -153 -79c-133 0 -185 64 -185 163c0 103 62 158 317 173c-4 76 -42 95 -100 95c-50 0 -100 -13 -146 -36l-44 107
c63 36 134 50 213 50c139 0 223 -82 223 -208v-130c0 -61 1 -125 14 -185zM496 662c-53 -59 -101 -80 -144 -80c-57 0 -96 44 -148 44c-30 0 -61 -11 -93 -41l-47 78c53 59 101 80 144 80c57 0 96 -44 148 -44c29 0 61 11 93 41z" />
    <glyph glyph-name="adieresis" unicode="&#xe4;" horiz-adv-x="561" 
d="M359 171v57c-126 -7 -171 -29 -171 -72c0 -39 19 -55 76 -55c50 0 75 27 95 70zM519 17l-114 -28c-10 25 -19 52 -25 78c-29 -49 -74 -79 -153 -79c-133 0 -185 64 -185 163c0 103 62 158 317 173c-4 76 -42 95 -100 95c-50 0 -100 -13 -146 -36l-44 107
c63 36 134 50 213 50c139 0 223 -82 223 -208v-130c0 -61 1 -125 14 -185zM169 592c-50 0 -80 20 -80 70c0 51 30 72 80 72c49 0 79 -21 79 -72c0 -50 -30 -70 -79 -70zM398 592c-50 0 -79 20 -79 70c0 51 29 72 79 72s79 -21 79 -72c0 -50 -29 -70 -79 -70z" />
    <glyph glyph-name="aring" unicode="&#xe5;" horiz-adv-x="561" 
d="M359 171v57c-126 -7 -171 -29 -171 -72c0 -39 19 -55 76 -55c50 0 75 27 95 70zM519 17l-114 -28c-10 25 -19 52 -25 78c-29 -49 -74 -79 -153 -79c-133 0 -185 64 -185 163c0 103 62 158 317 173c-4 76 -42 95 -100 95c-50 0 -100 -13 -146 -36l-44 107
c63 36 134 50 213 50c139 0 223 -82 223 -208v-130c0 -61 1 -125 14 -185zM282 580c-93 0 -141 43 -141 122c0 78 48 122 141 122s141 -44 141 -122c0 -79 -48 -122 -141 -122zM282 645c34 0 51 20 51 57s-17 57 -51 57s-51 -20 -51 -57s17 -57 51 -57z" />
    <glyph glyph-name="ae" unicode="&#xe6;" horiz-adv-x="862" 
d="M359 171v57c-126 -7 -171 -29 -171 -72c0 -39 19 -55 76 -55c50 0 75 27 95 70zM504 287l178 28c-2 78 -31 108 -85 108c-61 0 -93 -38 -93 -121v-15zM809 46c-57 -39 -120 -58 -197 -58c-102 0 -174 29 -214 94c-33 -55 -79 -94 -171 -94c-133 0 -185 64 -185 163
c0 103 62 158 317 173c-4 76 -42 95 -100 95c-50 0 -100 -13 -146 -36l-44 107c63 36 134 50 213 50c64 0 123 -26 151 -86c26 60 96 86 164 86c142 0 227 -54 227 -312l-314 -33c9 -64 39 -89 100 -89c55 0 104 11 155 41z" />
    <glyph glyph-name="ccedilla" unicode="&#xe7;" horiz-adv-x="463" 
d="M164 -182l19 69c18 -7 38 -11 54 -11c20 0 33 5 33 20s-10 29 -64 33l15 65c-127 21 -179 109 -179 270c0 188 71 276 250 276c58 0 110 -9 155 -36l-47 -107c-32 16 -69 24 -108 24c-88 0 -103 -58 -103 -157s15 -157 103 -157c39 0 76 8 108 24l47 -107
c-41 -24 -87 -34 -138 -36l-4 -23c43 -8 57 -40 57 -78c0 -60 -49 -84 -110 -84c-31 0 -63 5 -88 15z" />
    <glyph glyph-name="egrave" unicode="&#xe8;" horiz-adv-x="545" 
d="M492 46c-57 -39 -120 -58 -197 -58c-161 0 -253 68 -253 274c0 213 94 278 238 278c142 0 227 -54 227 -312l-314 -33c9 -64 39 -89 100 -89c55 0 104 11 155 41zM187 287l178 28c-2 78 -31 108 -85 108c-61 0 -93 -38 -93 -121v-15zM333 592l-106 -10l-113 175l153 9z
" />
    <glyph glyph-name="eacute" unicode="&#xe9;" horiz-adv-x="545" 
d="M492 46c-57 -39 -120 -58 -197 -58c-161 0 -253 68 -253 274c0 213 94 278 238 278c142 0 227 -54 227 -312l-314 -33c9 -64 39 -89 100 -89c55 0 104 11 155 41zM187 287l178 28c-2 78 -31 108 -85 108c-61 0 -93 -38 -93 -121v-15zM295 582l-105 10l66 174l153 -9z" />
    <glyph glyph-name="ecircumflex" unicode="&#xea;" horiz-adv-x="545" 
d="M492 46c-57 -39 -120 -58 -197 -58c-161 0 -253 68 -253 274c0 213 94 278 238 278c142 0 227 -54 227 -312l-314 -33c9 -64 39 -89 100 -89c55 0 104 11 155 41zM187 287l178 28c-2 78 -31 108 -85 108c-61 0 -93 -38 -93 -121v-15zM408 579l-127 81l-128 -81l-66 63
l142 122h103l142 -122z" />
    <glyph glyph-name="edieresis" unicode="&#xeb;" horiz-adv-x="545" 
d="M492 46c-57 -39 -120 -58 -197 -58c-161 0 -253 68 -253 274c0 213 94 278 238 278c142 0 227 -54 227 -312l-314 -33c9 -64 39 -89 100 -89c55 0 104 11 155 41zM187 287l178 28c-2 78 -31 108 -85 108c-61 0 -93 -38 -93 -121v-15zM165 592c-50 0 -80 20 -80 70
c0 51 30 72 80 72c49 0 79 -21 79 -72c0 -50 -30 -70 -79 -70zM394 592c-50 0 -79 20 -79 70c0 51 29 72 79 72s79 -21 79 -72c0 -50 -29 -70 -79 -70z" />
    <glyph glyph-name="igrave" unicode="&#xec;" horiz-adv-x="276" 
d="M224 0h-137c-19 49 -22 113 -22 181v330l146 17v-357c0 -54 1 -124 13 -171zM209 592l-106 -10l-113 175l153 9z" />
    <glyph glyph-name="iacute" unicode="&#xed;" horiz-adv-x="276" 
d="M224 0h-137c-19 49 -22 113 -22 181v330l146 17v-357c0 -54 1 -124 13 -171zM173 582l-105 10l66 174l153 -9z" />
    <glyph glyph-name="icircumflex" unicode="&#xee;" horiz-adv-x="276" 
d="M224 0h-137c-19 49 -22 113 -22 181v330l146 17v-357c0 -54 1 -124 13 -171zM266 579l-127 81l-128 -81l-66 63l142 122h103l142 -122z" />
    <glyph glyph-name="idieresis" unicode="&#xef;" horiz-adv-x="276" 
d="M224 0h-137c-19 49 -22 113 -22 181v330l146 17v-357c0 -54 1 -124 13 -171zM24 592c-50 0 -80 20 -80 70c0 51 30 72 80 72c49 0 79 -21 79 -72c0 -50 -30 -70 -79 -70zM253 592c-50 0 -79 20 -79 70c0 51 29 72 79 72s79 -21 79 -72c0 -50 -29 -70 -79 -70z" />
    <glyph glyph-name="eth" unicode="&#xf0;" horiz-adv-x="583" 
d="M291 -12c-184 0 -249 95 -249 266c0 197 96 258 221 258c52 0 102 -8 133 -55c-25 117 -118 141 -220 161l33 112c60 -10 118 -27 168 -57l52 49l80 -72l-51 -49c60 -73 83 -169 83 -312v-25c0 -188 -72 -276 -250 -276zM291 105c88 0 103 56 103 149s-15 149 -103 149
s-103 -56 -103 -149s15 -149 103 -149z" />
    <glyph glyph-name="ntilde" unicode="&#xf1;" horiz-adv-x="578" 
d="M523 0h-146v291c0 90 -18 130 -75 130c-52 0 -75 -21 -98 -62v-359h-146v326c0 61 -1 125 -14 185l114 28c10 -25 19 -52 25 -78c29 49 74 79 154 79c172 0 186 -121 186 -229v-311zM498 662c-53 -59 -101 -80 -144 -80c-57 0 -96 44 -148 44c-30 0 -61 -11 -93 -41
l-47 78c53 59 101 80 144 80c57 0 96 -44 148 -44c29 0 61 11 93 41z" />
    <glyph glyph-name="ograve" unicode="&#xf2;" horiz-adv-x="584" 
d="M292 105c88 0 103 60 103 159s-15 159 -103 159s-103 -60 -103 -159s15 -159 103 -159zM292 -12c-179 0 -250 88 -250 276s71 276 250 276s250 -88 250 -276s-71 -276 -250 -276zM358 592l-106 -10l-113 175l153 9z" />
    <glyph glyph-name="oacute" unicode="&#xf3;" horiz-adv-x="584" 
d="M292 105c88 0 103 60 103 159s-15 159 -103 159s-103 -60 -103 -159s15 -159 103 -159zM292 -12c-179 0 -250 88 -250 276s71 276 250 276s250 -88 250 -276s-71 -276 -250 -276zM329 582l-105 10l66 174l153 -9z" />
    <glyph glyph-name="ocircumflex" unicode="&#xf4;" horiz-adv-x="584" 
d="M292 105c88 0 103 60 103 159s-15 159 -103 159s-103 -60 -103 -159s15 -159 103 -159zM292 -12c-179 0 -250 88 -250 276s71 276 250 276s250 -88 250 -276s-71 -276 -250 -276zM420 579l-127 81l-128 -81l-66 63l142 122h103l142 -122z" />
    <glyph glyph-name="otilde" unicode="&#xf5;" horiz-adv-x="584" 
d="M292 105c88 0 103 60 103 159s-15 159 -103 159s-103 -60 -103 -159s15 -159 103 -159zM292 -12c-179 0 -250 88 -250 276s71 276 250 276s250 -88 250 -276s-71 -276 -250 -276zM508 662c-53 -59 -101 -80 -144 -80c-57 0 -96 44 -148 44c-30 0 -61 -11 -93 -41l-47 78
c53 59 101 80 144 80c57 0 96 -44 148 -44c29 0 61 11 93 41z" />
    <glyph glyph-name="odieresis" unicode="&#xf6;" horiz-adv-x="584" 
d="M292 105c88 0 103 60 103 159s-15 159 -103 159s-103 -60 -103 -159s15 -159 103 -159zM292 -12c-179 0 -250 88 -250 276s71 276 250 276s250 -88 250 -276s-71 -276 -250 -276zM178 592c-50 0 -80 20 -80 70c0 51 30 72 80 72c49 0 79 -21 79 -72
c0 -50 -30 -70 -79 -70zM407 592c-50 0 -79 20 -79 70c0 51 29 72 79 72s79 -21 79 -72c0 -50 -29 -70 -79 -70z" />
    <glyph glyph-name="divide" unicode="&#xf7;" 
d="M339 23c-53 0 -85 29 -85 84s32 84 85 84c54 0 86 -29 86 -84s-32 -84 -86 -84zM584 241h-489v124h489v-124zM339 415c-53 0 -85 29 -85 84s32 84 85 84c54 0 86 -29 86 -84s-32 -84 -86 -84z" />
    <glyph glyph-name="oslash" unicode="&#xf8;" horiz-adv-x="584" 
d="M202 -67h-143l53 109c-49 45 -70 118 -70 222c0 188 71 276 250 276c21 0 41 -2 60 -4l29 56h143l-53 -107c49 -45 71 -118 71 -221c0 -188 -71 -276 -250 -276c-23 0 -43 1 -62 4zM292 105c88 0 103 60 103 159s-15 159 -103 159s-103 -60 -103 -159s15 -159 103 -159z
" />
    <glyph glyph-name="ugrave" unicode="&#xf9;" horiz-adv-x="578" 
d="M534 17l-114 -28c-10 25 -19 52 -25 78c-29 -49 -74 -79 -154 -79c-172 0 -186 121 -186 229v294l146 17v-291c0 -90 18 -130 75 -130c52 0 75 21 98 62v342l146 17v-326c0 -61 1 -125 14 -185zM364 592l-106 -10l-113 175l153 9z" />
    <glyph glyph-name="uacute" unicode="&#xfa;" horiz-adv-x="578" 
d="M534 17l-114 -28c-10 25 -19 52 -25 78c-29 -49 -74 -79 -154 -79c-172 0 -186 121 -186 229v294l146 17v-291c0 -90 18 -130 75 -130c52 0 75 21 98 62v342l146 17v-326c0 -61 1 -125 14 -185zM324 582l-105 10l66 174l153 -9z" />
    <glyph glyph-name="ucircumflex" unicode="&#xfb;" horiz-adv-x="578" 
d="M534 17l-114 -28c-10 25 -19 52 -25 78c-29 -49 -74 -79 -154 -79c-172 0 -186 121 -186 229v294l146 17v-291c0 -90 18 -130 75 -130c52 0 75 21 98 62v342l146 17v-326c0 -61 1 -125 14 -185zM418 579l-127 81l-128 -81l-66 63l142 122h103l142 -122z" />
    <glyph glyph-name="udieresis" unicode="&#xfc;" horiz-adv-x="578" 
d="M534 17l-114 -28c-10 25 -19 52 -25 78c-29 -49 -74 -79 -154 -79c-172 0 -186 121 -186 229v294l146 17v-291c0 -90 18 -130 75 -130c52 0 75 21 98 62v342l146 17v-326c0 -61 1 -125 14 -185zM177 592c-50 0 -80 20 -80 70c0 51 30 72 80 72c49 0 79 -21 79 -72
c0 -50 -30 -70 -79 -70zM406 592c-50 0 -79 20 -79 70c0 51 29 72 79 72s79 -21 79 -72c0 -50 -29 -70 -79 -70z" />
    <glyph glyph-name="yacute" unicode="&#xfd;" horiz-adv-x="532" 
d="M129 -172l-59 95c53 20 91 47 111 90l-171 501l158 22l104 -414l106 414l144 -14l-149 -448c-36 -109 -104 -204 -244 -246zM307 582l-105 10l66 174l153 -9z" />
    <glyph glyph-name="thorn" unicode="&#xfe;" horiz-adv-x="578" 
d="M206 -154h-146v854l146 18v-250c26 51 73 72 144 72c115 0 186 -73 186 -276c0 -224 -115 -276 -225 -276c-41 0 -82 5 -111 32c6 -29 6 -63 6 -100v-74zM206 122c28 -13 54 -18 79 -18c74 0 104 41 104 160c0 98 -14 158 -89 158c-46 0 -72 -23 -94 -63v-237z" />
    <glyph glyph-name="ydieresis" unicode="&#xff;" horiz-adv-x="532" 
d="M129 -172l-59 95c53 20 91 47 111 90l-171 501l158 22l104 -414l106 414l144 -14l-149 -448c-36 -109 -104 -204 -244 -246zM158 592c-50 0 -80 20 -80 70c0 51 30 72 80 72c49 0 79 -21 79 -72c0 -50 -30 -70 -79 -70zM387 592c-50 0 -79 20 -79 70c0 51 29 72 79 72
s79 -21 79 -72c0 -50 -29 -70 -79 -70z" />
    <glyph glyph-name="dotlessi" unicode="&#x131;" horiz-adv-x="276" 
d="M224 0h-137c-19 49 -22 113 -22 181v330l146 17v-357c0 -54 1 -124 13 -171z" />
    <glyph glyph-name="Lslash" unicode="&#x141;" horiz-adv-x="587" 
d="M558 0h-466v257l-60 -26v132l60 26v311h153v-244l123 55v-133l-123 -54v-189h313v-135z" />
    <glyph glyph-name="lslash" unicode="&#x142;" horiz-adv-x="380" 
d="M274 0h-137c-19 49 -22 113 -22 181v89l-85 -38v137l85 37v295l146 17v-247l89 39v-136l-89 -39v-164c0 -54 1 -124 13 -171z" />
    <glyph glyph-name="OE" unicode="&#x152;" horiz-adv-x="993" 
d="M948 0h-404v98c-23 -66 -96 -110 -196 -110c-216 0 -301 115 -301 362s85 362 301 362c100 0 173 -44 196 -110v98h404v-135h-300v-137h243l-11 -121h-232v-172h300v-135zM350 122c122 0 145 86 145 228s-23 228 -145 228c-126 0 -149 -86 -149 -228s23 -228 149 -228z
" />
    <glyph glyph-name="oe" unicode="&#x153;" horiz-adv-x="898" 
d="M292 105c88 0 103 60 103 159s-15 159 -103 159s-103 -60 -103 -159s15 -159 103 -159zM845 46c-57 -39 -120 -58 -197 -58c-89 0 -156 25 -182 92c-28 -64 -89 -92 -174 -92c-179 0 -250 88 -250 276s71 276 250 276c85 0 144 -27 174 -91c28 64 84 91 167 91
c142 0 227 -54 227 -312l-314 -33c9 -64 39 -89 100 -89c55 0 104 11 155 41zM540 287l178 28c-2 78 -31 108 -85 108c-61 0 -93 -38 -93 -121v-15z" />
    <glyph glyph-name="Scaron" unicode="&#x160;" horiz-adv-x="591" 
d="M86 172c65 -35 139 -50 209 -50c61 0 110 19 110 75c0 59 -71 68 -140 86c-100 27 -214 65 -214 218c0 135 97 211 238 211c84 0 161 -13 237 -55l-45 -120c-56 28 -116 41 -172 41c-60 0 -108 -19 -108 -71c0 -67 76 -70 123 -86c100 -27 236 -61 236 -213
c0 -133 -87 -220 -255 -220c-100 0 -189 19 -267 65zM348 755h-103l-142 122l66 62l128 -80l127 80l66 -62z" />
    <glyph glyph-name="scaron" unicode="&#x161;" horiz-adv-x="472" 
d="M68 142c55 -26 113 -41 165 -41c42 0 71 11 71 44c0 34 -39 45 -89 60c-79 23 -174 52 -174 172c0 101 82 163 193 163c70 0 132 -8 192 -44l-40 -103c-43 20 -86 30 -138 30c-37 0 -67 -11 -67 -44s37 -44 93 -60c82 -23 172 -53 172 -166c0 -112 -77 -165 -199 -165
c-91 0 -160 16 -217 50zM288 586h-103l-142 122l66 62l128 -80l127 80l66 -62z" />
    <glyph glyph-name="Ydieresis" unicode="&#x178;" horiz-adv-x="650" 
d="M399 0h-153v256l-233 427l182 26l130 -317l136 308h176l-238 -444v-256zM211 751c-50 0 -80 20 -80 70c0 51 30 72 80 72c49 0 79 -21 79 -72c0 -50 -30 -70 -79 -70zM440 751c-50 0 -79 20 -79 70c0 51 29 72 79 72s79 -21 79 -72c0 -50 -29 -70 -79 -70z" />
    <glyph glyph-name="Zcaron" unicode="&#x17d;" horiz-adv-x="584" 
d="M537 0h-475l-29 135l309 430h-295v135h460l24 -135l-309 -430h329zM347 755h-103l-142 122l66 62l128 -80l127 80l66 -62z" />
    <glyph glyph-name="zcaron" unicode="&#x17e;" horiz-adv-x="519" 
d="M471 0h-410l-27 117l247 294h-232v117h398l24 -117l-247 -294h261zM315 586h-103l-142 122l66 62l128 -80l127 80l66 -62z" />
    <glyph glyph-name="florin" unicode="&#x192;" horiz-adv-x="373" 
d="M248 -140h-146v525h-77v108h75c-3 18 -4 35 -4 51c0 104 57 168 174 168c23 0 48 -2 76 -7l-12 -110c-15 2 -27 3 -38 3c-43 0 -61 -14 -61 -54c0 -14 2 -31 6 -51h116l-13 -108h-96v-525z" />
    <glyph glyph-name="uni02BB" unicode="&#x2bb;" horiz-adv-x="275" 
d="M189 381l-161 -10l114 347h105z" />
    <glyph glyph-name="afii57929" unicode="&#x2bc;" horiz-adv-x="275" 
d="M133 378h-105l58 337l161 10z" />
    <glyph glyph-name="circumflex" unicode="&#x2c6;" horiz-adv-x="467" 
d="M361 579l-127 81l-128 -81l-66 63l142 122h103l142 -122z" />
    <glyph glyph-name="caron" unicode="&#x2c7;" horiz-adv-x="467" 
d="M285 586h-103l-142 122l66 62l128 -80l127 80l66 -62z" />
    <glyph glyph-name="breve" unicode="&#x2d8;" horiz-adv-x="446" 
d="M406 782c-12 -142 -90 -204 -183 -204s-171 62 -183 204l111 10c3 -68 30 -98 72 -98s69 30 72 98z" />
    <glyph glyph-name="dotaccent" unicode="&#x2d9;" horiz-adv-x="252" 
d="M126 588c-54 0 -86 21 -86 74c0 52 32 74 86 74s86 -22 86 -74c0 -53 -32 -74 -86 -74z" />
    <glyph glyph-name="ring" unicode="&#x2da;" horiz-adv-x="362" 
d="M181 575c-93 0 -141 43 -141 122c0 78 48 122 141 122s141 -44 141 -122c0 -79 -48 -122 -141 -122zM181 640c34 0 51 20 51 57s-17 57 -51 57s-51 -20 -51 -57s17 -57 51 -57z" />
    <glyph glyph-name="ogonek" unicode="&#x2db;" horiz-adv-x="277" 
d="M217 -111l20 -65c-29 -16 -64 -21 -95 -21c-62 0 -102 32 -102 92c0 40 20 78 67 105h96c-53 -33 -72 -57 -72 -88c0 -25 15 -33 36 -33c16 0 34 3 50 10z" />
    <glyph glyph-name="tilde" unicode="&#x2dc;" horiz-adv-x="512" 
d="M472 662c-53 -59 -101 -80 -144 -80c-57 0 -96 44 -148 44c-30 0 -61 -11 -93 -41l-47 78c53 59 101 80 144 80c57 0 96 -44 148 -44c29 0 61 11 93 41z" />
    <glyph glyph-name="hungarumlaut" unicode="&#x2dd;" horiz-adv-x="521" 
d="M128 579l-88 34l95 145l141 -14zM334 579l-89 34l94 145l142 -14z" />
    <glyph glyph-name="gravecomb" unicode="&#x300;" horiz-adv-x="1" 
d="M-225 592l-106 -10l-113 175l153 9z" />
    <glyph glyph-name="acutecomb" unicode="&#x301;" horiz-adv-x="1" 
d="M-254 582l-105 10l66 174l153 -9z" />
    <glyph glyph-name="uni0302" unicode="&#x302;" horiz-adv-x="1" 
d="M-163 579l-127 81l-128 -81l-66 63l142 122h103l142 -122z" />
    <glyph glyph-name="tildecomb" unicode="&#x303;" horiz-adv-x="1" 
d="M-75 662c-53 -59 -101 -80 -144 -80c-57 0 -96 44 -148 44c-30 0 -61 -11 -93 -41l-47 78c53 59 101 80 144 80c57 0 96 -44 148 -44c29 0 61 11 93 41z" />
    <glyph glyph-name="uni0304" unicode="&#x304;" horiz-adv-x="1" 
d="M-51 604h-354v117h354v-117z" />
    <glyph glyph-name="uni0306" unicode="&#x306;" horiz-adv-x="1" 
d="M-39 790c-12 -142 -90 -204 -183 -204s-171 62 -183 204l111 10c3 -68 30 -98 72 -98s69 30 72 98z" />
    <glyph glyph-name="uni0307" unicode="&#x307;" horiz-adv-x="1" 
d="M-137 588c-54 0 -86 21 -86 74c0 52 32 74 86 74s86 -22 86 -74c0 -53 -32 -74 -86 -74z" />
    <glyph glyph-name="uni0308" unicode="&#x308;" horiz-adv-x="1" 
d="M-352 592c-50 0 -80 20 -80 70c0 51 30 72 80 72c49 0 79 -21 79 -72c0 -50 -30 -70 -79 -70zM-123 592c-50 0 -79 20 -79 70c0 51 29 72 79 72s79 -21 79 -72c0 -50 -29 -70 -79 -70z" />
    <glyph glyph-name="uni030A" unicode="&#x30a;" horiz-adv-x="1" 
d="M-180 580c-93 0 -141 43 -141 122c0 78 48 122 141 122s141 -44 141 -122c0 -79 -48 -122 -141 -122zM-180 645c34 0 51 20 51 57s-17 57 -51 57s-51 -20 -51 -57s17 -57 51 -57z" />
    <glyph glyph-name="uni030B" unicode="&#x30b;" horiz-adv-x="1" 
d="M-392 582l-88 34l95 145l141 -14zM-186 582l-89 34l94 145l142 -14z" />
    <glyph glyph-name="uni030C" unicode="&#x30c;" horiz-adv-x="1" 
d="M-203 586h-103l-142 122l66 62l128 -80l127 80l66 -62z" />
    <glyph glyph-name="uni0312" unicode="&#x312;" horiz-adv-x="1" 
d="M-285 764h104l-29 -170l-134 -10z" />
    <glyph glyph-name="uni0326" unicode="&#x326;" horiz-adv-x="1" 
d="M-286 -217h-104l29 170l134 10z" />
    <glyph glyph-name="uni0327" unicode="&#x327;" horiz-adv-x="1" 
d="M-237 -182l19 69c18 -7 38 -11 54 -11c20 0 33 5 33 20s-10 29 -64 33l17 71h89l-7 -35c42 -8 57 -40 57 -78c0 -60 -53 -84 -110 -84c-31 0 -63 5 -88 15z" />
    <glyph glyph-name="uni0328" unicode="&#x328;" horiz-adv-x="1" 
d="M-59 -111l20 -65c-29 -16 -64 -21 -95 -21c-62 0 -102 32 -102 92c0 40 20 78 67 105h96c-53 -33 -72 -57 -72 -88c0 -25 15 -33 36 -33c16 0 34 3 50 10z" />
    <glyph glyph-name="uni0335" unicode="&#x335;" horiz-adv-x="1" 
d="M-41 202h-374v117h374v-117z" />
    <glyph glyph-name="uni0336" unicode="&#x336;" horiz-adv-x="1" 
d="M-57 191h-593v138h593v-138z" />
    <glyph glyph-name="uni0394" unicode="&#x394;" horiz-adv-x="734" 
d="M647 0h-560l-29 135l231 565h156l231 -565zM512 135l-151 393l-150 -393h301z" />
    <glyph glyph-name="uni03A9" unicode="&#x3a9;" horiz-adv-x="822" 
d="M764 135v-135h-294v135c86 28 88 107 88 218v15c0 119 -25 210 -147 210s-147 -91 -147 -210v-15c0 -111 2 -190 88 -218v-135h-294v135h125c-65 60 -73 148 -73 233c0 222 85 344 301 344s301 -122 301 -344c0 -85 -8 -173 -73 -233h125z" />
    <glyph glyph-name="uni03BC" unicode="&#x3bc;" horiz-adv-x="583" 
d="M534 17l-114 -28c-10 25 -19 52 -25 78c-24 -48 -83 -79 -137 -79c-20 0 -46 3 -63 14c5 -27 6 -55 6 -82v-74h-146v665l146 17v-291c0 -90 18 -130 75 -130c52 0 75 21 98 62v342l146 17v-326c0 -61 1 -125 14 -185z" />
    <glyph glyph-name="pi" unicode="&#x3c0;" horiz-adv-x="764" 
d="M661 46l-98 -68c-98 55 -112 164 -112 264v164h-151v-406h-146v406h-96v122h648l-13 -122h-96v-167c0 -80 15 -139 64 -193z" />
    <glyph glyph-name="uni2007" unicode="&#x2007;" horiz-adv-x="648" 
 />
    <glyph glyph-name="uni2008" unicode="&#x2008;" horiz-adv-x="290" 
 />
    <glyph glyph-name="uni200B" unicode="&#x200b;" horiz-adv-x="0" 
 />
    <glyph glyph-name="uniFEFF" unicode="&#xfeff;" horiz-adv-x="0" 
 />
    <glyph glyph-name="endash" unicode="&#x2013;" horiz-adv-x="582" 
d="M524 234h-466v138h466v-138z" />
    <glyph glyph-name="emdash" unicode="&#x2014;" horiz-adv-x="709" 
d="M651 234h-593v138h593v-138z" />
    <glyph glyph-name="quoteleft" unicode="&#x2018;" horiz-adv-x="275" 
d="M189 381l-161 -10l114 347h105z" />
    <glyph glyph-name="quoteright" unicode="&#x2019;" horiz-adv-x="275" 
d="M133 378h-105l58 337l161 10z" />
    <glyph glyph-name="quotesinglbase" unicode="&#x201a;" horiz-adv-x="275" 
d="M133 -140h-105l58 337l161 10z" />
    <glyph glyph-name="quotedblleft" unicode="&#x201c;" horiz-adv-x="476" 
d="M390 381l-161 -11l114 348h105zM188 381l-160 -11l113 348h106z" />
    <glyph glyph-name="quotedblright" unicode="&#x201d;" horiz-adv-x="476" 
d="M133 376h-105l58 337l161 11zM335 376h-106l59 337l160 11z" />
    <glyph glyph-name="quotedblbase" unicode="&#x201e;" horiz-adv-x="476" 
d="M133 -140h-105l58 337l161 10zM335 -140h-106l59 337l160 10z" />
    <glyph glyph-name="dagger" unicode="&#x2020;" horiz-adv-x="523" 
d="M335 0h-146l14 402l-158 -12v134l155 -12l-8 188l139 9l-10 -197l157 12v-134l-160 12z" />
    <glyph glyph-name="daggerdbl" unicode="&#x2021;" horiz-adv-x="523" 
d="M335 0h-146c0 20 5 166 5 181l-149 -10v133l155 -12c1 17 3 94 3 110l-158 -12v134l155 -12l-8 188l139 9l-10 -197l157 12v-134l-160 12c0 -15 3 -96 3 -110l157 12v-133l-151 10z" />
    <glyph glyph-name="bullet" unicode="&#x2022;" horiz-adv-x="369" 
d="M185 186c-91 0 -140 46 -140 137s49 137 140 137s139 -46 139 -137s-48 -137 -139 -137z" />
    <glyph glyph-name="ellipsis" unicode="&#x2026;" horiz-adv-x="764" 
d="M144 -8c-58 0 -89 30 -89 88s31 88 89 88s89 -30 89 -88s-31 -88 -89 -88zM381 -8c-58 0 -89 30 -89 88s31 88 89 88s89 -30 89 -88s-31 -88 -89 -88zM620 -8c-58 0 -89 30 -89 88s31 88 89 88s89 -30 89 -88s-31 -88 -89 -88z" />
    <glyph glyph-name="perthousand" unicode="&#x2030;" horiz-adv-x="1456" 
d="M245 280c-142 0 -199 69 -199 216s57 216 199 216c141 0 199 -69 199 -216s-58 -216 -199 -216zM245 370c67 0 79 47 79 126s-12 126 -79 126c-66 0 -79 -47 -79 -126s13 -126 79 -126zM770 -12c-142 0 -198 69 -198 216s56 216 198 216s199 -69 199 -216
s-57 -216 -199 -216zM770 78c68 0 79 47 79 126s-11 126 -79 126c-66 0 -79 -47 -79 -126s13 -126 79 -126zM697 688l-297 -700l-82 24l297 700zM1211 -12c-142 0 -198 69 -198 216s56 216 198 216s199 -69 199 -216s-57 -216 -199 -216zM1211 78c68 0 79 47 79 126
s-11 126 -79 126c-66 0 -79 -47 -79 -126s13 -126 79 -126z" />
    <glyph glyph-name="minute" unicode="&#x2032;" horiz-adv-x="275" 
d="M133 378h-105l58 337l161 10z" />
    <glyph glyph-name="second" unicode="&#x2033;" horiz-adv-x="476" 
d="M133 376h-105l58 337l161 11zM335 376h-106l59 337l160 11z" />
    <glyph glyph-name="guilsinglleft" unicode="&#x2039;" horiz-adv-x="381" 
d="M278 77l-232 168v116l232 168l57 -124l-173 -102l173 -102z" />
    <glyph glyph-name="guilsinglright" unicode="&#x203a;" horiz-adv-x="381" 
d="M102 77l-56 124l173 102l-173 102l56 124l233 -168v-116z" />
    <glyph glyph-name="fraction" unicode="&#x2044;" horiz-adv-x="125" 
d="M245 685l-296 -698l-69 26l296 698z" />
    <glyph glyph-name="uni2070" unicode="&#x2070;" horiz-adv-x="414" 
d="M207 298c-113 0 -157 65 -157 204c0 140 44 205 157 205c112 0 157 -65 157 -205c0 -139 -45 -204 -157 -204zM207 381c50 0 63 42 63 121c0 81 -13 122 -63 122c-51 0 -63 -41 -63 -122c0 -79 12 -121 63 -121z" />
    <glyph glyph-name="uni2074" unicode="&#x2074;" horiz-adv-x="402" 
d="M319 305h-94v89h-161l-22 74c40 69 51 150 52 236l99 -8c-7 -89 -27 -167 -60 -228h92v126l94 11v-137h41v-74h-41v-89z" />
    <glyph glyph-name="uni2075" unicode="&#x2075;" horiz-adv-x="380" 
d="M72 409c34 -19 72 -28 112 -28c49 0 63 19 63 54s-25 45 -68 45c-28 0 -61 -6 -91 -16l-31 70l19 166h232v-83h-157l-12 -73c21 5 44 8 63 8c90 0 138 -53 138 -123c0 -73 -46 -131 -151 -131c-59 0 -109 11 -148 39z" />
    <glyph glyph-name="uni2076" unicode="&#x2076;" horiz-adv-x="398" 
d="M300 603c-26 15 -56 21 -86 21c-50 0 -69 -27 -70 -89c14 23 41 35 86 35c80 0 124 -48 124 -125c0 -86 -44 -147 -148 -147c-113 0 -157 65 -157 204c0 141 66 205 153 205c53 0 97 -9 131 -32zM144 463c2 -51 17 -82 62 -82c40 0 57 28 57 62c0 42 -17 57 -54 57
c-26 0 -50 -11 -65 -37z" />
    <glyph glyph-name="uni2077" unicode="&#x2077;" horiz-adv-x="352" 
d="M190 305h-100c18 131 55 235 130 312h-178v83h257l16 -83c-83 -74 -117 -188 -125 -312z" />
    <glyph glyph-name="uni2078" unicode="&#x2078;" horiz-adv-x="402" 
d="M291 509c45 -15 62 -46 62 -90c0 -74 -47 -121 -152 -121c-111 0 -152 50 -152 122c0 40 15 73 60 88c-39 15 -49 47 -49 86c0 56 41 113 141 113c101 0 143 -58 143 -115c0 -39 -16 -71 -53 -83zM173 468c-24 -11 -34 -27 -34 -43c0 -32 14 -50 64 -50c45 0 60 16 60 41
c0 21 -20 39 -90 52zM223 538c21 11 32 27 32 43c0 31 -15 49 -54 49c-38 0 -53 -15 -53 -39c0 -33 30 -42 75 -53z" />
    <glyph glyph-name="uni2079" unicode="&#x2079;" horiz-adv-x="397" 
d="M97 402c26 -15 56 -21 86 -21c50 0 69 27 70 89c-14 -23 -41 -35 -86 -35c-80 0 -124 48 -124 125c0 86 44 147 148 147c113 0 157 -65 157 -204c0 -141 -66 -205 -153 -205c-53 0 -97 9 -131 32zM253 542c-2 51 -17 82 -62 82c-40 0 -57 -28 -57 -62
c0 -42 17 -57 54 -57c26 0 50 11 65 37z" />
    <glyph glyph-name="uni2080" unicode="&#x2080;" horiz-adv-x="414" 
d="M207 -204c-113 0 -157 65 -157 204c0 140 44 205 157 205c112 0 157 -65 157 -205c0 -139 -45 -204 -157 -204zM207 -121c50 0 63 42 63 121c0 81 -13 122 -63 122c-51 0 -63 -41 -63 -122c0 -79 12 -121 63 -121z" />
    <glyph glyph-name="uni2081" unicode="&#x2081;" horiz-adv-x="230" 
d="M161 -197h-93v383l93 12v-395z" />
    <glyph glyph-name="uni2082" unicode="&#x2082;" horiz-adv-x="375" 
d="M321 -197h-257l-16 83c86 58 172 126 172 182c0 38 -16 54 -52 54c-32 0 -65 -9 -96 -25l-30 71c40 28 91 37 149 37c78 0 131 -39 131 -116c0 -81 -55 -139 -152 -203h151v-83z" />
    <glyph glyph-name="uni2083" unicode="&#x2083;" horiz-adv-x="381" 
d="M73 -93c32 -17 68 -28 111 -28c35 0 60 13 60 52c0 32 -26 46 -64 46c-13 0 -30 -1 -53 -5l-18 71l105 72h-155v83h250l17 -83l-121 -81c98 0 133 -52 133 -113c0 -80 -52 -125 -150 -125c-60 0 -107 14 -146 40z" />
    <glyph glyph-name="uni2084" unicode="&#x2084;" horiz-adv-x="401" 
d="M318 -197h-94v89h-161l-22 74c40 69 51 150 52 236l99 -8c-7 -89 -27 -167 -60 -228h92v126l94 11v-137h41v-74h-41v-89z" />
    <glyph glyph-name="uni2085" unicode="&#x2085;" horiz-adv-x="380" 
d="M72 -93c34 -19 72 -28 112 -28c49 0 63 19 63 54s-25 45 -68 45c-28 0 -61 -6 -91 -16l-31 70l19 166h232v-83h-157l-12 -73c21 5 44 8 63 8c90 0 138 -53 138 -123c0 -73 -46 -131 -151 -131c-59 0 -109 11 -148 39z" />
    <glyph glyph-name="uni2086" unicode="&#x2086;" horiz-adv-x="398" 
d="M300 101c-26 15 -56 21 -86 21c-50 0 -69 -27 -70 -89c14 23 41 35 86 35c80 0 124 -48 124 -125c0 -86 -44 -147 -148 -147c-113 0 -157 65 -157 204c0 141 66 205 153 205c53 0 97 -9 131 -32zM144 -39c2 -51 17 -82 62 -82c40 0 57 28 57 62c0 42 -17 57 -54 57
c-26 0 -50 -11 -65 -37z" />
    <glyph glyph-name="uni2087" unicode="&#x2087;" horiz-adv-x="352" 
d="M190 -197h-100c18 131 55 235 130 312h-178v83h257l16 -83c-83 -74 -117 -188 -125 -312z" />
    <glyph glyph-name="uni2088" unicode="&#x2088;" horiz-adv-x="389" 
d="M291 7c45 -15 62 -46 62 -90c0 -74 -47 -121 -152 -121c-111 0 -152 50 -152 122c0 40 15 73 60 88c-39 15 -49 47 -49 86c0 56 41 113 141 113c101 0 143 -58 143 -115c0 -39 -16 -71 -53 -83zM173 -34c-24 -11 -34 -27 -34 -43c0 -32 14 -50 64 -50c45 0 60 16 60 41
c0 21 -20 39 -90 52zM223 36c21 11 32 27 32 43c0 31 -15 49 -54 49c-38 0 -53 -15 -53 -39c0 -33 30 -42 75 -53z" />
    <glyph glyph-name="uni2089" unicode="&#x2089;" horiz-adv-x="397" 
d="M97 -100c26 -15 56 -21 86 -21c50 0 69 27 70 89c-14 -23 -41 -35 -86 -35c-80 0 -124 48 -124 125c0 86 44 147 148 147c113 0 157 -65 157 -204c0 -141 -66 -205 -153 -205c-53 0 -97 9 -131 32zM253 40c-2 51 -17 82 -62 82c-40 0 -57 -28 -57 -62
c0 -42 17 -57 54 -57c26 0 50 11 65 37z" />
    <glyph glyph-name="Euro" unicode="&#x20ac;" horiz-adv-x="600" 
d="M422 244h-166c12 -77 44 -121 121 -121c44 0 87 5 128 30l52 -119c-61 -40 -122 -46 -186 -46c-167 0 -248 82 -269 256h-64v72h58v60h-58v72h63c20 179 101 264 270 264c64 0 125 -6 186 -46l-52 -119c-41 25 -84 30 -128 30c-80 0 -111 -47 -122 -129h167v-72h-172v-60
h172v-72z" />
    <glyph glyph-name="trademark" unicode="&#x2122;" horiz-adv-x="656" 
d="M188 399h-74v234h-81v67h235v-67h-80v-234zM536 394l-9 200l-49 -195h-63l-53 195c0 -57 -3 -136 -5 -195h-77l27 301h86l53 -199l48 199h92l27 -300z" />
    <glyph glyph-name="Omega" unicode="&#x2126;" horiz-adv-x="822" 
d="M764 135v-135h-294v135c86 28 88 107 88 218v15c0 119 -25 210 -147 210s-147 -91 -147 -210v-15c0 -111 2 -190 88 -218v-135h-294v135h125c-65 60 -73 148 -73 233c0 222 85 344 301 344s301 -122 301 -344c0 -85 -8 -173 -73 -233h125z" />
    <glyph glyph-name="uni2150" unicode="&#x2150;" horiz-adv-x="727" 
d="M161 305h-93v383l93 12v-395zM475 685l-296 -698l-69 26l296 698zM565 0h-100c18 131 55 235 130 312h-178v83h257l16 -83c-83 -74 -117 -188 -125 -312z" />
    <glyph glyph-name="uni2151" unicode="&#x2151;" horiz-adv-x="752" 
d="M161 305h-93v383l93 12v-395zM475 685l-296 -698l-69 26l296 698zM452 97c26 -15 56 -21 86 -21c50 0 69 27 70 89c-14 -23 -41 -35 -86 -35c-80 0 -124 48 -124 125c0 86 44 147 148 147c113 0 157 -65 157 -204c0 -141 -66 -205 -153 -205c-53 0 -97 9 -131 32z
M608 237c-2 51 -17 82 -62 82c-40 0 -57 -28 -57 -62c0 -42 17 -57 54 -57c26 0 50 11 65 37z" />
    <glyph glyph-name="uni2152" unicode="&#x2152;" horiz-adv-x="959" 
d="M161 305h-93v383l93 12v-395zM475 685l-296 -698l-69 26l296 698zM516 0h-93v383l93 12v-395zM752 -7c-113 0 -157 65 -157 204c0 140 44 205 157 205c112 0 157 -65 157 -205c0 -139 -45 -204 -157 -204zM752 76c50 0 63 42 63 121c0 81 -13 122 -63 122
c-51 0 -63 -41 -63 -122c0 -79 12 -121 63 -121z" />
    <glyph glyph-name="onethird" unicode="&#x2153;" horiz-adv-x="736" 
d="M161 305h-93v383l93 12v-395zM475 685l-296 -698l-69 26l296 698zM428 104c32 -17 68 -28 111 -28c35 0 60 13 60 52c0 32 -26 46 -64 46c-13 0 -30 -1 -53 -5l-18 71l105 72h-155v83h250l17 -83l-121 -81c98 0 133 -52 133 -113c0 -80 -52 -125 -150 -125
c-60 0 -107 14 -146 40z" />
    <glyph glyph-name="twothirds" unicode="&#x2154;" horiz-adv-x="881" 
d="M321 305h-257l-16 83c86 58 172 126 172 182c0 38 -16 54 -52 54c-32 0 -65 -9 -96 -25l-30 71c40 28 91 37 149 37c78 0 131 -39 131 -116c0 -81 -55 -139 -152 -203h151v-83zM620 685l-296 -698l-69 26l296 698zM573 104c32 -17 68 -28 111 -28c35 0 60 13 60 52
c0 32 -26 46 -64 46c-13 0 -30 -1 -53 -5l-18 71l105 72h-155v83h250l17 -83l-121 -81c98 0 133 -52 133 -113c0 -80 -52 -125 -150 -125c-60 0 -107 14 -146 40z" />
    <glyph glyph-name="uni2155" unicode="&#x2155;" horiz-adv-x="735" 
d="M161 305h-93v383l93 12v-395zM475 685l-296 -698l-69 26l296 698zM427 104c34 -19 72 -28 112 -28c49 0 63 19 63 54s-25 45 -68 45c-28 0 -61 -6 -91 -16l-31 70l19 166h232v-83h-157l-12 -73c21 5 44 8 63 8c90 0 138 -53 138 -123c0 -73 -46 -131 -151 -131
c-59 0 -109 11 -148 39z" />
    <glyph glyph-name="uni2156" unicode="&#x2156;" horiz-adv-x="880" 
d="M321 305h-257l-16 83c86 58 172 126 172 182c0 38 -16 54 -52 54c-32 0 -65 -9 -96 -25l-30 71c40 28 91 37 149 37c78 0 131 -39 131 -116c0 -81 -55 -139 -152 -203h151v-83zM620 685l-296 -698l-69 26l296 698zM572 104c34 -19 72 -28 112 -28c49 0 63 19 63 54
s-25 45 -68 45c-28 0 -61 -6 -91 -16l-31 70l19 166h232v-83h-157l-12 -73c21 5 44 8 63 8c90 0 138 -53 138 -123c0 -73 -46 -131 -151 -131c-59 0 -109 11 -148 39z" />
    <glyph glyph-name="uni2157" unicode="&#x2157;" horiz-adv-x="886" 
d="M73 409c32 -17 68 -28 111 -28c35 0 60 13 60 52c0 32 -26 46 -64 46c-13 0 -30 -1 -53 -5l-18 71l105 72h-155v83h250l17 -83l-121 -81c98 0 133 -52 133 -113c0 -80 -52 -125 -150 -125c-60 0 -107 14 -146 40zM626 685l-296 -698l-69 26l296 698zM578 104
c34 -19 72 -28 112 -28c49 0 63 19 63 54s-25 45 -68 45c-28 0 -61 -6 -91 -16l-31 70l19 166h232v-83h-157l-12 -73c21 5 44 8 63 8c90 0 138 -53 138 -123c0 -73 -46 -131 -151 -131c-59 0 -109 11 -148 39z" />
    <glyph glyph-name="uni2158" unicode="&#x2158;" horiz-adv-x="906" 
d="M318 305h-94v89h-161l-22 74c40 69 51 150 52 236l99 -8c-7 -89 -27 -167 -60 -228h92v126l94 11v-137h41v-74h-41v-89zM646 685l-296 -698l-69 26l296 698zM598 104c34 -19 72 -28 112 -28c49 0 63 19 63 54s-25 45 -68 45c-28 0 -61 -6 -91 -16l-31 70l19 166h232v-83
h-157l-12 -73c21 5 44 8 63 8c90 0 138 -53 138 -123c0 -73 -46 -131 -151 -131c-59 0 -109 11 -148 39z" />
    <glyph glyph-name="uni2159" unicode="&#x2159;" horiz-adv-x="753" 
d="M161 305h-93v383l93 12v-395zM475 685l-296 -698l-69 26l296 698zM655 298c-26 15 -56 21 -86 21c-50 0 -69 -27 -70 -89c14 23 41 35 86 35c80 0 124 -48 124 -125c0 -86 -44 -147 -148 -147c-113 0 -157 65 -157 204c0 141 66 205 153 205c53 0 97 -9 131 -32zM499 158
c2 -51 17 -82 62 -82c40 0 57 28 57 62c0 42 -17 57 -54 57c-26 0 -50 -11 -65 -37z" />
    <glyph glyph-name="uni215A" unicode="&#x215a;" horiz-adv-x="903" 
d="M72 409c34 -19 72 -28 112 -28c49 0 63 19 63 54s-25 45 -68 45c-28 0 -61 -6 -91 -16l-31 70l19 166h232v-83h-157l-12 -73c21 5 44 8 63 8c90 0 138 -53 138 -123c0 -73 -46 -131 -151 -131c-59 0 -109 11 -148 39zM625 685l-296 -698l-69 26l296 698zM805 298
c-26 15 -56 21 -86 21c-50 0 -69 -27 -70 -89c14 23 41 35 86 35c80 0 124 -48 124 -125c0 -86 -44 -147 -148 -147c-113 0 -157 65 -157 204c0 141 66 205 153 205c53 0 97 -9 131 -32zM649 158c2 -51 17 -82 62 -82c40 0 57 28 57 62c0 42 -17 57 -54 57
c-26 0 -50 -11 -65 -37z" />
    <glyph glyph-name="oneeighth" unicode="&#x215b;" horiz-adv-x="744" 
d="M161 305h-93v383l93 12v-395zM475 685l-296 -698l-69 26l296 698zM646 204c45 -15 62 -46 62 -90c0 -74 -47 -121 -152 -121c-111 0 -152 50 -152 122c0 40 15 73 60 88c-39 15 -49 47 -49 86c0 56 41 113 141 113c101 0 143 -58 143 -115c0 -39 -16 -71 -53 -83z
M528 163c-24 -11 -34 -27 -34 -43c0 -32 14 -50 64 -50c45 0 60 16 60 41c0 21 -20 39 -90 52zM578 233c21 11 32 27 32 43c0 31 -15 49 -54 49c-38 0 -53 -15 -53 -39c0 -33 30 -42 75 -53z" />
    <glyph glyph-name="threeeighths" unicode="&#x215c;" horiz-adv-x="895" 
d="M73 409c32 -17 68 -28 111 -28c35 0 60 13 60 52c0 32 -26 46 -64 46c-13 0 -30 -1 -53 -5l-18 71l105 72h-155v83h250l17 -83l-121 -81c98 0 133 -52 133 -113c0 -80 -52 -125 -150 -125c-60 0 -107 14 -146 40zM626 685l-296 -698l-69 26l296 698zM797 204
c45 -15 62 -46 62 -90c0 -74 -47 -121 -152 -121c-111 0 -152 50 -152 122c0 40 15 73 60 88c-39 15 -49 47 -49 86c0 56 41 113 141 113c101 0 143 -58 143 -115c0 -39 -16 -71 -53 -83zM679 163c-24 -11 -34 -27 -34 -43c0 -32 14 -50 64 -50c45 0 60 16 60 41
c0 21 -20 39 -90 52zM729 233c21 11 32 27 32 43c0 31 -15 49 -54 49c-38 0 -53 -15 -53 -39c0 -33 30 -42 75 -53z" />
    <glyph glyph-name="fiveeighths" unicode="&#x215d;" horiz-adv-x="894" 
d="M72 409c34 -19 72 -28 112 -28c49 0 63 19 63 54s-25 45 -68 45c-28 0 -61 -6 -91 -16l-31 70l19 166h232v-83h-157l-12 -73c21 5 44 8 63 8c90 0 138 -53 138 -123c0 -73 -46 -131 -151 -131c-59 0 -109 11 -148 39zM625 685l-296 -698l-69 26l296 698zM796 204
c45 -15 62 -46 62 -90c0 -74 -47 -121 -152 -121c-111 0 -152 50 -152 122c0 40 15 73 60 88c-39 15 -49 47 -49 86c0 56 41 113 141 113c101 0 143 -58 143 -115c0 -39 -16 -71 -53 -83zM678 163c-24 -11 -34 -27 -34 -43c0 -32 14 -50 64 -50c45 0 60 16 60 41
c0 21 -20 39 -90 52zM728 233c21 11 32 27 32 43c0 31 -15 49 -54 49c-38 0 -53 -15 -53 -39c0 -33 30 -42 75 -53z" />
    <glyph glyph-name="seveneighths" unicode="&#x215e;" horiz-adv-x="806" 
d="M190 305h-100c18 131 55 235 130 312h-178v83h257l16 -83c-83 -74 -117 -188 -125 -312zM537 685l-296 -698l-69 26l296 698zM708 204c45 -15 62 -46 62 -90c0 -74 -47 -121 -152 -121c-111 0 -152 50 -152 122c0 40 15 73 60 88c-39 15 -49 47 -49 86
c0 56 41 113 141 113c101 0 143 -58 143 -115c0 -39 -16 -71 -53 -83zM590 163c-24 -11 -34 -27 -34 -43c0 -32 14 -50 64 -50c45 0 60 16 60 41c0 21 -20 39 -90 52zM640 233c21 11 32 27 32 43c0 31 -15 49 -54 49c-38 0 -53 -15 -53 -39c0 -33 30 -42 75 -53z" />
    <glyph glyph-name="uni215F" unicode="&#x215f;" horiz-adv-x="355" 
d="M161 305h-93v383l93 12v-395zM475 685l-296 -698l-69 26l296 698z" />
    <glyph glyph-name="uni2189" unicode="&#x2189;" horiz-adv-x="920" 
d="M207 298c-113 0 -157 65 -157 204c0 140 44 205 157 205c112 0 157 -65 157 -205c0 -139 -45 -204 -157 -204zM207 381c50 0 63 42 63 121c0 81 -13 122 -63 122c-51 0 -63 -41 -63 -122c0 -79 12 -121 63 -121zM659 685l-296 -698l-69 26l296 698zM612 104
c32 -17 68 -28 111 -28c35 0 60 13 60 52c0 32 -26 46 -64 46c-13 0 -30 -1 -53 -5l-18 71l105 72h-155v83h250l17 -83l-121 -81c98 0 133 -52 133 -113c0 -80 -52 -125 -150 -125c-60 0 -107 14 -146 40z" />
    <glyph glyph-name="partialdiff" unicode="&#x2202;" horiz-adv-x="615" 
d="M307 -12c-184 0 -249 95 -249 266c0 197 96 258 221 258c52 0 102 -8 133 -55c-25 117 -118 141 -220 161l33 112c231 -40 332 -163 332 -441v-25c0 -188 -72 -276 -250 -276zM307 105c88 0 103 56 103 149s-15 149 -103 149s-103 -56 -103 -149s15 -149 103 -149z" />
    <glyph glyph-name="Delta" unicode="&#x2206;" horiz-adv-x="734" 
d="M647 0h-560l-29 135l231 565h156l231 -565zM512 135l-151 393l-150 -393h301z" />
    <glyph glyph-name="product" unicode="&#x220f;" horiz-adv-x="670" 
d="M610 -140h-153v705h-244v-705h-153v840h550v-840z" />
    <glyph glyph-name="summation" unicode="&#x2211;" horiz-adv-x="586" 
d="M528 -140h-441l-29 134l247 286l-247 286l29 134h441v-134h-287l195 -237v-98l-195 -237h287v-134z" />
    <glyph glyph-name="minus" unicode="&#x2212;" 
d="M584 234h-489v138h489v-138z" />
    <glyph glyph-name="uni2219" unicode="&#x2219;" 
d="M340 166c-91 0 -140 46 -140 137s49 137 140 137s139 -46 139 -137s-48 -137 -139 -137z" />
    <glyph glyph-name="radical" unicode="&#x221a;" horiz-adv-x="838" 
d="M503 -140h-156l-125 373h-164v139h278l95 -340l192 676l157 -17z" />
    <glyph glyph-name="infinity" unicode="&#x221e;" horiz-adv-x="902" 
d="M446 192c-33 -72 -85 -105 -163 -105c-126 0 -225 71 -225 215c0 145 100 216 225 216c78 0 139 -29 173 -105c33 73 85 105 163 105c127 0 225 -70 225 -216c0 -143 -99 -215 -225 -215c-79 0 -148 39 -173 105zM395 287c-23 87 -52 126 -112 126
c-69 0 -110 -30 -110 -111c0 -79 41 -110 110 -110c54 0 95 31 112 95zM507 318c23 -87 52 -126 112 -126c69 0 110 30 110 111c0 79 -41 110 -110 110c-54 0 -95 -31 -112 -95z" />
    <glyph glyph-name="integral" unicode="&#x222b;" horiz-adv-x="470" 
d="M58 -10h75c18 0 29 11 29 29v510c0 108 39 171 159 171h91v-130h-75c-18 0 -29 -11 -29 -29v-510c0 -108 -39 -171 -159 -171h-91v130z" />
    <glyph glyph-name="approxequal" unicode="&#x2248;" 
d="M582 361c-50 -26 -92 -36 -129 -36c-91 0 -139 52 -226 52c-39 0 -77 -15 -129 -39v132c55 30 97 36 129 36c93 0 142 -52 226 -52c42 0 79 13 129 39v-132zM582 138c-50 -26 -92 -36 -129 -36c-91 0 -139 52 -226 52c-39 0 -77 -15 -129 -39v132c55 30 97 36 129 36
c93 0 142 -52 226 -52c42 0 79 13 129 39v-132z" />
    <glyph glyph-name="notequal" unicode="&#x2260;" 
d="M584 125h-242l-32 -108h-105l32 108h-142v133h179l26 90h-205v133h242l27 97h105l-27 -97h142v-133h-179l-26 -90h205v-133z" />
    <glyph glyph-name="lessequal" unicode="&#x2264;" 
d="M584 0h-489v128h489v-128zM525 168l-430 188v107l430 192l59 -134l-346 -113l346 -107z" />
    <glyph glyph-name="greaterequal" unicode="&#x2265;" 
d="M584 0h-489v128h489v-128zM154 168l-59 133l347 107l-347 113l59 134l430 -192v-107z" />
    <glyph glyph-name="dotmath" unicode="&#x22c5;" 
d="M340 214c-58 0 -89 31 -89 89s31 89 89 89s88 -31 88 -89s-30 -89 -88 -89z" />
    <glyph glyph-name="lozenge" unicode="&#x25ca;" horiz-adv-x="728" 
d="M444 0h-156l-230 350l226 350h156l230 -350zM370 117l137 221l-149 245l-137 -221z" />
    <glyph glyph-name="uniFB00" unicode="&#xfb00;" horiz-adv-x="701" 
d="M576 0h-146v403h-182v-403h-146v403h-77v108h75c-3 18 -4 35 -4 51c0 104 57 168 174 168c23 0 48 -2 76 -7l-12 -110c-15 2 -27 3 -38 3c-43 0 -61 -14 -61 -54c0 -14 2 -31 6 -51h187c-3 18 -4 35 -4 51c0 104 57 168 174 168c23 0 48 -2 76 -7l-12 -110
c-15 2 -27 3 -38 3c-43 0 -61 -14 -61 -54c0 -14 2 -31 6 -51h116l-13 -108h-96v-403z" />
    <glyph glyph-name="fi" unicode="&#xfb01;" horiz-adv-x="641" 
d="M503 588c-54 0 -86 21 -86 74c0 52 32 74 86 74s86 -22 86 -74c0 -53 -32 -74 -86 -74zM589 0h-137c-19 49 -22 113 -22 181v222h-182v-403h-146v403h-77v108h75c-3 18 -4 35 -4 51c0 104 57 168 174 168c23 0 48 -2 76 -7l-12 -110c-15 2 -27 3 -38 3
c-43 0 -61 -14 -61 -54c0 -14 2 -31 6 -51h189l146 17v-357c0 -54 1 -124 13 -171z" />
    <glyph glyph-name="fl" unicode="&#xfb02;" horiz-adv-x="641" 
d="M248 0h-146v403h-77v108h75c-3 18 -4 35 -4 51c0 104 57 168 174 168c23 0 48 -2 76 -7l-12 -110c-15 2 -27 3 -38 3c-43 0 -61 -14 -61 -54c0 -14 2 -31 6 -51h116l-13 -108h-96v-403zM589 0h-137c-19 49 -22 113 -22 181v520l146 17v-547c0 -54 1 -124 13 -171z" />
    <glyph glyph-name="uniFB03" unicode="&#xfb03;" horiz-adv-x="969" 
d="M831 588c-54 0 -86 21 -86 74c0 52 32 74 86 74s86 -22 86 -74c0 -53 -32 -74 -86 -74zM917 0h-137c-19 49 -22 113 -22 181v222h-182v-403h-146v403h-182v-403h-146v403h-77v108h75c-3 18 -4 35 -4 51c0 104 57 168 174 168c23 0 48 -2 76 -7l-12 -110
c-15 2 -27 3 -38 3c-43 0 -61 -14 -61 -54c0 -14 2 -31 6 -51h187c-3 18 -4 35 -4 51c0 104 57 168 174 168c23 0 48 -2 76 -7l-12 -110c-15 2 -27 3 -38 3c-43 0 -61 -14 -61 -54c0 -14 2 -31 6 -51h189l146 17v-357c0 -54 1 -124 13 -171z" />
    <glyph glyph-name="uniFB04" unicode="&#xfb04;" horiz-adv-x="969" 
d="M917 0h-137c-19 49 -22 113 -22 181v520l146 17v-547c0 -54 1 -124 13 -171zM576 0h-146v403h-182v-403h-146v403h-77v108h75c-3 18 -4 35 -4 51c0 104 57 168 174 168c23 0 48 -2 76 -7l-12 -110c-15 2 -27 3 -38 3c-43 0 -61 -14 -61 -54c0 -14 2 -31 6 -51h187
c-3 18 -4 35 -4 51c0 104 57 168 174 168c23 0 48 -2 76 -7l-12 -110c-15 2 -27 3 -38 3c-43 0 -61 -14 -61 -54c0 -14 2 -31 6 -51h116l-13 -108h-96v-403z" />
    <glyph glyph-name="uni030C.alt001" horiz-adv-x="1" 
d="M54 532h-81l21 168l130 17z" />
    <glyph glyph-name="zero.numr" horiz-adv-x="414" 
d="M207 298c-113 0 -157 65 -157 204c0 140 44 205 157 205c112 0 157 -65 157 -205c0 -139 -45 -204 -157 -204zM207 381c50 0 63 42 63 121c0 81 -13 122 -63 122c-51 0 -63 -41 -63 -122c0 -79 12 -121 63 -121z" />
    <glyph glyph-name="one.numr" horiz-adv-x="230" 
d="M161 305h-93v383l93 12v-395z" />
    <glyph glyph-name="two.numr" horiz-adv-x="375" 
d="M321 305h-257l-16 83c86 58 172 126 172 182c0 38 -16 54 -52 54c-32 0 -65 -9 -96 -25l-30 71c40 28 91 37 149 37c78 0 131 -39 131 -116c0 -81 -55 -139 -152 -203h151v-83z" />
    <glyph glyph-name="three.numr" horiz-adv-x="381" 
d="M73 409c32 -17 68 -28 111 -28c35 0 60 13 60 52c0 32 -26 46 -64 46c-13 0 -30 -1 -53 -5l-18 71l105 72h-155v83h250l17 -83l-121 -81c98 0 133 -52 133 -113c0 -80 -52 -125 -150 -125c-60 0 -107 14 -146 40z" />
    <glyph glyph-name="four.numr" horiz-adv-x="401" 
d="M318 305h-94v89h-161l-22 74c40 69 51 150 52 236l99 -8c-7 -89 -27 -167 -60 -228h92v126l94 11v-137h41v-74h-41v-89z" />
    <glyph glyph-name="five.numr" horiz-adv-x="380" 
d="M72 409c34 -19 72 -28 112 -28c49 0 63 19 63 54s-25 45 -68 45c-28 0 -61 -6 -91 -16l-31 70l19 166h232v-83h-157l-12 -73c21 5 44 8 63 8c90 0 138 -53 138 -123c0 -73 -46 -131 -151 -131c-59 0 -109 11 -148 39z" />
    <glyph glyph-name="six.numr" horiz-adv-x="398" 
d="M300 603c-26 15 -56 21 -86 21c-50 0 -69 -27 -70 -89c14 23 41 35 86 35c80 0 124 -48 124 -125c0 -86 -44 -147 -148 -147c-113 0 -157 65 -157 204c0 141 66 205 153 205c53 0 97 -9 131 -32zM144 463c2 -51 17 -82 62 -82c40 0 57 28 57 62c0 42 -17 57 -54 57
c-26 0 -50 -11 -65 -37z" />
    <glyph glyph-name="seven.numr" horiz-adv-x="352" 
d="M190 305h-100c18 131 55 235 130 312h-178v83h257l16 -83c-83 -74 -117 -188 -125 -312z" />
    <glyph glyph-name="eight.numr" horiz-adv-x="389" 
d="M291 509c45 -15 62 -46 62 -90c0 -74 -47 -121 -152 -121c-111 0 -152 50 -152 122c0 40 15 73 60 88c-39 15 -49 47 -49 86c0 56 41 113 141 113c101 0 143 -58 143 -115c0 -39 -16 -71 -53 -83zM173 468c-24 -11 -34 -27 -34 -43c0 -32 14 -50 64 -50c45 0 60 16 60 41
c0 21 -20 39 -90 52zM223 538c21 11 32 27 32 43c0 31 -15 49 -54 49c-38 0 -53 -15 -53 -39c0 -33 30 -42 75 -53z" />
    <glyph glyph-name="nine.numr" horiz-adv-x="397" 
d="M97 402c26 -15 56 -21 86 -21c50 0 69 27 70 89c-14 -23 -41 -35 -86 -35c-80 0 -124 48 -124 125c0 86 44 147 148 147c113 0 157 -65 157 -204c0 -141 -66 -205 -153 -205c-53 0 -97 9 -131 32zM253 542c-2 51 -17 82 -62 82c-40 0 -57 -28 -57 -62
c0 -42 17 -57 54 -57c26 0 50 11 65 37z" />
    <glyph glyph-name="zero.dnom" horiz-adv-x="414" 
d="M207 -7c-113 0 -157 65 -157 204c0 140 44 205 157 205c112 0 157 -65 157 -205c0 -139 -45 -204 -157 -204zM207 76c50 0 63 42 63 121c0 81 -13 122 -63 122c-51 0 -63 -41 -63 -122c0 -79 12 -121 63 -121z" />
    <glyph glyph-name="one.dnom" horiz-adv-x="230" 
d="M161 0h-93v383l93 12v-395z" />
    <glyph glyph-name="two.dnom" horiz-adv-x="375" 
d="M321 0h-257l-16 83c86 58 172 126 172 182c0 38 -16 54 -52 54c-32 0 -65 -9 -96 -25l-30 71c40 28 91 37 149 37c78 0 131 -39 131 -116c0 -81 -55 -139 -152 -203h151v-83z" />
    <glyph glyph-name="three.dnom" horiz-adv-x="381" 
d="M73 104c32 -17 68 -28 111 -28c35 0 60 13 60 52c0 32 -26 46 -64 46c-13 0 -30 -1 -53 -5l-18 71l105 72h-155v83h250l17 -83l-121 -81c98 0 133 -52 133 -113c0 -80 -52 -125 -150 -125c-60 0 -107 14 -146 40z" />
    <glyph glyph-name="four.dnom" horiz-adv-x="401" 
d="M318 0h-94v89h-161l-22 74c40 69 51 150 52 236l99 -8c-7 -89 -27 -167 -60 -228h92v126l94 11v-137h41v-74h-41v-89z" />
    <glyph glyph-name="five.dnom" horiz-adv-x="380" 
d="M72 104c34 -19 72 -28 112 -28c49 0 63 19 63 54s-25 45 -68 45c-28 0 -61 -6 -91 -16l-31 70l19 166h232v-83h-157l-12 -73c21 5 44 8 63 8c90 0 138 -53 138 -123c0 -73 -46 -131 -151 -131c-59 0 -109 11 -148 39z" />
    <glyph glyph-name="six.dnom" horiz-adv-x="398" 
d="M300 298c-26 15 -56 21 -86 21c-50 0 -69 -27 -70 -89c14 23 41 35 86 35c80 0 124 -48 124 -125c0 -86 -44 -147 -148 -147c-113 0 -157 65 -157 204c0 141 66 205 153 205c53 0 97 -9 131 -32zM144 158c2 -51 17 -82 62 -82c40 0 57 28 57 62c0 42 -17 57 -54 57
c-26 0 -50 -11 -65 -37z" />
    <glyph glyph-name="seven.dnom" horiz-adv-x="352" 
d="M190 0h-100c18 131 55 235 130 312h-178v83h257l16 -83c-83 -74 -117 -188 -125 -312z" />
    <glyph glyph-name="eight.dnom" horiz-adv-x="389" 
d="M291 204c45 -15 62 -46 62 -90c0 -74 -47 -121 -152 -121c-111 0 -152 50 -152 122c0 40 15 73 60 88c-39 15 -49 47 -49 86c0 56 41 113 141 113c101 0 143 -58 143 -115c0 -39 -16 -71 -53 -83zM173 163c-24 -11 -34 -27 -34 -43c0 -32 14 -50 64 -50c45 0 60 16 60 41
c0 21 -20 39 -90 52zM223 233c21 11 32 27 32 43c0 31 -15 49 -54 49c-38 0 -53 -15 -53 -39c0 -33 30 -42 75 -53z" />
    <glyph glyph-name="nine.dnom" horiz-adv-x="397" 
d="M97 97c26 -15 56 -21 86 -21c50 0 69 27 70 89c-14 -23 -41 -35 -86 -35c-80 0 -124 48 -124 125c0 86 44 147 148 147c113 0 157 -65 157 -204c0 -141 -66 -205 -153 -205c-53 0 -97 9 -131 32zM253 237c-2 51 -17 82 -62 82c-40 0 -57 -28 -57 -62c0 -42 17 -57 54 -57
c26 0 50 11 65 37z" />
    <glyph glyph-name="space.frac" horiz-adv-x="41" 
 />
    <glyph glyph-name="numbersign.tf" 
d="M446 0h-145l30 139h-71l-25 -139h-146l33 139h-129l26 127h128l35 169h-130l27 126h128l22 139h149l-31 -139h69l24 139h148l-30 -139h129l-27 -126h-129l-34 -169h130l-27 -127h-129zM362 256l38 189h-85l-39 -189h86z" />
    <glyph glyph-name="dollar.tf" 
d="M398 -117h-119v108c-78 7 -150 26 -214 62l51 119c70 -35 149 -50 219 -50c72 0 124 19 124 75c0 51 -68 66 -146 84c-107 25 -234 61 -234 220c0 122 79 190 200 207v109h119v-109c61 -5 120 -21 180 -51l-48 -120c-60 28 -124 41 -180 41c-70 0 -121 -19 -121 -71
c0 -53 56 -66 143 -88c110 -28 242 -64 242 -211c0 -118 -74 -201 -216 -216v-109z" />
    <glyph glyph-name="zero.tf" 
d="M340 -12c-207 0 -290 115 -290 362s83 362 290 362s290 -115 290 -362s-83 -362 -290 -362zM340 122c112 0 137 80 137 228c0 150 -25 228 -137 228s-137 -78 -137 -228c0 -148 25 -228 137 -228z" />
    <glyph glyph-name="one.tf" 
d="M620 0h-521v134h195v406l-187 -10l-17 124l356 46v-566h174v-134z" />
    <glyph glyph-name="two.tf" 
d="M612 0h-508l-27 134c173 109 336 230 336 340c0 74 -33 103 -113 103c-58 0 -121 -14 -179 -43l-53 117c74 48 161 61 272 61c146 0 242 -70 242 -204c0 -147 -110 -256 -300 -374h330v-134z" />
    <glyph glyph-name="three.tf" 
d="M335 -12c-106 0 -195 22 -269 68l54 116c61 -32 131 -50 208 -50c80 0 132 25 132 103c0 64 -54 92 -138 92c-27 0 -53 -3 -98 -10l-31 117l208 142h-306v134h462l31 -134l-232 -157c185 0 257 -87 257 -200c0 -137 -94 -221 -278 -221z" />
    <glyph glyph-name="four.tf" 
d="M541 0h-153v163h-305l-40 120c75 129 96 269 99 422l162 -12c-15 -158 -55 -300 -115 -410h199v244l153 18v-262h109v-120h-109v-163z" />
    <glyph glyph-name="five.tf" 
d="M340 -12c-106 0 -197 20 -273 69l54 115c66 -34 138 -50 210 -50c100 0 134 34 134 107c0 71 -52 90 -150 90c-41 0 -96 -9 -164 -29l-54 115l36 295h424v-134h-302l-21 -146c43 11 88 16 128 16c160 0 257 -87 257 -218c0 -127 -84 -230 -279 -230z" />
    <glyph glyph-name="six.tf" 
d="M582 658l-57 -117c-49 26 -105 37 -159 37c-112 0 -146 -58 -151 -174c39 46 94 66 179 66c146 0 231 -86 231 -224c0 -149 -82 -258 -274 -258c-207 0 -290 115 -290 362c0 249 121 362 284 362c92 0 170 -13 237 -54zM216 283c6 -103 39 -161 136 -161
c89 0 124 54 124 123c0 80 -40 110 -119 110c-59 0 -110 -21 -141 -72z" />
    <glyph glyph-name="seven.tf" 
d="M346 0h-166c32 235 138 426 285 566h-394v134h526l29 -134c-164 -134 -260 -341 -280 -566z" />
    <glyph glyph-name="eight.tf" 
d="M505 359c79 -23 116 -79 116 -160c0 -127 -89 -211 -281 -211c-204 0 -281 90 -281 215c0 71 35 127 112 157c-67 30 -91 90 -91 153c0 101 78 199 260 199c185 0 264 -101 264 -202c0 -72 -31 -128 -99 -151zM278 297c-54 -16 -72 -53 -72 -84c0 -64 32 -100 136 -100
c99 0 131 31 131 82c0 63 -85 83 -195 102zM392 405c50 23 66 55 66 87c0 60 -31 95 -119 95c-83 0 -115 -29 -115 -78c0 -70 79 -85 168 -104z" />
    <glyph glyph-name="nine.tf" 
d="M98 42l57 117c49 -26 105 -37 159 -37c112 0 146 58 151 174c-39 -46 -94 -66 -179 -66c-146 0 -231 86 -231 224c0 149 82 258 274 258c207 0 290 -115 290 -362c0 -249 -121 -362 -284 -362c-92 0 -170 13 -237 54zM464 417c-6 103 -39 161 -136 161
c-89 0 -124 -54 -124 -123c0 -80 40 -110 119 -110c59 0 110 21 141 72z" />
    <glyph glyph-name="cent.tf" 
d="M505 132l50 -108c-42 -23 -84 -32 -140 -35v-106h-115v107c-130 14 -200 100 -200 274c0 156 62 251 200 272v105h115v-102c46 -3 93 -12 140 -35l-50 -108c-40 20 -90 25 -137 25c-80 0 -121 -39 -121 -157s41 -157 121 -157c47 0 97 5 137 25z" />
    <glyph glyph-name="sterling.tf" 
d="M605 0h-473l-24 135c48 43 56 83 56 140v24h-90v105h80c-8 41 -12 80 -12 116c0 131 102 192 234 192c87 0 160 -13 226 -59l-65 -107c-39 22 -87 30 -134 30c-94 0 -124 -30 -124 -95c0 -24 2 -50 6 -77h176v-105h-168c1 -9 1 -16 1 -22c0 -51 -13 -101 -50 -142h361
v-135z" />
    <glyph glyph-name="yen.tf" 
d="M414 0h-153v138h-135v72h135v50h-135v72h93l-207 351l183 26l146 -319l148 310h179l-212 -368h93v-72h-135v-50h135v-72h-135v-138z" />
    <glyph glyph-name="section.tf" 
d="M531 125c30 -27 43 -64 43 -101c0 -125 -117 -176 -241 -176c-84 0 -160 14 -223 51l46 103c55 -29 114 -40 177 -40c56 0 95 11 95 54c0 102 -363 63 -363 272c0 63 32 116 83 147c-30 27 -43 64 -43 101c0 125 117 176 241 176c84 0 160 -14 223 -51l-46 -103
c-55 29 -114 40 -177 40c-56 0 -95 -11 -95 -54c0 -102 363 -63 363 -272c0 -63 -32 -116 -83 -147zM475 255c0 66 -157 75 -225 112c-28 -10 -46 -33 -46 -62c0 -66 157 -74 225 -112c28 10 46 33 46 62z" />
    <glyph glyph-name="uni2007.tf" 
 />
    <glyph glyph-name="Euro.tf" 
d="M469 244h-180c13 -77 48 -121 132 -121c48 0 95 5 140 30l52 -119c-64 -40 -128 -46 -196 -46c-175 0 -261 82 -283 256h-67v72h61v60h-61v72h66c21 179 106 264 284 264c68 0 132 -6 196 -46l-52 -119c-45 25 -92 30 -140 30c-87 0 -122 -47 -134 -129h182v-72h-187v-60
h187v-72z" />
    <glyph glyph-name="parenleft.case" horiz-adv-x="319" 
d="M277 -41l-104 -50c-69 104 -143 254 -143 441s74 337 143 441l104 -50c-67 -121 -113 -248 -113 -391s46 -270 113 -391z" />
    <glyph glyph-name="parenright.case" horiz-adv-x="319" 
d="M146 -91l-104 50c67 121 113 248 113 391s-46 270 -113 391l104 50c69 -104 143 -254 143 -441s-74 -337 -143 -441z" />
    <glyph glyph-name="hyphen.case" horiz-adv-x="439" 
d="M381 280h-323v139h323v-139z" />
    <glyph glyph-name="bracketleft.case" horiz-adv-x="342" 
d="M296 -79h-236v858h236v-117h-103v-624h103v-117z" />
    <glyph glyph-name="bracketright.case" horiz-adv-x="342" 
d="M282 -79h-236v117h103v624h-103v117h236v-858z" />
    <glyph glyph-name="braceleft.case" horiz-adv-x="389" 
d="M349 -91h-19c-109 0 -201 41 -201 147c0 166 0 225 -90 233l-9 121c98 10 99 63 99 234c0 105 90 147 198 147h22v-122c-67 0 -87 -15 -87 -90c0 -128 -15 -208 -94 -229c79 -21 94 -101 94 -229c0 -75 20 -90 87 -90v-122z" />
    <glyph glyph-name="braceright.case" horiz-adv-x="389" 
d="M40 -91v122c67 0 87 15 87 90c0 128 15 208 94 229c-79 21 -94 101 -94 229c0 75 -20 90 -87 90v122h19c109 0 201 -41 201 -147c0 -171 1 -224 99 -234l-9 -121c-90 -8 -90 -67 -90 -233c0 -106 -92 -147 -201 -147h-19z" />
    <glyph glyph-name="guillemotleft.case" horiz-adv-x="678" 
d="M278 124l-232 168v116l232 168l57 -124l-173 -102l173 -102zM576 124l-232 168v116l232 168l57 -124l-173 -102l173 -102z" />
    <glyph glyph-name="uni00AD.case" horiz-adv-x="439" 
d="M381 280h-323v139h323v-139z" />
    <glyph glyph-name="guillemotright.case" horiz-adv-x="678" 
d="M102 124l-56 124l173 102l-173 102l56 124l233 -168v-116zM399 124l-56 124l173 102l-173 102l56 124l233 -168v-116z" />
    <glyph glyph-name="gravecomb.case" horiz-adv-x="1" 
d="M-285 759l-106 -10l-113 175l153 9z" />
    <glyph glyph-name="acutecomb.case" horiz-adv-x="1" 
d="M-316 749l-105 10l66 174l153 -9z" />
    <glyph glyph-name="uni0302.case" horiz-adv-x="1" 
d="M-220 746l-127 81l-128 -81l-66 63l142 122h103l142 -122z" />
    <glyph glyph-name="tildecomb.case" horiz-adv-x="1" 
d="M-131 829c-53 -59 -101 -80 -144 -80c-57 0 -96 44 -148 44c-30 0 -61 -11 -93 -41l-47 78c53 59 101 80 144 80c57 0 96 -44 148 -44c29 0 61 11 93 41z" />
    <glyph glyph-name="uni0304.case" horiz-adv-x="1" 
d="M-41 760h-374v117h374v-117z" />
    <glyph glyph-name="uni0306.case" horiz-adv-x="1" 
d="M-39 945c-12 -142 -90 -204 -183 -204s-171 62 -183 204l111 10c3 -68 30 -98 72 -98s69 30 72 98z" />
    <glyph glyph-name="uni0307.case" horiz-adv-x="1" 
d="M-125 748c-54 0 -86 21 -86 74c0 52 32 74 86 74s86 -22 86 -74c0 -53 -32 -74 -86 -74z" />
    <glyph glyph-name="uni0308.case" horiz-adv-x="1" 
d="M-352 751c-50 0 -80 20 -80 70c0 51 30 72 80 72c49 0 79 -21 79 -72c0 -50 -30 -70 -79 -70zM-123 751c-50 0 -79 20 -79 70c0 51 29 72 79 72s79 -21 79 -72c0 -50 -29 -70 -79 -70z" />
    <glyph glyph-name="uni030A.case" horiz-adv-x="1" 
d="M-180 738c-93 0 -141 43 -141 122c0 78 48 122 141 122s141 -44 141 -122c0 -79 -48 -122 -141 -122zM-180 803c34 0 51 20 51 57s-17 57 -51 57s-51 -20 -51 -57s17 -57 51 -57z" />
    <glyph glyph-name="uni030B.case" horiz-adv-x="1" 
d="M-392 749l-88 34l95 145l141 -14zM-186 749l-89 34l94 145l142 -14z" />
    <glyph glyph-name="uni030C.case" horiz-adv-x="1" 
d="M-236 755h-103l-142 122l66 62l128 -80l127 80l66 -62z" />
    <glyph glyph-name="uni0326.case" horiz-adv-x="1" 
d="M-286 -217h-104l29 170l134 10z" />
    <glyph glyph-name="uni0327.case" horiz-adv-x="1" 
d="M-237 -182l19 69c18 -7 38 -11 54 -11c20 0 33 5 33 20s-10 29 -64 33l17 71h89l-7 -35c42 -8 57 -40 57 -78c0 -60 -53 -84 -110 -84c-31 0 -63 5 -88 15z" />
    <glyph glyph-name="uni0328.case" horiz-adv-x="1" 
d="M-59 -111l20 -65c-29 -16 -64 -21 -95 -21c-62 0 -102 32 -102 92c0 40 20 78 67 105h96c-53 -33 -72 -57 -72 -88c0 -25 15 -33 36 -33c16 0 34 3 50 10z" />
    <glyph glyph-name="endash.case" horiz-adv-x="582" 
d="M524 281h-466v138h466v-138z" />
    <glyph glyph-name="emdash.case" horiz-adv-x="709" 
d="M651 281h-593v138h593v-138z" />
    <glyph glyph-name="guilsinglleft.case" horiz-adv-x="381" 
d="M278 124l-232 168v116l232 168l57 -124l-173 -102l173 -102z" />
    <glyph glyph-name="guilsinglright.case" horiz-adv-x="381" 
d="M102 124l-56 124l173 102l-173 102l56 124l233 -168v-116z" />
    </font>
</defs>
</svg>
