<?xml version="1.0" standalone="no"?>
<!DOCTYPE svg PUBLIC "-//W3C//DTD SVG 1.1//EN" "http://www.w3.org/Graphics/SVG/1.1/DTD/svg11.dtd" >
<svg xmlns="http://www.w3.org/2000/svg" xmlns:xlink="http://www.w3.org/1999/xlink" version="1.1">
<metadata>
Created by FontForge 20161116 at Thu May  8 09:33:19 2008
 By Jimmy Wärting

</metadata>
<defs>
<font id="EnzoOT-BoldIta" horiz-adv-x="680" >
  <font-face 
    font-family="EnzoOT-BoldIta"
    font-weight="700"
    font-style="italic"
    font-stretch="normal"
    units-per-em="1000"
    panose-1="2 1 8 4 1 1 1 1 1 4"
    ascent="828"
    descent="-172"
    x-height="528"
    cap-height="700"
    bbox="-503 -204 1417 940"
    underline-thickness="79"
    underline-position="-114"
    stemh="134"
    stemv="147"
    unicode-range="U+000D-FB04"
  />
<missing-glyph horiz-adv-x="583" 
d="M20 0v700h543v-700h-543zM99 79h385v542h-385v-542z" />
    <glyph glyph-name="fi" unicode="fi" horiz-adv-x="641" 
d="M552 0h-138c-9 36 -13 76 -13 117c0 27 2 54 5 80l25 206h-182l-49 -403h-147l49 403h-77l13 108h75c-2 13 -3 25 -3 37c0 117 79 182 191 182c25 0 51 -4 79 -10l-25 -108c-17 3 -31 4 -43 4c-44 0 -61 -20 -61 -62c0 -13 1 -27 4 -43h194l144 17l-43 -357
c-3 -26 -5 -54 -5 -82c0 -30 2 -61 7 -89zM525 588c-49 0 -77 23 -77 65c0 63 38 83 97 83c49 0 77 -23 77 -65c0 -63 -38 -83 -97 -83z" />
    <glyph glyph-name="fl" unicode="fl" horiz-adv-x="642" 
d="M205 0h-147l49 403h-77l13 108h75c-2 13 -3 25 -3 37c0 117 79 182 191 182c25 0 51 -4 79 -10l-25 -108c-17 3 -31 4 -43 4c-44 0 -61 -20 -61 -62c0 -13 1 -27 4 -43h118l-31 -108h-93zM556 0h-138c-9 36 -13 76 -13 117c0 27 2 54 5 80l61 495l150 26l-67 -547
c-3 -26 -5 -54 -5 -82c0 -30 2 -61 7 -89z" />
    <glyph glyph-name="uniFB03" unicode="ffi" horiz-adv-x="971" 
d="M885 0h-138c-9 36 -13 76 -13 117c0 27 2 54 5 80l25 206h-182l-49 -403h-147l49 403h-181l-49 -403h-147l49 403h-77l13 108h75c-2 13 -3 25 -3 37c0 117 79 182 191 182c25 0 51 -4 79 -10l-25 -108c-17 3 -31 4 -43 4c-44 0 -61 -20 -61 -62c0 -13 1 -27 4 -43h186
c-2 13 -3 25 -3 37c0 117 79 182 191 182c25 0 51 -4 79 -10l-25 -108c-17 3 -31 4 -43 4c-44 0 -61 -20 -61 -62c0 -13 1 -27 4 -43h189l150 17l-44 -357c-3 -26 -5 -54 -5 -82c0 -30 2 -61 7 -89zM858 588c-49 0 -77 23 -77 65c0 63 38 83 97 83c49 0 77 -23 77 -65
c0 -63 -38 -83 -97 -83z" />
    <glyph glyph-name="uniFB04" unicode="ffl" horiz-adv-x="971" 
d="M533 0h-147l49 403h-181l-49 -403h-147l49 403h-77l13 108h75c-2 13 -3 25 -3 37c0 117 79 182 191 182c25 0 51 -4 79 -10l-25 -108c-17 3 -31 4 -43 4c-44 0 -61 -20 -61 -62c0 -13 1 -27 4 -43h186c-2 13 -3 25 -3 37c0 117 79 182 191 182c25 0 51 -4 79 -10
l-25 -108c-17 3 -31 4 -43 4c-44 0 -61 -20 -61 -62c0 -13 1 -27 4 -43h118l-31 -108h-93zM885 0h-138c-9 36 -13 76 -13 117c0 27 2 54 5 80l61 495l150 26l-67 -547c-3 -26 -5 -54 -5 -82c0 -30 2 -61 7 -89z" />
    <glyph glyph-name=".notdef" horiz-adv-x="583" 
d="M20 0v700h543v-700h-543zM99 79h385v542h-385v-542z" />
    <glyph glyph-name=".null" horiz-adv-x="0" 
 />
    <glyph glyph-name=".null" horiz-adv-x="0" 
 />
    <glyph glyph-name="CR" unicode="&#xd;" horiz-adv-x="207" 
 />
    <glyph glyph-name="space" unicode=" " horiz-adv-x="207" 
 />
    <glyph glyph-name="exclam" unicode="!" horiz-adv-x="316" 
d="M118 -8c-51 0 -78 28 -78 73c0 65 37 94 99 94c52 0 79 -29 79 -74c0 -65 -39 -93 -100 -93zM209 219h-126l37 474l169 16c-28 -177 -52 -338 -80 -490z" />
    <glyph glyph-name="quotedbl" unicode="&#x22;" horiz-adv-x="406" 
d="M168 405h-114l22 313h148zM367 405h-114l22 313h148z" />
    <glyph glyph-name="numbersign" unicode="#" horiz-adv-x="867" 
d="M537 0h-145l47 139h-150l-42 -139h-146l50 139h-129l42 127h128l55 169h-130l43 126h128l39 139h149l-48 -139h148l41 139h148l-47 -139h128l-43 -126h-128l-54 -169h130l-43 -127h-129zM485 256l61 189h-164l-62 -189h165z" />
    <glyph glyph-name="dollar" unicode="$" horiz-adv-x="591" 
d="M301 -117h-119l13 109c-74 8 -138 32 -193 71l63 113c62 -38 136 -55 206 -55c56 0 116 11 116 79c0 101 -320 65 -320 278c0 136 83 214 215 231l14 108h120l-14 -109c56 -7 107 -24 159 -55l-61 -114c-56 31 -111 39 -165 39c-59 0 -113 -19 -113 -80
c0 -104 321 -62 321 -292c0 -130 -91 -201 -229 -215z" />
    <glyph glyph-name="percent" unicode="%" horiz-adv-x="1025" 
d="M751 80c75 0 97 63 97 170c0 49 -15 82 -67 82c-75 0 -97 -63 -97 -170c0 -49 15 -82 67 -82zM740 -10c-123 0 -176 65 -176 174c0 184 75 258 228 258c123 0 176 -65 176 -174c0 -184 -75 -258 -228 -258zM244 372c75 0 97 63 97 170c0 49 -15 82 -67 82
c-75 0 -97 -63 -97 -170c0 -49 15 -82 67 -82zM233 282c-123 0 -176 65 -176 174c0 184 75 258 228 258c123 0 176 -65 176 -174c0 -184 -75 -258 -228 -258zM743 685l-386 -700l-78 30l386 700z" />
    <glyph glyph-name="ampersand" unicode="&#x26;" horiz-adv-x="718" 
d="M540 0h-280c-156 0 -231 64 -231 176c0 132 93 174 166 182c-55 11 -95 74 -95 143c0 141 96 191 208 203l29 -119c-50 -10 -90 -23 -90 -93c0 -64 45 -84 114 -84h76l13 106l157 27l-14 -115l96 -14l-14 -115h-98zM402 121l22 176h-93c-88 0 -139 -12 -139 -99
c0 -59 45 -77 149 -77h61z" />
    <glyph glyph-name="quotesingle" unicode="'" horiz-adv-x="207" 
d="M168 405h-114l22 313h148z" />
    <glyph glyph-name="parenleft" unicode="(" horiz-adv-x="332" 
d="M266 -108l-105 -44c-73 100 -127 223 -127 372c0 215 82 358 225 510l102 -58c-132 -134 -195 -295 -195 -460c0 -111 33 -218 100 -320z" />
    <glyph glyph-name="parenright" unicode=")" horiz-adv-x="332" 
d="M64 -152l-102 58c132 134 195 295 195 460c0 111 -33 218 -100 320l105 44c73 -100 127 -223 127 -372c0 -215 -82 -358 -225 -510z" />
    <glyph glyph-name="asterisk" unicode="*" horiz-adv-x="484" 
d="M403 371l-98 -67l-57 110l-86 -109l-90 66l98 103l-122 33l50 109l118 -46l9 130h116c-6 -40 -16 -91 -25 -130l127 47l23 -109l-130 -35c23 -29 47 -68 67 -102z" />
    <glyph glyph-name="plus" unicode="+" 
d="M409 71h-139v163h-175v138h175v163h139v-163h175v-138h-175v-163z" />
    <glyph glyph-name="comma" unicode="," horiz-adv-x="278" 
d="M76 -140h-107l100 338l164 10z" />
    <glyph glyph-name="hyphen" unicode="-" horiz-adv-x="438" 
d="M368 233h-323l17 139h323z" />
    <glyph glyph-name="period" unicode="." horiz-adv-x="290" 
d="M105 -8c-52 0 -79 30 -79 76c0 70 37 100 100 100c52 0 80 -31 80 -78c0 -69 -40 -98 -101 -98z" />
    <glyph glyph-name="slash" unicode="/" horiz-adv-x="367" 
d="M376 686l-262 -700l-131 28l262 700z" />
    <glyph glyph-name="zero" unicode="0" horiz-adv-x="650" 
d="M285 -12c-171 0 -245 102 -245 284c0 313 111 440 325 440c171 0 245 -102 245 -284c0 -313 -111 -440 -325 -440zM302 122c117 0 153 113 153 301c0 91 -25 155 -107 155c-117 0 -153 -113 -153 -301c0 -91 25 -155 107 -155z" />
    <glyph glyph-name="one" unicode="1" horiz-adv-x="282" 
d="M174 0h-152l80 663l158 37z" />
    <glyph glyph-name="two" unicode="2" horiz-adv-x="573" 
d="M484 0h-441l-21 134c207 123 354 254 354 355c0 65 -40 85 -100 85s-118 -14 -168 -37l-36 121c71 38 157 54 251 54c132 0 227 -63 227 -187c0 -164 -127 -272 -327 -391h278z" />
    <glyph glyph-name="three" unicode="3" horiz-adv-x="586" 
d="M58 174c51 -34 123 -52 197 -52c87 0 128 37 128 100c0 62 -49 92 -119 92c-9 0 -22 0 -85 -7l-21 117l208 142h-291l17 134h442l21 -134l-243 -161c150 -3 225 -75 225 -181c0 -150 -107 -236 -292 -236c-102 0 -186 26 -249 73z" />
    <glyph glyph-name="four" unicode="4" horiz-adv-x="619" 
d="M465 0h-152l20 163h-274l-34 120c90 130 129 259 144 424l158 -15c-30 -167 -74 -299 -156 -409h177l29 235l155 27l-32 -262h72l-15 -120h-72z" />
    <glyph glyph-name="five" unicode="5" horiz-adv-x="585" 
d="M56 174c49 -32 121 -52 195 -52c79 0 136 26 136 110c0 70 -46 86 -108 86c-56 0 -115 -13 -166 -28l-51 115l70 295h405l-16 -134h-283l-40 -146c41 11 83 16 120 16c142 0 222 -88 222 -201c0 -149 -97 -247 -297 -247c-101 0 -185 28 -249 73z" />
    <glyph glyph-name="six" unicode="6" horiz-adv-x="616" 
d="M301 122c84 0 127 51 127 134c0 65 -39 99 -97 99c-50 0 -100 -19 -136 -72c-1 -9 -1 -17 -1 -22c0 -83 23 -139 107 -139zM281 -12c-177 0 -241 118 -241 284c0 313 111 440 325 440c73 0 140 -17 192 -54l-63 -116c-40 25 -92 36 -140 36c-81 0 -147 -46 -151 -174
c37 44 83 66 148 66c143 0 224 -75 224 -213c0 -147 -80 -269 -294 -269z" />
    <glyph glyph-name="seven" unicode="7" horiz-adv-x="534" 
d="M245 0h-165c39 243 126 429 296 566h-319l17 134h439l22 -134c-212 -161 -273 -342 -290 -566z" />
    <glyph glyph-name="eight" unicode="8" horiz-adv-x="624" 
d="M363 405c57 23 78 51 78 98c0 50 -25 84 -97 84c-76 0 -113 -34 -113 -84c0 -63 56 -78 132 -98zM262 298c-62 -24 -85 -60 -85 -97c0 -50 27 -88 112 -88c83 0 129 30 129 88c0 60 -69 78 -156 97zM472 358c64 -23 96 -77 96 -147c0 -134 -95 -223 -295 -223
c-165 0 -243 83 -243 189c0 78 34 152 129 183c-55 22 -73 73 -73 131c0 113 74 221 275 221c162 0 229 -100 229 -192c0 -76 -36 -135 -118 -162z" />
    <glyph glyph-name="nine" unicode="9" horiz-adv-x="616" 
d="M122 158c40 -25 92 -36 140 -36c81 0 147 46 151 174c-37 -44 -83 -66 -148 -66c-143 0 -224 75 -224 213c0 147 80 269 294 269c177 0 241 -118 241 -284c0 -313 -111 -440 -325 -440c-73 0 -140 17 -192 54zM421 417c1 9 1 17 1 22c0 83 -23 139 -107 139
s-127 -51 -127 -134c0 -65 39 -99 97 -99c50 0 100 19 136 72z" />
    <glyph glyph-name="colon" unicode=":" horiz-adv-x="292" 
d="M107 -9c-52 0 -79 30 -79 76c0 70 37 100 100 100c52 0 80 -31 80 -78c0 -69 -40 -98 -101 -98zM145 295c-52 0 -79 30 -79 76c0 70 37 100 100 100c52 0 80 -31 80 -78c0 -69 -40 -98 -101 -98z" />
    <glyph glyph-name="semicolon" unicode=";" horiz-adv-x="301" 
d="M154 295c-52 0 -79 30 -79 76c0 70 37 100 100 100c52 0 80 -31 80 -78c0 -69 -40 -98 -101 -98zM76 -140h-107l100 338l164 10z" />
    <glyph glyph-name="less" unicode="&#x3c;" 
d="M525 53l-430 196v111l430 200l59 -140l-346 -117l346 -111z" />
    <glyph glyph-name="equal" unicode="=" 
d="M584 348h-489v133h489v-133zM584 125h-489v133h489v-133z" />
    <glyph glyph-name="greater" unicode="&#x3e;" 
d="M154 52l-59 140l347 111l-347 117l59 140l430 -200v-111z" />
    <glyph glyph-name="question" unicode="?" horiz-adv-x="458" 
d="M242 219h-126l11 179c102 10 150 30 150 94c0 98 -93 98 -197 99l32 119c16 1 32 2 48 2c131 0 278 -46 278 -201c0 -110 -56 -176 -180 -195zM151 -8c-51 0 -78 28 -78 73c0 65 37 94 99 94c52 0 79 -29 79 -74c0 -65 -39 -93 -100 -93z" />
    <glyph glyph-name="at" unicode="@" horiz-adv-x="937" 
d="M522 197l48 212c-24 9 -47 13 -67 13c-91 0 -140 -82 -140 -199c0 -47 14 -85 61 -85c45 0 70 23 98 59zM621 -95c-79 -44 -169 -63 -265 -63c-186 0 -325 98 -325 322c0 376 218 548 542 548c201 0 333 -111 333 -289c0 -191 -100 -357 -373 -375l-6 70
c-33 -45 -81 -71 -150 -71c-87 0 -130 65 -130 161c0 211 106 306 262 306c70 0 135 -14 190 -39l-59 -248c-7 -29 -12 -59 -13 -88c101 30 166 109 166 268c0 123 -49 210 -241 210c-261 0 -406 -159 -406 -441c0 -164 79 -235 218 -235c77 0 153 16 229 51z" />
    <glyph glyph-name="A" unicode="A" horiz-adv-x="647" 
d="M596 9l-165 -18l-22 140h-219l-51 -131h-167l315 690l160 18zM391 245l-44 283l-111 -283h155z" />
    <glyph glyph-name="B" unicode="B" horiz-adv-x="616" 
d="M221 408h75c67 0 136 2 136 99c0 58 -51 82 -106 82c-29 0 -58 -3 -84 -8zM186 121h60c117 0 171 14 171 101c0 58 -46 75 -117 75h-93zM18 0l84 684c63 15 147 27 224 27c134 0 257 -47 257 -182c0 -101 -58 -155 -132 -169c58 -7 125 -56 125 -147
c0 -154 -104 -213 -278 -213h-280z" />
    <glyph glyph-name="C" unicode="C" horiz-adv-x="583" 
d="M514 41c-63 -41 -141 -53 -222 -53c-149 0 -252 86 -252 284c0 348 155 440 335 440c73 0 143 -11 203 -52l-62 -117c-44 25 -96 33 -143 33c-116 0 -178 -96 -178 -301c0 -105 26 -151 119 -151c46 0 104 6 162 34z" />
    <glyph glyph-name="D" unicode="D" 
d="M187 134h53c185 0 246 40 246 288c0 119 -60 155 -145 155c-31 0 -65 -5 -101 -12zM17 0l84 683c74 15 156 29 233 29c165 0 307 -61 307 -284c0 -317 -116 -428 -361 -428h-263z" />
    <glyph glyph-name="E" unicode="E" horiz-adv-x="558" 
d="M470 0h-453l85 700h453l-16 -135h-300l-17 -137h243l-40 -121h-218l-21 -172h300z" />
    <glyph glyph-name="F" unicode="F" horiz-adv-x="530" 
d="M170 0h-153l85 700h453l-16 -135h-300l-20 -162h243l-40 -121h-218z" />
    <glyph glyph-name="G" unicode="G" horiz-adv-x="668" 
d="M583 44c-68 -39 -174 -56 -278 -56c-185 0 -265 102 -265 284c0 336 174 440 354 440c81 0 158 -13 223 -55l-66 -118c-47 25 -101 34 -151 34c-124 0 -205 -67 -205 -296c0 -91 29 -155 126 -155c41 0 89 4 121 22l14 117h-126l14 112h280z" />
    <glyph glyph-name="H" unicode="H" horiz-adv-x="670" 
d="M567 0h-153l36 293h-244l-36 -293h-153l85 700h153l-33 -273h244l33 273h153z" />
    <glyph glyph-name="I" unicode="I" horiz-adv-x="273" 
d="M170 0h-153l86 700h153z" />
    <glyph glyph-name="J" unicode="J" horiz-adv-x="299" 
d="M21 -173l-64 101c71 33 91 76 102 162l75 610h153l-71 -583c-18 -146 -62 -244 -195 -290z" />
    <glyph glyph-name="K" unicode="K" horiz-adv-x="631" 
d="M407 -13l-194 349l-42 -336h-154l86 700h154l-39 -323l246 323l176 -19l-274 -321l218 -339z" />
    <glyph glyph-name="L" unicode="L" horiz-adv-x="555" 
d="M484 0h-467l85 700h154l-68 -565h312z" />
    <glyph glyph-name="M" unicode="M" horiz-adv-x="851" 
d="M617 -9l36 497l-187 -488h-141l-82 488l-81 -488h-156l149 700h185l75 -510l193 510h189l-23 -697z" />
    <glyph glyph-name="N" unicode="N" horiz-adv-x="694" 
d="M591 0h-169l-134 316c-27 63 -54 121 -73 189c-2 -98 -16 -204 -27 -298l-25 -207h-146l84 682l179 27l118 -283c34 -82 64 -151 90 -226v34c0 82 6 172 20 283l23 183h146z" />
    <glyph glyph-name="O" unicode="O" horiz-adv-x="697" 
d="M305 -12c-185 0 -265 102 -265 284c0 313 120 440 352 440c185 0 265 -102 265 -284c0 -313 -120 -440 -352 -440zM321 122c139 0 181 113 181 301c0 91 -29 155 -126 155c-139 0 -181 -113 -181 -301c0 -91 29 -155 126 -155z" />
    <glyph glyph-name="P" unicode="P" horiz-adv-x="606" 
d="M171 0h-154l83 684c73 16 159 28 230 28c159 0 275 -68 275 -224c0 -201 -139 -270 -306 -270c-33 0 -66 3 -100 8zM213 343c29 -4 57 -7 84 -7c86 0 154 29 154 135c0 82 -62 105 -129 105c-28 0 -57 -4 -82 -9z" />
    <glyph glyph-name="Q" unicode="Q" horiz-adv-x="696" 
d="M377 -157c-50 44 -80 95 -97 146c-162 11 -233 111 -233 283c0 313 120 440 352 440c185 0 265 -102 265 -284c0 -264 -86 -396 -252 -430c21 -32 60 -66 111 -100zM328 122c139 0 181 113 181 301c0 91 -29 155 -126 155c-139 0 -181 -113 -181 -301
c0 -91 29 -155 126 -155z" />
    <glyph glyph-name="R" unicode="R" horiz-adv-x="632" 
d="M213 347h90c85 0 143 34 143 129c0 74 -58 100 -123 100c-28 0 -57 -3 -83 -9zM404 -12l-96 244h-109l-28 -232h-154l84 684c71 17 150 27 229 27c148 0 273 -55 273 -217c0 -133 -54 -209 -152 -237l124 -248z" />
    <glyph glyph-name="S" unicode="S" horiz-adv-x="591" 
d="M65 176c62 -38 136 -55 206 -55c56 0 116 11 116 79c0 101 -320 65 -320 278c0 155 107 234 271 234c81 0 152 -16 223 -59l-61 -114c-56 31 -111 39 -165 39c-59 0 -113 -19 -113 -80c0 -104 321 -62 321 -292c0 -147 -115 -218 -284 -218c-101 0 -186 26 -257 75z" />
    <glyph glyph-name="T" unicode="T" horiz-adv-x="575" 
d="M321 0h-153l69 565h-181l16 135h515l-16 -135h-181z" />
    <glyph glyph-name="U" unicode="U" horiz-adv-x="692" 
d="M677 700l-43 -350c-30 -247 -118 -362 -333 -362c-174 0 -254 91 -254 270c0 28 2 59 6 92l43 350h154l-43 -350c-4 -34 -7 -64 -7 -90c0 -92 30 -138 118 -138c110 0 145 78 164 228l43 350h152z" />
    <glyph glyph-name="V" unicode="V" horiz-adv-x="644" 
d="M359 0h-158l-147 691l165 18l84 -537l211 536l160 -17z" />
    <glyph glyph-name="W" unicode="W" horiz-adv-x="928" 
d="M532 0l-41 488l-158 -488h-174l-101 686l169 23l41 -534l167 515l153 19l48 -534l162 534l163 -16l-260 -693h-169z" />
    <glyph glyph-name="X" unicode="X" horiz-adv-x="652" 
d="M446 -22l-125 270l-157 -248h-187l261 365l-166 319l170 25l95 -239l147 230h182l-251 -335l191 -341z" />
    <glyph glyph-name="Y" unicode="Y" horiz-adv-x="650" 
d="M357 0h-153l31 256l-180 427l179 26l91 -317l174 308h182l-293 -444z" />
    <glyph glyph-name="Z" unicode="Z" horiz-adv-x="584" 
d="M499 0h-470l-25 135l362 430h-295l16 135h448l27 -135l-362 -430h329z" />
    <glyph glyph-name="bracketleft" unicode="[" horiz-adv-x="342" 
d="M238 -140h-236l105 858h236l-14 -117h-103l-77 -624h103z" />
    <glyph glyph-name="backslash" unicode="\" horiz-adv-x="364" 
d="M202 709l87 -700l-130 -18l-87 700z" />
    <glyph glyph-name="bracketright" unicode="]" horiz-adv-x="342" 
d="M225 -140h-236l14 117h103l77 624h-103l14 117h236z" />
    <glyph glyph-name="asciicircum" unicode="^" horiz-adv-x="500" 
d="M470 394l-118 -42l-101 241l-102 -240l-119 40l164 325h112z" />
    <glyph glyph-name="underscore" unicode="_" horiz-adv-x="500" 
d="M454 -154h-503l9 79h503z" />
    <glyph glyph-name="grave" unicode="`" horiz-adv-x="275" 
d="M253 592l-103 -10l-91 175l150 9z" />
    <glyph glyph-name="a" unicode="a" horiz-adv-x="582" 
d="M353 171l29 242c-26 7 -53 11 -74 11c-97 0 -132 -72 -132 -216c0 -81 33 -102 78 -102c44 0 72 26 99 65zM500 13l-116 -21c-8 24 -14 52 -18 75c-38 -51 -88 -79 -167 -79c-114 0 -170 85 -170 222c0 225 92 330 275 330c85 0 164 -12 237 -38l-32 -257
c-6 -49 -13 -105 -13 -161c0 -24 1 -48 4 -71z" />
    <glyph glyph-name="b" unicode="b" horiz-adv-x="579" 
d="M21 26l82 666l150 26l-29 -241c32 46 73 63 139 63c114 0 170 -85 170 -222c0 -225 -92 -330 -275 -330c-85 0 -164 11 -237 38zM180 115c26 -7 53 -11 74 -11c97 0 132 72 132 216c0 81 -33 102 -78 102c-44 0 -72 -26 -99 -65z" />
    <glyph glyph-name="c" unicode="c" horiz-adv-x="463" 
d="M405 24c-50 -27 -103 -36 -163 -36c-136 0 -213 75 -213 221c0 254 117 331 276 331c51 0 104 -9 146 -36l-51 -104c-33 18 -71 23 -102 23c-80 0 -122 -67 -122 -202c0 -82 19 -116 84 -116c36 0 78 5 117 25z" />
    <glyph glyph-name="d" unicode="d" horiz-adv-x="582" 
d="M500 13l-116 -21c-8 24 -14 52 -18 75c-38 -51 -88 -79 -167 -79c-114 0 -170 85 -170 222c0 232 97 330 275 330c39 0 71 -6 96 -23c0 33 3 67 7 95l10 80l150 26l-58 -473c-6 -50 -12 -107 -13 -165c0 -22 1 -45 4 -67zM353 171l28 237c-22 11 -50 15 -78 15
c-97 0 -127 -81 -127 -215c0 -81 33 -102 78 -102c44 0 72 26 99 65z" />
    <glyph glyph-name="e" unicode="e" horiz-adv-x="545" 
d="M453 39c-59 -37 -127 -51 -203 -51c-149 0 -221 81 -221 221c0 219 84 331 276 331c154 0 197 -94 197 -229c0 -26 -1 -54 -4 -83l-322 -33c1 -60 25 -88 102 -88c46 0 93 12 140 34zM179 287l185 28c1 7 1 14 1 21c0 48 -19 87 -75 87c-59 0 -101 -34 -111 -136z" />
    <glyph glyph-name="f" unicode="f" horiz-adv-x="373" 
d="M205 0h-147l49 403h-77l13 108h75c-2 13 -3 25 -3 37c0 117 79 182 191 182c25 0 51 -4 79 -10l-25 -108c-17 3 -31 4 -43 4c-44 0 -61 -20 -61 -62c0 -13 1 -27 4 -43h118l-31 -108h-93z" />
    <glyph glyph-name="g" unicode="g" horiz-adv-x="571" 
d="M95 -21c40 -19 85 -25 122 -25c67 0 108 36 118 131l3 29c-31 -56 -76 -79 -147 -79c-95 0 -165 63 -165 193c0 192 75 312 270 312c85 0 164 -11 237 -38l-51 -414c-22 -176 -111 -254 -261 -254c-59 0 -118 10 -168 35zM350 211l24 202c-26 7 -53 11 -74 11
c-63 0 -125 -26 -125 -177c0 -57 18 -97 77 -97c45 0 71 24 98 61z" />
    <glyph glyph-name="h" unicode="h" horiz-adv-x="579" 
d="M483 0h-146l34 281c2 21 4 40 4 56c0 56 -17 85 -67 85c-44 0 -72 -26 -99 -65l-44 -357h-147l85 692l150 26l-29 -241c32 46 73 63 139 63c120 0 159 -91 159 -195c0 -20 -2 -41 -4 -61z" />
    <glyph glyph-name="i" unicode="i" horiz-adv-x="276" 
d="M190 0h-138c-9 36 -13 76 -13 117c0 27 2 54 5 80l37 305l150 26l-43 -357c-3 -26 -5 -54 -5 -82c0 -30 2 -61 7 -89zM163 588c-49 0 -77 23 -77 65c0 63 38 83 97 83c49 0 77 -23 77 -65c0 -63 -38 -83 -97 -83z" />
    <glyph glyph-name="j" unicode="j" horiz-adv-x="284" 
d="M4 -175l-66 95c62 34 96 85 109 189l48 393l150 26l-55 -449c-15 -125 -67 -209 -186 -254zM177 588c-49 0 -77 23 -77 65c0 63 38 83 97 83c49 0 77 -23 77 -65c0 -63 -38 -83 -97 -83z" />
    <glyph glyph-name="k" unicode="k" horiz-adv-x="540" 
d="M338 -12l-140 279l-33 -267h-147l85 692l150 26l-51 -421l167 231l165 -16l-196 -229l157 -261z" />
    <glyph glyph-name="l" unicode="l" horiz-adv-x="276" 
d="M190 0h-138c-9 36 -13 76 -13 117c0 27 2 54 5 80l61 495l150 26l-67 -547c-3 -26 -5 -54 -5 -82c0 -30 2 -61 7 -89z" />
    <glyph glyph-name="m" unicode="m" horiz-adv-x="889" 
d="M791 0h-146l34 281c2 21 4 40 4 56c0 56 -17 85 -66 85c-42 0 -68 -26 -94 -65l-44 -357h-146l41 339c1 8 1 15 1 21c0 53 -32 62 -70 62c-42 0 -68 -26 -94 -65l-44 -357h-147l35 283c6 48 13 104 13 161c0 24 -1 47 -4 71l116 21c8 -24 14 -52 18 -75
c37 51 86 79 164 79c73 0 114 -35 136 -82c39 59 98 82 176 82c118 0 156 -91 156 -194c0 -21 -2 -42 -4 -62z" />
    <glyph glyph-name="n" unicode="n" horiz-adv-x="583" 
d="M485 0h-146l34 281c2 21 4 40 4 56c0 56 -17 85 -67 85c-44 0 -72 -26 -99 -65l-44 -357h-147l35 283c6 48 13 104 13 161c0 24 -1 47 -4 71l116 21c8 -24 14 -52 18 -75c38 51 88 79 167 79c120 0 159 -91 159 -195c0 -20 -2 -41 -4 -61z" />
    <glyph glyph-name="o" unicode="o" horiz-adv-x="584" 
d="M264 105c97 0 127 81 127 215c0 62 -20 103 -88 103c-97 0 -127 -81 -127 -215c0 -62 20 -103 88 -103zM250 -12c-155 0 -221 82 -221 221c0 237 96 331 288 331c155 0 221 -82 221 -221c0 -237 -96 -331 -288 -331z" />
    <glyph glyph-name="p" unicode="p" horiz-adv-x="583" 
d="M185 120c22 -11 50 -15 78 -15c97 0 127 81 127 215c0 81 -33 102 -78 102c-44 0 -72 -26 -99 -65zM150 -154h-147l54 437c6 48 13 104 13 161c0 24 -1 47 -4 71l116 21c8 -24 14 -52 18 -75c38 51 88 79 167 79c114 0 170 -85 170 -222c0 -232 -97 -330 -275 -330
c-39 0 -71 6 -96 23c0 -33 -4 -68 -7 -95z" />
    <glyph glyph-name="q" unicode="q" horiz-adv-x="579" 
d="M463 -128l-150 -26l25 205c-32 -46 -73 -63 -139 -63c-114 0 -170 85 -170 222c0 225 92 330 275 330c85 0 164 -11 237 -38zM353 171l29 242c-26 7 -53 11 -74 11c-97 0 -132 -72 -132 -216c0 -81 33 -102 78 -102c44 0 72 26 99 65z" />
    <glyph glyph-name="r" unicode="r" horiz-adv-x="382" 
d="M167 0h-147l35 283c6 48 13 104 13 161c0 24 -1 47 -4 71l116 21c9 -26 16 -59 22 -90c32 49 84 85 164 94l5 -152c-75 -1 -128 -14 -166 -78z" />
    <glyph glyph-name="s" unicode="s" horiz-adv-x="473" 
d="M48 146c49 -29 105 -44 163 -44c35 0 72 15 72 51c0 27 -34 39 -82 54c-70 22 -157 52 -157 156c0 121 99 177 221 177c62 0 121 -11 175 -41l-48 -101c-42 20 -87 28 -133 28c-41 0 -71 -10 -71 -48c0 -31 37 -45 81 -61c69 -24 157 -54 157 -160
c0 -128 -103 -169 -220 -169c-81 0 -153 19 -208 56z" />
    <glyph glyph-name="t" unicode="t" horiz-adv-x="370" 
d="M257 39l-111 -57c-51 48 -67 110 -67 178c0 21 1 42 4 64l24 196h-77l13 108h78l17 142l149 25l-20 -167h111l-31 -108h-93l-22 -178c-4 -33 -9 -63 -9 -92c0 -36 8 -72 34 -111z" />
    <glyph glyph-name="u" unicode="u" horiz-adv-x="583" 
d="M498 13l-116 -21c-8 24 -14 52 -18 75c-38 -51 -88 -79 -167 -79c-121 0 -159 91 -159 194c0 21 1 41 4 62l32 258l149 26l-34 -281c-3 -21 -4 -40 -4 -56c0 -56 17 -85 67 -85c44 0 72 26 99 65l41 331l150 26l-35 -283c-6 -49 -13 -105 -13 -161c0 -24 1 -48 4 -71z
" />
    <glyph glyph-name="v" unicode="v" horiz-adv-x="536" 
d="M306 0h-164l-112 514l156 22l54 -414l156 414l147 -14z" />
    <glyph glyph-name="w" unicode="w" horiz-adv-x="829" 
d="M460 0l-40 361l-123 -361h-176l-88 515l153 22l46 -414l138 400l135 14l46 -414l139 414l149 -14l-209 -523h-170z" />
    <glyph glyph-name="x" unicode="x" horiz-adv-x="542" 
d="M354 -19l-94 194l-119 -175h-166l202 270l-139 246l164 23l70 -173l99 162h170l-189 -249l149 -240z" />
    <glyph glyph-name="y" unicode="y" horiz-adv-x="532" 
d="M66 -172l-52 99c52 17 102 38 123 86l-111 501l156 22l54 -414l156 414l147 -14l-196 -434c-58 -128 -140 -220 -277 -260z" />
    <glyph glyph-name="z" unicode="z" horiz-adv-x="526" 
d="M439 0h-410l-20 117l284 294h-232l14 117h396l19 -117l-284 -294h261z" />
    <glyph glyph-name="braceleft" unicode="{" horiz-adv-x="389" 
d="M282 -152h-13c-157 0 -181 82 -181 171c0 38 4 77 4 112c0 55 -11 96 -73 97l6 121c211 13 -1 381 346 381h20l-15 -122c-6 1 -11 1 -14 1c-148 0 -42 -279 -206 -320c56 -16 68 -61 68 -112c0 -39 -7 -81 -7 -117c0 -51 14 -90 80 -90z" />
    <glyph glyph-name="bar" unicode="|" horiz-adv-x="320" 
d="M225 -140h-130v934h130v-934z" />
    <glyph glyph-name="braceright" unicode="}" horiz-adv-x="389" 
d="M-14 -152l15 122c5 -1 10 -1 14 -1c148 0 42 279 206 320c-56 16 -69 61 -69 112c0 38 7 81 7 117c0 51 -13 89 -79 90l15 122h13c157 0 181 -83 181 -171c0 -38 -5 -78 -5 -112c0 -55 12 -96 74 -97l-6 -121c-211 -13 1 -382 -346 -382c-7 0 -13 1 -20 1z" />
    <glyph glyph-name="asciitilde" unicode="~" horiz-adv-x="548" 
d="M490 303c-53 -59 -101 -80 -144 -80c-57 0 -96 44 -148 44c-30 0 -61 -11 -93 -41l-47 78c53 59 101 80 144 80c57 0 96 -44 148 -44c29 0 61 11 93 41z" />
    <glyph glyph-name="uni00A0" unicode="&#xa0;" horiz-adv-x="207" 
 />
    <glyph glyph-name="exclamdown" unicode="&#xa1;" horiz-adv-x="308" 
d="M156 373c-52 0 -79 29 -79 74c0 65 39 93 100 93c51 0 78 -28 78 -73c0 -65 -37 -94 -99 -94zM175 -161l-169 -16c28 177 52 338 80 490h126z" />
    <glyph glyph-name="cent" unicode="&#xa2;" horiz-adv-x="463" 
d="M258 -111h-115l13 111c-82 27 -127 97 -127 209c0 206 77 296 192 322l13 108h115l-13 -100c41 -4 81 -14 115 -35l-51 -104c-33 18 -71 23 -102 23c-80 0 -122 -67 -122 -202c0 -82 19 -116 84 -116c36 0 78 5 117 25l28 -106c-42 -23 -87 -33 -135 -35z" />
    <glyph glyph-name="sterling" unicode="&#xa3;" horiz-adv-x="597" 
d="M506 0h-442l-16 135c60 42 78 100 85 164h-95l13 105h85c-4 31 -6 63 -6 94c0 115 40 214 243 214c74 0 135 -14 197 -47l-61 -120c-43 24 -89 33 -137 33c-91 0 -107 -40 -107 -100c0 -22 3 -47 4 -74h154l-13 -105h-141c-4 -58 -22 -115 -73 -164h327z" />
    <glyph glyph-name="currency" unicode="&#xa4;" horiz-adv-x="655" 
d="M308 130c-41 0 -76 5 -95 19l-84 -74l-62 78l85 72c-11 22 -17 48 -17 71c0 54 12 92 35 127l-61 70l80 62l60 -72c26 12 61 17 94 17c36 0 72 -5 96 -21l87 76l62 -78l-88 -75c10 -18 17 -45 17 -70c0 -51 -10 -89 -33 -120l65 -75l-78 -62l-63 74
c-26 -14 -63 -19 -100 -19zM310 222c73 0 101 32 101 111c0 45 -20 75 -68 75c-72 0 -102 -33 -102 -113c0 -44 22 -73 69 -73z" />
    <glyph glyph-name="yen" unicode="&#xa5;" horiz-adv-x="650" 
d="M357 0h-153l17 138h-127l9 72h127l6 50h-127l9 72h85l-148 351l179 26l91 -317l174 308h182l-243 -368h85l-9 -72h-125l-6 -50h125l-9 -72h-125z" />
    <glyph glyph-name="brokenbar" unicode="&#xa6;" horiz-adv-x="320" 
d="M225 381h-130v413h130v-413zM225 -140h-130v413h130v-413z" />
    <glyph glyph-name="section" unicode="&#xa7;" horiz-adv-x="591" 
d="M75 2c43 -25 101 -40 154 -40c54 0 103 18 103 56c0 101 -302 63 -302 257c0 74 35 129 95 159c-19 26 -26 60 -26 89c0 136 120 189 247 189c77 0 143 -15 201 -53l-52 -99c-48 28 -106 38 -161 38c-49 0 -90 -23 -90 -57c0 -101 302 -65 302 -256
c0 -73 -34 -129 -96 -161c18 -23 26 -54 26 -83c0 -139 -114 -193 -247 -193c-77 0 -151 17 -209 57zM361 194c28 16 41 38 41 60c0 63 -124 76 -188 112c-24 -11 -41 -32 -41 -55c0 -71 120 -76 188 -117z" />
    <glyph glyph-name="dieresis" unicode="&#xa8;" horiz-adv-x="478" 
d="M158 592c-46 0 -72 21 -72 62c0 60 37 80 89 80c45 0 71 -22 71 -62c0 -61 -34 -80 -88 -80zM387 592c-46 0 -72 21 -72 62c0 60 37 80 89 80c45 0 71 -22 71 -62c0 -61 -34 -80 -88 -80z" />
    <glyph glyph-name="copyright" unicode="&#xa9;" horiz-adv-x="803" 
d="M519 158c-43 -25 -87 -34 -134 -34c-91 0 -154 58 -154 182c0 200 88 270 207 270c45 0 83 -8 118 -30l-38 -71c-25 14 -55 17 -81 17c-87 0 -115 -56 -115 -180c0 -70 16 -104 78 -104c27 0 61 5 94 21zM368 63c197 0 315 91 315 336c0 153 -81 238 -244 238
c-198 0 -314 -92 -314 -338c0 -152 81 -236 243 -236zM359 -12c-207 0 -315 121 -315 311c0 280 154 413 404 413c209 0 316 -122 316 -312c0 -280 -156 -412 -405 -412z" />
    <glyph glyph-name="ordfeminine" unicode="&#xaa;" horiz-adv-x="371" 
d="M331 290h-274l8 68h275zM337 404l-68 -12l-13 44c-20 -30 -47 -46 -94 -46c-67 0 -101 50 -101 130c0 130 59 192 162 192c49 0 95 -7 139 -23l-24 -189c-2 -16 -3 -34 -3 -51c0 -15 1 -30 2 -45zM251 508l16 127c-13 5 -29 6 -45 6c-55 0 -71 -50 -71 -108
c0 -44 6 -72 41 -72c33 0 48 17 59 47z" />
    <glyph glyph-name="guillemotleft" unicode="&#xab;" horiz-adv-x="678" 
d="M248 70l-221 175l15 116l245 163l49 -125l-185 -102l160 -102zM545 70l-221 175l15 116l245 163l49 -125l-185 -102l160 -102z" />
    <glyph glyph-name="logicalnot" unicode="&#xac;" 
d="M584 89h-140v144h-349v139h489v-283z" />
    <glyph glyph-name="uni00AD" unicode="&#xad;" horiz-adv-x="438" 
d="M368 233h-323l17 139h323z" />
    <glyph glyph-name="registered" unicode="&#xae;" horiz-adv-x="803" 
d="M368 63c197 0 315 91 315 336c0 153 -81 238 -244 238c-198 0 -314 -92 -314 -338c0 -152 81 -236 243 -236zM359 -12c-207 0 -315 121 -315 311c0 280 154 413 404 413c209 0 316 -122 316 -312c0 -280 -156 -412 -405 -412zM568 156l-91 -32l-64 153h-78l-17 -140h-92
l52 422c46 11 95 18 143 18c98 0 171 -43 171 -141c0 -82 -36 -123 -93 -142zM344 348h46c51 0 108 3 108 78c0 50 -32 69 -81 69c-18 0 -38 -1 -56 -6z" />
    <glyph glyph-name="macron" unicode="&#xaf;" horiz-adv-x="456" 
d="M446 586h-374l15 117h374z" />
    <glyph glyph-name="degree" unicode="&#xb0;" horiz-adv-x="382" 
d="M212 519c44 0 73 25 73 79c0 36 -19 60 -56 60c-46 0 -72 -27 -72 -82c0 -35 18 -57 55 -57zM203 446c-86 0 -131 51 -131 125c0 108 62 159 166 159c87 0 132 -52 132 -127c0 -108 -64 -157 -167 -157z" />
    <glyph glyph-name="plusminus" unicode="&#xb1;" 
d="M408 195h-137v150h-176v128h176v150h137v-150h176v-128h-176v-150zM584 0h-489v128h489v-128z" />
    <glyph glyph-name="twosuperior" unicode="&#xb2;" horiz-adv-x="374" 
d="M315 305h-250l-12 83c112 66 193 140 193 190c0 34 -23 44 -53 44c-33 0 -65 -8 -93 -21l-21 75c41 21 90 31 144 31c74 0 129 -35 129 -107c0 -90 -68 -148 -177 -212h151z" />
    <glyph glyph-name="threesuperior" unicode="&#xb3;" horiz-adv-x="381" 
d="M76 410c28 -19 69 -29 111 -29c46 0 65 20 65 49c0 31 -24 48 -62 48c-8 0 -22 -1 -46 -4l-14 71l111 72h-159l11 83h250l13 -83l-132 -82c86 -3 123 -47 123 -103c0 -87 -64 -134 -167 -134c-57 0 -106 15 -141 43z" />
    <glyph glyph-name="acute" unicode="&#xb4;" horiz-adv-x="275" 
d="M179 582l-108 10l88 174l156 -9z" />
    <glyph glyph-name="mu" unicode="&#xb5;" horiz-adv-x="583" 
d="M498 13l-116 -21c-8 24 -14 52 -18 75c-28 -38 -76 -75 -137 -75c-21 0 -44 5 -68 16l-20 -162h-146l81 656l149 26l-34 -281c-3 -21 -4 -40 -4 -56c0 -56 17 -85 67 -85c44 0 72 26 99 65l41 331l150 26l-35 -283c-6 -49 -13 -105 -13 -161c0 -24 1 -48 4 -71z" />
    <glyph glyph-name="paragraph" unicode="&#xb6;" horiz-adv-x="595" 
d="M483 0h-120l73 596c-17 7 -40 8 -56 8l-74 -604h-120l34 287c-118 0 -176 88 -176 182c0 140 104 242 314 242c61 0 133 -8 209 -27z" />
    <glyph glyph-name="periodcentered" unicode="&#xb7;" horiz-adv-x="291" 
d="M133 249c-52 0 -79 30 -79 76c0 70 37 100 100 100c52 0 80 -31 80 -78c0 -69 -40 -98 -101 -98z" />
    <glyph glyph-name="cedilla" unicode="&#xb8;" horiz-adv-x="278" 
d="M-22 -180l25 69c16 -8 36 -13 52 -13c21 0 36 5 36 22c0 14 -11 27 -60 31l26 71h89l-12 -35c36 -7 49 -35 49 -67c0 -70 -61 -95 -122 -95c-30 0 -60 6 -83 17z" />
    <glyph glyph-name="onesuperior" unicode="&#xb9;" horiz-adv-x="230" 
d="M153 305h-93l44 373l97 22z" />
    <glyph glyph-name="ordmasculine" unicode="&#xba;" horiz-adv-x="376" 
d="M204 461c54 0 71 44 71 119c0 35 -10 61 -48 61c-55 0 -72 -45 -72 -121c0 -34 11 -59 49 -59zM195 390c-90 0 -129 49 -129 130c0 139 56 192 168 192c90 0 129 -50 129 -132c0 -138 -57 -190 -168 -190zM327 290h-275l8 68h275z" />
    <glyph glyph-name="guillemotright" unicode="&#xbb;" horiz-adv-x="678" 
d="M100 82l-49 125l185 102l-160 102l63 125l221 -175l-15 -116zM397 82l-49 125l185 102l-160 102l63 125l221 -175l-15 -116z" />
    <glyph glyph-name="onequarter" unicode="&#xbc;" horiz-adv-x="742" 
d="M515 687l-385 -700l-69 26l385 700zM153 305h-93l44 373l97 22zM617 0h-93l11 89h-151l-21 74c51 72 71 143 79 236l97 -9c-17 -95 -41 -166 -87 -227h92l15 121l95 16l-17 -137h41l-10 -74h-40z" />
    <glyph glyph-name="onehalf" unicode="&#xbd;" horiz-adv-x="732" 
d="M641 0h-250l-12 83c112 66 192 140 192 190c0 34 -22 43 -52 43c-33 0 -65 -7 -93 -20l-21 75c41 21 90 31 144 31c74 0 129 -35 129 -107c0 -90 -68 -148 -177 -212h151zM153 305h-93l44 373l97 22zM515 687l-385 -700l-69 26l385 700z" />
    <glyph glyph-name="threequarters" unicode="&#xbe;" horiz-adv-x="894" 
d="M667 687l-385 -700l-69 26l385 700zM769 0h-93l11 89h-151l-21 74c51 72 71 143 79 236l97 -9c-17 -95 -41 -166 -87 -227h92l15 121l95 16l-17 -137h41l-10 -74h-40zM76 410c28 -19 69 -29 111 -29c46 0 65 20 65 49c0 31 -24 48 -62 48c-8 0 -22 -1 -46 -4l-14 71
l111 72h-159l11 83h250l13 -83l-132 -82c86 -3 123 -47 123 -103c0 -87 -64 -134 -167 -134c-57 0 -106 15 -141 43z" />
    <glyph glyph-name="questiondown" unicode="&#xbf;" horiz-adv-x="431" 
d="M319 -178c-16 -1 -32 -2 -49 -2c-130 0 -277 46 -277 201c0 110 56 176 180 195l16 97h126l-11 -179c-102 -10 -150 -30 -150 -94c0 -98 93 -98 197 -99zM259 373c-52 0 -79 29 -79 74c0 65 39 93 100 93c51 0 78 -28 78 -73c0 -65 -37 -94 -99 -94z" />
    <glyph glyph-name="Agrave" unicode="&#xc0;" horiz-adv-x="647" 
d="M596 9l-165 -18l-22 140h-219l-51 -131h-167l315 690l160 18zM391 245l-44 283l-111 -283h155zM437 760l-103 -10l-91 175l150 9z" />
    <glyph glyph-name="Aacute" unicode="&#xc1;" horiz-adv-x="647" 
d="M596 9l-165 -18l-22 140h-219l-51 -131h-167l315 690l160 18zM391 245l-44 283l-111 -283h155zM391 750l-108 10l88 174l156 -9z" />
    <glyph glyph-name="Acircumflex" unicode="&#xc2;" horiz-adv-x="647" 
d="M596 9l-165 -18l-22 140h-219l-51 -131h-167l315 690l160 18zM391 245l-44 283l-111 -283h155zM499 745l-116 81l-139 -81l-65 62l158 123h103l128 -123z" />
    <glyph glyph-name="Atilde" unicode="&#xc3;" horiz-adv-x="647" 
d="M596 9l-165 -18l-22 140h-219l-51 -131h-167l315 690l160 18zM391 245l-44 283l-111 -283h155zM597 827c-40 -44 -98 -74 -151 -74c-61 0 -85 46 -139 46c-30 0 -65 -13 -100 -41l-38 81c40 44 98 74 151 74c61 0 85 -46 139 -46c30 0 65 13 100 41z" />
    <glyph glyph-name="Adieresis" unicode="&#xc4;" horiz-adv-x="647" 
d="M596 9l-165 -18l-22 140h-219l-51 -131h-167l315 690l160 18zM391 245l-44 283l-111 -283h155zM260 750c-46 0 -72 21 -72 62c0 60 37 80 89 80c45 0 71 -22 71 -62c0 -61 -34 -80 -88 -80zM489 750c-46 0 -72 21 -72 62c0 60 37 80 89 80c45 0 71 -22 71 -62
c0 -61 -34 -80 -88 -80z" />
    <glyph glyph-name="Aring" unicode="&#xc5;" horiz-adv-x="647" 
d="M596 9l-165 -18l-22 140h-219l-51 -131h-167l301 659c-27 19 -40 49 -40 85c0 92 57 135 157 135c85 0 128 -46 128 -112c0 -55 -22 -91 -60 -112zM391 245l-44 283l-111 -283h155zM369 700c35 0 59 21 59 65c0 30 -16 49 -46 49c-37 0 -58 -22 -58 -67
c0 -29 15 -47 45 -47z" />
    <glyph glyph-name="AE" unicode="&#xc6;" horiz-adv-x="958" 
d="M870 0h-453l16 131h-205l-83 -131h-185l486 700h509l-16 -135h-300l-17 -137h243l-39 -117h-218l-22 -176h300zM447 245l35 291l-187 -291h152z" />
    <glyph glyph-name="Ccedilla" unicode="&#xc7;" horiz-adv-x="583" 
d="M165 -180l25 69c16 -8 36 -13 52 -13c21 0 36 5 36 22c0 14 -11 27 -60 31l23 63c-121 18 -201 105 -201 280c0 348 155 440 335 440c73 0 143 -11 203 -52l-62 -117c-44 25 -96 33 -143 33c-116 0 -178 -96 -178 -301c0 -105 26 -151 119 -151c46 0 104 6 162 34
l38 -117c-54 -35 -118 -48 -185 -52l-8 -24c36 -7 49 -35 49 -67c0 -70 -61 -95 -122 -95c-30 0 -60 6 -83 17z" />
    <glyph glyph-name="Egrave" unicode="&#xc8;" horiz-adv-x="558" 
d="M470 0h-453l85 700h453l-16 -135h-300l-17 -137h243l-40 -121h-218l-21 -172h300zM398 760l-103 -10l-91 175l150 9z" />
    <glyph glyph-name="Eacute" unicode="&#xc9;" horiz-adv-x="558" 
d="M470 0h-453l85 700h453l-16 -135h-300l-17 -137h243l-40 -121h-218l-21 -172h300zM358 749l-108 10l88 174l156 -9z" />
    <glyph glyph-name="Ecircumflex" unicode="&#xca;" horiz-adv-x="558" 
d="M470 0h-453l85 700h453l-16 -135h-300l-17 -137h243l-40 -121h-218l-21 -172h300zM461 745l-116 81l-139 -81l-65 62l158 123h103l128 -123z" />
    <glyph glyph-name="Edieresis" unicode="&#xcb;" horiz-adv-x="558" 
d="M470 0h-453l85 700h453l-16 -135h-300l-17 -137h243l-40 -121h-218l-21 -172h300zM212 751c-46 0 -72 21 -72 62c0 60 37 80 89 80c45 0 71 -22 71 -62c0 -61 -34 -80 -88 -80zM441 751c-46 0 -72 21 -72 62c0 60 37 80 89 80c45 0 71 -22 71 -62c0 -61 -34 -80 -88 -80z
" />
    <glyph glyph-name="Igrave" unicode="&#xcc;" horiz-adv-x="273" 
d="M170 0h-153l86 700h153zM253 760l-103 -10l-91 175l150 9z" />
    <glyph glyph-name="Iacute" unicode="&#xcd;" horiz-adv-x="273" 
d="M170 0h-153l86 700h153zM206 750l-108 10l88 174l156 -9z" />
    <glyph glyph-name="Icircumflex" unicode="&#xce;" horiz-adv-x="273" 
d="M170 0h-153l86 700h153zM316 745l-116 81l-139 -81l-65 62l158 123h103l128 -123z" />
    <glyph glyph-name="Idieresis" unicode="&#xcf;" horiz-adv-x="273" 
d="M170 0h-153l86 700h153zM72 749c-46 0 -72 21 -72 62c0 60 37 80 89 80c45 0 71 -22 71 -62c0 -61 -34 -80 -88 -80zM301 749c-46 0 -72 21 -72 62c0 60 37 80 89 80c45 0 71 -22 71 -62c0 -61 -34 -80 -88 -80z" />
    <glyph glyph-name="Eth" unicode="&#xd0;" horiz-adv-x="719" 
d="M56 0l34 281h-65l16 136h66l33 266c74 15 156 29 233 29c165 0 307 -61 307 -284c0 -317 -116 -428 -361 -428h-263zM226 134h53c185 0 246 40 246 288c0 121 -55 155 -148 155c-32 0 -65 -5 -98 -12l-18 -148h99l-17 -136h-99z" />
    <glyph glyph-name="Ntilde" unicode="&#xd1;" horiz-adv-x="694" 
d="M591 0h-169l-134 316c-27 63 -54 121 -73 189c-2 -98 -16 -204 -27 -298l-25 -207h-146l84 682l179 27l118 -283c34 -82 64 -151 90 -226v34c0 82 6 172 20 283l23 183h146zM631 826c-40 -44 -98 -74 -151 -74c-61 0 -85 46 -139 46c-30 0 -65 -13 -100 -41l-38 81
c40 44 98 74 151 74c61 0 85 -46 139 -46c30 0 65 13 100 41z" />
    <glyph glyph-name="Ograve" unicode="&#xd2;" horiz-adv-x="697" 
d="M305 -12c-185 0 -265 102 -265 284c0 313 120 440 352 440c185 0 265 -102 265 -284c0 -313 -120 -440 -352 -440zM321 122c139 0 181 113 181 301c0 91 -29 155 -126 155c-139 0 -181 -113 -181 -301c0 -91 29 -155 126 -155zM451 760l-103 -10l-91 175l150 9z" />
    <glyph glyph-name="Oacute" unicode="&#xd3;" horiz-adv-x="697" 
d="M305 -12c-185 0 -265 102 -265 284c0 313 120 440 352 440c185 0 265 -102 265 -284c0 -313 -120 -440 -352 -440zM321 122c139 0 181 113 181 301c0 91 -29 155 -126 155c-139 0 -181 -113 -181 -301c0 -91 29 -155 126 -155zM424 750l-108 10l88 174l156 -9z" />
    <glyph glyph-name="Ocircumflex" unicode="&#xd4;" horiz-adv-x="697" 
d="M305 -12c-185 0 -265 102 -265 284c0 313 120 440 352 440c185 0 265 -102 265 -284c0 -313 -120 -440 -352 -440zM321 122c139 0 181 113 181 301c0 91 -29 155 -126 155c-139 0 -181 -113 -181 -301c0 -91 29 -155 126 -155zM522 746l-116 81l-139 -81l-65 62l158 123
h103l128 -123z" />
    <glyph glyph-name="Otilde" unicode="&#xd5;" horiz-adv-x="697" 
d="M305 -12c-185 0 -265 102 -265 284c0 313 120 440 352 440c185 0 265 -102 265 -284c0 -313 -120 -440 -352 -440zM321 122c139 0 181 113 181 301c0 91 -29 155 -126 155c-139 0 -181 -113 -181 -301c0 -91 29 -155 126 -155zM621 827c-40 -44 -98 -74 -151 -74
c-61 0 -85 46 -139 46c-30 0 -65 -13 -100 -41l-38 81c40 44 98 74 151 74c61 0 85 -46 139 -46c30 0 65 13 100 41z" />
    <glyph glyph-name="Odieresis" unicode="&#xd6;" horiz-adv-x="697" 
d="M305 -12c-185 0 -265 102 -265 284c0 313 120 440 352 440c185 0 265 -102 265 -284c0 -313 -120 -440 -352 -440zM321 122c139 0 181 113 181 301c0 91 -29 155 -126 155c-139 0 -181 -113 -181 -301c0 -91 29 -155 126 -155zM284 751c-46 0 -72 21 -72 62
c0 60 37 80 89 80c45 0 71 -22 71 -62c0 -61 -34 -80 -88 -80zM513 751c-46 0 -72 21 -72 62c0 60 37 80 89 80c45 0 71 -22 71 -62c0 -61 -34 -80 -88 -80z" />
    <glyph glyph-name="multiply" unicode="&#xd7;" 
d="M592 455l-153 -153l153 -153l-99 -99l-153 153l-153 -153l-99 99l153 153l-153 153l99 99l153 -153l153 153z" />
    <glyph glyph-name="Oslash" unicode="&#xd8;" horiz-adv-x="697" 
d="M305 -12c-26 0 -49 2 -71 6l-44 -79h-159l73 145c-44 49 -64 120 -64 212c0 313 120 440 352 440c30 0 57 -3 82 -9l43 71h159l-79 -140c41 -48 60 -118 60 -206c0 -313 -120 -440 -352 -440zM321 122c139 0 181 113 181 301c0 91 -29 155 -126 155
c-139 0 -181 -113 -181 -301c0 -91 29 -155 126 -155z" />
    <glyph glyph-name="Ugrave" unicode="&#xd9;" horiz-adv-x="692" 
d="M677 700l-43 -350c-30 -247 -118 -362 -333 -362c-174 0 -254 91 -254 270c0 28 2 59 6 92l43 350h154l-43 -350c-4 -34 -7 -64 -7 -90c0 -92 30 -138 118 -138c110 0 145 78 164 228l43 350h152zM456 760l-103 -10l-91 175l150 9z" />
    <glyph glyph-name="Uacute" unicode="&#xda;" horiz-adv-x="692" 
d="M677 700l-43 -350c-30 -247 -118 -362 -333 -362c-174 0 -254 91 -254 270c0 28 2 59 6 92l43 350h154l-43 -350c-4 -34 -7 -64 -7 -90c0 -92 30 -138 118 -138c110 0 145 78 164 228l43 350h152zM431 749l-108 10l88 174l156 -9z" />
    <glyph glyph-name="Ucircumflex" unicode="&#xdb;" horiz-adv-x="692" 
d="M677 700l-43 -350c-30 -247 -118 -362 -333 -362c-174 0 -254 91 -254 270c0 28 2 59 6 92l43 350h154l-43 -350c-4 -34 -7 -64 -7 -90c0 -92 30 -138 118 -138c110 0 145 78 164 228l43 350h152zM522 746l-116 81l-139 -81l-65 62l158 123h103l128 -123z" />
    <glyph glyph-name="Udieresis" unicode="&#xdc;" horiz-adv-x="692" 
d="M677 700l-43 -350c-30 -247 -118 -362 -333 -362c-174 0 -254 91 -254 270c0 28 2 59 6 92l43 350h154l-43 -350c-4 -34 -7 -64 -7 -90c0 -92 30 -138 118 -138c110 0 145 78 164 228l43 350h152zM282 751c-46 0 -72 21 -72 62c0 60 37 80 89 80c45 0 71 -22 71 -62
c0 -61 -34 -80 -88 -80zM511 751c-46 0 -72 21 -72 62c0 60 37 80 89 80c45 0 71 -22 71 -62c0 -61 -34 -80 -88 -80z" />
    <glyph glyph-name="Yacute" unicode="&#xdd;" horiz-adv-x="650" 
d="M357 0h-153l31 256l-180 427l179 26l91 -317l174 308h182l-293 -444zM408 750l-108 10l88 174l156 -9z" />
    <glyph glyph-name="Thorn" unicode="&#xde;" horiz-adv-x="607" 
d="M171 0h-154l86 700h154l-13 -113c34 7 69 11 104 11c125 0 244 -64 244 -220c0 -201 -139 -270 -306 -270c-33 0 -66 3 -100 8zM200 233c29 -4 57 -7 84 -7c86 0 154 29 154 135c0 82 -62 105 -129 105c-27 0 -56 -4 -82 -12z" />
    <glyph glyph-name="germandbls" unicode="&#xdf;" horiz-adv-x="649" 
d="M255 134c31 -15 66 -23 97 -23c55 0 101 28 101 102c0 69 -58 82 -131 82h-12v112c86 3 120 27 120 109c0 52 -21 90 -90 90c-96 0 -114 -82 -129 -204l-49 -402h-146l54 447c24 201 107 276 284 276c166 0 220 -89 220 -176c0 -118 -49 -170 -137 -186
c114 -9 164 -67 164 -156c0 -153 -88 -217 -235 -217c-58 0 -112 8 -157 35z" />
    <glyph glyph-name="agrave" unicode="&#xe0;" horiz-adv-x="582" 
d="M353 171l29 242c-26 7 -53 11 -74 11c-97 0 -132 -72 -132 -216c0 -81 33 -102 78 -102c44 0 72 26 99 65zM500 13l-116 -21c-8 24 -14 52 -18 75c-38 -51 -88 -79 -167 -79c-114 0 -170 85 -170 222c0 225 92 330 275 330c85 0 164 -12 237 -38l-32 -257
c-6 -49 -13 -105 -13 -161c0 -24 1 -48 4 -71zM405 592l-103 -10l-91 175l150 9z" />
    <glyph glyph-name="aacute" unicode="&#xe1;" horiz-adv-x="582" 
d="M353 171l29 242c-26 7 -53 11 -74 11c-97 0 -132 -72 -132 -216c0 -81 33 -102 78 -102c44 0 72 26 99 65zM500 13l-116 -21c-8 24 -14 52 -18 75c-38 -51 -88 -79 -167 -79c-114 0 -170 85 -170 222c0 225 92 330 275 330c85 0 164 -12 237 -38l-32 -257
c-6 -49 -13 -105 -13 -161c0 -24 1 -48 4 -71zM364 582l-108 10l88 174l156 -9z" />
    <glyph glyph-name="acircumflex" unicode="&#xe2;" horiz-adv-x="582" 
d="M353 171l29 242c-26 7 -53 11 -74 11c-97 0 -132 -72 -132 -216c0 -81 33 -102 78 -102c44 0 72 26 99 65zM500 13l-116 -21c-8 24 -14 52 -18 75c-38 -51 -88 -79 -167 -79c-114 0 -170 85 -170 222c0 225 92 330 275 330c85 0 164 -12 237 -38l-32 -257
c-6 -49 -13 -105 -13 -161c0 -24 1 -48 4 -71zM462 579l-116 81l-139 -81l-65 62l158 123h103l128 -123z" />
    <glyph glyph-name="atilde" unicode="&#xe3;" horiz-adv-x="582" 
d="M353 171l29 242c-26 7 -53 11 -74 11c-97 0 -132 -72 -132 -216c0 -81 33 -102 78 -102c44 0 72 26 99 65zM500 13l-116 -21c-8 24 -14 52 -18 75c-38 -51 -88 -79 -167 -79c-114 0 -170 85 -170 222c0 225 92 330 275 330c85 0 164 -12 237 -38l-32 -257
c-6 -49 -13 -105 -13 -161c0 -24 1 -48 4 -71zM558 657c-40 -44 -98 -74 -151 -74c-61 0 -85 46 -139 46c-30 0 -65 -13 -100 -41l-38 81c40 44 98 74 151 74c61 0 85 -46 139 -46c30 0 65 13 100 41z" />
    <glyph glyph-name="adieresis" unicode="&#xe4;" horiz-adv-x="582" 
d="M353 171l29 242c-26 7 -53 11 -74 11c-97 0 -132 -72 -132 -216c0 -81 33 -102 78 -102c44 0 72 26 99 65zM500 13l-116 -21c-8 24 -14 52 -18 75c-38 -51 -88 -79 -167 -79c-114 0 -170 85 -170 222c0 225 92 330 275 330c85 0 164 -12 237 -38l-32 -257
c-6 -49 -13 -105 -13 -161c0 -24 1 -48 4 -71zM224 592c-46 0 -72 21 -72 62c0 60 37 80 89 80c45 0 71 -22 71 -62c0 -61 -34 -80 -88 -80zM453 592c-46 0 -72 21 -72 62c0 60 37 80 89 80c45 0 71 -22 71 -62c0 -61 -34 -80 -88 -80z" />
    <glyph glyph-name="aring" unicode="&#xe5;" horiz-adv-x="582" 
d="M353 171l29 242c-26 7 -53 11 -74 11c-97 0 -132 -72 -132 -216c0 -81 33 -102 78 -102c44 0 72 26 99 65zM500 13l-116 -21c-8 24 -14 52 -18 75c-38 -51 -88 -79 -167 -79c-114 0 -170 85 -170 222c0 225 92 330 275 330c85 0 164 -12 237 -38l-32 -257
c-6 -49 -13 -105 -13 -161c0 -24 1 -48 4 -71zM336 579c-84 0 -128 44 -128 109c0 92 57 135 157 135c85 0 128 -46 128 -112c0 -91 -59 -132 -157 -132zM344 644c35 0 59 21 59 65c0 30 -16 49 -46 49c-37 0 -58 -22 -58 -67c0 -29 15 -47 45 -47z" />
    <glyph glyph-name="ae" unicode="&#xe6;" horiz-adv-x="879" 
d="M353 171l27 233c-17 15 -43 20 -72 20c-97 0 -132 -72 -132 -216c0 -81 33 -102 78 -102c44 0 72 26 99 65zM787 39c-59 -37 -127 -51 -203 -51c-94 0 -157 29 -189 94c-38 -57 -89 -94 -196 -94c-114 0 -170 85 -170 222c0 225 92 330 275 330c70 0 130 -23 161 -73
c39 58 100 73 174 73c154 0 197 -94 197 -229c0 -27 -1 -54 -4 -83l-322 -33c1 -60 25 -88 102 -88c46 0 98 14 140 34zM513 287l185 28c1 7 1 14 1 21c0 48 -19 87 -75 87c-59 0 -101 -34 -111 -136z" />
    <glyph glyph-name="ccedilla" unicode="&#xe7;" horiz-adv-x="463" 
d="M108 -180l25 69c16 -8 36 -13 52 -13c21 0 36 5 36 22c0 14 -11 27 -60 31l23 64c-100 19 -155 92 -155 216c0 254 117 331 276 331c51 0 104 -9 146 -36l-51 -104c-33 18 -71 23 -102 23c-80 0 -122 -67 -122 -202c0 -82 19 -116 84 -116c36 0 78 5 117 25l28 -106
c-42 -23 -85 -32 -133 -35l-8 -24c36 -7 49 -35 49 -67c0 -70 -61 -95 -122 -95c-30 0 -60 6 -83 17z" />
    <glyph glyph-name="egrave" unicode="&#xe8;" horiz-adv-x="545" 
d="M453 39c-59 -37 -127 -51 -203 -51c-149 0 -221 81 -221 221c0 219 84 331 276 331c154 0 197 -94 197 -229c0 -26 -1 -54 -4 -83l-322 -33c1 -60 25 -88 102 -88c46 0 93 12 140 34zM179 287l185 28c1 7 1 14 1 21c0 48 -19 87 -75 87c-59 0 -101 -34 -111 -136z
M354 592l-103 -10l-91 175l150 9z" />
    <glyph glyph-name="eacute" unicode="&#xe9;" horiz-adv-x="545" 
d="M453 39c-59 -37 -127 -51 -203 -51c-149 0 -221 81 -221 221c0 219 84 331 276 331c154 0 197 -94 197 -229c0 -26 -1 -54 -4 -83l-322 -33c1 -60 25 -88 102 -88c46 0 93 12 140 34zM179 287l185 28c1 7 1 14 1 21c0 48 -19 87 -75 87c-59 0 -101 -34 -111 -136z
M319 582l-108 10l88 174l156 -9z" />
    <glyph glyph-name="ecircumflex" unicode="&#xea;" horiz-adv-x="545" 
d="M453 39c-59 -37 -127 -51 -203 -51c-149 0 -221 81 -221 221c0 219 84 331 276 331c154 0 197 -94 197 -229c0 -26 -1 -54 -4 -83l-322 -33c1 -60 25 -88 102 -88c46 0 93 12 140 34zM179 287l185 28c1 7 1 14 1 21c0 48 -19 87 -75 87c-59 0 -101 -34 -111 -136z
M427 579l-116 81l-139 -81l-65 62l158 123h103l128 -123z" />
    <glyph glyph-name="edieresis" unicode="&#xeb;" horiz-adv-x="545" 
d="M453 39c-59 -37 -127 -51 -203 -51c-149 0 -221 81 -221 221c0 219 84 331 276 331c154 0 197 -94 197 -229c0 -26 -1 -54 -4 -83l-322 -33c1 -60 25 -88 102 -88c46 0 93 12 140 34zM179 287l185 28c1 7 1 14 1 21c0 48 -19 87 -75 87c-59 0 -101 -34 -111 -136z
M185 592c-46 0 -72 21 -72 62c0 60 37 80 89 80c45 0 71 -22 71 -62c0 -61 -34 -80 -88 -80zM414 592c-46 0 -72 21 -72 62c0 60 37 80 89 80c45 0 71 -22 71 -62c0 -61 -34 -80 -88 -80z" />
    <glyph glyph-name="igrave" unicode="&#xec;" horiz-adv-x="276" 
d="M190 0h-138c-9 36 -13 76 -13 117c0 27 2 54 5 80l37 305l150 26l-43 -357c-3 -26 -5 -54 -5 -82c0 -30 2 -61 7 -89zM224 592l-103 -10l-91 175l150 9z" />
    <glyph glyph-name="iacute" unicode="&#xed;" horiz-adv-x="276" 
d="M190 0h-138c-9 36 -13 76 -13 117c0 27 2 54 5 80l37 305l150 26l-43 -357c-3 -26 -5 -54 -5 -82c0 -30 2 -61 7 -89zM191 582l-108 10l88 174l156 -9z" />
    <glyph glyph-name="icircumflex" unicode="&#xee;" horiz-adv-x="276" 
d="M190 0h-138c-9 36 -13 76 -13 117c0 27 2 54 5 80l37 305l150 26l-43 -357c-3 -26 -5 -54 -5 -82c0 -30 2 -61 7 -89zM290 579l-116 81l-139 -81l-65 62l158 123h103l128 -123z" />
    <glyph glyph-name="idieresis" unicode="&#xef;" horiz-adv-x="276" 
d="M190 0h-138c-9 36 -13 76 -13 117c0 27 2 54 5 80l37 305l150 26l-43 -357c-3 -26 -5 -54 -5 -82c0 -30 2 -61 7 -89zM52 592c-46 0 -72 21 -72 62c0 60 37 80 89 80c45 0 71 -22 71 -62c0 -61 -34 -80 -88 -80zM281 592c-46 0 -72 21 -72 62c0 60 37 80 89 80
c45 0 71 -22 71 -62c0 -61 -34 -80 -88 -80z" />
    <glyph glyph-name="eth" unicode="&#xf0;" horiz-adv-x="583" 
d="M250 -12c-155 0 -221 82 -221 221c0 242 117 303 257 303c46 0 93 -19 118 -55c-18 116 -101 142 -192 160l47 113c54 -7 109 -28 147 -58l62 52l77 -78l-64 -54c41 -69 57 -160 57 -273c0 -237 -96 -331 -288 -331zM264 105c92 0 126 75 126 202c0 58 -21 96 -89 96
c-93 0 -125 -72 -125 -195c0 -62 20 -103 88 -103z" />
    <glyph glyph-name="ntilde" unicode="&#xf1;" horiz-adv-x="583" 
d="M485 0h-146l34 281c2 21 4 40 4 56c0 56 -17 85 -67 85c-44 0 -72 -26 -99 -65l-44 -357h-147l35 283c6 48 13 104 13 161c0 24 -1 47 -4 71l116 21c8 -24 14 -52 18 -75c38 51 88 79 167 79c120 0 159 -91 159 -195c0 -20 -2 -41 -4 -61zM530 657
c-40 -44 -98 -74 -151 -74c-61 0 -85 46 -139 46c-30 0 -65 -13 -100 -41l-38 81c40 44 98 74 151 74c61 0 85 -46 139 -46c30 0 65 13 100 41z" />
    <glyph glyph-name="ograve" unicode="&#xf2;" horiz-adv-x="584" 
d="M264 105c97 0 127 81 127 215c0 62 -20 103 -88 103c-97 0 -127 -81 -127 -215c0 -62 20 -103 88 -103zM250 -12c-155 0 -221 82 -221 221c0 237 96 331 288 331c155 0 221 -82 221 -221c0 -237 -96 -331 -288 -331zM385 592l-103 -10l-91 175l150 9z" />
    <glyph glyph-name="oacute" unicode="&#xf3;" horiz-adv-x="584" 
d="M264 105c97 0 127 81 127 215c0 62 -20 103 -88 103c-97 0 -127 -81 -127 -215c0 -62 20 -103 88 -103zM250 -12c-155 0 -221 82 -221 221c0 237 96 331 288 331c155 0 221 -82 221 -221c0 -237 -96 -331 -288 -331zM344 582l-108 10l88 174l156 -9z" />
    <glyph glyph-name="ocircumflex" unicode="&#xf4;" horiz-adv-x="584" 
d="M264 105c97 0 127 81 127 215c0 62 -20 103 -88 103c-97 0 -127 -81 -127 -215c0 -62 20 -103 88 -103zM250 -12c-155 0 -221 82 -221 221c0 237 96 331 288 331c155 0 221 -82 221 -221c0 -237 -96 -331 -288 -331zM448 579l-116 81l-139 -81l-65 62l158 123h103
l128 -123z" />
    <glyph glyph-name="otilde" unicode="&#xf5;" horiz-adv-x="584" 
d="M264 105c97 0 127 81 127 215c0 62 -20 103 -88 103c-97 0 -127 -81 -127 -215c0 -62 20 -103 88 -103zM250 -12c-155 0 -221 82 -221 221c0 237 96 331 288 331c155 0 221 -82 221 -221c0 -237 -96 -331 -288 -331zM547 657c-40 -44 -98 -74 -151 -74
c-61 0 -85 46 -139 46c-30 0 -65 -13 -100 -41l-38 81c40 44 98 74 151 74c61 0 85 -46 139 -46c30 0 65 13 100 41z" />
    <glyph glyph-name="odieresis" unicode="&#xf6;" horiz-adv-x="584" 
d="M264 105c97 0 127 81 127 215c0 62 -20 103 -88 103c-97 0 -127 -81 -127 -215c0 -62 20 -103 88 -103zM250 -12c-155 0 -221 82 -221 221c0 237 96 331 288 331c155 0 221 -82 221 -221c0 -237 -96 -331 -288 -331zM210 592c-46 0 -72 21 -72 62c0 60 37 80 89 80
c45 0 71 -22 71 -62c0 -61 -34 -80 -88 -80zM439 592c-46 0 -72 21 -72 62c0 60 37 80 89 80c45 0 71 -22 71 -62c0 -61 -34 -80 -88 -80z" />
    <glyph glyph-name="divide" unicode="&#xf7;" 
d="M339 23c-53 0 -85 29 -85 84s32 84 85 84c54 0 86 -29 86 -84s-32 -84 -86 -84zM584 241h-489v124h489v-124zM339 415c-53 0 -85 29 -85 84s32 84 85 84c54 0 86 -29 86 -84s-32 -84 -86 -84z" />
    <glyph glyph-name="oslash" unicode="&#xf8;" horiz-adv-x="584" 
d="M250 -12c-21 0 -41 2 -59 5l-36 -60h-143l69 113c-36 38 -52 93 -52 163c0 237 96 331 288 331c23 0 44 -2 63 -6l35 58h144l-70 -114c33 -38 49 -92 49 -159c0 -237 -96 -331 -288 -331zM264 105c97 0 127 81 127 215c0 62 -20 103 -88 103c-97 0 -127 -81 -127 -215
c0 -62 20 -103 88 -103z" />
    <glyph glyph-name="ugrave" unicode="&#xf9;" horiz-adv-x="583" 
d="M498 13l-116 -21c-8 24 -14 52 -18 75c-38 -51 -88 -79 -167 -79c-121 0 -159 91 -159 194c0 21 1 41 4 62l32 258l149 26l-34 -281c-3 -21 -4 -40 -4 -56c0 -56 17 -85 67 -85c44 0 72 26 99 65l41 331l150 26l-35 -283c-6 -49 -13 -105 -13 -161c0 -24 1 -48 4 -71z
M387 592l-103 -10l-91 175l150 9z" />
    <glyph glyph-name="uacute" unicode="&#xfa;" horiz-adv-x="583" 
d="M498 13l-116 -21c-8 24 -14 52 -18 75c-38 -51 -88 -79 -167 -79c-121 0 -159 91 -159 194c0 21 1 41 4 62l32 258l149 26l-34 -281c-3 -21 -4 -40 -4 -56c0 -56 17 -85 67 -85c44 0 72 26 99 65l41 331l150 26l-35 -283c-6 -49 -13 -105 -13 -161c0 -24 1 -48 4 -71z
M354 582l-108 10l88 174l156 -9z" />
    <glyph glyph-name="ucircumflex" unicode="&#xfb;" horiz-adv-x="583" 
d="M498 13l-116 -21c-8 24 -14 52 -18 75c-38 -51 -88 -79 -167 -79c-121 0 -159 91 -159 194c0 21 1 41 4 62l32 258l149 26l-34 -281c-3 -21 -4 -40 -4 -56c0 -56 17 -85 67 -85c44 0 72 26 99 65l41 331l150 26l-35 -283c-6 -49 -13 -105 -13 -161c0 -24 1 -48 4 -71z
M443 579l-116 81l-139 -81l-65 62l158 123h103l128 -123z" />
    <glyph glyph-name="udieresis" unicode="&#xfc;" horiz-adv-x="583" 
d="M498 13l-116 -21c-8 24 -14 52 -18 75c-38 -51 -88 -79 -167 -79c-121 0 -159 91 -159 194c0 21 1 41 4 62l32 258l149 26l-34 -281c-3 -21 -4 -40 -4 -56c0 -56 17 -85 67 -85c44 0 72 26 99 65l41 331l150 26l-35 -283c-6 -49 -13 -105 -13 -161c0 -24 1 -48 4 -71z
M202 592c-46 0 -72 21 -72 62c0 60 37 80 89 80c45 0 71 -22 71 -62c0 -61 -34 -80 -88 -80zM431 592c-46 0 -72 21 -72 62c0 60 37 80 89 80c45 0 71 -22 71 -62c0 -61 -34 -80 -88 -80z" />
    <glyph glyph-name="yacute" unicode="&#xfd;" horiz-adv-x="532" 
d="M66 -172l-52 99c52 17 102 38 123 86l-111 501l156 22l54 -414l156 414l147 -14l-196 -434c-58 -128 -140 -220 -277 -260zM328 582l-108 10l88 174l156 -9z" />
    <glyph glyph-name="thorn" unicode="&#xfe;" horiz-adv-x="578" 
d="M145 -154h-147l104 846l150 26l-29 -241c32 46 73 63 139 63c114 0 170 -85 170 -222c0 -232 -97 -330 -275 -330c-39 0 -71 6 -96 23c0 -33 -3 -67 -7 -95zM180 120c22 -11 50 -15 78 -15c97 0 127 81 127 215c0 81 -33 102 -78 102c-44 0 -72 -26 -99 -65z" />
    <glyph glyph-name="ydieresis" unicode="&#xff;" horiz-adv-x="532" 
d="M66 -172l-52 99c52 17 102 38 123 86l-111 501l156 22l54 -414l156 414l147 -14l-196 -434c-58 -128 -140 -220 -277 -260zM181 592c-46 0 -72 21 -72 62c0 60 37 80 89 80c45 0 71 -22 71 -62c0 -61 -34 -80 -88 -80zM410 592c-46 0 -72 21 -72 62c0 60 37 80 89 80
c45 0 71 -22 71 -62c0 -61 -34 -80 -88 -80z" />
    <glyph glyph-name="dotlessi" unicode="&#x131;" horiz-adv-x="276" 
d="M190 0h-138c-9 36 -13 76 -13 117c0 27 2 54 5 80l37 305l150 26l-43 -357c-3 -26 -5 -54 -5 -82c0 -30 2 -61 7 -89z" />
    <glyph glyph-name="Lslash" unicode="&#x141;" horiz-adv-x="587" 
d="M516 0h-467l31 256l-63 -26l17 133l62 26l38 311h154l-30 -244l131 55l-16 -133l-131 -54l-22 -189h312z" />
    <glyph glyph-name="lslash" unicode="&#x142;" horiz-adv-x="380" 
d="M242 0h-138c-9 36 -13 76 -13 117c0 27 2 54 5 80l9 72l-90 -37l17 136l90 37l35 287l150 26l-31 -248l94 40l-17 -137l-93 -39l-20 -163c-3 -26 -5 -54 -5 -82c0 -30 2 -61 7 -89z" />
    <glyph glyph-name="OE" unicode="&#x152;" horiz-adv-x="1001" 
d="M321 122c139 0 181 113 181 301c0 91 -29 155 -126 155c-139 0 -181 -113 -181 -301c0 -91 29 -155 126 -155zM913 0h-405l11 88c-42 -68 -113 -100 -214 -100c-185 0 -265 102 -265 284c0 313 120 440 352 440c94 0 161 -43 189 -116l13 104h404l-16 -135h-300l-17 -137
h243l-40 -121h-218l-21 -172h300z" />
    <glyph glyph-name="oe" unicode="&#x153;" horiz-adv-x="903" 
d="M811 39c-59 -37 -127 -51 -203 -51c-100 0 -148 35 -170 94c-34 -59 -95 -94 -188 -94c-155 0 -221 82 -221 221c0 237 96 331 288 331c85 0 132 -41 160 -95c28 56 80 95 186 95c154 0 197 -94 197 -229c0 -27 -1 -54 -4 -83l-322 -33c1 -60 25 -88 102 -88
c46 0 98 14 140 34zM264 105c97 0 127 81 127 215c0 62 -20 103 -88 103c-97 0 -127 -81 -127 -215c0 -62 20 -103 88 -103zM537 287l185 28c1 7 1 14 1 21c0 48 -19 87 -75 87c-59 0 -101 -34 -111 -136z" />
    <glyph glyph-name="Scaron" unicode="&#x160;" horiz-adv-x="591" 
d="M68 176c62 -38 136 -55 206 -55c56 0 116 11 116 79c0 101 -320 65 -320 278c0 155 107 234 271 234c81 0 152 -16 223 -59l-61 -114c-56 31 -111 39 -165 39c-59 0 -113 -19 -113 -80c0 -104 321 -62 321 -292c0 -147 -115 -218 -284 -218c-101 0 -186 26 -257 75z
M386 755h-103l-128 123l69 62l116 -81l139 81l65 -62z" />
    <glyph glyph-name="scaron" unicode="&#x161;" horiz-adv-x="473" 
d="M48 146c49 -29 105 -44 163 -44c35 0 72 15 72 51c0 27 -34 39 -82 54c-70 22 -157 52 -157 156c0 121 99 177 221 177c62 0 121 -11 175 -41l-48 -101c-42 20 -87 28 -133 28c-41 0 -71 -10 -71 -48c0 -31 37 -45 81 -61c69 -24 157 -54 157 -160
c0 -128 -103 -169 -220 -169c-81 0 -153 19 -208 56zM314 586h-103l-128 123l69 62l116 -81l139 81l65 -62z" />
    <glyph glyph-name="Ydieresis" unicode="&#x178;" horiz-adv-x="650" 
d="M357 0h-153l31 256l-180 427l179 26l91 -317l174 308h182l-293 -444zM257 762c-46 0 -72 21 -72 62c0 60 37 80 89 80c45 0 71 -22 71 -62c0 -61 -34 -80 -88 -80zM486 762c-46 0 -72 21 -72 62c0 60 37 80 89 80c45 0 71 -22 71 -62c0 -61 -34 -80 -88 -80z" />
    <glyph glyph-name="Zcaron" unicode="&#x17d;" horiz-adv-x="584" 
d="M499 0h-470l-25 135l362 430h-295l16 135h448l27 -135l-362 -430h329zM389 755h-103l-128 123l69 62l116 -81l139 81l65 -62z" />
    <glyph glyph-name="zcaron" unicode="&#x17e;" horiz-adv-x="526" 
d="M439 0h-410l-20 117l284 294h-232l14 117h396l19 -117l-284 -294h261zM348 586h-103l-128 123l69 62l116 -81l139 81l65 -62z" />
    <glyph glyph-name="florin" unicode="&#x192;" horiz-adv-x="373" 
d="M188 -140h-147l64 525h-77l13 108h75c-2 13 -3 25 -3 37c0 117 79 182 191 182c25 0 51 -4 79 -10l-25 -108c-17 3 -31 4 -43 4c-44 0 -61 -20 -61 -62c0 -13 1 -27 4 -43h118l-31 -108h-93z" />
    <glyph glyph-name="circumflex" unicode="&#x2c6;" horiz-adv-x="469" 
d="M396 579l-116 81l-139 -81l-65 62l158 123h103l128 -123z" />
    <glyph glyph-name="caron" unicode="&#x2c7;" horiz-adv-x="511" 
d="M340 586h-103l-128 123l69 62l116 -81l139 81l65 -62z" />
    <glyph glyph-name="breve" unicode="&#x2d8;" horiz-adv-x="446" 
d="M461 782c-24 -152 -115 -204 -208 -204c-90 0 -158 58 -158 190v14l111 10c-1 -7 -1 -14 -1 -20c0 -54 23 -78 61 -78c42 0 78 24 84 98z" />
    <glyph glyph-name="dotaccent" unicode="&#x2d9;" horiz-adv-x="252" 
d="M153 588c-49 0 -77 23 -77 65c0 63 38 83 97 83c49 0 77 -23 77 -65c0 -63 -38 -83 -97 -83z" />
    <glyph glyph-name="ring" unicode="&#x2da;" horiz-adv-x="362" 
d="M208 575c-84 0 -128 44 -128 109c0 92 57 135 157 135c85 0 128 -46 128 -112c0 -91 -59 -132 -157 -132zM216 640c35 0 59 21 59 65c0 30 -16 49 -46 49c-37 0 -58 -22 -58 -67c0 -29 15 -47 45 -47z" />
    <glyph glyph-name="ogonek" unicode="&#x2db;" horiz-adv-x="277" 
d="M170 -112l17 -66c-29 -14 -64 -19 -100 -19c-56 0 -91 34 -91 84c0 46 21 82 79 113h98c-60 -35 -84 -57 -84 -90c0 -20 14 -31 33 -31c16 0 33 3 48 9z" />
    <glyph glyph-name="tilde" unicode="&#x2dc;" horiz-adv-x="512" 
d="M508 657c-40 -44 -98 -74 -151 -74c-61 0 -85 46 -139 46c-30 0 -65 -13 -100 -41l-38 81c40 44 98 74 151 74c61 0 85 -46 139 -46c30 0 65 13 100 41z" />
    <glyph glyph-name="hungarumlaut" unicode="&#x2dd;" horiz-adv-x="521" 
d="M177 579l-91 34l112 145l147 -14zM394 579l-91 34l112 145l147 -14z" />
    <glyph glyph-name="gravecomb" unicode="&#x300;" horiz-adv-x="1" 
d="M-198 592l-103 -10l-91 175l150 9z" />
    <glyph glyph-name="acutecomb" unicode="&#x301;" horiz-adv-x="1" 
d="M-239 582l-108 10l88 174l156 -9z" />
    <glyph glyph-name="uni0302" unicode="&#x302;" horiz-adv-x="1" 
d="M-135 579l-116 81l-139 -81l-65 62l158 123h103l128 -123z" />
    <glyph glyph-name="tildecomb" unicode="&#x303;" horiz-adv-x="1" 
d="M-36 657c-40 -44 -98 -74 -151 -74c-61 0 -85 46 -139 46c-30 0 -65 -13 -100 -41l-38 81c40 44 98 74 151 74c61 0 85 -46 139 -46c30 0 65 13 100 41z" />
    <glyph glyph-name="uni0308" unicode="&#x308;" horiz-adv-x="1" 
d="M-319 592c-46 0 -72 21 -72 62c0 60 37 80 89 80c45 0 71 -22 71 -62c0 -61 -34 -80 -88 -80zM-90 592c-46 0 -72 21 -72 62c0 60 37 80 89 80c45 0 71 -22 71 -62c0 -61 -34 -80 -88 -80z" />
    <glyph glyph-name="uni030A" unicode="&#x30a;" horiz-adv-x="1" 
d="M-153 579c-84 0 -128 44 -128 109c0 92 57 135 157 135c85 0 128 -46 128 -112c0 -91 -59 -132 -157 -132zM-145 644c35 0 59 21 59 65c0 30 -16 49 -46 49c-37 0 -58 -22 -58 -67c0 -29 15 -47 45 -47z" />
    <glyph glyph-name="uni030C" unicode="&#x30c;" horiz-adv-x="1" 
d="M-177 586h-103l-128 123l69 62l116 -81l139 81l65 -62z" />
    <glyph glyph-name="uni0394" unicode="&#x394;" horiz-adv-x="734" 
d="M610 0h-552l-21 135l300 565h156l162 -565zM496 135l-103 393l-198 -393h301z" />
    <glyph glyph-name="uni03A9" unicode="&#x3a9;" horiz-adv-x="822" 
d="M724 0h-294l16 135c114 25 125 173 125 288c0 91 -29 155 -126 155c-139 0 -181 -113 -181 -301c0 -67 9 -113 64 -142l-16 -135h-294l16 135h141c-57 49 -65 125 -65 199c0 51 12 109 26 155c44 145 145 223 325 223c185 0 265 -102 265 -284c0 -124 -21 -228 -103 -293
h117z" />
    <glyph glyph-name="uni03BC" unicode="&#x3bc;" horiz-adv-x="583" 
d="M498 13l-116 -21c-8 24 -14 52 -18 75c-28 -38 -76 -75 -137 -75c-21 0 -44 5 -68 16l-20 -162h-146l81 656l149 26l-34 -281c-3 -21 -4 -40 -4 -56c0 -56 17 -85 67 -85c44 0 72 26 99 65l41 331l150 26l-35 -283c-6 -49 -13 -105 -13 -161c0 -24 1 -48 4 -71z" />
    <glyph glyph-name="pi" unicode="&#x3c0;" horiz-adv-x="764" 
d="M616 39l-111 -57c-51 48 -67 110 -67 178c0 21 1 42 4 64l23 182h-151l-50 -406h-146l50 406h-96l15 122h650l-34 -122h-92l-20 -164c-4 -33 -9 -63 -9 -92c0 -36 8 -72 34 -111z" />
    <glyph glyph-name="uni2007" unicode="&#x2007;" horiz-adv-x="650" 
 />
    <glyph glyph-name="uni2008" unicode="&#x2008;" horiz-adv-x="290" 
 />
    <glyph glyph-name="uni200B" unicode="&#x200b;" horiz-adv-x="0" 
 />
    <glyph glyph-name="endash" unicode="&#x2013;" horiz-adv-x="581" 
d="M511 234h-466l17 138h466z" />
    <glyph glyph-name="emdash" unicode="&#x2014;" horiz-adv-x="708" 
d="M644 234h-593l17 138h593z" />
    <glyph glyph-name="quoteleft" unicode="&#x2018;" horiz-adv-x="279" 
d="M194 380l-164 -10l157 348h107z" />
    <glyph glyph-name="quoteright" unicode="&#x2019;" horiz-adv-x="279" 
d="M147 375h-107l100 338l164 10z" />
    <glyph glyph-name="quotesinglbase" unicode="&#x201a;" horiz-adv-x="278" 
d="M76 -140h-107l100 338l164 10z" />
    <glyph glyph-name="quotedblleft" unicode="&#x201c;" horiz-adv-x="479" 
d="M394 380l-164 -10l157 348h107zM194 380l-164 -10l157 348h107z" />
    <glyph glyph-name="quotedblright" unicode="&#x201d;" horiz-adv-x="479" 
d="M147 375h-107l100 338l164 10zM347 375h-107l100 338l164 10z" />
    <glyph glyph-name="quotedblbase" unicode="&#x201e;" horiz-adv-x="479" 
d="M76 -140h-107l100 338l164 10zM277 -140h-107l100 338l164 10z" />
    <glyph glyph-name="dagger" unicode="&#x2020;" horiz-adv-x="523" 
d="M291 0h-146l63 401l-159 -11l16 133l154 -11l15 188l140 8l-35 -196l159 11l-16 -133l-158 11z" />
    <glyph glyph-name="daggerdbl" unicode="&#x2021;" horiz-adv-x="523" 
d="M291 0h-146l27 180l-151 -10l17 134l154 -12l16 109l-159 -11l16 133l154 -11l15 188l140 8l-35 -196l159 11l-16 -133l-158 11l-12 -109l159 12l-17 -134l-149 10z" />
    <glyph glyph-name="bullet" unicode="&#x2022;" horiz-adv-x="369" 
d="M170 186c-81 0 -125 46 -125 119c0 109 60 155 158 155c82 0 125 -47 125 -121c0 -108 -62 -153 -158 -153z" />
    <glyph glyph-name="ellipsis" unicode="&#x2026;" horiz-adv-x="767" 
d="M105 -8c-52 0 -79 30 -79 76c0 70 37 100 100 100c52 0 80 -31 80 -78c0 -69 -40 -98 -101 -98zM343 -8c-52 0 -79 30 -79 76c0 70 37 100 100 100c52 0 80 -31 80 -78c0 -69 -40 -98 -101 -98zM582 -8c-52 0 -79 30 -79 76c0 70 37 100 100 100c52 0 80 -31 80 -78
c0 -69 -40 -98 -101 -98z" />
    <glyph glyph-name="perthousand" unicode="&#x2030;" horiz-adv-x="1474" 
d="M751 80c75 0 97 63 97 170c0 49 -15 82 -67 82c-75 0 -97 -63 -97 -170c0 -49 15 -82 67 -82zM740 -10c-123 0 -176 65 -176 174c0 184 75 258 228 258c123 0 176 -65 176 -174c0 -184 -75 -258 -228 -258zM244 372c75 0 97 63 97 170c0 49 -15 82 -67 82
c-75 0 -97 -63 -97 -170c0 -49 15 -82 67 -82zM233 282c-123 0 -176 65 -176 174c0 184 75 258 228 258c123 0 176 -65 176 -174c0 -184 -75 -258 -228 -258zM743 685l-386 -700l-78 30l386 700zM1200 80c75 0 97 63 97 170c0 49 -15 82 -67 82c-75 0 -97 -63 -97 -170
c0 -49 15 -82 67 -82zM1189 -10c-123 0 -176 65 -176 174c0 184 75 258 228 258c123 0 176 -65 176 -174c0 -184 -75 -258 -228 -258z" />
    <glyph glyph-name="guilsinglleft" unicode="&#x2039;" horiz-adv-x="381" 
d="M248 70l-221 175l15 116l245 163l49 -125l-185 -102l160 -102z" />
    <glyph glyph-name="guilsinglright" unicode="&#x203a;" horiz-adv-x="381" 
d="M100 82l-49 125l185 102l-160 102l63 125l221 -175l-15 -116z" />
    <glyph glyph-name="fraction" unicode="&#x2044;" horiz-adv-x="139" 
d="M295 687l-385 -700l-69 26l385 700z" />
    <glyph glyph-name="uni2070" unicode="&#x2070;" horiz-adv-x="416" 
d="M205 298c-97 0 -139 58 -139 161c0 188 68 248 184 248c97 0 139 -58 139 -162c0 -187 -68 -247 -184 -247zM215 381c59 0 79 56 79 161c0 48 -12 82 -55 82c-59 0 -78 -56 -78 -161c0 -48 11 -82 54 -82z" />
    <glyph glyph-name="uni2074" unicode="&#x2074;" horiz-adv-x="402" 
d="M312 305h-93l11 89h-151l-21 74c51 72 71 143 79 236l97 -9c-17 -95 -41 -166 -87 -227h92l15 121l95 16l-17 -137h41l-10 -74h-40z" />
    <glyph glyph-name="uni2075" unicode="&#x2075;" horiz-adv-x="381" 
d="M77 410c27 -18 68 -29 109 -29c38 0 70 11 70 55c0 36 -23 44 -56 44c-31 0 -63 -7 -92 -16l-31 70l40 166h231l-10 -83h-157l-20 -73c21 5 45 8 65 8c82 0 124 -54 124 -114c0 -86 -57 -140 -169 -140c-57 0 -106 17 -142 43z" />
    <glyph glyph-name="uni2076" unicode="&#x2076;" horiz-adv-x="398" 
d="M215 381c43 0 65 26 65 68c0 33 -21 51 -50 51c-25 0 -51 -9 -69 -37c-1 -4 -1 -9 -1 -11c0 -40 12 -71 55 -71zM202 298c-101 0 -136 69 -136 161c0 187 67 248 185 248c42 0 79 -11 109 -33l-39 -71c-22 14 -51 21 -77 21c-41 0 -77 -21 -78 -88c19 22 44 34 75 34
c84 0 129 -43 129 -121c0 -86 -44 -151 -168 -151z" />
    <glyph glyph-name="uni2077" unicode="&#x2077;" horiz-adv-x="352" 
d="M194 305h-102c23 136 73 237 166 312h-176l10 83h248l14 -83c-118 -90 -151 -188 -160 -312z" />
    <glyph glyph-name="uni2078" unicode="&#x2078;" horiz-adv-x="402" 
d="M244 537c29 12 39 26 39 50c0 25 -12 43 -50 43s-56 -18 -56 -42c0 -31 26 -40 67 -51zM189 470c-31 -14 -43 -31 -43 -50c0 -25 13 -45 58 -45c43 0 66 15 66 45c0 21 -19 34 -50 42zM310 508c35 -13 52 -43 52 -82c0 -77 -55 -128 -168 -128c-93 0 -138 47 -138 107
c0 44 19 86 71 103c-30 12 -39 40 -39 72c0 64 41 127 156 127c92 0 130 -58 130 -109c0 -43 -20 -75 -64 -90z" />
    <glyph glyph-name="uni2079" unicode="&#x2079;" horiz-adv-x="397" 
d="M277 542c1 4 1 9 1 11c0 40 -12 71 -55 71s-65 -26 -65 -68c0 -33 21 -51 50 -51c25 0 51 9 69 37zM117 402c22 -14 51 -21 77 -21c41 0 77 21 78 88c-19 -22 -44 -34 -75 -34c-84 0 -129 43 -129 121c0 86 44 151 168 151c101 0 136 -69 136 -161
c0 -187 -67 -248 -185 -248c-42 0 -79 11 -109 33z" />
    <glyph glyph-name="uni2080" unicode="&#x2080;" horiz-adv-x="416" 
d="M152 -204c-97 0 -139 58 -139 161c0 188 68 248 184 248c97 0 139 -58 139 -162c0 -187 -68 -247 -184 -247zM162 -121c59 0 79 56 79 161c0 48 -12 82 -55 82c-59 0 -78 -56 -78 -161c0 -48 11 -82 54 -82z" />
    <glyph glyph-name="uni2081" unicode="&#x2081;" horiz-adv-x="230" 
d="M98 -197h-93l44 373l97 22z" />
    <glyph glyph-name="uni2082" unicode="&#x2082;" horiz-adv-x="374" 
d="M257 -197h-250l-12 83c112 66 193 140 193 190c0 34 -23 44 -53 44c-33 0 -65 -8 -93 -21l-21 75c41 21 90 31 144 31c74 0 129 -35 129 -107c0 -90 -68 -148 -177 -212h151z" />
    <glyph glyph-name="uni2083" unicode="&#x2083;" horiz-adv-x="381" 
d="M22 -92c28 -19 69 -29 111 -29c46 0 65 20 65 49c0 31 -24 48 -62 48c-8 0 -22 -1 -46 -4l-14 71l111 72h-159l11 83h250l13 -83l-132 -82c86 -3 123 -47 123 -103c0 -87 -64 -134 -167 -134c-57 0 -106 15 -141 43z" />
    <glyph glyph-name="uni2084" unicode="&#x2084;" horiz-adv-x="402" 
d="M261 -197h-93l11 89h-151l-21 74c51 72 71 143 79 236l97 -9c-17 -95 -41 -166 -87 -227h92l15 121l95 16l-17 -137h41l-10 -74h-40z" />
    <glyph glyph-name="uni2085" unicode="&#x2085;" horiz-adv-x="381" 
d="M25 -92c27 -18 68 -29 109 -29c38 0 70 11 70 55c0 36 -23 44 -56 44c-31 0 -63 -7 -92 -16l-31 70l40 166h231l-10 -83h-157l-20 -73c21 5 45 8 65 8c82 0 124 -54 124 -114c0 -86 -57 -140 -169 -140c-57 0 -106 17 -142 43z" />
    <glyph glyph-name="uni2086" unicode="&#x2086;" horiz-adv-x="398" 
d="M164 -121c43 0 65 26 65 68c0 33 -21 51 -50 51c-25 0 -51 -9 -69 -37c-1 -4 -1 -9 -1 -11c0 -40 12 -71 55 -71zM151 -204c-101 0 -136 69 -136 161c0 187 67 248 185 248c42 0 79 -11 109 -33l-39 -71c-22 14 -51 21 -77 21c-41 0 -77 -21 -78 -88c19 22 44 34 75 34
c84 0 129 -43 129 -121c0 -86 -44 -151 -168 -151z" />
    <glyph glyph-name="uni2087" unicode="&#x2087;" horiz-adv-x="352" 
d="M128 -197h-102c23 136 73 237 166 312h-176l10 83h248l14 -83c-118 -90 -151 -188 -160 -312z" />
    <glyph glyph-name="uni2088" unicode="&#x2088;" horiz-adv-x="402" 
d="M190 35c29 12 39 26 39 50c0 25 -12 43 -50 43s-56 -18 -56 -42c0 -31 26 -40 67 -51zM135 -32c-31 -14 -43 -31 -43 -50c0 -25 13 -45 58 -45c43 0 66 15 66 45c0 21 -19 34 -50 42zM256 6c35 -13 52 -43 52 -82c0 -77 -55 -128 -168 -128c-93 0 -138 47 -138 107
c0 44 19 86 71 103c-30 12 -39 40 -39 72c0 64 41 127 156 127c92 0 130 -58 130 -109c0 -43 -20 -75 -64 -90z" />
    <glyph glyph-name="uni2089" unicode="&#x2089;" horiz-adv-x="386" 
d="M217 40c1 4 1 9 1 11c0 40 -12 71 -55 71s-65 -26 -65 -68c0 -33 21 -51 50 -51c25 0 51 9 69 37zM57 -100c22 -14 51 -21 77 -21c41 0 77 21 78 88c-19 -22 -44 -34 -75 -34c-84 0 -129 43 -129 121c0 86 44 151 168 151c101 0 136 -69 136 -161
c0 -187 -67 -248 -185 -248c-42 0 -79 11 -109 33z" />
    <glyph glyph-name="Euro" unicode="&#x20ac;" horiz-adv-x="617" 
d="M417 244h-162c2 -73 31 -120 105 -120c45 0 99 5 144 30l38 -117c-59 -40 -132 -49 -207 -49c-133 0 -226 78 -235 256h-67l9 72h59c1 21 2 41 4 60h-55l9 72h57c42 204 163 264 299 264c69 0 135 -9 191 -49l-62 -117c-39 24 -86 30 -129 30c-73 0 -119 -42 -141 -128
h169l-9 -72h-174c-2 -19 -3 -39 -4 -60h170z" />
    <glyph glyph-name="trademark" unicode="&#x2122;" horiz-adv-x="656" 
d="M192 399h-74l29 234h-81l8 67h235l-8 -67h-80zM617 400l-76 -6l15 200l-73 -195h-64l-28 195l-30 -195h-77l64 301h86l28 -199l72 199h93z" />
    <glyph glyph-name="Omega" unicode="&#x2126;" horiz-adv-x="822" 
d="M724 0h-294l16 135c114 25 125 173 125 288c0 91 -29 155 -126 155c-139 0 -181 -113 -181 -301c0 -67 9 -113 64 -142l-16 -135h-294l16 135h141c-57 49 -65 125 -65 199c0 51 12 109 26 155c44 145 145 223 325 223c185 0 265 -102 265 -284c0 -124 -21 -228 -103 -293
h117z" />
    <glyph glyph-name="partialdiff" unicode="&#x2202;" horiz-adv-x="615" 
d="M265 -12c-155 0 -221 82 -221 221c0 242 117 303 257 303c46 0 93 -19 118 -55c-18 116 -101 142 -192 160l47 113c211 -34 279 -184 279 -411c0 -237 -96 -331 -288 -331zM279 105c92 0 126 75 126 202c0 58 -21 96 -89 96c-93 0 -125 -72 -125 -195
c0 -62 20 -103 88 -103z" />
    <glyph glyph-name="Delta" unicode="&#x2206;" horiz-adv-x="734" 
d="M610 0h-552l-21 135l300 565h156l162 -565zM496 135l-103 393l-198 -393h301z" />
    <glyph glyph-name="product" unicode="&#x220f;" horiz-adv-x="670" 
d="M610 -140h-153v705h-244v-705h-153v840h550v-840z" />
    <glyph glyph-name="summation" unicode="&#x2211;" horiz-adv-x="586" 
d="M528 -140h-441l-29 134l247 286l-247 286l29 134h441v-134h-287l195 -237v-98l-195 -237h287v-134z" />
    <glyph glyph-name="minus" unicode="&#x2212;" 
d="M584 234h-489v138h489v-138z" />
    <glyph glyph-name="uni2219" unicode="&#x2219;" 
d="M340 165c-91 0 -140 46 -140 137s49 137 140 137s139 -46 139 -137s-48 -137 -139 -137z" />
    <glyph glyph-name="radical" unicode="&#x221a;" horiz-adv-x="838" 
d="M503 -140h-156l-125 373h-164v139h278l95 -340l192 676l157 -17z" />
    <glyph glyph-name="infinity" unicode="&#x221e;" horiz-adv-x="902" 
d="M446 192c-33 -72 -85 -105 -163 -105c-126 0 -225 71 -225 215c0 145 100 216 225 216c78 0 139 -29 173 -105c33 73 85 105 163 105c127 0 225 -70 225 -216c0 -143 -99 -215 -225 -215c-79 0 -148 39 -173 105zM395 287c-23 87 -52 126 -112 126
c-69 0 -110 -30 -110 -111c0 -79 41 -110 110 -110c54 0 95 31 112 95zM507 318c23 -87 52 -126 112 -126c69 0 110 30 110 111c0 79 -41 110 -110 110c-54 0 -95 -31 -112 -95z" />
    <glyph glyph-name="integral" unicode="&#x222b;" horiz-adv-x="470" 
d="M58 -10h75c18 0 29 11 29 29v510c0 108 39 171 159 171h91v-130h-75c-18 0 -29 -11 -29 -29v-510c0 -108 -39 -171 -159 -171h-91v130z" />
    <glyph glyph-name="approxequal" unicode="&#x2248;" 
d="M582 361c-50 -26 -92 -36 -129 -36c-91 0 -139 52 -226 52c-39 0 -77 -15 -129 -39v132c55 30 97 36 129 36c93 0 142 -52 226 -52c42 0 79 13 129 39v-132zM582 138c-50 -26 -92 -36 -129 -36c-91 0 -139 52 -226 52c-39 0 -77 -15 -129 -39v132c55 30 97 36 129 36
c93 0 142 -52 226 -52c42 0 79 13 129 39v-132z" />
    <glyph glyph-name="notequal" unicode="&#x2260;" 
d="M584 125h-242l-32 -108h-105l32 108h-142v133h179l26 90h-205v133h242l27 97h105l-27 -97h142v-133h-179l-26 -90h205v-133z" />
    <glyph glyph-name="lessequal" unicode="&#x2264;" 
d="M584 0h-489v128h489v-128zM525 168l-430 188v107l430 192l59 -134l-346 -113l346 -107z" />
    <glyph glyph-name="greaterequal" unicode="&#x2265;" 
d="M584 0h-489v128h489v-128zM154 168l-59 133l347 107l-347 113l59 134l430 -192v-107z" />
    <glyph glyph-name="dotmath" unicode="&#x22c5;" 
d="M340 213c-58 0 -89 31 -89 89s31 89 89 89s88 -31 88 -89s-30 -89 -88 -89z" />
    <glyph glyph-name="lozenge" unicode="&#x25ca;" horiz-adv-x="728" 
d="M444 0h-156l-230 350l226 350h156l230 -350zM370 117l137 221l-149 245l-137 -221z" />
    <glyph glyph-name="zero.numr" horiz-adv-x="416" 
d="M206 298c-97 0 -139 58 -139 161c0 188 68 248 184 248c97 0 139 -58 139 -162c0 -187 -68 -247 -184 -247zM216 381c59 0 79 56 79 161c0 48 -12 82 -55 82c-59 0 -78 -56 -78 -161c0 -48 11 -82 54 -82z" />
    <glyph glyph-name="one.numr" horiz-adv-x="230" 
d="M156 305h-93l44 373l97 22z" />
    <glyph glyph-name="two.numr" horiz-adv-x="374" 
d="M315 305h-250l-12 83c112 66 193 140 193 190c0 34 -23 44 -53 44c-33 0 -65 -8 -93 -21l-21 75c41 21 90 31 144 31c74 0 129 -35 129 -107c0 -90 -68 -148 -177 -212h151z" />
    <glyph glyph-name="three.numr" horiz-adv-x="381" 
d="M78 410c28 -19 69 -29 111 -29c46 0 65 20 65 49c0 31 -24 48 -62 48c-8 0 -22 -1 -46 -4l-14 71l111 72h-159l11 83h250l13 -83l-132 -82c86 -3 123 -47 123 -103c0 -87 -64 -134 -167 -134c-57 0 -106 15 -141 43z" />
    <glyph glyph-name="four.numr" horiz-adv-x="402" 
d="M313 305h-93l11 89h-151l-21 74c51 72 71 143 79 236l97 -9c-17 -95 -41 -166 -87 -227h92l15 121l95 16l-17 -137h41l-10 -74h-40z" />
    <glyph glyph-name="five.numr" horiz-adv-x="381" 
d="M81 410c27 -18 68 -29 109 -29c38 0 70 11 70 55c0 36 -23 44 -56 44c-31 0 -63 -7 -92 -16l-31 70l40 166h231l-10 -83h-157l-20 -73c21 5 45 8 65 8c82 0 124 -54 124 -114c0 -86 -57 -140 -169 -140c-57 0 -106 17 -142 43z" />
    <glyph glyph-name="six.numr" horiz-adv-x="398" 
d="M215 381c43 0 65 26 65 68c0 33 -21 51 -50 51c-25 0 -51 -9 -69 -37c-1 -4 -1 -9 -1 -11c0 -40 12 -71 55 -71zM202 298c-101 0 -136 69 -136 161c0 187 67 248 185 248c42 0 79 -11 109 -33l-39 -71c-22 14 -51 21 -77 21c-41 0 -77 -21 -78 -88c19 22 44 34 75 34
c84 0 129 -43 129 -121c0 -86 -44 -151 -168 -151z" />
    <glyph glyph-name="seven.numr" horiz-adv-x="352" 
d="M189 305h-102c23 136 73 237 166 312h-176l10 83h248l14 -83c-118 -90 -151 -188 -160 -312z" />
    <glyph glyph-name="eight.numr" horiz-adv-x="402" 
d="M244 537c29 12 39 26 39 50c0 25 -12 43 -50 43s-56 -18 -56 -42c0 -31 26 -40 67 -51zM189 470c-31 -14 -43 -31 -43 -50c0 -25 13 -45 58 -45c43 0 66 15 66 45c0 21 -19 34 -50 42zM310 508c35 -13 52 -43 52 -82c0 -77 -55 -128 -168 -128c-93 0 -138 47 -138 107
c0 44 19 86 71 103c-30 12 -39 40 -39 72c0 64 41 127 156 127c92 0 130 -58 130 -109c0 -43 -20 -75 -64 -90z" />
    <glyph glyph-name="nine.numr" horiz-adv-x="386" 
d="M269 542c1 4 1 9 1 11c0 40 -12 71 -55 71s-65 -26 -65 -68c0 -33 21 -51 50 -51c25 0 51 9 69 37zM109 402c22 -14 51 -21 77 -21c41 0 77 21 78 88c-19 -22 -44 -34 -75 -34c-84 0 -129 43 -129 121c0 86 44 151 168 151c101 0 136 -69 136 -161
c0 -187 -67 -248 -185 -248c-42 0 -79 11 -109 33z" />
    <glyph glyph-name="zero.dnom" horiz-adv-x="416" 
d="M172 -7c-97 0 -139 58 -139 161c0 188 68 248 184 248c97 0 139 -58 139 -162c0 -187 -68 -247 -184 -247zM182 76c59 0 79 56 79 161c0 48 -12 82 -55 82c-59 0 -78 -56 -78 -161c0 -48 11 -82 54 -82z" />
    <glyph glyph-name="one.dnom" horiz-adv-x="230" 
d="M122 0h-93l44 373l97 22z" />
    <glyph glyph-name="two.dnom" horiz-adv-x="374" 
d="M283 0h-250l-12 83c112 66 193 140 193 190c0 34 -23 44 -53 44c-33 0 -65 -8 -93 -21l-21 75c41 21 90 31 144 31c74 0 129 -35 129 -107c0 -90 -68 -148 -177 -212h151z" />
    <glyph glyph-name="three.dnom" horiz-adv-x="381" 
d="M44 105c28 -19 69 -29 111 -29c46 0 65 20 65 49c0 31 -24 48 -62 48c-8 0 -22 -1 -46 -4l-14 71l111 72h-159l11 83h250l13 -83l-132 -82c86 -3 123 -47 123 -103c0 -87 -64 -134 -167 -134c-57 0 -106 15 -141 43z" />
    <glyph glyph-name="four.dnom" horiz-adv-x="402" 
d="M277 0h-93l11 89h-151l-21 74c51 72 71 143 79 236l97 -9c-17 -95 -41 -166 -87 -227h92l15 121l95 16l-17 -137h41l-10 -74h-40z" />
    <glyph glyph-name="five.dnom" horiz-adv-x="381" 
d="M46 105c27 -18 68 -29 109 -29c38 0 70 11 70 55c0 36 -23 44 -56 44c-31 0 -63 -7 -92 -16l-31 70l40 166h231l-10 -83h-157l-20 -73c21 5 45 8 65 8c82 0 124 -54 124 -114c0 -86 -57 -140 -169 -140c-57 0 -106 17 -142 43z" />
    <glyph glyph-name="six.dnom" horiz-adv-x="398" 
d="M180 76c43 0 65 26 65 68c0 33 -21 51 -50 51c-25 0 -51 -9 -69 -37c-1 -4 -1 -9 -1 -11c0 -40 12 -71 55 -71zM167 -7c-101 0 -136 69 -136 161c0 187 67 248 185 248c42 0 79 -11 109 -33l-39 -71c-22 14 -51 21 -77 21c-41 0 -77 -21 -78 -88c19 22 44 34 75 34
c84 0 129 -43 129 -121c0 -86 -44 -151 -168 -151z" />
    <glyph glyph-name="seven.dnom" horiz-adv-x="352" 
d="M155 0h-102c23 136 73 237 166 312h-176l10 83h248l14 -83c-118 -90 -151 -188 -160 -312z" />
    <glyph glyph-name="eight.dnom" horiz-adv-x="402" 
d="M210 232c29 12 39 26 39 50c0 25 -12 43 -50 43s-56 -18 -56 -42c0 -31 26 -40 67 -51zM155 165c-31 -14 -43 -31 -43 -50c0 -25 13 -45 58 -45c43 0 66 15 66 45c0 21 -19 34 -50 42zM276 203c35 -13 52 -43 52 -82c0 -77 -55 -128 -168 -128c-93 0 -138 47 -138 107
c0 44 19 86 71 103c-30 12 -39 40 -39 72c0 64 41 127 156 127c92 0 130 -58 130 -109c0 -43 -20 -75 -64 -90z" />
    <glyph glyph-name="nine.dnom" horiz-adv-x="386" 
d="M233 237c1 4 1 9 1 11c0 40 -12 71 -55 71s-65 -26 -65 -68c0 -33 21 -51 50 -51c25 0 51 9 69 37zM73 97c22 -14 51 -21 77 -21c41 0 77 21 78 88c-19 -22 -44 -34 -75 -34c-84 0 -129 43 -129 121c0 86 44 151 168 151c101 0 136 -69 136 -161
c0 -187 -67 -248 -185 -248c-42 0 -79 11 -109 33z" />
    <glyph glyph-name="numbersign.tf" 
d="M403 0h-145l47 139h-69l-42 -139h-146l50 139h-124l42 127h123l55 169h-125l43 126h123l39 139h149l-48 -139h67l41 139h148l-47 -139h123l-43 -126h-123l-54 -169h125l-43 -127h-124zM351 256l61 189h-83l-62 -189h84z" />
    <glyph glyph-name="dollar.tf" 
d="M226 -117l14 109c-77 9 -145 32 -203 71l67 113c66 -38 145 -55 221 -55c60 0 124 11 124 79c0 98 -342 63 -342 278c0 135 85 213 221 230l13 109h120l-13 -108c61 -6 119 -23 176 -56l-65 -114c-60 31 -119 39 -176 39c-63 0 -121 -19 -121 -80
c0 -104 343 -61 343 -292c0 -132 -98 -203 -246 -216l-13 -107h-120z" />
    <glyph glyph-name="zero.tf" 
d="M297 -12c-178 0 -257 102 -257 284c0 313 119 440 342 440c178 0 257 -102 257 -284c0 -313 -119 -440 -342 -440zM315 122c130 0 169 113 169 301c0 91 -27 155 -120 155c-130 0 -169 -113 -169 -301c0 -91 27 -155 120 -155z" />
    <glyph glyph-name="one.tf" 
d="M108 611l381 89l-70 -566h174l-17 -134h-523l17 134h197l47 387l-179 -32z" />
    <glyph glyph-name="two.tf" 
d="M564 0h-489l-27 134c222 123 379 254 379 355c0 65 -43 85 -112 85c-59 0 -121 -14 -175 -37l-38 121c76 38 168 54 263 54c136 0 238 -63 238 -187c0 -164 -136 -272 -350 -391h329z" />
    <glyph glyph-name="three.tf" 
d="M295 -12c-104 0 -194 26 -261 73l62 113c57 -34 125 -52 209 -52c99 0 143 37 143 100c0 62 -53 92 -133 92c-11 0 -27 -1 -85 -7l-23 117l223 142h-312l19 134h461l23 -134l-256 -161c158 -1 237 -73 237 -181c0 -150 -115 -236 -307 -236z" />
    <glyph glyph-name="four.tf" 
d="M490 0h-152l20 163h-292l-36 120c97 130 138 259 155 424l158 -15c-32 -167 -79 -299 -167 -409h197l29 235l155 27l-32 -262h109l-15 -120h-109z" />
    <glyph glyph-name="five.tf" 
d="M291 -12c-103 0 -193 28 -261 73l62 113c54 -33 125 -52 207 -52c90 0 151 26 151 110c0 70 -49 86 -121 86c-54 0 -111 -11 -172 -28l-55 115l75 295h423l-17 -134h-303l-40 -146c44 11 90 16 131 16c146 0 232 -88 232 -201c0 -149 -104 -247 -312 -247z" />
    <glyph glyph-name="six.tf" 
d="M333 122c95 0 141 51 141 134c0 65 -42 99 -109 99c-62 0 -113 -29 -151 -72c-1 -7 -1 -19 -1 -22c0 -82 24 -139 120 -139zM311 -12c-184 0 -252 118 -252 284c0 313 118 440 342 440c73 0 145 -17 200 -54l-67 -115c-40 24 -89 35 -145 35c-96 0 -158 -43 -166 -174
c42 44 99 66 163 66c148 0 235 -75 235 -213c0 -147 -86 -269 -310 -269z" />
    <glyph glyph-name="seven.tf" 
d="M304 0h-166c42 243 166 429 357 566h-391l18 134h505l30 -134c-232 -161 -335 -342 -353 -566z" />
    <glyph glyph-name="eight.tf" 
d="M400 404c67 25 87 56 87 99c0 50 -28 84 -111 84c-87 0 -126 -34 -126 -84c0 -62 62 -79 150 -99zM288 298c-71 -25 -96 -62 -96 -97c0 -50 29 -88 125 -88c94 0 144 30 144 88c0 59 -74 77 -173 97zM513 358c64 -23 97 -72 97 -147c0 -134 -101 -223 -310 -223
c-171 0 -254 83 -254 189c0 87 42 151 134 183c-51 30 -75 78 -75 131c0 113 80 221 289 221c168 0 240 -100 240 -192c0 -78 -39 -135 -121 -162z" />
    <glyph glyph-name="nine.tf" 
d="M466 417c1 7 1 19 1 22c0 82 -24 139 -120 139c-95 0 -141 -51 -141 -134c0 -65 42 -99 109 -99c62 0 113 29 151 72zM146 157c40 -24 89 -35 145 -35c96 0 158 43 166 174c-42 -44 -99 -66 -163 -66c-148 0 -235 75 -235 213c0 147 86 269 310 269
c184 0 252 -118 252 -284c0 -313 -118 -440 -342 -440c-73 0 -145 17 -200 54z" />
    <glyph glyph-name="cent.tf" 
d="M522 24c-40 -22 -91 -33 -143 -35l-12 -100h-115l13 108c-97 23 -157 94 -157 212c0 213 95 301 223 324l13 106h115l-12 -101c43 -3 85 -11 124 -34l-55 -104c-34 18 -77 23 -114 23c-94 0 -147 -67 -147 -202c0 -82 31 -116 106 -116c45 0 92 6 131 25z" />
    <glyph glyph-name="sterling.tf" 
d="M565 0h-462l-18 135c65 42 84 100 91 164h-101l14 105h91c-5 31 -7 63 -7 94c0 115 43 214 255 214c73 0 139 -13 206 -47l-66 -120c-44 23 -93 33 -141 33c-103 0 -119 -40 -119 -100c0 -25 3 -51 4 -74h164l-14 -105h-150c-4 -58 -24 -115 -79 -164h350z" />
    <glyph glyph-name="yen.tf" horiz-adv-x="682" 
d="M368 0h-153l17 138h-134l9 72h134l6 50h-133l9 72h91l-158 351l180 26l104 -319l190 310h183l-259 -368h91l-10 -72h-135l-6 -50h135l-10 -72h-134z" />
    <glyph glyph-name="section.tf" 
d="M272 -152c-78 0 -157 17 -219 57l58 96c46 -25 105 -39 162 -39c64 0 114 19 114 57c0 100 -324 69 -324 256c0 78 36 129 103 159c-22 25 -28 60 -28 89c0 136 128 189 259 189c77 0 147 -16 209 -54l-54 -98c-54 29 -113 38 -168 38c-57 0 -102 -23 -102 -57
c0 -100 324 -69 324 -256c0 -78 -36 -128 -103 -161c22 -23 28 -58 28 -87c0 -136 -128 -189 -259 -189zM413 194c34 13 49 35 49 60c0 55 -138 77 -206 112c-34 -13 -49 -35 -49 -60c0 -55 138 -77 206 -112z" />
    <glyph glyph-name="uni2007.tf" 
 />
    <glyph glyph-name="Euro.tf" 
d="M455 244h-174c3 -73 36 -120 114 -120c49 0 106 5 158 31l38 -117c-62 -41 -138 -50 -218 -50c-140 0 -238 78 -248 256h-70l9 72h62c1 21 2 41 4 60h-59l9 72h62c44 204 170 264 313 264c72 0 141 -9 200 -49l-62 -117c-43 25 -93 30 -140 30c-78 0 -129 -41 -152 -128
h179l-9 -72h-185c-3 -19 -4 -39 -5 -60h183z" />
    <glyph glyph-name="parenleft.case" horiz-adv-x="332" 
d="M266 -47l-105 -44c-73 100 -127 223 -127 372c0 215 82 358 225 510l102 -58c-132 -134 -195 -295 -195 -460c0 -111 33 -218 100 -320z" />
    <glyph glyph-name="parenright.case" horiz-adv-x="332" 
d="M64 -91l-102 58c132 134 195 295 195 460c0 111 -33 218 -100 320l105 44c73 -100 127 -223 127 -372c0 -215 -82 -358 -225 -510z" />
    <glyph glyph-name="hyphen.case" horiz-adv-x="438" 
d="M368 280h-323l17 139h323z" />
    <glyph glyph-name="bracketleft.case" horiz-adv-x="342" 
d="M238 -79h-236l105 858h236l-14 -117h-103l-77 -624h103z" />
    <glyph glyph-name="bracketright.case" horiz-adv-x="342" 
d="M225 -79h-236l14 117h103l77 624h-103l14 117h236z" />
    <glyph glyph-name="braceleft.case" horiz-adv-x="389" 
d="M282 -91h-13c-157 0 -181 82 -181 171c0 38 4 77 4 112c0 55 -11 96 -73 97l6 121c211 13 -1 381 346 381h20l-15 -122c-6 1 -11 1 -14 1c-148 0 -42 -279 -206 -320c56 -16 68 -61 68 -112c0 -39 -7 -81 -7 -117c0 -51 14 -90 80 -90z" />
    <glyph glyph-name="braceright.case" horiz-adv-x="389" 
d="M-14 -91l15 122c5 -1 10 -1 14 -1c148 0 42 279 206 320c-56 16 -69 61 -69 112c0 38 7 81 7 117c0 51 -13 89 -79 90l15 122h13c157 0 181 -83 181 -171c0 -38 -5 -78 -5 -112c0 -55 12 -96 74 -97l-6 -121c-211 -13 1 -382 -346 -382c-7 0 -13 1 -20 1z" />
    <glyph glyph-name="guillemotleft.case" horiz-adv-x="678" 
d="M248 123l-221 175l15 116l245 163l49 -125l-185 -102l160 -102zM545 123l-221 175l15 116l245 163l49 -125l-185 -102l160 -102z" />
    <glyph glyph-name="uni00AD.case" horiz-adv-x="438" 
d="M368 280h-323l17 139h323z" />
    <glyph glyph-name="guillemotright.case" horiz-adv-x="678" 
d="M100 135l-49 125l185 102l-160 102l63 125l221 -175l-15 -116zM397 135l-49 125l185 102l-160 102l63 125l221 -175l-15 -116z" />
    <glyph glyph-name="gravecomb.case" horiz-adv-x="1" 
d="M-245 760l-103 -10l-91 175l150 9z" />
    <glyph glyph-name="acutecomb.case" horiz-adv-x="1" 
d="M-272 750l-108 10l88 174l156 -9z" />
    <glyph glyph-name="uni0302.case" horiz-adv-x="1" 
d="M-174 746l-116 81l-139 -81l-65 62l158 123h103l128 -123z" />
    <glyph glyph-name="tildecomb.case" horiz-adv-x="1" 
d="M-75 827c-40 -44 -98 -74 -151 -74c-61 0 -85 46 -139 46c-30 0 -65 -13 -100 -41l-38 81c40 44 98 74 151 74c61 0 85 -46 139 -46c30 0 65 13 100 41z" />
    <glyph glyph-name="uni0308.case" horiz-adv-x="1" 
d="M-319 751c-46 0 -72 21 -72 62c0 60 37 80 89 80c45 0 71 -22 71 -62c0 -61 -34 -80 -88 -80zM-90 751c-46 0 -72 21 -72 62c0 60 37 80 89 80c45 0 71 -22 71 -62c0 -61 -34 -80 -88 -80z" />
    <glyph glyph-name="uni030A.case" horiz-adv-x="1" 
d="M-153 635c-84 0 -128 44 -128 109c0 92 57 135 157 135c85 0 128 -46 128 -112c0 -91 -59 -132 -157 -132zM-145 700c35 0 59 21 59 65c0 30 -16 49 -46 49c-37 0 -58 -22 -58 -67c0 -29 15 -47 45 -47z" />
    <glyph glyph-name="uni030C.case" horiz-adv-x="1" 
d="M-194 755h-103l-128 123l69 62l116 -81l139 81l65 -62z" />
    <glyph glyph-name="endash.case" horiz-adv-x="581" 
d="M511 281h-466l17 138h466z" />
    <glyph glyph-name="emdash.case" horiz-adv-x="708" 
d="M644 281h-593l17 138h593z" />
    <glyph glyph-name="guilsinglleft.case" horiz-adv-x="381" 
d="M248 123l-221 175l15 116l245 163l49 -125l-185 -102l160 -102z" />
    <glyph glyph-name="guilsinglright.case" horiz-adv-x="381" 
d="M100 135l-49 125l185 102l-160 102l63 125l221 -175l-15 -116z" />
    <glyph glyph-name="f_f_j" horiz-adv-x="964" 
d="M857 588c-49 0 -77 23 -77 65c0 63 38 83 97 83c49 0 77 -23 77 -65c0 -63 -38 -83 -97 -83zM685 -175l-66 95c62 34 97 85 109 189l35 294h-181l-49 -403h-147l49 403h-181l-49 -403h-147l49 403h-77l13 108h75c-2 13 -3 25 -3 37c0 117 79 182 191 182
c25 0 51 -4 79 -10l-25 -108c-17 3 -31 4 -43 4c-44 0 -61 -20 -61 -62c0 -13 1 -27 4 -43h186c-2 13 -3 25 -3 37c0 117 79 182 191 182c25 0 51 -4 79 -10l-25 -108c-17 3 -31 4 -43 4c-44 0 -61 -20 -61 -62c0 -13 1 -27 4 -43h189l149 17l-55 -449
c-15 -125 -67 -209 -186 -254z" />
    <glyph glyph-name="f_j" horiz-adv-x="636" 
d="M529 588c-49 0 -77 23 -77 65c0 63 38 83 97 83c49 0 77 -23 77 -65c0 -63 -38 -83 -97 -83zM356 -175l-66 95c62 34 96 85 109 189l36 294h-181l-49 -403h-147l49 403h-77l13 108h75c-2 13 -3 25 -3 37c0 117 79 182 191 182c25 0 51 -4 79 -10l-25 -108
c-17 3 -31 4 -43 4c-44 0 -61 -20 -61 -62c0 -13 1 -27 4 -43h189l148 17l-55 -449c-15 -125 -67 -209 -186 -254z" />
    </font>
</defs>
</svg>
