<?xml version="1.0" standalone="no"?>
<!DOCTYPE svg PUBLIC "-//W3C//DTD SVG 1.1//EN" "http://www.w3.org/Graphics/SVG/1.1/DTD/svg11.dtd" >
<svg xmlns="http://www.w3.org/2000/svg" xmlns:xlink="http://www.w3.org/1999/xlink" version="1.1">
<metadata>
Created by FontForge 20161116 at Wed May  7 10:29:24 2008
 By Jimmy Wärting

</metadata>
<defs>
<font id="EnzoOT-MediIta" horiz-adv-x="680" >
  <font-face 
    font-family="EnzoOT-MediIta"
    font-weight="500"
    font-style="italic"
    font-stretch="normal"
    units-per-em="1000"
    panose-1="2 1 6 4 1 1 1 1 1 4"
    ascent="828"
    descent="-172"
    x-height="516"
    cap-height="700"
    bbox="-485 -204 1362 935"
    underline-thickness="46"
    underline-position="-131"
    stemh="70"
    stemv="78"
    unicode-range="U+000D-FB04"
  />
<missing-glyph horiz-adv-x="538" 
d="M28 0v700h482v-700h-482zM74 46h390v608h-390v-608z" />
    <glyph glyph-name="fi" unicode="fi" horiz-adv-x="566" 
d="M471 0h-70c-7 35 -10 72 -10 109c0 25 1 50 4 74l32 260h-240l-54 -443h-74l54 443h-88l8 63h86c-3 19 -5 38 -5 56c0 99 52 168 172 168c19 0 40 -2 58 -7l-14 -63c-13 3 -27 4 -41 4c-70 0 -103 -31 -103 -103c0 -16 2 -35 5 -55h244l75 10l-42 -342
c-3 -27 -5 -54 -5 -81c0 -32 2 -64 8 -93zM483 610c-27 0 -43 13 -43 37c0 36 21 49 54 49c27 0 43 -14 43 -39c0 -35 -23 -47 -54 -47z" />
    <glyph glyph-name="fl" unicode="fl" horiz-adv-x="567" 
d="M133 0h-74l54 443h-88l8 63h86c-3 19 -5 38 -5 56c0 99 52 168 172 168c19 0 40 -2 58 -7l-14 -63c-13 3 -27 4 -41 4c-70 0 -103 -31 -103 -103c0 -16 2 -35 5 -55h120l-18 -63h-106zM535 718l-67 -544c-3 -27 -5 -54 -5 -81c0 -32 2 -64 8 -93h-70
c-7 35 -10 72 -10 109c0 25 1 50 4 74l64 521z" />
    <glyph glyph-name="uniFB03" unicode="ffi" horiz-adv-x="880" 
d="M797 610c-27 0 -43 13 -43 37c0 36 21 49 54 49c27 0 43 -14 43 -39c0 -35 -23 -47 -54 -47zM785 0h-70c-7 35 -10 72 -10 109c0 25 1 50 4 74l32 260h-240l-54 -443h-74l54 443h-240l-54 -443h-74l54 443h-88l8 63h86c-3 19 -5 38 -5 56c0 99 52 168 172 168
c19 0 40 -2 58 -7l-14 -63c-13 3 -27 4 -41 4c-70 0 -103 -31 -103 -103c0 -16 2 -35 5 -55h242c-3 19 -5 38 -5 56c0 99 52 168 172 168c19 0 40 -2 58 -7l-14 -63c-13 3 -27 4 -41 4c-70 0 -103 -31 -103 -103c0 -16 2 -35 5 -55h244l75 10l-42 -342c-3 -27 -5 -54 -5 -81
c0 -32 2 -64 8 -93z" />
    <glyph glyph-name="uniFB04" unicode="ffl" horiz-adv-x="881" 
d="M785 0h-70c-7 35 -10 72 -10 109c0 25 1 50 4 74l64 521l76 14l-67 -544c-3 -27 -5 -54 -5 -81c0 -32 2 -64 8 -93zM447 0h-74l54 443h-240l-54 -443h-74l54 443h-88l8 63h86c-3 19 -5 38 -5 56c0 99 52 168 172 168c19 0 40 -2 58 -7l-14 -63c-13 3 -27 4 -41 4
c-70 0 -103 -31 -103 -103c0 -16 2 -35 5 -55h242c-3 19 -5 38 -5 56c0 99 52 168 172 168c19 0 40 -2 58 -7l-14 -63c-13 3 -27 4 -41 4c-70 0 -103 -31 -103 -103c0 -16 2 -35 5 -55h120l-18 -63h-106z" />
    <glyph glyph-name=".notdef" horiz-adv-x="538" 
d="M28 0v700h482v-700h-482zM74 46h390v608h-390v-608z" />
    <glyph glyph-name=".null" horiz-adv-x="0" 
 />
    <glyph glyph-name=".null" horiz-adv-x="0" 
 />
    <glyph glyph-name="CR" unicode="&#xd;" horiz-adv-x="203" 
 />
    <glyph glyph-name="space" unicode=" " horiz-adv-x="203" 
 />
    <glyph glyph-name="exclam" unicode="!" horiz-adv-x="257" 
d="M86 -5c-29 0 -45 16 -45 42c0 40 22 58 58 58c30 0 45 -17 45 -44c0 -39 -23 -56 -58 -56zM141 180h-61l51 516l85 9z" />
    <glyph glyph-name="quotedbl" unicode="&#x22;" horiz-adv-x="313" 
d="M117 405h-60l31 313h76zM274 405h-60l31 313h76z" />
    <glyph glyph-name="numbersign" unicode="#" horiz-adv-x="834" 
d="M490 0h-76l54 170h-220l-52 -170h-77l54 170h-141l21 66h141l73 228h-141l23 66h140l51 170h79l-54 -170h219l52 170h78l-52 -170h140l-23 -66h-140l-75 -228h142l-21 -66h-142zM488 236l74 228h-219l-74 -228h219z" />
    <glyph glyph-name="dollar" unicode="$" horiz-adv-x="562" 
d="M256 -117h-64l13 107c-76 5 -144 29 -200 68l35 60c58 -39 133 -61 212 -61c81 0 175 19 175 130c0 73 -76 101 -161 132c-95 35 -188 72 -188 185c0 143 99 199 216 207l13 106h64l-13 -107c56 -4 106 -15 159 -45l-32 -61c-50 27 -104 39 -164 39
c-90 0 -167 -29 -167 -131c0 -69 62 -92 133 -119c108 -41 216 -80 216 -204c0 -147 -110 -196 -234 -200z" />
    <glyph glyph-name="percent" unicode="%" horiz-adv-x="999" 
d="M717 -12c-115 0 -163 67 -163 179c0 189 73 273 218 273c115 0 164 -69 164 -182c0 -189 -75 -270 -219 -270zM723 42c116 0 149 79 149 221c0 70 -23 123 -106 123c-117 0 -149 -80 -149 -223c0 -69 24 -121 106 -121zM226 260c-115 0 -163 67 -163 179
c0 189 73 273 218 273c115 0 164 -69 164 -182c0 -189 -75 -270 -219 -270zM232 314c116 0 149 79 149 221c0 70 -23 123 -106 123c-117 0 -149 -80 -149 -223c0 -69 24 -121 106 -121zM719 690l-384 -700l-52 20l384 700z" />
    <glyph glyph-name="ampersand" unicode="&#x26;" horiz-adv-x="676" 
d="M490 0h-244c-138 0 -212 54 -212 164c0 138 90 188 172 195c-66 16 -103 61 -103 133c0 127 65 186 167 206l16 -65c-65 -12 -107 -55 -107 -144c0 -88 73 -101 143 -101h138l19 156l79 14l-21 -167l110 -10l-8 -61h-111zM421 68l30 252h-146c-98 0 -188 -19 -188 -149
c0 -93 72 -103 213 -103h91z" />
    <glyph glyph-name="quotesingle" unicode="'" horiz-adv-x="156" 
d="M117 405h-60l31 313h76z" />
    <glyph glyph-name="parenleft" unicode="(" horiz-adv-x="302" 
d="M206 -122l-58 -28c-64 99 -107 222 -107 363c0 218 81 375 210 515l52 -37c-125 -142 -191 -260 -191 -476c0 -123 34 -243 94 -337z" />
    <glyph glyph-name="parenright" unicode=")" horiz-adv-x="302" 
d="M41 -150l-52 37c125 142 191 260 191 476c0 123 -34 243 -94 337l58 28c64 -99 107 -222 107 -363c0 -218 -81 -375 -210 -515z" />
    <glyph glyph-name="asterisk" unicode="*" horiz-adv-x="483" 
d="M380 354l-52 -35l-77 135l-109 -134l-47 39l115 130l-150 46l27 56l147 -54l16 163h63l-25 -163l160 54l13 -61l-163 -47z" />
    <glyph glyph-name="plus" unicode="+" 
d="M377 50h-74v205h-203v72h203v205h74v-205h203v-72h-203v-205z" />
    <glyph glyph-name="comma" unicode="," horiz-adv-x="223" 
d="M29 -140h-57l107 321l84 5z" />
    <glyph glyph-name="hyphen" unicode="-" horiz-adv-x="442" 
d="M367 255h-311l9 72h311z" />
    <glyph glyph-name="period" unicode="." horiz-adv-x="232" 
d="M71 -6c-30 0 -45 17 -45 43c0 41 21 61 58 61c30 0 45 -17 45 -43c0 -41 -21 -61 -58 -61z" />
    <glyph glyph-name="slash" unicode="/" horiz-adv-x="318" 
d="M67 -9l-65 18l263 700l65 -18z" />
    <glyph glyph-name="zero" unicode="0" horiz-adv-x="628" 
d="M282 58c184 0 219 185 219 385c0 126 -34 199 -156 199c-184 0 -218 -185 -218 -385c0 -126 34 -199 155 -199zM274 -12c-157 0 -225 97 -225 273c0 211 58 451 305 451c157 0 225 -97 225 -273c0 -211 -58 -451 -305 -451z" />
    <glyph glyph-name="one" unicode="1" horiz-adv-x="238" 
d="M115 0h-77l83 682l79 18z" />
    <glyph glyph-name="two" unicode="2" horiz-adv-x="543" 
d="M445 0h-409l-16 70c238 148 408 282 408 446c0 87 -46 126 -135 126c-64 0 -127 -17 -182 -41l-25 62c65 34 140 49 224 49c131 0 202 -74 202 -180c0 -186 -149 -317 -380 -462h322z" />
    <glyph glyph-name="three" unicode="3" horiz-adv-x="559" 
d="M42 111c55 -31 123 -52 191 -52c114 0 191 43 191 163c0 96 -82 124 -161 124c-11 0 -29 -1 -82 -6l-17 72l257 218h-329l8 70h412l12 -70l-274 -226c12 1 25 2 37 2c123 0 216 -61 216 -188c0 -132 -77 -230 -265 -230c-96 0 -164 21 -229 60z" />
    <glyph glyph-name="four" unicode="4" 
d="M448 0h-77l24 190h-323l-21 64c107 144 150 282 173 450l82 -8c-26 -163 -81 -314 -176 -439h274l33 273l78 14l-34 -287h132l-8 -67h-133z" />
    <glyph glyph-name="five" unicode="5" horiz-adv-x="556" 
d="M44 112c55 -31 117 -53 191 -53c141 0 194 55 194 172c0 100 -68 130 -148 130c-59 0 -125 -17 -175 -33l-30 68l70 304h362l-8 -70h-297l-55 -226c44 15 92 25 140 25c114 0 219 -54 219 -199c0 -130 -72 -242 -270 -242c-98 0 -169 23 -228 60z" />
    <glyph glyph-name="six" unicode="6" horiz-adv-x="595" 
d="M282 58c122 0 184 73 184 203c0 100 -49 141 -137 141c-78 0 -148 -35 -202 -108c-1 -11 -1 -22 -1 -32c0 -148 43 -204 156 -204zM274 -12c-157 0 -225 96 -225 275c0 217 67 449 297 449c62 0 121 -7 179 -39l-34 -63c-45 25 -94 32 -148 32c-126 0 -196 -94 -211 -264
c52 63 121 90 215 90c109 0 197 -65 197 -204c0 -169 -89 -276 -270 -276z" />
    <glyph glyph-name="seven" unicode="7" horiz-adv-x="508" 
d="M204 0h-83c33 254 112 471 301 630h-342l8 70h407l17 -70c-216 -164 -287 -382 -308 -630z" />
    <glyph glyph-name="eight" unicode="8" horiz-adv-x="596" 
d="M355 379c86 24 125 69 125 142c0 71 -40 122 -139 122c-117 0 -172 -52 -172 -134c0 -101 89 -107 186 -130zM247 325c-100 -26 -131 -83 -131 -142c0 -73 44 -126 152 -126c121 0 188 46 188 133c0 86 -81 106 -164 125zM426 345c65 -20 107 -77 107 -148
c0 -128 -79 -209 -271 -209c-155 0 -223 86 -223 188c0 75 36 155 143 187c-61 20 -90 78 -90 142c0 113 80 207 257 207c147 0 208 -92 208 -185c0 -82 -34 -147 -131 -182z" />
    <glyph glyph-name="nine" unicode="9" horiz-adv-x="595" 
d="M468 406c1 11 1 22 1 32c0 148 -43 204 -156 204c-122 0 -184 -73 -184 -203c0 -100 49 -141 137 -141c78 0 148 35 202 108zM70 27l34 63c45 -25 94 -32 148 -32c126 0 196 94 211 264c-52 -63 -121 -90 -215 -90c-109 0 -197 65 -197 204c0 169 89 276 270 276
c157 0 225 -96 225 -275c0 -217 -67 -449 -297 -449c-62 0 -121 7 -179 39z" />
    <glyph glyph-name="colon" unicode=":" horiz-adv-x="232" 
d="M71 -6c-30 0 -45 17 -45 43c0 41 21 61 58 61c30 0 45 -17 45 -43c0 -41 -21 -61 -58 -61zM111 319c-30 0 -45 17 -45 43c0 41 21 61 58 61c30 0 45 -17 45 -43c0 -41 -21 -61 -58 -61z" />
    <glyph glyph-name="semicolon" unicode=";" horiz-adv-x="259" 
d="M138 319c-30 0 -45 17 -45 43c0 41 21 61 58 61c30 0 45 -17 45 -43c0 -41 -21 -61 -58 -61zM32 -140h-57l107 321l84 5z" />
    <glyph glyph-name="less" unicode="&#x3c;" 
d="M544 47l-444 211v66l444 212l36 -72l-406 -173l406 -173z" />
    <glyph glyph-name="equal" unicode="=" 
d="M580 358h-480v70h480v-70zM580 154h-480v70h480v-70z" />
    <glyph glyph-name="greater" unicode="&#x3e;" 
d="M136 46l-36 72l405 173l-405 173l36 71l444 -211v-66z" />
    <glyph glyph-name="question" unicode="?" horiz-adv-x="462" 
d="M201 180h-62l15 174c148 14 200 48 200 147c0 105 -70 147 -218 147c-13 0 -26 -1 -39 -2l16 64c20 2 39 2 57 2c178 0 265 -92 265 -204c0 -119 -63 -188 -217 -207zM146 -5c-29 0 -45 16 -45 42c0 40 22 58 58 58c30 0 45 -17 45 -44c0 -39 -23 -56 -58 -56z" />
    <glyph glyph-name="at" unicode="@" horiz-adv-x="906" 
d="M612 -86c-73 -47 -168 -66 -276 -66c-191 0 -299 110 -299 317c0 315 155 547 515 547c211 0 310 -118 310 -281c0 -249 -125 -369 -327 -389v70c-32 -45 -90 -76 -177 -76c-91 0 -132 91 -132 182c0 166 73 321 272 321c62 0 125 -12 179 -36l-79 -323l-8 -75
c118 30 210 101 210 322c0 139 -70 229 -260 229c-263 0 -441 -141 -441 -492c0 -168 73 -260 245 -260c91 0 171 15 243 61zM538 190l65 272c-32 15 -74 21 -116 21c-148 0 -195 -132 -195 -262c0 -75 21 -130 89 -130c77 0 112 38 157 99z" />
    <glyph glyph-name="A" unicode="A" horiz-adv-x="582" 
d="M525 5l-84 -10l-32 169h-272l-70 -164h-85l316 696l79 9zM397 231l-70 374l-161 -374h231z" />
    <glyph glyph-name="B" unicode="B" horiz-adv-x="576" 
d="M152 388h108c73 0 201 3 201 134c0 92 -74 122 -163 122c-39 0 -81 -6 -116 -13zM113 68h89c146 0 246 5 246 143c0 87 -74 109 -157 109h-147zM28 0l84 689c58 12 128 23 193 23c123 0 234 -44 234 -177c0 -111 -60 -163 -139 -177c63 -7 129 -57 129 -149
c0 -152 -101 -209 -257 -209h-244z" />
    <glyph glyph-name="C" unicode="C" horiz-adv-x="561" 
d="M488 31c-61 -35 -131 -43 -203 -43c-136 0 -237 73 -237 273c0 219 71 451 326 451c65 0 129 -9 191 -46l-34 -61c-48 28 -107 37 -162 37c-170 0 -243 -132 -243 -385c0 -159 70 -199 166 -199c62 0 119 9 173 37z" />
    <glyph glyph-name="D" unicode="D" horiz-adv-x="650" 
d="M28 0l84 688c72 13 152 24 226 24c144 0 266 -51 266 -273c0 -221 -63 -439 -340 -439h-236zM113 70h159c199 0 254 138 254 373c0 164 -83 201 -186 201c-50 0 -106 -7 -158 -16z" />
    <glyph glyph-name="E" unicode="E" horiz-adv-x="529" 
d="M432 0h-404l85 700h404l-8 -70h-327l-27 -222h268l-25 -70h-252l-33 -268h327z" />
    <glyph glyph-name="F" unicode="F" horiz-adv-x="499" 
d="M105 0h-77l85 700h404l-8 -70h-327l-30 -245h268l-25 -70h-252z" />
    <glyph glyph-name="G" unicode="G" horiz-adv-x="647" 
d="M555 46c-72 -41 -162 -58 -261 -58c-172 0 -246 97 -246 273c0 302 137 451 336 451c68 0 137 -10 202 -44l-34 -64c-52 28 -111 38 -170 38c-158 0 -256 -114 -256 -385c0 -126 39 -199 176 -199c70 0 138 10 182 36l23 186h-179l8 70h256z" />
    <glyph glyph-name="H" unicode="H" horiz-adv-x="622" 
d="M509 0h-77l41 335h-327l-41 -335h-77l85 700h77l-36 -295h327l36 295h77z" />
    <glyph glyph-name="I" unicode="I" horiz-adv-x="218" 
d="M105 0h-77l85 700h77z" />
    <glyph glyph-name="J" unicode="J" horiz-adv-x="248" 
d="M-15 -167l-37 60c89 45 108 106 122 217l73 590h77l-72 -585c-17 -136 -41 -229 -163 -282z" />
    <glyph glyph-name="K" unicode="K" horiz-adv-x="547" 
d="M422 -10l-275 357l-42 -347h-77l85 700h77l-40 -327l335 334l65 -38l-318 -313l263 -332z" />
    <glyph glyph-name="L" unicode="L" horiz-adv-x="517" 
d="M443 0h-415l85 700h77l-77 -630h338z" />
    <glyph glyph-name="M" unicode="M" horiz-adv-x="793" 
d="M701 2l-79 -6l33 584l-260 -580h-73l-122 580l-106 -580h-79l140 700h96l120 -588l259 588h103z" />
    <glyph glyph-name="N" unicode="N" horiz-adv-x="635" 
d="M522 0h-79l-274 581l-71 -581h-70l84 689l83 17l272 -578l70 572h70z" />
    <glyph glyph-name="O" unicode="O" horiz-adv-x="676" 
d="M302 58c206 0 248 185 248 385c0 126 -39 199 -177 199c-206 0 -247 -185 -247 -385c0 -126 38 -199 176 -199zM294 -12c-172 0 -246 97 -246 273c0 211 63 451 334 451c172 0 246 -97 246 -273c0 -211 -63 -451 -334 -451z" />
    <glyph glyph-name="P" unicode="P" horiz-adv-x="564" 
d="M143 312c40 -8 82 -14 123 -14c114 0 217 43 217 189c0 120 -95 154 -191 154c-39 0 -78 -6 -110 -14zM105 0h-77l84 689c61 14 127 23 190 23c141 0 259 -61 259 -220c0 -196 -147 -260 -301 -260c-42 0 -85 4 -125 13z" />
    <glyph glyph-name="Q" unicode="Q" horiz-adv-x="676" 
d="M459 -117l-77 -36c-42 39 -73 91 -92 141c-169 2 -242 98 -242 273c0 211 63 451 334 451c172 0 246 -97 246 -273c0 -192 -52 -409 -267 -445c20 -39 57 -81 98 -111zM302 58c206 0 248 185 248 385c0 126 -39 199 -177 199c-206 0 -247 -185 -247 -385
c0 -126 38 -199 176 -199z" />
    <glyph glyph-name="R" unicode="R" horiz-adv-x="582" 
d="M145 326h133c129 0 195 52 195 174c0 104 -79 141 -169 141c-41 0 -84 -6 -123 -14zM513 4l-83 -14l-117 266h-177l-31 -256h-77l84 689c62 14 131 23 194 23c140 0 246 -58 246 -206c0 -144 -76 -208 -168 -230z" />
    <glyph glyph-name="S" unicode="S" horiz-adv-x="562" 
d="M40 118c58 -39 133 -61 212 -61c81 0 175 19 175 130c0 73 -76 101 -161 132c-95 35 -188 72 -188 185c0 154 116 208 245 208c69 0 136 -14 194 -47l-32 -61c-50 27 -104 39 -164 39c-90 0 -167 -29 -167 -131c0 -69 62 -92 133 -119c108 -41 216 -80 216 -204
c0 -156 -124 -201 -257 -201c-94 0 -177 25 -241 70z" />
    <glyph glyph-name="T" unicode="T" horiz-adv-x="563" 
d="M278 0h-77l77 630h-205l8 70h487l-8 -70h-205z" />
    <glyph glyph-name="U" unicode="U" horiz-adv-x="656" 
d="M638 700l-43 -350c-30 -247 -120 -362 -307 -362c-159 0 -226 81 -226 253c0 33 2 69 7 109l43 350h77l-43 -350c-6 -46 -9 -86 -9 -120c0 -117 39 -172 160 -172c141 0 197 93 222 292l43 350h76z" />
    <glyph glyph-name="V" unicode="V" horiz-adv-x="579" 
d="M288 0h-78l-147 694l83 12l114 -611l263 611l77 -18z" />
    <glyph glyph-name="W" unicode="W" horiz-adv-x="855" 
d="M616 0h-86l-69 584l-210 -584h-89l-98 693l84 12l70 -608l211 595l86 14l69 -609l213 609l80 -15z" />
    <glyph glyph-name="X" unicode="X" horiz-adv-x="595" 
d="M460 -12l-161 317l-220 -305h-95l274 367l-171 321l82 21l138 -285l197 276h93l-250 -335l192 -352z" />
    <glyph glyph-name="Y" unicode="Y" horiz-adv-x="576" 
d="M283 0h-77l31 258l-170 431l81 19l133 -376l225 368h88l-280 -442z" />
    <glyph glyph-name="Z" unicode="Z" horiz-adv-x="555" 
d="M473 0h-441l-16 70l426 560h-346l8 70h419l16 -68l-427 -562h377z" />
    <glyph glyph-name="bracketleft" unicode="[" horiz-adv-x="319" 
d="M216 -140h-196l106 858h196l-8 -65h-126l-90 -728h126z" />
    <glyph glyph-name="backslash" unicode="\" horiz-adv-x="315" 
d="M237 5l-66 -10l-93 700l66 10z" />
    <glyph glyph-name="bracketright" unicode="]" horiz-adv-x="319" 
d="M193 -140h-196l8 65h126l90 728h-126l8 65h196z" />
    <glyph glyph-name="asciicircum" unicode="^" horiz-adv-x="445" 
d="M409 382l-61 -25l-126 292l-126 -292l-61 25l156 336h61z" />
    <glyph glyph-name="underscore" unicode="_" horiz-adv-x="500" 
d="M444 -154h-503l6 46h503z" />
    <glyph glyph-name="grave" unicode="`" horiz-adv-x="222" 
d="M203 597l-54 -6l-74 171l79 6z" />
    <glyph glyph-name="a" unicode="a" horiz-adv-x="536" 
d="M374 156l35 289c-30 15 -73 21 -119 21c-93 0 -178 -36 -178 -272c0 -86 26 -143 108 -143c72 0 114 40 154 105zM448 6l-63 -10c-5 25 -8 51 -9 79c-40 -59 -94 -87 -180 -87c-110 0 -159 88 -159 210c0 208 73 330 252 330c71 0 139 -10 200 -37l-30 -244
c-7 -57 -14 -116 -14 -177c0 -21 1 -43 3 -64z" />
    <glyph glyph-name="b" unicode="b" horiz-adv-x="536" 
d="M111 71c30 -15 73 -21 119 -21c93 0 178 36 178 272c0 86 -26 143 -108 143c-72 0 -114 -40 -154 -105zM31 25l83 679l76 14l-32 -260c38 49 92 70 166 70c110 0 159 -88 159 -210c0 -208 -73 -330 -252 -330c-71 0 -139 10 -200 37z" />
    <glyph glyph-name="c" unicode="c" horiz-adv-x="441" 
d="M368 18c-44 -23 -96 -30 -152 -30c-104 0 -179 66 -179 210c0 229 92 330 245 330c55 0 105 -9 144 -33l-30 -60c-36 20 -74 27 -109 27c-101 0 -175 -49 -175 -268c0 -107 44 -142 125 -142c35 0 73 7 112 26z" />
    <glyph glyph-name="d" unicode="d" horiz-adv-x="536" 
d="M374 156l34 280c-32 19 -75 30 -118 30c-93 0 -178 -36 -178 -272c0 -86 26 -143 108 -143c71 0 114 40 154 105zM448 6l-63 -10c-5 25 -8 51 -9 79c-40 -59 -94 -87 -180 -87c-110 0 -159 88 -159 210c0 208 73 330 252 330c47 0 99 -8 131 -31c-1 4 -1 9 -1 14
c0 25 5 55 8 78l14 115l76 14l-58 -471c-7 -57 -14 -116 -14 -177c0 -21 1 -43 3 -64z" />
    <glyph glyph-name="e" unicode="e" horiz-adv-x="517" 
d="M413 31c-56 -30 -116 -43 -179 -43c-119 0 -197 56 -197 210c0 205 70 330 253 330c141 0 176 -80 176 -193c0 -31 -2 -63 -6 -98l-348 -28v-11c0 -87 24 -147 130 -147c53 0 97 12 148 39zM115 267l278 26c2 16 3 32 3 47c0 71 -23 125 -112 125s-158 -52 -169 -198z
" />
    <glyph glyph-name="f" unicode="f" horiz-adv-x="321" 
d="M133 0h-74l54 443h-88l8 63h86c-3 19 -5 38 -5 56c0 99 52 168 172 168c19 0 40 -2 58 -7l-14 -63c-13 3 -27 4 -41 4c-70 0 -103 -31 -103 -103c0 -16 2 -35 5 -55h120l-18 -63h-106z" />
    <glyph glyph-name="g" unicode="g" horiz-adv-x="537" 
d="M374 167l34 278c-30 15 -73 21 -119 21c-91 0 -177 -35 -177 -263c0 -83 27 -138 109 -138c71 0 114 40 153 102zM91 -75c39 -18 81 -29 127 -29c79 0 126 34 140 144l4 32c-38 -49 -86 -70 -166 -70c-110 0 -159 86 -159 205c0 202 73 321 251 321c71 0 139 -10 200 -37
l-56 -455c-18 -146 -98 -202 -223 -202c-45 0 -98 13 -141 33z" />
    <glyph glyph-name="h" unicode="h" horiz-adv-x="538" 
d="M435 0h-74l32 262c4 31 7 61 7 87c0 69 -21 116 -99 116c-72 0 -115 -40 -155 -105l-44 -360h-74l86 704l76 14l-32 -260c38 49 92 70 166 70c117 0 149 -90 149 -187c0 -24 -2 -47 -5 -71z" />
    <glyph glyph-name="i" unicode="i" horiz-adv-x="224" 
d="M141 610c-27 0 -43 13 -43 37c0 36 21 49 54 49c27 0 43 -14 43 -39c0 -35 -23 -47 -54 -47zM129 0h-70c-7 35 -10 72 -10 109c0 25 1 50 4 74l39 319l76 14l-42 -342c-3 -27 -5 -54 -5 -81c0 -32 2 -64 8 -93z" />
    <glyph glyph-name="j" unicode="j" horiz-adv-x="228" 
d="M152 610c-27 0 -43 13 -43 37c0 36 21 49 54 49c27 0 43 -14 43 -39c0 -35 -23 -47 -54 -47zM-31 -169l-33 57c83 40 104 107 120 234l47 380l76 14l-54 -439c-14 -118 -56 -206 -156 -246z" />
    <glyph glyph-name="k" unicode="k" horiz-adv-x="461" 
d="M406 21l-71 -31l-200 283l-33 -273h-74l86 704l76 14l-53 -427l252 231l56 -36l-228 -209z" />
    <glyph glyph-name="l" unicode="l" horiz-adv-x="224" 
d="M192 718l-67 -544c-3 -27 -5 -54 -5 -81c0 -32 2 -64 8 -93h-70c-7 35 -10 72 -10 109c0 25 1 50 4 74l64 521z" />
    <glyph glyph-name="m" unicode="m" horiz-adv-x="853" 
d="M750 0h-74l32 262c4 32 7 62 7 88c0 69 -20 115 -96 115c-69 0 -111 -40 -149 -105l-44 -360h-74l41 335c1 9 2 17 2 25c0 70 -38 105 -100 105c-69 0 -111 -40 -149 -105l-44 -360h-74l33 269c7 57 14 116 14 177c0 21 -1 42 -3 64l63 10c5 -25 8 -51 9 -79
c39 59 91 87 174 87c73 0 115 -37 132 -91c39 61 98 91 192 91c115 0 146 -89 146 -186c0 -24 -2 -48 -5 -72z" />
    <glyph glyph-name="n" unicode="n" horiz-adv-x="538" 
d="M435 0h-74l32 262c4 31 7 61 7 87c0 69 -21 116 -99 116c-72 0 -115 -40 -155 -105l-44 -360h-74l33 269c7 57 14 116 14 177c0 21 -1 42 -3 64l63 10c5 -25 8 -51 9 -79c40 59 94 87 180 87c117 0 149 -90 149 -187c0 -24 -2 -47 -5 -71z" />
    <glyph glyph-name="o" unicode="o" horiz-adv-x="550" 
d="M233 -12c-137 0 -196 76 -196 210c0 235 89 330 264 330c137 0 196 -76 196 -210c0 -235 -89 -330 -264 -330zM241 51c157 0 181 128 181 271c0 85 -28 143 -129 143c-157 0 -181 -128 -181 -271c0 -85 28 -143 129 -143z" />
    <glyph glyph-name="p" unicode="p" horiz-adv-x="536" 
d="M112 80c32 -19 75 -30 118 -30c93 0 178 36 178 272c0 86 -26 143 -108 143c-71 0 -114 -40 -154 -105zM83 -154h-74l52 423c7 57 14 116 14 177c0 21 -1 42 -3 64l63 10c5 -25 8 -51 9 -79c40 59 94 87 180 87c110 0 159 -88 159 -210c0 -208 -73 -330 -252 -330
c-47 0 -99 8 -131 31c1 -5 1 -10 1 -15c0 -25 -5 -54 -8 -77z" />
    <glyph glyph-name="q" unicode="q" horiz-adv-x="537" 
d="M374 156l35 289c-30 15 -73 21 -119 21c-93 0 -178 -36 -178 -272c0 -86 26 -143 108 -143c72 0 114 40 154 105zM411 -140l-76 -14l27 212c-38 -49 -92 -70 -166 -70c-110 0 -159 88 -159 210c0 208 73 330 252 330c71 0 139 -10 200 -37z" />
    <glyph glyph-name="r" unicode="r" horiz-adv-x="324" 
d="M102 0h-74l33 269c7 57 14 116 14 177c0 21 -1 42 -3 64l63 10c5 -27 9 -55 9 -87c36 61 92 89 169 95l3 -80c-83 -1 -135 -36 -173 -110z" />
    <glyph glyph-name="s" unicode="s" horiz-adv-x="449" 
d="M37 95c45 -29 105 -45 159 -45c57 0 119 13 119 91c0 54 -63 67 -125 89c-65 23 -130 56 -130 144c0 114 90 154 190 154c53 0 104 -10 150 -36l-29 -56c-38 21 -81 30 -124 30c-57 0 -115 -16 -115 -87c0 -48 32 -65 92 -84c73 -23 163 -53 163 -151
c0 -125 -98 -156 -195 -156c-68 0 -134 18 -186 52z" />
    <glyph glyph-name="t" unicode="t" horiz-adv-x="312" 
d="M191 20l-56 -35c-41 46 -52 98 -52 152c0 32 4 64 8 95l27 221h-88l8 63h88l19 153l75 14l-20 -167h116l-18 -63h-106l-27 -216c-5 -41 -9 -74 -9 -104c0 -42 8 -76 35 -113z" />
    <glyph glyph-name="u" unicode="u" horiz-adv-x="538" 
d="M449 6l-62 -10c-5 25 -8 51 -9 79c-40 -59 -94 -87 -180 -87c-118 0 -148 90 -148 188c0 23 1 47 4 70l31 256l76 14l-32 -262c-4 -31 -7 -61 -7 -87c0 -69 21 -116 99 -116c72 0 115 40 155 105l42 346l76 14l-33 -269c-7 -59 -14 -119 -14 -182c0 -19 0 -39 2 -59z" />
    <glyph glyph-name="v" unicode="v" horiz-adv-x="463" 
d="M231 0h-84l-109 507l79 13l80 -452l192 453l72 -15z" />
    <glyph glyph-name="w" unicode="w" horiz-adv-x="760" 
d="M547 0h-89l-64 424l-175 -424h-87l-94 509l77 13l71 -450l176 440l80 10l65 -450l179 450l72 -16z" />
    <glyph glyph-name="x" unicode="x" horiz-adv-x="478" 
d="M422 16l-76 -27l-117 227l-159 -216h-86l202 268l-127 236l78 21l97 -205l138 196h89l-185 -244z" />
    <glyph glyph-name="y" unicode="y" horiz-adv-x="462" 
d="M49 -169l-28 54c75 32 111 68 127 124l-110 498l79 13l80 -448l192 449l71 -16l-205 -446c-49 -106 -90 -191 -206 -228z" />
    <glyph glyph-name="z" unicode="z" horiz-adv-x="472" 
d="M394 0h-372l-13 63l338 390h-275l8 63h350l12 -63l-336 -390h301z" />
    <glyph glyph-name="braceleft" unicode="{" horiz-adv-x="357" 
d="M250 -76l-8 -64h-4c-128 0 -154 72 -154 160c0 50 8 104 8 148c0 50 -11 87 -58 92l-5 63c78 5 88 83 99 168c14 108 31 227 198 227h20l-8 -64h-17c-105 0 -116 -87 -127 -176c-9 -78 -18 -159 -89 -187c43 -21 53 -64 53 -114s-10 -107 -10 -154c0 -25 3 -48 12 -65
c12 -23 36 -34 79 -34h11z" />
    <glyph glyph-name="bar" unicode="|" horiz-adv-x="269" 
d="M169 -140h-69v934h69v-934z" />
    <glyph glyph-name="braceright" unicode="}" horiz-adv-x="357" 
d="M7 -76h17c105 0 116 87 127 176c9 78 18 159 89 187c-43 21 -53 64 -53 114s10 107 10 154c0 25 -3 48 -12 65c-12 23 -36 34 -79 34h-11l8 64h4c128 0 154 -72 154 -160c0 -50 -8 -104 -8 -148c0 -50 11 -87 58 -92l5 -63c-78 -5 -88 -83 -99 -168
c-14 -108 -31 -227 -198 -227h-20z" />
    <glyph glyph-name="asciitilde" unicode="~" horiz-adv-x="551" 
d="M485 299c-38 -49 -88 -67 -135 -67c-62 0 -102 56 -153 56c-35 0 -64 -17 -92 -49l-39 45c38 49 88 67 135 67c62 0 102 -56 153 -56c35 0 64 17 92 49z" />
    <glyph glyph-name="uni00A0" unicode="&#xa0;" horiz-adv-x="203" 
 />
    <glyph glyph-name="exclamdown" unicode="&#xa1;" horiz-adv-x="257" 
d="M136 428c-30 0 -45 17 -45 44c0 39 23 56 58 56c29 0 45 -16 45 -42c0 -40 -22 -58 -58 -58zM104 -173l-85 -9l75 525h61z" />
    <glyph glyph-name="cent" unicode="&#xa2;" horiz-adv-x="441" 
d="M230 -112h-61l12 103c-85 13 -144 79 -144 207c0 211 78 314 211 328l12 102h61l-12 -101c44 -2 84 -12 117 -32l-30 -60c-36 20 -74 27 -109 27c-101 0 -175 -49 -175 -268c0 -107 44 -142 125 -142c35 0 73 7 112 26l19 -60c-37 -19 -80 -27 -126 -29z" />
    <glyph glyph-name="sterling" unicode="&#xa3;" horiz-adv-x="557" 
d="M474 0h-416l-10 70c73 67 91 153 91 247h-97l9 68h85c-4 37 -7 72 -7 105c0 131 43 222 225 222c62 0 119 -12 173 -44l-34 -63c-41 26 -92 37 -147 37c-117 0 -140 -57 -140 -144c0 -34 2 -72 6 -113h185l-9 -68h-173c0 -93 -14 -179 -80 -247h347z" />
    <glyph glyph-name="currency" unicode="&#xa4;" horiz-adv-x="637" 
d="M305 151c-38 0 -71 6 -95 23l-80 -71l-38 46l81 72c-12 23 -19 49 -19 75c0 51 14 95 38 126l-58 67l48 38l59 -69c29 15 62 21 99 21c39 0 69 -9 95 -27l84 75l38 -46l-84 -74c12 -23 19 -49 19 -75c0 -50 -13 -90 -37 -120l63 -71l-46 -38l-62 70
c-30 -17 -63 -22 -105 -22zM305 205c85 0 127 37 127 127c0 56 -28 93 -92 93c-85 0 -126 -37 -126 -130c0 -55 27 -90 91 -90z" />
    <glyph glyph-name="yen" unicode="&#xa5;" horiz-adv-x="576" 
d="M283 0h-77l18 144h-153l7 56h153l8 70h-152l7 56h123l-150 363l81 19l136 -362l222 354h88l-242 -374h127l-7 -56h-156l-8 -70h155l-7 -56h-155z" />
    <glyph glyph-name="brokenbar" unicode="&#xa6;" horiz-adv-x="269" 
d="M169 381h-69v413h69v-413zM169 -140h-69v413h69v-413z" />
    <glyph glyph-name="section" unicode="&#xa7;" horiz-adv-x="537" 
d="M55 -43c47 -26 103 -42 158 -42c73 0 133 20 133 96c0 66 -58 92 -134 119c-82 29 -169 65 -169 164c0 74 37 120 96 146c-27 19 -39 62 -39 104c0 126 90 168 213 168c66 0 131 -17 185 -48l-31 -61c-47 26 -103 42 -158 42c-73 0 -133 -20 -133 -96
c0 -66 58 -92 134 -119c82 -29 169 -65 169 -164c0 -74 -37 -120 -96 -146c27 -19 39 -62 39 -104c0 -126 -90 -168 -213 -168c-66 0 -131 17 -185 48zM333 158c44 19 71 51 71 102c0 54 -57 75 -119 98c-33 12 -67 25 -96 44c-44 -19 -71 -51 -71 -102
c0 -54 57 -75 119 -98c33 -12 67 -25 96 -44z" />
    <glyph glyph-name="dieresis" unicode="&#xa8;" horiz-adv-x="391" 
d="M130 611c-26 0 -41 14 -41 37c0 35 20 49 52 49c27 0 41 -15 41 -39c0 -34 -23 -47 -52 -47zM325 611c-26 0 -41 14 -41 37c0 35 20 49 52 49c27 0 41 -15 41 -39c0 -34 -23 -47 -52 -47z" />
    <glyph glyph-name="copyright" unicode="&#xa9;" horiz-adv-x="806" 
d="M508 131c-47 -24 -92 -31 -136 -31c-96 0 -163 60 -163 196c0 223 110 300 224 300c42 0 85 -8 128 -32l-28 -49c-32 19 -69 25 -105 25c-97 0 -159 -63 -159 -250c0 -93 35 -134 112 -134c37 0 76 7 111 26zM364 40c208 0 337 106 337 358c0 165 -87 262 -260 262
c-209 0 -336 -107 -336 -360c0 -166 81 -260 259 -260zM358 -12c-202 0 -308 121 -308 309c0 281 154 415 397 415c203 0 309 -121 309 -311c0 -278 -155 -413 -398 -413z" />
    <glyph glyph-name="ordfeminine" unicode="&#xaa;" horiz-adv-x="335" 
d="M299 319h-242l5 40h242zM304 404l-42 -6c-5 14 -7 29 -8 43c-19 -28 -47 -46 -101 -46c-64 0 -96 52 -96 125c0 108 38 192 150 192c41 0 85 -7 123 -24l-23 -174c-3 -21 -5 -44 -5 -68c0 -14 1 -28 2 -42zM255 501l20 158c-20 9 -45 11 -69 11c-79 0 -99 -70 -99 -146
c0 -50 16 -87 58 -87c50 0 72 25 90 64z" />
    <glyph glyph-name="guillemotleft" unicode="&#xab;" horiz-adv-x="669" 
d="M265 68l-232 185l7 62l268 178l32 -62l-243 -152l206 -152zM539 68l-232 185l7 62l268 178l32 -62l-243 -152l206 -152z" />
    <glyph glyph-name="logicalnot" unicode="&#xac;" 
d="M580 102h-75v153h-405v72h480v-225z" />
    <glyph glyph-name="uni00AD" unicode="&#xad;" horiz-adv-x="442" 
d="M367 255h-311l9 72h311z" />
    <glyph glyph-name="registered" unicode="&#xae;" horiz-adv-x="806" 
d="M569 138l-55 -25l-81 170h-129l-20 -167h-60l57 463c41 11 88 18 134 18c95 0 183 -33 183 -150c0 -99 -50 -142 -109 -155zM311 335h115c51 0 111 12 111 107c0 77 -58 100 -121 100c-28 0 -56 -4 -81 -10zM364 40c208 0 337 106 337 358c0 165 -87 262 -260 262
c-209 0 -336 -107 -336 -360c0 -166 81 -260 259 -260zM358 -12c-202 0 -308 121 -308 309c0 281 154 415 397 415c203 0 309 -121 309 -311c0 -278 -155 -413 -398 -413z" />
    <glyph glyph-name="macron" unicode="&#xaf;" horiz-adv-x="454" 
d="M442 593h-374l8 63h374z" />
    <glyph glyph-name="degree" unicode="&#xb0;" horiz-adv-x="400" 
d="M218 493c67 0 109 33 109 106c0 51 -28 84 -86 84c-70 0 -108 -34 -108 -109c0 -49 28 -81 85 -81zM212 446c-87 0 -132 52 -132 125c0 108 62 159 167 159c88 0 133 -53 133 -127c0 -107 -64 -157 -168 -157z" />
    <glyph glyph-name="plusminus" unicode="&#xb1;" 
d="M580 0h-480v72h480v-72zM377 135h-74v187h-203v72h203v186h74v-186h203v-72h-203v-187z" />
    <glyph glyph-name="twosuperior" unicode="&#xb2;" horiz-adv-x="360" 
d="M297 305h-234l-12 54c125 78 220 149 220 231c0 44 -21 63 -70 63c-34 0 -68 -9 -98 -24l-20 50c36 20 83 28 133 28c73 0 118 -39 118 -103c0 -102 -77 -169 -200 -245h170z" />
    <glyph glyph-name="threesuperior" unicode="&#xb3;" horiz-adv-x="368" 
d="M71 383c30 -18 65 -31 102 -31c65 0 97 18 97 81c0 46 -42 57 -76 57c-8 0 -17 -1 -26 -2l-23 -3l-13 55l131 106h-172l6 54h236l9 -54l-146 -113c6 1 12 2 17 2c58 0 118 -23 118 -106c0 -75 -38 -131 -153 -131c-54 0 -92 12 -131 36z" />
    <glyph glyph-name="acute" unicode="&#xb4;" horiz-adv-x="222" 
d="M139 591l-55 6l92 171l79 -6z" />
    <glyph glyph-name="mu" unicode="&#xb5;" horiz-adv-x="538" 
d="M450 6l-63 -10c-5 25 -8 51 -9 79c-40 -59 -94 -87 -180 -87c-47 0 -79 15 -95 48l-24 -190h-74l80 656l76 14l-32 -262c-4 -31 -7 -61 -7 -87c0 -69 21 -116 99 -116c72 0 115 40 155 105l42 346l76 14l-33 -269c-7 -58 -13 -117 -14 -179c0 -20 1 -41 3 -62z" />
    <glyph glyph-name="paragraph" unicode="&#xb6;" horiz-adv-x="510" 
d="M401 0h-63l78 636c-21 7 -45 9 -66 9l-79 -645h-63l37 302c-129 0 -185 88 -185 184c0 151 112 225 281 225c45 0 93 -7 144 -20z" />
    <glyph glyph-name="periodcentered" unicode="&#xb7;" horiz-adv-x="232" 
d="M106 285c-30 0 -45 17 -45 43c0 41 21 61 58 61c30 0 45 -17 45 -43c0 -41 -21 -61 -58 -61z" />
    <glyph glyph-name="cedilla" unicode="&#xb8;" horiz-adv-x="235" 
d="M-19 -161l18 48c13 -6 31 -10 48 -10c21 0 38 5 38 25c0 16 -17 29 -57 29l24 69h55l-13 -39c35 -5 50 -31 50 -56c0 -60 -48 -78 -99 -78c-17 0 -42 3 -64 12z" />
    <glyph glyph-name="onesuperior" unicode="&#xb9;" horiz-adv-x="205" 
d="M120 305h-59l46 381l61 14z" />
    <glyph glyph-name="ordmasculine" unicode="&#xba;" horiz-adv-x="356" 
d="M191 437c78 0 101 55 101 153c0 47 -16 80 -72 80c-80 0 -100 -57 -100 -155c0 -46 15 -78 71 -78zM186 395c-81 0 -116 47 -116 125c0 139 52 192 155 192c82 0 117 -47 117 -126c0 -138 -55 -191 -156 -191zM297 319h-240l5 40h240z" />
    <glyph glyph-name="guillemotright" unicode="&#xbb;" horiz-adv-x="669" 
d="M72 75l-32 62l243 152l-206 152l38 59l232 -185l-7 -62zM346 75l-32 62l243 152l-206 152l38 59l232 -185l-7 -62z" />
    <glyph glyph-name="onequarter" unicode="&#xbc;" horiz-adv-x="648" 
d="M511 0h-59l13 102h-162l-14 47c56 85 73 155 84 250l61 -9c-13 -90 -40 -171 -86 -237h123l18 141l60 11l-19 -152h50l-7 -51h-49zM120 305h-59l46 381l61 14zM461 691l-385 -701l-45 20l385 701z" />
    <glyph glyph-name="onehalf" unicode="&#xbd;" horiz-adv-x="655" 
d="M557 0h-234l-12 54c125 78 220 149 220 231c0 44 -21 63 -70 63c-34 0 -68 -9 -98 -24l-20 50c36 20 83 28 133 28c73 0 118 -39 118 -103c0 -102 -77 -169 -200 -245h170zM120 305h-59l46 381l61 14zM461 691l-385 -701l-45 20l385 701z" />
    <glyph glyph-name="threequarters" unicode="&#xbe;" horiz-adv-x="801" 
d="M620 691l-385 -701l-45 20l385 701zM71 383c30 -18 65 -31 102 -31c65 0 97 18 97 81c0 46 -42 57 -76 57c-8 0 -17 -1 -26 -2l-23 -3l-13 55l131 106h-172l6 54h236l9 -54l-146 -113c6 1 12 2 17 2c58 0 118 -23 118 -106c0 -75 -38 -131 -153 -131
c-54 0 -92 12 -131 36zM664 0h-59l13 102h-162l-14 47c56 85 73 155 84 250l61 -9c-13 -90 -40 -171 -86 -237h123l18 141l60 11l-19 -152h50l-7 -51h-49z" />
    <glyph glyph-name="questiondown" unicode="&#xbf;" horiz-adv-x="462" 
d="M344 -187c-20 -2 -39 -2 -57 -2c-178 0 -265 92 -265 204c0 119 63 188 217 207l17 121h62l-15 -174c-148 -14 -200 -48 -200 -147c0 -105 70 -147 218 -147c13 0 26 1 39 2zM298 428c-30 0 -45 17 -45 44c0 39 23 56 58 56c29 0 45 -16 45 -42c0 -40 -22 -58 -58 -58z
" />
    <glyph glyph-name="Agrave" unicode="&#xc0;" horiz-adv-x="582" 
d="M525 5l-84 -10l-32 169h-272l-70 -164h-85l316 696l79 9zM397 231l-70 374l-161 -374h231zM381 763l-54 -6l-74 171l79 6z" />
    <glyph glyph-name="Aacute" unicode="&#xc1;" horiz-adv-x="582" 
d="M525 5l-84 -10l-32 169h-272l-70 -164h-85l316 696l79 9zM397 231l-70 374l-161 -374h231zM356 757l-55 6l92 171l79 -6z" />
    <glyph glyph-name="Acircumflex" unicode="&#xc2;" horiz-adv-x="582" 
d="M525 5l-84 -10l-32 169h-272l-70 -164h-85l316 696l79 9zM397 231l-70 374l-161 -374h231zM488 750l-130 98l-154 -98l-34 38l163 121h57l138 -125z" />
    <glyph glyph-name="Atilde" unicode="&#xc3;" horiz-adv-x="582" 
d="M525 5l-84 -10l-32 169h-272l-70 -164h-85l316 696l79 9zM397 231l-70 374l-161 -374h231zM556 816c-41 -42 -88 -61 -138 -61c-65 0 -90 56 -141 56c-39 0 -72 -20 -104 -49l-27 53c41 42 88 59 138 59c65 0 91 -56 142 -56c39 0 71 21 103 50z" />
    <glyph glyph-name="Adieresis" unicode="&#xc4;" horiz-adv-x="582" 
d="M525 5l-84 -10l-32 169h-272l-70 -164h-85l316 696l79 9zM397 231l-70 374l-161 -374h231zM249 757c-26 0 -41 14 -41 37c0 35 20 49 52 49c27 0 41 -15 41 -39c0 -34 -23 -47 -52 -47zM444 757c-26 0 -41 14 -41 37c0 35 20 49 52 49c27 0 41 -15 41 -39
c0 -34 -23 -47 -52 -47z" />
    <glyph glyph-name="Aring" unicode="&#xc5;" horiz-adv-x="582" 
d="M525 5l-84 -10l-32 169h-272l-70 -164h-85l302 665c-41 15 -60 48 -60 92c0 83 51 122 138 122c74 0 110 -40 110 -98c0 -66 -31 -104 -86 -118zM397 231l-70 374l-161 -374h231zM340 702c51 0 77 22 77 77c0 33 -19 56 -60 56c-50 0 -78 -24 -78 -77
c0 -35 19 -56 61 -56z" />
    <glyph glyph-name="AE" unicode="&#xc6;" horiz-adv-x="905" 
d="M808 0h-404l20 164h-245l-111 -164h-94l483 700h436l-8 -70h-327l-27 -222h268l-25 -70h-252l-33 -268h327zM432 231l46 376l-256 -376h210z" />
    <glyph glyph-name="Ccedilla" unicode="&#xc7;" horiz-adv-x="561" 
d="M183 -161l18 48c13 -6 31 -10 48 -10c21 0 38 5 38 25c0 16 -17 29 -57 29l20 59c-117 11 -202 88 -202 271c0 219 71 451 326 451c65 0 129 -9 191 -46l-34 -61c-48 28 -107 37 -162 37c-170 0 -243 -132 -243 -385c0 -159 70 -199 166 -199c62 0 119 9 173 37l23 -64
c-62 -35 -124 -41 -183 -43l-9 -27c35 -5 50 -31 50 -56c0 -60 -48 -78 -99 -78c-17 0 -42 3 -64 12z" />
    <glyph glyph-name="Egrave" unicode="&#xc8;" horiz-adv-x="529" 
d="M432 0h-404l85 700h404l-8 -70h-327l-27 -222h268l-25 -70h-252l-33 -268h327zM361 764l-54 -6l-74 171l79 6z" />
    <glyph glyph-name="Eacute" unicode="&#xc9;" horiz-adv-x="529" 
d="M432 0h-404l85 700h404l-8 -70h-327l-27 -222h268l-25 -70h-252l-33 -268h327zM312 758l-55 6l92 171l79 -6z" />
    <glyph glyph-name="Ecircumflex" unicode="&#xca;" horiz-adv-x="529" 
d="M432 0h-404l85 700h404l-8 -70h-327l-27 -222h268l-25 -70h-252l-33 -268h327zM461 750l-130 98l-154 -98l-34 38l163 121h57l138 -125z" />
    <glyph glyph-name="Edieresis" unicode="&#xcb;" horiz-adv-x="529" 
d="M432 0h-404l85 700h404l-8 -70h-327l-27 -222h268l-25 -70h-252l-33 -268h327zM218 757c-26 0 -41 14 -41 37c0 35 20 49 52 49c27 0 41 -15 41 -39c0 -34 -23 -47 -52 -47zM413 757c-26 0 -41 14 -41 37c0 35 20 49 52 49c27 0 41 -15 41 -39c0 -34 -23 -47 -52 -47z
" />
    <glyph glyph-name="Igrave" unicode="&#xcc;" horiz-adv-x="218" 
d="M105 0h-77l85 700h77zM187 763l-54 -6l-74 171l79 6z" />
    <glyph glyph-name="Iacute" unicode="&#xcd;" horiz-adv-x="218" 
d="M105 0h-77l85 700h77zM171 757l-55 6l92 171l79 -6z" />
    <glyph glyph-name="Icircumflex" unicode="&#xce;" horiz-adv-x="218" 
d="M105 0h-77l85 700h77zM300 754l-130 98l-154 -98l-34 38l163 121h57l138 -125z" />
    <glyph glyph-name="Idieresis" unicode="&#xcf;" horiz-adv-x="218" 
d="M105 0h-77l85 700h77zM60 755c-26 0 -41 14 -41 37c0 35 20 49 52 49c27 0 41 -15 41 -39c0 -34 -23 -47 -52 -47zM255 755c-26 0 -41 14 -41 37c0 35 20 49 52 49c27 0 41 -15 41 -39c0 -34 -23 -47 -52 -47z" />
    <glyph glyph-name="Eth" unicode="&#xd0;" horiz-adv-x="686" 
d="M64 0l38 314h-75l9 70h75l37 304c72 13 152 24 226 24c144 0 266 -51 266 -273c0 -221 -63 -439 -340 -439h-236zM149 70h159c199 0 254 138 254 373c0 164 -83 201 -186 201c-50 0 -106 -7 -158 -16l-31 -244h130l-9 -70h-129z" />
    <glyph glyph-name="Ntilde" unicode="&#xd1;" horiz-adv-x="635" 
d="M522 0h-79l-274 581l-71 -581h-70l84 689l83 17l272 -578l70 572h70zM580 816c-41 -42 -88 -61 -138 -61c-65 0 -90 56 -141 56c-39 0 -72 -20 -104 -49l-27 53c41 42 88 59 138 59c65 0 91 -56 142 -56c39 0 71 21 103 50z" />
    <glyph glyph-name="Ograve" unicode="&#xd2;" horiz-adv-x="676" 
d="M302 58c206 0 248 185 248 385c0 126 -39 199 -177 199c-206 0 -247 -185 -247 -385c0 -126 38 -199 176 -199zM294 -12c-172 0 -246 97 -246 273c0 211 63 451 334 451c172 0 246 -97 246 -273c0 -211 -63 -451 -334 -451zM424 763l-54 -6l-74 171l79 6z" />
    <glyph glyph-name="Oacute" unicode="&#xd3;" horiz-adv-x="676" 
d="M302 58c206 0 248 185 248 385c0 126 -39 199 -177 199c-206 0 -247 -185 -247 -385c0 -126 38 -199 176 -199zM294 -12c-172 0 -246 97 -246 273c0 211 63 451 334 451c172 0 246 -97 246 -273c0 -211 -63 -451 -334 -451zM401 757l-55 6l92 171l79 -6z" />
    <glyph glyph-name="Ocircumflex" unicode="&#xd4;" horiz-adv-x="676" 
d="M303 58c206 0 248 185 248 385c0 126 -39 199 -177 199c-206 0 -247 -185 -247 -385c0 -126 38 -199 176 -199zM295 -12c-172 0 -246 97 -246 273c0 211 63 451 334 451c172 0 246 -97 246 -273c0 -211 -63 -451 -334 -451zM535 755l-130 98l-154 -98l-34 38l163 121h57
l138 -125z" />
    <glyph glyph-name="Otilde" unicode="&#xd5;" horiz-adv-x="676" 
d="M302 58c206 0 248 185 248 385c0 126 -39 199 -177 199c-206 0 -247 -185 -247 -385c0 -126 38 -199 176 -199zM294 -12c-172 0 -246 97 -246 273c0 211 63 451 334 451c172 0 246 -97 246 -273c0 -211 -63 -451 -334 -451zM600 816c-41 -42 -88 -61 -138 -61
c-65 0 -90 56 -141 56c-39 0 -72 -20 -104 -49l-27 53c41 42 88 59 138 59c65 0 91 -56 142 -56c39 0 71 21 103 50z" />
    <glyph glyph-name="Odieresis" unicode="&#xd6;" horiz-adv-x="676" 
d="M302 58c206 0 248 185 248 385c0 126 -39 199 -177 199c-206 0 -247 -185 -247 -385c0 -126 38 -199 176 -199zM294 -12c-172 0 -246 97 -246 273c0 211 63 451 334 451c172 0 246 -97 246 -273c0 -211 -63 -451 -334 -451zM290 757c-26 0 -41 14 -41 37
c0 35 20 49 52 49c27 0 41 -15 41 -39c0 -34 -23 -47 -52 -47zM485 757c-26 0 -41 14 -41 37c0 35 20 49 52 49c27 0 41 -15 41 -39c0 -34 -23 -47 -52 -47z" />
    <glyph glyph-name="multiply" unicode="&#xd7;" 
d="M558 126l-53 -53l-165 166l-165 -165l-52 52l165 165l-166 165l53 53l165 -166l165 165l52 -52l-165 -165z" />
    <glyph glyph-name="Oslash" unicode="&#xd8;" horiz-adv-x="676" 
d="M294 -12c-35 0 -67 4 -94 12l-47 -85h-85l66 117c-59 45 -86 122 -86 229c0 211 63 451 334 451c48 0 89 -8 122 -23l46 81h86l-70 -124c42 -47 62 -117 62 -207c0 -211 -63 -451 -334 -451zM302 58c208 0 248 185 248 385c0 126 -39 199 -177 199
c-208 0 -247 -185 -247 -385c0 -126 38 -199 176 -199z" />
    <glyph glyph-name="Ugrave" unicode="&#xd9;" horiz-adv-x="656" 
d="M638 700l-43 -350c-30 -247 -120 -362 -307 -362c-159 0 -226 81 -226 253c0 33 2 69 7 109l43 350h77l-43 -350c-6 -46 -9 -86 -9 -120c0 -117 39 -172 160 -172c141 0 197 93 222 292l43 350h76zM414 764l-54 -6l-74 171l79 6z" />
    <glyph glyph-name="Uacute" unicode="&#xda;" horiz-adv-x="656" 
d="M638 700l-43 -350c-30 -247 -120 -362 -307 -362c-159 0 -226 81 -226 253c0 33 2 69 7 109l43 350h77l-43 -350c-6 -46 -9 -86 -9 -120c0 -117 39 -172 160 -172c141 0 197 93 222 292l43 350h76zM397 758l-55 6l92 171l79 -6z" />
    <glyph glyph-name="Ucircumflex" unicode="&#xdb;" horiz-adv-x="656" 
d="M638 700l-43 -350c-30 -247 -120 -362 -307 -362c-159 0 -226 81 -226 253c0 33 2 69 7 109l43 350h77l-43 -350c-6 -46 -9 -86 -9 -120c0 -117 39 -172 160 -172c141 0 197 93 222 292l43 350h76zM527 753l-130 98l-154 -98l-34 38l163 121h57l138 -125z" />
    <glyph glyph-name="Udieresis" unicode="&#xdc;" horiz-adv-x="656" 
d="M638 700l-43 -350c-30 -247 -120 -362 -307 -362c-159 0 -226 81 -226 253c0 33 2 69 7 109l43 350h77l-43 -350c-6 -46 -9 -86 -9 -120c0 -117 39 -172 160 -172c141 0 197 93 222 292l43 350h76zM284 757c-26 0 -41 14 -41 37c0 35 20 49 52 49c27 0 41 -15 41 -39
c0 -34 -23 -47 -52 -47zM479 757c-26 0 -41 14 -41 37c0 35 20 49 52 49c27 0 41 -15 41 -39c0 -34 -23 -47 -52 -47z" />
    <glyph glyph-name="Yacute" unicode="&#xdd;" horiz-adv-x="576" 
d="M283 0h-77l31 258l-170 431l81 19l133 -376l225 368h88l-280 -442zM346 757l-55 6l92 171l79 -6z" />
    <glyph glyph-name="Thorn" unicode="&#xde;" horiz-adv-x="564" 
d="M105 0h-77l86 700h77l-15 -118c39 8 80 13 119 13c135 0 252 -57 252 -220c0 -196 -147 -260 -301 -260c-42 0 -85 4 -125 13zM129 195c40 -8 82 -14 123 -14c114 0 217 43 217 189c0 115 -81 154 -179 154c-39 0 -81 -6 -122 -16z" />
    <glyph glyph-name="germandbls" unicode="&#xdf;" horiz-adv-x="597" 
d="M187 81c36 -20 83 -31 123 -31c105 0 160 30 160 141c0 85 -63 128 -172 128v59c112 10 168 45 168 145c0 77 -26 131 -129 131c-127 0 -165 -78 -181 -210l-55 -444h-74l55 449c22 180 88 268 263 268c147 0 195 -86 195 -176c0 -114 -56 -175 -159 -191
c105 -7 165 -63 165 -159c0 -148 -81 -203 -229 -203c-55 0 -112 9 -157 37z" />
    <glyph glyph-name="agrave" unicode="&#xe0;" horiz-adv-x="536" 
d="M374 156l35 289c-30 15 -73 21 -119 21c-93 0 -178 -36 -178 -272c0 -86 26 -143 108 -143c72 0 114 40 154 105zM448 6l-63 -10c-5 25 -8 51 -9 79c-40 -59 -94 -87 -180 -87c-110 0 -159 88 -159 210c0 208 73 330 252 330c71 0 139 -10 200 -37l-30 -244
c-7 -57 -14 -116 -14 -177c0 -21 1 -43 3 -64zM354 597l-54 -6l-74 171l79 6z" />
    <glyph glyph-name="aacute" unicode="&#xe1;" horiz-adv-x="536" 
d="M374 156l35 289c-30 15 -73 21 -119 21c-93 0 -178 -36 -178 -272c0 -86 26 -143 108 -143c72 0 114 40 154 105zM448 6l-63 -10c-5 25 -8 51 -9 79c-40 -59 -94 -87 -180 -87c-110 0 -159 88 -159 210c0 208 73 330 252 330c71 0 139 -10 200 -37l-30 -244
c-7 -57 -14 -116 -14 -177c0 -21 1 -43 3 -64zM329 591l-55 6l92 171l79 -6z" />
    <glyph glyph-name="acircumflex" unicode="&#xe2;" horiz-adv-x="536" 
d="M374 156l35 289c-30 15 -73 21 -119 21c-93 0 -178 -36 -178 -272c0 -86 26 -143 108 -143c72 0 114 40 154 105zM448 6l-63 -10c-5 25 -8 51 -9 79c-40 -59 -94 -87 -180 -87c-110 0 -159 88 -159 210c0 208 73 330 252 330c71 0 139 -10 200 -37l-30 -244
c-7 -57 -14 -116 -14 -177c0 -21 1 -43 3 -64zM459 588l-130 98l-154 -98l-34 38l163 121h57l138 -125z" />
    <glyph glyph-name="atilde" unicode="&#xe3;" horiz-adv-x="536" 
d="M374 156l35 289c-30 15 -73 21 -119 21c-93 0 -178 -36 -178 -272c0 -86 26 -143 108 -143c72 0 114 40 154 105zM448 6l-63 -10c-5 25 -8 51 -9 79c-40 -59 -94 -87 -180 -87c-110 0 -159 88 -159 210c0 208 73 330 252 330c71 0 139 -10 200 -37l-30 -244
c-7 -57 -14 -116 -14 -177c0 -21 1 -43 3 -64zM516 650c-41 -42 -88 -61 -138 -61c-65 0 -90 56 -141 56c-39 0 -72 -20 -104 -49l-27 53c41 42 88 59 138 59c65 0 91 -56 142 -56c39 0 71 21 103 50z" />
    <glyph glyph-name="adieresis" unicode="&#xe4;" horiz-adv-x="536" 
d="M374 156l35 289c-30 15 -73 21 -119 21c-93 0 -178 -36 -178 -272c0 -86 26 -143 108 -143c72 0 114 40 154 105zM448 6l-63 -10c-5 25 -8 51 -9 79c-40 -59 -94 -87 -180 -87c-110 0 -159 88 -159 210c0 208 73 330 252 330c71 0 139 -10 200 -37l-30 -244
c-7 -57 -14 -116 -14 -177c0 -21 1 -43 3 -64zM222 611c-26 0 -41 14 -41 37c0 35 20 49 52 49c27 0 41 -15 41 -39c0 -34 -23 -47 -52 -47zM417 611c-26 0 -41 14 -41 37c0 35 20 49 52 49c27 0 41 -15 41 -39c0 -34 -23 -47 -52 -47z" />
    <glyph glyph-name="aring" unicode="&#xe5;" horiz-adv-x="536" 
d="M374 156l35 289c-30 15 -73 21 -119 21c-93 0 -178 -36 -178 -272c0 -86 26 -143 108 -143c72 0 114 40 154 105zM448 6l-63 -10c-5 25 -8 51 -9 79c-40 -59 -94 -87 -180 -87c-110 0 -159 88 -159 210c0 208 73 330 252 330c71 0 139 -10 200 -37l-30 -244
c-7 -57 -14 -116 -14 -177c0 -21 1 -43 3 -64zM317 588c-75 0 -111 40 -111 99c0 83 51 122 138 122c74 0 110 -40 110 -98c0 -84 -49 -123 -137 -123zM322 632c51 0 77 22 77 77c0 33 -19 56 -60 56c-50 0 -78 -24 -78 -77c0 -35 19 -56 61 -56z" />
    <glyph glyph-name="ae" unicode="&#xe6;" horiz-adv-x="865" 
d="M738 90l23 -59c-56 -30 -116 -43 -179 -43c-98 0 -159 39 -179 110c-37 -67 -91 -110 -207 -110c-110 0 -159 88 -159 210c0 208 73 330 252 330c71 0 131 -10 179 -28l-8 -62c37 68 98 90 178 90c141 0 176 -80 176 -193c0 -31 -2 -63 -6 -98l-348 -28v-11
c0 -87 24 -147 130 -147c53 0 97 12 148 39zM374 156l35 289c-30 15 -73 21 -119 21c-93 0 -178 -36 -178 -272c0 -86 26 -143 108 -143c72 0 114 40 154 105zM463 267l278 26c2 16 3 32 3 47c0 71 -23 125 -112 125s-158 -52 -169 -198z" />
    <glyph glyph-name="ccedilla" unicode="&#xe7;" horiz-adv-x="441" 
d="M120 -161l18 48c13 -6 31 -10 48 -10c21 0 38 5 38 25c0 16 -17 29 -57 29l20 59c-89 11 -150 77 -150 208c0 229 92 330 245 330c55 0 105 -9 144 -33l-30 -60c-36 20 -74 27 -109 27c-101 0 -175 -49 -175 -268c0 -107 44 -142 125 -142c35 0 73 7 112 26l19 -60
c-37 -19 -80 -27 -126 -29l-9 -28c35 -5 50 -31 50 -56c0 -60 -48 -78 -99 -78c-17 0 -42 3 -64 12z" />
    <glyph glyph-name="egrave" unicode="&#xe8;" horiz-adv-x="517" 
d="M413 31c-56 -30 -116 -43 -179 -43c-119 0 -197 56 -197 210c0 205 70 330 253 330c141 0 176 -80 176 -193c0 -31 -2 -63 -6 -98l-348 -28v-11c0 -87 24 -147 130 -147c53 0 97 12 148 39zM115 267l278 26c2 16 3 32 3 47c0 71 -23 125 -112 125s-158 -52 -169 -198z
M315 597l-54 -6l-74 171l79 6z" />
    <glyph glyph-name="eacute" unicode="&#xe9;" horiz-adv-x="517" 
d="M413 31c-56 -30 -116 -43 -179 -43c-119 0 -197 56 -197 210c0 205 70 330 253 330c141 0 176 -80 176 -193c0 -31 -2 -63 -6 -98l-348 -28v-11c0 -87 24 -147 130 -147c53 0 97 12 148 39zM115 267l278 26c2 16 3 32 3 47c0 71 -23 125 -112 125s-158 -52 -169 -198z
M295 591l-55 6l92 171l79 -6z" />
    <glyph glyph-name="ecircumflex" unicode="&#xea;" horiz-adv-x="517" 
d="M413 31c-56 -30 -116 -43 -179 -43c-119 0 -197 56 -197 210c0 205 70 330 253 330c141 0 176 -80 176 -193c0 -31 -2 -63 -6 -98l-348 -28v-11c0 -87 24 -147 130 -147c53 0 97 12 148 39zM115 267l278 26c2 16 3 32 3 47c0 71 -23 125 -112 125s-158 -52 -169 -198z
M435 588l-130 98l-154 -98l-34 38l163 121h57l138 -125z" />
    <glyph glyph-name="edieresis" unicode="&#xeb;" horiz-adv-x="517" 
d="M413 31c-56 -30 -116 -43 -179 -43c-119 0 -197 56 -197 210c0 205 70 330 253 330c141 0 176 -80 176 -193c0 -31 -2 -63 -6 -98l-348 -28v-11c0 -87 24 -147 130 -147c53 0 97 12 148 39zM115 267l278 26c2 16 3 32 3 47c0 71 -23 125 -112 125s-158 -52 -169 -198z
M198 611c-26 0 -41 14 -41 37c0 35 20 49 52 49c27 0 41 -15 41 -39c0 -34 -23 -47 -52 -47zM393 611c-26 0 -41 14 -41 37c0 35 20 49 52 49c27 0 41 -15 41 -39c0 -34 -23 -47 -52 -47z" />
    <glyph glyph-name="igrave" unicode="&#xec;" horiz-adv-x="224" 
d="M129 0h-70c-7 35 -10 72 -10 109c0 25 1 50 4 74l39 319l76 14l-42 -342c-3 -27 -5 -54 -5 -81c0 -32 2 -64 8 -93zM172 597l-54 -6l-74 171l79 6z" />
    <glyph glyph-name="iacute" unicode="&#xed;" horiz-adv-x="224" 
d="M129 0h-70c-7 35 -10 72 -10 109c0 25 1 50 4 74l39 319l76 14l-42 -342c-3 -27 -5 -54 -5 -81c0 -32 2 -64 8 -93zM153 591l-55 6l92 171l79 -6z" />
    <glyph glyph-name="icircumflex" unicode="&#xee;" horiz-adv-x="224" 
d="M129 0h-70c-7 35 -10 72 -10 109c0 25 1 50 4 74l39 319l76 14l-42 -342c-3 -27 -5 -54 -5 -81c0 -32 2 -64 8 -93zM281 588l-130 98l-154 -98l-34 38l163 121h57l138 -125z" />
    <glyph glyph-name="idieresis" unicode="&#xef;" horiz-adv-x="224" 
d="M129 0h-70c-7 35 -10 72 -10 109c0 25 1 50 4 74l39 319l76 14l-42 -342c-3 -27 -5 -54 -5 -81c0 -32 2 -64 8 -93zM44 611c-26 0 -41 14 -41 37c0 35 20 49 52 49c27 0 41 -15 41 -39c0 -34 -23 -47 -52 -47zM239 611c-26 0 -41 14 -41 37c0 35 20 49 52 49
c27 0 41 -15 41 -39c0 -34 -23 -47 -52 -47z" />
    <glyph glyph-name="eth" unicode="&#xf0;" horiz-adv-x="550" 
d="M229 -12c-137 0 -196 76 -196 210c0 214 92 300 260 300c54 0 102 -15 129 -50c-8 41 -25 84 -56 120l-61 -47l-41 52l52 41c-28 19 -65 35 -109 46l24 70c59 -15 108 -38 145 -69l73 57l41 -53l-68 -53c49 -70 71 -170 71 -312c0 -223 -99 -312 -264 -312zM237 51
c148 0 181 117 181 251c0 79 -32 133 -133 133c-149 0 -177 -112 -177 -241c0 -85 28 -143 129 -143z" />
    <glyph glyph-name="ntilde" unicode="&#xf1;" horiz-adv-x="538" 
d="M435 0h-74l32 262c4 31 7 61 7 87c0 69 -21 116 -99 116c-72 0 -115 -40 -155 -105l-44 -360h-74l33 269c7 57 14 116 14 177c0 21 -1 42 -3 64l63 10c5 -25 8 -51 9 -79c40 59 94 87 180 87c117 0 149 -90 149 -187c0 -24 -2 -47 -5 -71zM495 650
c-41 -42 -88 -61 -138 -61c-65 0 -90 56 -141 56c-39 0 -72 -20 -104 -49l-27 53c41 42 88 59 138 59c65 0 91 -56 142 -56c39 0 71 21 103 50z" />
    <glyph glyph-name="ograve" unicode="&#xf2;" horiz-adv-x="550" 
d="M233 -12c-137 0 -196 76 -196 210c0 235 89 330 264 330c137 0 196 -76 196 -210c0 -235 -89 -330 -264 -330zM241 51c157 0 181 128 181 271c0 85 -28 143 -129 143c-157 0 -181 -128 -181 -271c0 -85 28 -143 129 -143zM328 597l-54 -6l-74 171l79 6z" />
    <glyph glyph-name="oacute" unicode="&#xf3;" horiz-adv-x="550" 
d="M233 -12c-137 0 -196 76 -196 210c0 235 89 330 264 330c137 0 196 -76 196 -210c0 -235 -89 -330 -264 -330zM241 51c157 0 181 128 181 271c0 85 -28 143 -129 143c-157 0 -181 -128 -181 -271c0 -85 28 -143 129 -143zM309 591l-55 6l92 171l79 -6z" />
    <glyph glyph-name="ocircumflex" unicode="&#xf4;" horiz-adv-x="550" 
d="M233 -12c-137 0 -196 76 -196 210c0 235 89 330 264 330c137 0 196 -76 196 -210c0 -235 -89 -330 -264 -330zM241 51c157 0 181 128 181 271c0 85 -28 143 -129 143c-157 0 -181 -128 -181 -271c0 -85 28 -143 129 -143zM449 588l-130 98l-154 -98l-34 38l163 121h57
l138 -125z" />
    <glyph glyph-name="otilde" unicode="&#xf5;" horiz-adv-x="550" 
d="M233 -12c-137 0 -196 76 -196 210c0 235 89 330 264 330c137 0 196 -76 196 -210c0 -235 -89 -330 -264 -330zM241 51c157 0 181 128 181 271c0 85 -28 143 -129 143c-157 0 -181 -128 -181 -271c0 -85 28 -143 129 -143zM518 650c-41 -42 -88 -61 -138 -61
c-65 0 -90 56 -141 56c-39 0 -72 -20 -104 -49l-27 53c41 42 88 59 138 59c65 0 91 -56 142 -56c39 0 71 21 103 50z" />
    <glyph glyph-name="odieresis" unicode="&#xf6;" horiz-adv-x="550" 
d="M233 -12c-137 0 -196 76 -196 210c0 235 89 330 264 330c137 0 196 -76 196 -210c0 -235 -89 -330 -264 -330zM241 51c157 0 181 128 181 271c0 85 -28 143 -129 143c-157 0 -181 -128 -181 -271c0 -85 28 -143 129 -143zM212 611c-26 0 -41 14 -41 37c0 35 20 49 52 49
c27 0 41 -15 41 -39c0 -34 -23 -47 -52 -47zM407 611c-26 0 -41 14 -41 37c0 35 20 49 52 49c27 0 41 -15 41 -39c0 -34 -23 -47 -52 -47z" />
    <glyph glyph-name="divide" unicode="&#xf7;" 
d="M580 255h-480v72h480v-72zM340 418c-34 0 -51 18 -51 52s17 52 51 52s51 -18 51 -52s-17 -52 -51 -52zM340 60c-34 0 -51 18 -51 52s17 52 51 52s51 -18 51 -52s-17 -52 -51 -52z" />
    <glyph glyph-name="oslash" unicode="&#xf8;" horiz-adv-x="550" 
d="M233 -12c-32 0 -59 4 -83 12l-41 -67h-80l62 102c-37 35 -54 91 -54 163c0 235 89 330 264 330c32 0 60 -5 84 -13l40 66h80l-62 -101c37 -35 54 -91 54 -162c0 -235 -89 -330 -264 -330zM241 51c157 0 181 128 181 271c0 85 -28 143 -129 143
c-157 0 -181 -128 -181 -271c0 -85 28 -143 129 -143z" />
    <glyph glyph-name="ugrave" unicode="&#xf9;" horiz-adv-x="538" 
d="M449 6l-62 -10c-5 25 -8 51 -9 79c-40 -59 -94 -87 -180 -87c-118 0 -148 90 -148 188c0 23 1 47 4 70l31 256l76 14l-32 -262c-4 -31 -7 -61 -7 -87c0 -69 21 -116 99 -116c72 0 115 40 155 105l42 346l76 14l-33 -269c-7 -59 -14 -119 -14 -182c0 -19 0 -39 2 -59z
M331 597l-54 -6l-74 171l79 6z" />
    <glyph glyph-name="uacute" unicode="&#xfa;" horiz-adv-x="538" 
d="M449 6l-62 -10c-5 25 -8 51 -9 79c-40 -59 -94 -87 -180 -87c-118 0 -148 90 -148 188c0 23 1 47 4 70l31 256l76 14l-32 -262c-4 -31 -7 -61 -7 -87c0 -69 21 -116 99 -116c72 0 115 40 155 105l42 346l76 14l-33 -269c-7 -59 -14 -119 -14 -182c0 -19 0 -39 2 -59z
M312 591l-55 6l92 171l79 -6z" />
    <glyph glyph-name="ucircumflex" unicode="&#xfb;" horiz-adv-x="538" 
d="M449 6l-62 -10c-5 25 -8 51 -9 79c-40 -59 -94 -87 -180 -87c-118 0 -148 90 -148 188c0 23 1 47 4 70l31 256l76 14l-32 -262c-4 -31 -7 -61 -7 -87c0 -69 21 -116 99 -116c72 0 115 40 155 105l42 346l76 14l-33 -269c-7 -59 -14 -119 -14 -182c0 -19 0 -39 2 -59z
M446 588l-130 98l-154 -98l-34 38l163 121h57l138 -125z" />
    <glyph glyph-name="udieresis" unicode="&#xfc;" horiz-adv-x="538" 
d="M449 6l-62 -10c-5 25 -8 51 -9 79c-40 -59 -94 -87 -180 -87c-118 0 -148 90 -148 188c0 23 1 47 4 70l31 256l76 14l-32 -262c-4 -31 -7 -61 -7 -87c0 -69 21 -116 99 -116c72 0 115 40 155 105l42 346l76 14l-33 -269c-7 -59 -14 -119 -14 -182c0 -19 0 -39 2 -59z
M209 611c-26 0 -41 14 -41 37c0 35 20 49 52 49c27 0 41 -15 41 -39c0 -34 -23 -47 -52 -47zM404 611c-26 0 -41 14 -41 37c0 35 20 49 52 49c27 0 41 -15 41 -39c0 -34 -23 -47 -52 -47z" />
    <glyph glyph-name="yacute" unicode="&#xfd;" horiz-adv-x="462" 
d="M49 -169l-28 54c75 32 111 68 127 124l-110 498l79 13l80 -448l192 449l71 -16l-205 -446c-49 -106 -90 -191 -206 -228zM279 591l-55 6l92 171l79 -6z" />
    <glyph glyph-name="thorn" unicode="&#xfe;" horiz-adv-x="537" 
d="M113 80c32 -19 75 -30 118 -30c93 0 178 36 178 272c0 86 -26 143 -108 143c-71 0 -114 -40 -154 -105zM84 -154h-74l105 858l76 14l-32 -260c38 49 92 70 166 70c110 0 159 -88 159 -210c0 -208 -73 -330 -252 -330c-47 0 -99 8 -131 31c1 -5 1 -10 1 -15
c0 -25 -5 -54 -8 -77z" />
    <glyph glyph-name="ydieresis" unicode="&#xff;" horiz-adv-x="462" 
d="M49 -169l-28 54c75 32 111 68 127 124l-110 498l79 13l80 -448l192 449l71 -16l-205 -446c-49 -106 -90 -191 -206 -228zM165 611c-26 0 -41 14 -41 37c0 35 20 49 52 49c27 0 41 -15 41 -39c0 -34 -23 -47 -52 -47zM360 611c-26 0 -41 14 -41 37c0 35 20 49 52 49
c27 0 41 -15 41 -39c0 -34 -23 -47 -52 -47z" />
    <glyph glyph-name="dotlessi" unicode="&#x131;" horiz-adv-x="224" 
d="M129 0h-70c-7 35 -10 72 -10 109c0 25 1 50 4 74l39 319l76 14l-42 -342c-3 -27 -5 -54 -5 -81c0 -32 2 -64 8 -93z" />
    <glyph glyph-name="Lslash" unicode="&#x141;" horiz-adv-x="543" 
d="M469 0h-415l37 301l-64 -26l9 75l63 26l40 324h77l-35 -290l129 54l-9 -75l-129 -54l-33 -265h338z" />
    <glyph glyph-name="lslash" unicode="&#x142;" horiz-adv-x="350" 
d="M194 0h-70c-7 35 -10 72 -10 109c0 25 1 50 4 74l18 148l-102 -43l9 76l102 42l37 298l76 14l-35 -279l109 45l-9 -75l-109 -46l-23 -189c-3 -27 -5 -54 -5 -81c0 -32 2 -64 8 -93z" />
    <glyph glyph-name="OE" unicode="&#x152;" horiz-adv-x="1006" 
d="M909 0h-396l10 90c-45 -64 -117 -102 -229 -102c-172 0 -246 97 -246 273c0 211 63 451 334 451c107 0 171 -46 204 -116l13 104h395l-8 -70h-327l-27 -222h268l-25 -70h-252l-33 -268h327zM302 58c208 0 248 185 248 385c0 126 -39 199 -177 199
c-208 0 -247 -185 -247 -385c0 -126 38 -199 176 -199z" />
    <glyph glyph-name="oe" unicode="&#x153;" horiz-adv-x="898" 
d="M493 209v-11c0 -87 24 -147 130 -147c53 0 97 12 148 39l23 -59c-56 -30 -116 -43 -179 -43c-81 0 -153 24 -174 111c-35 -82 -114 -111 -208 -111c-137 0 -196 76 -196 210c0 235 89 330 264 330c89 0 141 -36 167 -112c37 80 110 112 203 112c141 0 176 -80 176 -193
c0 -31 -2 -63 -6 -98zM241 51c157 0 181 128 181 271c0 85 -28 143 -129 143c-157 0 -181 -128 -181 -271c0 -85 28 -143 129 -143zM496 267l278 26c2 16 3 32 3 47c0 71 -23 125 -112 125s-158 -52 -169 -198z" />
    <glyph glyph-name="Scaron" unicode="&#x160;" horiz-adv-x="562" 
d="M40 118c58 -39 133 -61 212 -61c81 0 175 19 175 130c0 73 -76 101 -161 132c-95 35 -188 72 -188 185c0 154 116 208 245 208c69 0 136 -14 194 -47l-32 -61c-50 27 -104 39 -164 39c-90 0 -167 -29 -167 -131c0 -69 62 -92 133 -119c108 -41 216 -80 216 -204
c0 -156 -124 -201 -257 -201c-94 0 -177 25 -241 70zM362 759h-57l-137 125l38 34l130 -98l154 98l35 -39z" />
    <glyph glyph-name="scaron" unicode="&#x161;" horiz-adv-x="449" 
d="M37 95c45 -29 105 -45 159 -45c57 0 119 13 119 91c0 54 -63 67 -125 89c-65 23 -130 56 -130 144c0 114 90 154 190 154c53 0 104 -10 150 -36l-29 -56c-38 21 -81 30 -124 30c-57 0 -115 -16 -115 -87c0 -48 32 -65 92 -84c73 -23 163 -53 163 -151
c0 -125 -98 -156 -195 -156c-68 0 -134 18 -186 52zM282 593h-57l-137 125l38 34l130 -98l154 98l35 -39z" />
    <glyph glyph-name="Ydieresis" unicode="&#x178;" horiz-adv-x="576" 
d="M283 0h-77l31 258l-170 431l81 19l133 -376l225 368h88l-280 -442zM238 783c-26 0 -41 14 -41 37c0 35 20 49 52 49c27 0 41 -15 41 -39c0 -34 -23 -47 -52 -47zM433 783c-26 0 -41 14 -41 37c0 35 20 49 52 49c27 0 41 -15 41 -39c0 -34 -23 -47 -52 -47z" />
    <glyph glyph-name="Zcaron" unicode="&#x17d;" horiz-adv-x="555" 
d="M473 0h-441l-16 70l426 560h-346l8 70h419l16 -68l-427 -562h377zM361 759h-57l-137 125l38 34l130 -98l154 98l35 -39z" />
    <glyph glyph-name="zcaron" unicode="&#x17e;" horiz-adv-x="472" 
d="M394 0h-372l-13 63l338 390h-275l8 63h350l12 -63l-336 -390h301zM301 593h-57l-137 125l38 34l130 -98l154 98l35 -39z" />
    <glyph glyph-name="florin" unicode="&#x192;" horiz-adv-x="321" 
d="M116 -140h-74l69 565h-88l8 63h86c-3 19 -5 38 -5 56c0 99 52 168 172 168c19 0 40 -2 58 -7l-14 -63c-13 3 -27 4 -41 4c-70 0 -103 -31 -103 -103c0 -16 2 -35 5 -55h120l-18 -63h-106z" />
    <glyph glyph-name="circumflex" unicode="&#x2c6;" horiz-adv-x="461" 
d="M403 588l-130 98l-154 -98l-34 38l163 121h57l138 -125z" />
    <glyph glyph-name="caron" unicode="&#x2c7;" horiz-adv-x="461" 
d="M288 593h-57l-137 125l38 34l130 -98l154 98l35 -39z" />
    <glyph glyph-name="breve" unicode="&#x2d8;" horiz-adv-x="416" 
d="M425 770c-23 -125 -84 -181 -190 -181c-92 0 -146 52 -146 166v15l70 6c0 -8 -1 -15 -1 -21c0 -72 21 -103 85 -103c62 0 98 37 114 124z" />
    <glyph glyph-name="dotaccent" unicode="&#x2d9;" horiz-adv-x="176" 
d="M119 610c-27 0 -43 13 -43 37c0 36 21 49 54 49c27 0 43 -14 43 -39c0 -35 -23 -47 -54 -47z" />
    <glyph glyph-name="ring" unicode="&#x2da;" horiz-adv-x="325" 
d="M188 586c-75 0 -111 40 -111 99c0 83 51 122 138 122c74 0 110 -40 110 -98c0 -84 -49 -123 -137 -123zM193 630c51 0 77 22 77 77c0 33 -19 56 -60 56c-50 0 -78 -24 -78 -77c0 -35 19 -56 61 -56z" />
    <glyph glyph-name="ogonek" unicode="&#x2db;" horiz-adv-x="242" 
d="M141 -113l12 -42c-24 -13 -54 -18 -80 -18c-47 0 -75 29 -75 73c0 45 30 76 74 100h61c-50 -32 -79 -57 -79 -92c0 -18 7 -32 35 -32c13 0 31 2 52 11z" />
    <glyph glyph-name="tilde" unicode="&#x2dc;" horiz-adv-x="499" 
d="M493 650c-41 -42 -88 -61 -138 -61c-65 0 -90 56 -141 56c-39 0 -72 -20 -104 -49l-27 53c41 42 88 59 138 59c65 0 91 -56 142 -56c39 0 71 21 103 50z" />
    <glyph glyph-name="hungarumlaut" unicode="&#x2dd;" horiz-adv-x="412" 
d="M131 589l-49 18l110 138l78 -8zM295 589l-50 18l109 138l79 -8z" />
    <glyph glyph-name="gravecomb" unicode="&#x300;" horiz-adv-x="1" 
d="M-221 597l-54 -6l-74 171l79 6z" />
    <glyph glyph-name="acutecomb" unicode="&#x301;" horiz-adv-x="1" 
d="M-240 591l-55 6l92 171l79 -6z" />
    <glyph glyph-name="uni0302" unicode="&#x302;" horiz-adv-x="1" 
d="M-100 588l-130 98l-154 -98l-34 38l163 121h57l138 -125z" />
    <glyph glyph-name="tildecomb" unicode="&#x303;" horiz-adv-x="1" 
d="M-31 650c-41 -42 -88 -61 -138 -61c-65 0 -90 56 -141 56c-39 0 -72 -20 -104 -49l-27 53c41 42 88 59 138 59c65 0 91 -56 142 -56c39 0 71 21 103 50z" />
    <glyph glyph-name="uni0308" unicode="&#x308;" horiz-adv-x="1" 
d="M-260 611c-26 0 -41 14 -41 37c0 35 20 49 52 49c27 0 41 -15 41 -39c0 -34 -23 -47 -52 -47zM-65 611c-26 0 -41 14 -41 37c0 35 20 49 52 49c27 0 41 -15 41 -39c0 -34 -23 -47 -52 -47z" />
    <glyph glyph-name="uni030A" unicode="&#x30a;" horiz-adv-x="1" 
d="M-136 588c-75 0 -111 40 -111 99c0 83 51 122 138 122c74 0 110 -40 110 -98c0 -84 -49 -123 -137 -123zM-131 632c51 0 77 22 77 77c0 33 -19 56 -60 56c-50 0 -78 -24 -78 -77c0 -35 19 -56 61 -56z" />
    <glyph glyph-name="uni030C" unicode="&#x30c;" horiz-adv-x="1" 
d="M-170 593h-57l-137 125l38 34l130 -98l154 98l35 -39z" />
    <glyph glyph-name="uni0394" unicode="&#x394;" horiz-adv-x="701" 
d="M581 0h-526l-16 68l323 632h77l169 -632zM528 68l-138 541l-269 -541h407z" />
    <glyph glyph-name="uni03A9" unicode="&#x3a9;" horiz-adv-x="796" 
d="M692 0h-260l8 70c149 39 175 199 175 373c0 126 -39 199 -177 199c-197 0 -247 -173 -247 -334c0 -102 6 -199 105 -238l-8 -70h-260l8 70h153c-65 55 -76 149 -76 238c0 175 75 404 334 404c173 0 246 -97 246 -273c0 -173 -26 -295 -134 -369h141z" />
    <glyph glyph-name="uni03BC" unicode="&#x3bc;" horiz-adv-x="538" 
d="M450 6l-63 -10c-5 25 -8 51 -9 79c-40 -59 -94 -87 -180 -87c-47 0 -79 15 -95 48l-24 -190h-74l80 656l76 14l-32 -262c-4 -31 -7 -61 -7 -87c0 -69 21 -116 99 -116c72 0 115 40 155 105l42 346l76 14l-33 -269c-7 -58 -13 -117 -14 -179c0 -20 1 -41 3 -62z" />
    <glyph glyph-name="pi" unicode="&#x3c0;" horiz-adv-x="736" 
d="M566 20l-56 -35c-41 46 -52 99 -52 152c0 32 4 64 8 95l26 214h-233l-55 -446h-74l55 446h-108l8 70h604l-15 -70h-108l-26 -209c-5 -41 -9 -74 -9 -104c0 -41 8 -76 35 -113z" />
    <glyph glyph-name="uni2007" unicode="&#x2007;" horiz-adv-x="628" 
 />
    <glyph glyph-name="uni2008" unicode="&#x2008;" horiz-adv-x="232" 
 />
    <glyph glyph-name="uni200B" unicode="&#x200b;" horiz-adv-x="0" 
 />
    <glyph glyph-name="endash" unicode="&#x2013;" horiz-adv-x="576" 
d="M501 255h-445l9 72h445z" />
    <glyph glyph-name="emdash" unicode="&#x2014;" horiz-adv-x="703" 
d="M628 255h-572l9 72h572z" />
    <glyph glyph-name="quoteleft" unicode="&#x2018;" horiz-adv-x="223" 
d="M130 397l-84 -5l134 326h57z" />
    <glyph glyph-name="quoteright" unicode="&#x2019;" horiz-adv-x="223" 
d="M104 395h-57l107 321l84 5z" />
    <glyph glyph-name="quotesinglbase" unicode="&#x201a;" horiz-adv-x="223" 
d="M29 -140h-57l107 321l84 5z" />
    <glyph glyph-name="quotedblleft" unicode="&#x201c;" horiz-adv-x="375" 
d="M277 397l-84 -5l134 326h57zM125 397l-84 -5l134 326h57z" />
    <glyph glyph-name="quotedblright" unicode="&#x201d;" horiz-adv-x="375" 
d="M104 395h-57l107 321l84 5zM256 395h-57l107 321l84 5z" />
    <glyph glyph-name="quotedblbase" unicode="&#x201e;" horiz-adv-x="375" 
d="M29 -140h-57l107 321l84 5zM181 -140h-57l107 321l84 5z" />
    <glyph glyph-name="dagger" unicode="&#x2020;" horiz-adv-x="520" 
d="M300 428l-44 -428h-77l58 428l-176 -6l8 72l174 -6l22 212l75 5l-32 -217l177 6l-8 -72z" />
    <glyph glyph-name="daggerdbl" unicode="&#x2021;" horiz-adv-x="520" 
d="M256 0h-77l29 212l-174 -6l9 73l174 -6l20 155l-176 -6l8 72l174 -6l22 212l75 5l-32 -217l177 6l-8 -72l-177 6l-18 -155l177 6l-9 -73l-173 6z" />
    <glyph glyph-name="bullet" unicode="&#x2022;" horiz-adv-x="284" 
d="M129 236c-52 0 -80 29 -80 76c0 71 37 100 101 100c53 0 80 -31 80 -78c0 -70 -39 -98 -101 -98z" />
    <glyph glyph-name="ellipsis" unicode="&#x2026;" horiz-adv-x="585" 
d="M72 -6c-30 0 -45 17 -45 43c0 41 21 61 58 61c30 0 45 -17 45 -43c0 -41 -21 -61 -58 -61zM252 -6c-30 0 -45 17 -45 43c0 41 21 61 58 61c30 0 45 -17 45 -43c0 -41 -21 -61 -58 -61zM433 -6c-30 0 -45 17 -45 43c0 41 21 61 58 61c30 0 45 -17 45 -43
c0 -41 -21 -61 -58 -61z" />
    <glyph glyph-name="perthousand" unicode="&#x2030;" horiz-adv-x="1425" 
d="M717 -12c-115 0 -163 67 -163 179c0 189 73 273 218 273c115 0 164 -69 164 -182c0 -189 -75 -270 -219 -270zM723 42c116 0 149 79 149 221c0 70 -23 123 -106 123c-117 0 -149 -80 -149 -223c0 -69 24 -121 106 -121zM226 260c-115 0 -163 67 -163 179
c0 189 73 273 218 273c115 0 164 -69 164 -182c0 -189 -75 -270 -219 -270zM232 314c116 0 149 79 149 221c0 70 -23 123 -106 123c-117 0 -149 -80 -149 -223c0 -69 24 -121 106 -121zM719 690l-384 -700l-52 20l384 700zM1143 -12c-115 0 -163 67 -163 179
c0 189 73 273 218 273c115 0 164 -69 164 -182c0 -189 -75 -270 -219 -270zM1149 42c116 0 149 79 149 221c0 70 -23 123 -106 123c-117 0 -149 -80 -149 -223c0 -69 24 -121 106 -121z" />
    <glyph glyph-name="guilsinglleft" unicode="&#x2039;" horiz-adv-x="395" 
d="M265 68l-232 185l7 62l268 178l32 -62l-243 -152l206 -152z" />
    <glyph glyph-name="guilsinglright" unicode="&#x203a;" horiz-adv-x="395" 
d="M72 75l-32 62l243 152l-206 152l38 59l232 -185l-7 -62z" />
    <glyph glyph-name="fraction" unicode="&#x2044;" horiz-adv-x="125" 
d="M277 691l-385 -701l-45 20l385 701z" />
    <glyph glyph-name="uni2070" unicode="&#x2070;" horiz-adv-x="407" 
d="M205 352c99 0 110 117 110 207c0 66 -17 94 -76 94c-99 0 -109 -117 -109 -207c0 -66 16 -94 75 -94zM198 298c-90 0 -128 53 -128 151c0 139 45 258 177 258c90 0 128 -53 128 -151c0 -139 -45 -258 -177 -258z" />
    <glyph glyph-name="uni2074" unicode="&#x2074;" horiz-adv-x="382" 
d="M275 305h-59l13 102h-162l-14 47c56 85 73 155 84 250l61 -9c-13 -90 -40 -171 -86 -237h123l18 141l60 11l-19 -152h50l-7 -51h-49z" />
    <glyph glyph-name="uni2075" unicode="&#x2075;" horiz-adv-x="367" 
d="M68 383c29 -19 66 -31 103 -31c74 0 99 26 99 86c0 51 -37 60 -73 60c-34 0 -74 -13 -95 -20l-23 54l39 168h212l-6 -54h-161l-30 -111c21 9 45 15 68 15c60 0 130 -21 130 -114c0 -74 -42 -138 -158 -138c-56 0 -98 14 -131 37z" />
    <glyph glyph-name="uni2076" unicode="&#x2076;" horiz-adv-x="386" 
d="M203 352c58 0 87 34 87 98c0 49 -17 68 -64 68c-37 0 -70 -16 -97 -53c-1 -4 -1 -9 -1 -14c0 -60 8 -99 75 -99zM196 298c-78 0 -128 38 -128 153c0 120 38 256 172 256c38 0 72 -5 105 -25l-26 -48c-23 15 -50 20 -80 20c-64 0 -98 -47 -107 -128c28 30 65 42 111 42
c62 0 106 -37 106 -116c0 -98 -53 -154 -153 -154z" />
    <glyph glyph-name="uni2077" unicode="&#x2077;" horiz-adv-x="340" 
d="M164 305h-64c19 141 65 257 167 341h-186l6 54h232l14 -54c-122 -91 -158 -206 -169 -341z" />
    <glyph glyph-name="uni2078" unicode="&#x2078;" horiz-adv-x="389" 
d="M235 525c39 9 63 35 63 71c0 41 -22 60 -68 60c-58 0 -85 -23 -85 -66s36 -54 80 -63zM193 349c60 0 93 18 93 64c0 47 -53 58 -94 67l-13 3c-48 -14 -62 -43 -62 -72c0 -37 22 -62 76 -62zM287 502c36 -11 57 -45 57 -85c0 -74 -44 -119 -157 -119
c-90 0 -128 50 -128 109c0 40 21 83 76 102c-32 12 -47 44 -47 78c0 63 44 120 148 120c86 0 119 -54 119 -108c0 -46 -19 -80 -68 -97z" />
    <glyph glyph-name="uni2079" unicode="&#x2079;" horiz-adv-x="386" 
d="M215 653c-58 0 -87 -34 -87 -98c0 -49 17 -68 64 -68c37 0 70 16 97 53c1 4 1 9 1 14c0 60 -8 99 -75 99zM178 298c-38 0 -72 5 -105 25l26 48c23 -15 50 -20 80 -20c64 0 98 47 107 128c-28 -30 -65 -42 -111 -42c-62 0 -106 37 -106 116c0 98 53 154 153 154
c78 0 128 -38 128 -153c0 -120 -38 -256 -172 -256z" />
    <glyph glyph-name="uni2080" unicode="&#x2080;" horiz-adv-x="407" 
d="M151 -150c99 0 110 117 110 207c0 66 -17 94 -76 94c-99 0 -109 -117 -109 -207c0 -66 16 -94 75 -94zM144 -204c-90 0 -128 53 -128 151c0 139 45 258 177 258c90 0 128 -53 128 -151c0 -139 -45 -258 -177 -258z" />
    <glyph glyph-name="uni2081" unicode="&#x2081;" horiz-adv-x="205" 
d="M65 -197h-59l46 381l61 14z" />
    <glyph glyph-name="uni2082" unicode="&#x2082;" horiz-adv-x="360" 
d="M245 -197h-234l-12 54c125 78 220 149 220 231c0 44 -21 63 -70 63c-34 0 -68 -9 -98 -24l-20 50c36 20 83 28 133 28c73 0 118 -39 118 -103c0 -102 -77 -169 -200 -245h170z" />
    <glyph glyph-name="uni2083" unicode="&#x2083;" horiz-adv-x="368" 
d="M15 -119c30 -18 65 -31 102 -31c65 0 97 18 97 81c0 46 -42 57 -76 57c-8 0 -17 -1 -26 -2l-23 -3l-13 55l131 106h-172l6 54h236l9 -54l-146 -113c6 1 12 2 17 2c58 0 118 -23 118 -106c0 -75 -38 -131 -153 -131c-54 0 -92 12 -131 36z" />
    <glyph glyph-name="uni2084" unicode="&#x2084;" horiz-adv-x="382" 
d="M237 -197h-59l13 102h-162l-14 47c56 85 73 155 84 250l61 -9c-13 -90 -40 -171 -86 -237h123l18 141l60 11l-19 -152h50l-7 -51h-49z" />
    <glyph glyph-name="uni2085" unicode="&#x2085;" horiz-adv-x="367" 
d="M19 -119c29 -19 66 -31 103 -31c74 0 99 26 99 86c0 51 -37 60 -73 60c-34 0 -74 -13 -95 -20l-23 54l39 168h212l-6 -54h-161l-30 -111c21 9 45 15 68 15c60 0 130 -21 130 -114c0 -74 -42 -138 -158 -138c-56 0 -98 14 -131 37z" />
    <glyph glyph-name="uni2086" unicode="&#x2086;" horiz-adv-x="386" 
d="M156 -150c58 0 87 34 87 98c0 49 -17 68 -64 68c-37 0 -70 -16 -97 -53c-1 -4 -1 -9 -1 -14c0 -60 8 -99 75 -99zM149 -204c-78 0 -128 38 -128 153c0 120 38 256 172 256c38 0 72 -5 105 -25l-26 -48c-23 15 -50 20 -80 20c-64 0 -98 -47 -107 -128c28 30 65 42 111 42
c62 0 106 -37 106 -116c0 -98 -53 -154 -153 -154z" />
    <glyph glyph-name="uni2087" unicode="&#x2087;" horiz-adv-x="340" 
d="M107 -197h-64c19 141 65 257 167 341h-186l6 54h232l14 -54c-122 -91 -158 -206 -169 -341z" />
    <glyph glyph-name="uni2088" unicode="&#x2088;" horiz-adv-x="389" 
d="M183 23c39 9 63 35 63 71c0 41 -22 60 -68 60c-58 0 -85 -23 -85 -66s36 -54 80 -63zM141 -153c60 0 93 18 93 64c0 47 -53 58 -94 67l-13 3c-48 -14 -62 -43 -62 -72c0 -37 22 -62 76 -62zM235 0c36 -11 57 -45 57 -85c0 -74 -44 -119 -157 -119c-90 0 -128 50 -128 109
c0 40 21 83 76 102c-32 12 -47 44 -47 78c0 63 44 120 148 120c86 0 119 -54 119 -108c0 -46 -19 -80 -68 -97z" />
    <glyph glyph-name="uni2089" unicode="&#x2089;" horiz-adv-x="386" 
d="M164 151c-58 0 -87 -34 -87 -98c0 -49 17 -68 64 -68c37 0 70 16 97 53c1 4 1 9 1 14c0 60 -8 99 -75 99zM127 -204c-38 0 -72 5 -105 25l26 48c23 -15 50 -20 80 -20c64 0 98 47 107 128c-28 -30 -65 -42 -111 -42c-62 0 -106 37 -106 116c0 98 53 154 153 154
c78 0 128 -38 128 -153c0 -120 -38 -256 -172 -256z" />
    <glyph glyph-name="Euro" unicode="&#x20ac;" horiz-adv-x="587" 
d="M406 255h-213c1 -133 55 -198 161 -198c54 0 103 11 142 32l25 -65c-44 -26 -104 -36 -169 -36c-150 0 -230 91 -237 267h-74l7 56h67c1 24 3 49 6 75h-64l7 56h67c29 140 107 270 286 270c63 0 115 -12 158 -37l-33 -61c-36 21 -78 29 -122 29
c-132 0 -188 -87 -212 -201h221l-7 -56h-223c-3 -25 -5 -50 -6 -75h220z" />
    <glyph glyph-name="trademark" unicode="&#x2122;" horiz-adv-x="658" 
d="M72 659l5 41h234l-5 -41h-95l-32 -260h-43l32 260h-96zM592 400l-44 -4l15 230l-98 -227h-41l-49 227l-37 -227h-46l60 301h49l50 -240l102 240h53z" />
    <glyph glyph-name="Omega" unicode="&#x2126;" horiz-adv-x="796" 
d="M692 0h-260l8 70c149 39 175 199 175 373c0 126 -39 199 -177 199c-197 0 -247 -173 -247 -334c0 -102 6 -199 105 -238l-8 -70h-260l8 70h153c-65 55 -76 149 -76 238c0 175 75 404 334 404c173 0 246 -97 246 -273c0 -173 -26 -295 -134 -369h141z" />
    <glyph glyph-name="partialdiff" unicode="&#x2202;" horiz-adv-x="582" 
d="M245 -12c-137 0 -196 76 -196 210c0 214 92 300 260 300c54 0 102 -14 129 -50c-17 87 -71 177 -215 212l24 70c189 -49 262 -167 262 -430c0 -223 -99 -312 -264 -312zM253 51c148 0 181 117 181 251c0 79 -32 133 -133 133c-149 0 -177 -112 -177 -241
c0 -85 28 -143 129 -143z" />
    <glyph glyph-name="Delta" unicode="&#x2206;" horiz-adv-x="701" 
d="M581 0h-526l-16 68l323 632h77l169 -632zM528 68l-138 541l-269 -541h407z" />
    <glyph glyph-name="product" unicode="&#x220f;" horiz-adv-x="621" 
d="M551 -140h-77v770h-327v-770h-77v840h481v-840z" />
    <glyph glyph-name="summation" unicode="&#x2211;" horiz-adv-x="565" 
d="M499 -140h-416l-17 70l266 350l-266 350l17 70h416v-70h-336l244 -326v-48l-244 -326h336v-70z" />
    <glyph glyph-name="minus" unicode="&#x2212;" 
d="M580 255h-480v72h480v-72z" />
    <glyph glyph-name="uni2219" unicode="&#x2219;" 
d="M340 203c-59 0 -89 29 -89 88s30 88 89 88s89 -29 89 -88s-30 -88 -89 -88z" />
    <glyph glyph-name="radical" unicode="&#x221a;" horiz-adv-x="782" 
d="M440 -139h-78l-132 394h-164v72h222l115 -371l233 748l80 -10z" />
    <glyph glyph-name="infinity" unicode="&#x221e;" horiz-adv-x="886" 
d="M443 368c35 76 93 117 173 117c114 0 203 -64 203 -194c0 -129 -90 -193 -203 -193c-79 0 -141 42 -173 112c-32 -72 -96 -112 -173 -112c-113 0 -203 64 -203 193c0 130 89 194 203 194c88 0 141 -50 173 -117zM474 291c23 -81 70 -134 142 -134c79 0 140 47 140 134
c0 89 -63 135 -140 135c-72 0 -123 -56 -142 -135zM412 290c-28 82 -70 136 -142 136c-76 0 -140 -46 -140 -135c0 -87 62 -134 140 -134c77 0 125 54 142 133z" />
    <glyph glyph-name="integral" unicode="&#x222b;" horiz-adv-x="414" 
d="M66 -70h55c37 0 49 25 49 65v570c0 86 32 135 123 135h55v-70h-55c-37 0 -49 -25 -49 -65v-570c0 -86 -32 -135 -123 -135h-55v70z" />
    <glyph glyph-name="approxequal" unicode="&#x2248;" 
d="M580 368c-51 -25 -95 -33 -131 -33c-93 0 -138 49 -221 49c-38 0 -78 -14 -128 -37v70c49 25 88 34 128 34c91 0 140 -50 221 -50c40 0 80 11 131 37v-70zM580 164c-51 -25 -95 -33 -131 -33c-93 0 -138 49 -221 49c-38 0 -78 -14 -128 -37v70c49 25 88 34 128 34
c91 0 140 -50 221 -50c40 0 80 11 131 37v-70z" />
    <glyph glyph-name="notequal" unicode="&#x2260;" 
d="M441 520l-27 -92h166v-70h-187l-39 -134h226v-70h-246l-30 -103h-71l30 103h-163v70h184l39 134h-223v70h244l27 92h70z" />
    <glyph glyph-name="lessequal" unicode="&#x2264;" 
d="M580 0h-480v70h480v-70zM544 127l-444 198v60l444 198l36 -72l-405 -156l405 -157z" />
    <glyph glyph-name="greaterequal" unicode="&#x2265;" 
d="M580 0h-480v70h480v-70zM136 127l-36 72l405 156l-405 157l36 71l444 -198v-60z" />
    <glyph glyph-name="dotmath" unicode="&#x22c5;" 
d="M340 239c-34 0 -51 18 -51 52s17 52 51 52s51 -18 51 -52s-17 -52 -51 -52z" />
    <glyph glyph-name="lozenge" unicode="&#x25ca;" horiz-adv-x="698" 
d="M388 0h-78l-244 350l244 350h78l244 -350zM351 70l190 277l-194 283l-190 -277z" />
    <glyph glyph-name="zero.numr" horiz-adv-x="407" 
d="M206 352c99 0 110 117 110 207c0 66 -17 94 -76 94c-99 0 -109 -117 -109 -207c0 -66 16 -94 75 -94zM199 298c-90 0 -128 53 -128 151c0 139 45 258 177 258c90 0 128 -53 128 -151c0 -139 -45 -258 -177 -258z" />
    <glyph glyph-name="one.numr" horiz-adv-x="205" 
d="M126 305h-59l46 381l61 14z" />
    <glyph glyph-name="two.numr" horiz-adv-x="360" 
d="M295 305h-234l-12 54c125 78 220 149 220 231c0 44 -21 63 -70 63c-34 0 -68 -9 -98 -24l-20 50c36 20 83 28 133 28c73 0 118 -39 118 -103c0 -102 -77 -169 -200 -245h170z" />
    <glyph glyph-name="three.numr" horiz-adv-x="368" 
d="M67 383c30 -18 65 -31 102 -31c65 0 97 18 97 81c0 46 -42 57 -76 57c-8 0 -17 -1 -26 -2l-23 -3l-13 55l131 106h-172l6 54h236l9 -54l-146 -113c6 1 12 2 17 2c58 0 118 -23 118 -106c0 -75 -38 -131 -153 -131c-54 0 -92 12 -131 36z" />
    <glyph glyph-name="four.numr" horiz-adv-x="382" 
d="M279 305h-59l13 102h-162l-14 47c56 85 73 155 84 250l61 -9c-13 -90 -40 -171 -86 -237h123l18 141l60 11l-19 -152h50l-7 -51h-49z" />
    <glyph glyph-name="five.numr" horiz-adv-x="367" 
d="M70 383c29 -19 66 -31 103 -31c74 0 99 26 99 86c0 51 -37 60 -73 60c-34 0 -74 -13 -95 -20l-23 54l39 168h212l-6 -54h-161l-30 -111c21 9 45 15 68 15c60 0 130 -21 130 -114c0 -74 -42 -138 -158 -138c-56 0 -98 14 -131 37z" />
    <glyph glyph-name="six.numr" horiz-adv-x="386" 
d="M204 352c58 0 87 34 87 98c0 49 -17 68 -64 68c-37 0 -70 -16 -97 -53c-1 -4 -1 -9 -1 -14c0 -60 8 -99 75 -99zM197 298c-78 0 -128 38 -128 153c0 120 38 256 172 256c38 0 72 -5 105 -25l-26 -48c-23 15 -50 20 -80 20c-64 0 -98 -47 -107 -128c28 30 65 42 111 42
c62 0 106 -37 106 -116c0 -98 -53 -154 -153 -154z" />
    <glyph glyph-name="seven.numr" horiz-adv-x="340" 
d="M170 305h-64c19 141 65 257 167 341h-186l6 54h232l14 -54c-122 -91 -158 -206 -169 -341z" />
    <glyph glyph-name="eight.numr" horiz-adv-x="389" 
d="M237 525c39 9 63 35 63 71c0 41 -22 60 -68 60c-58 0 -85 -23 -85 -66s36 -54 80 -63zM195 349c60 0 93 18 93 64c0 47 -53 58 -94 67l-13 3c-48 -14 -62 -43 -62 -72c0 -37 22 -62 76 -62zM289 502c36 -11 57 -45 57 -85c0 -74 -44 -119 -157 -119
c-90 0 -128 50 -128 109c0 40 21 83 76 102c-32 12 -47 44 -47 78c0 63 44 120 148 120c86 0 119 -54 119 -108c0 -46 -19 -80 -68 -97z" />
    <glyph glyph-name="nine.numr" horiz-adv-x="386" 
d="M216 653c-58 0 -87 -34 -87 -98c0 -49 17 -68 64 -68c37 0 70 16 97 53c1 4 1 9 1 14c0 60 -8 99 -75 99zM179 298c-38 0 -72 5 -105 25l26 48c23 -15 50 -20 80 -20c64 0 98 47 107 128c-28 -30 -65 -42 -111 -42c-62 0 -106 37 -106 116c0 98 53 154 153 154
c78 0 128 -38 128 -153c0 -120 -38 -256 -172 -256z" />
    <glyph glyph-name="zero.dnom" horiz-adv-x="407" 
d="M170 47c99 0 110 117 110 207c0 66 -17 94 -76 94c-99 0 -109 -117 -109 -207c0 -66 16 -94 75 -94zM163 -7c-90 0 -128 53 -128 151c0 139 45 258 177 258c90 0 128 -53 128 -151c0 -139 -45 -258 -177 -258z" />
    <glyph glyph-name="one.dnom" horiz-adv-x="205" 
d="M88 0h-59l46 381l61 14z" />
    <glyph glyph-name="two.dnom" horiz-adv-x="360" 
d="M262 0h-234l-12 54c125 78 220 149 220 231c0 44 -21 63 -70 63c-34 0 -68 -9 -98 -24l-20 50c36 20 83 28 133 28c73 0 118 -39 118 -103c0 -102 -77 -169 -200 -245h170z" />
    <glyph glyph-name="three.dnom" horiz-adv-x="368" 
d="M35 78c30 -18 65 -31 102 -31c65 0 97 18 97 81c0 46 -42 57 -76 57c-8 0 -17 -1 -26 -2l-23 -3l-13 55l131 106h-172l6 54h236l9 -54l-146 -113c6 1 12 2 17 2c58 0 118 -23 118 -106c0 -75 -38 -131 -153 -131c-54 0 -92 12 -131 36z" />
    <glyph glyph-name="four.dnom" horiz-adv-x="382" 
d="M245 0h-59l13 102h-162l-14 47c56 85 73 155 84 250l61 -9c-13 -90 -40 -171 -86 -237h123l18 141l60 11l-19 -152h50l-7 -51h-49z" />
    <glyph glyph-name="five.dnom" horiz-adv-x="367" 
d="M34 78c29 -19 66 -31 103 -31c74 0 99 26 99 86c0 51 -37 60 -73 60c-34 0 -74 -13 -95 -20l-23 54l39 168h212l-6 -54h-161l-30 -111c21 9 45 15 68 15c60 0 130 -21 130 -114c0 -74 -42 -138 -158 -138c-56 0 -98 14 -131 37z" />
    <glyph glyph-name="six.dnom" horiz-adv-x="386" 
d="M171 47c58 0 87 34 87 98c0 49 -17 68 -64 68c-37 0 -70 -16 -97 -53c-1 -4 -1 -9 -1 -14c0 -60 8 -99 75 -99zM164 -7c-78 0 -128 38 -128 153c0 120 38 256 172 256c38 0 72 -5 105 -25l-26 -48c-23 15 -50 20 -80 20c-64 0 -98 -47 -107 -128c28 30 65 42 111 42
c62 0 106 -37 106 -116c0 -98 -53 -154 -153 -154z" />
    <glyph glyph-name="seven.dnom" horiz-adv-x="340" 
d="M131 0h-64c19 141 65 257 167 341h-186l6 54h232l14 -54c-122 -91 -158 -206 -169 -341z" />
    <glyph glyph-name="eight.dnom" horiz-adv-x="389" 
d="M203 220c39 9 63 35 63 71c0 41 -22 60 -68 60c-58 0 -85 -23 -85 -66s36 -54 80 -63zM161 44c60 0 93 18 93 64c0 47 -53 58 -94 67l-13 3c-48 -14 -62 -43 -62 -72c0 -37 22 -62 76 -62zM255 197c36 -11 57 -45 57 -85c0 -74 -44 -119 -157 -119
c-90 0 -128 50 -128 109c0 40 21 83 76 102c-32 12 -47 44 -47 78c0 63 44 120 148 120c86 0 119 -54 119 -108c0 -46 -19 -80 -68 -97z" />
    <glyph glyph-name="nine.dnom" horiz-adv-x="386" 
d="M183 348c-58 0 -87 -34 -87 -98c0 -49 17 -68 64 -68c37 0 70 16 97 53c1 4 1 9 1 14c0 60 -8 99 -75 99zM146 -7c-38 0 -72 5 -105 25l26 48c23 -15 50 -20 80 -20c64 0 98 47 107 128c-28 -30 -65 -42 -111 -42c-62 0 -106 37 -106 116c0 98 53 154 153 154
c78 0 128 -38 128 -153c0 -120 -38 -256 -172 -256z" />
    <glyph glyph-name="numbersign.tf" 
d="M363 0h-76l54 170h-121l-52 -170h-77l54 170h-141l21 66h141l73 228h-141l23 66h140l51 170h79l-54 -170h120l52 170h78l-52 -170h140l-23 -66h-140l-75 -228h142l-21 -66h-142zM361 236l74 228h-120l-74 -228h120z" />
    <glyph glyph-name="dollar.tf" 
d="M324 -117h-64l13 107c-84 6 -155 26 -218 68l35 60c66 -41 143 -61 232 -61c96 0 196 19 196 130c0 69 -85 101 -174 129c-101 32 -209 76 -209 188c0 142 110 197 226 207l13 106h64l-13 -107c68 -2 130 -16 184 -45l-34 -60c-53 28 -114 38 -177 38
c-102 0 -188 -29 -188 -131c0 -72 82 -99 168 -127c97 -32 216 -83 216 -196c0 -147 -109 -197 -257 -200z" />
    <glyph glyph-name="zero.tf" 
d="M305 58c197 0 243 185 243 385c0 126 -38 199 -174 199c-197 0 -243 -185 -243 -385c0 -126 38 -199 174 -199zM296 -12c-168 0 -243 97 -243 273c0 211 64 451 331 451c168 0 242 -97 242 -273c0 -211 -63 -451 -330 -451z" />
    <glyph glyph-name="one.tf" 
d="M104 0l9 70h197l66 538l-190 -34l-14 64l292 62l-77 -630h173l-9 -70h-447z" />
    <glyph glyph-name="two.tf" 
d="M552 0h-474l-18 70c261 148 447 282 447 446c0 88 -50 126 -151 126c-68 0 -135 -14 -196 -41l-28 62c72 35 151 49 242 49c140 0 218 -74 218 -180c0 -186 -157 -317 -411 -462h381z" />
    <glyph glyph-name="three.tf" 
d="M299 -12c-102 0 -177 16 -248 60l36 62c61 -34 134 -51 206 -51c128 0 212 43 212 163c0 96 -92 124 -179 124c-14 0 -35 -1 -87 -6l-18 72l280 218h-359l9 70h438l20 -70l-298 -226c23 2 33 2 41 2c132 0 233 -61 233 -188c0 -132 -84 -230 -286 -230z" />
    <glyph glyph-name="four.tf" 
d="M448 0h-77l24 190h-323l-21 64c107 144 150 282 173 450l82 -8c-26 -163 -81 -314 -176 -439h274l33 273l78 14l-34 -287h132l-8 -67h-133z" />
    <glyph glyph-name="five.tf" 
d="M296 -12c-104 0 -182 21 -246 60l37 63c54 -32 128 -52 207 -52c150 0 217 55 217 172c0 100 -75 130 -166 130c-65 0 -131 -15 -189 -33l-33 68l77 304h390l-9 -70h-325l-60 -226c46 16 99 25 156 25c122 0 237 -54 237 -199c0 -130 -79 -242 -293 -242z" />
    <glyph glyph-name="six.tf" 
d="M322 58c140 0 205 73 205 203c0 100 -57 141 -154 141c-91 0 -164 -40 -224 -108c-1 -9 -1 -25 -1 -32c0 -133 38 -204 174 -204zM313 -12c-168 0 -243 96 -243 275c0 217 73 449 322 449c65 0 129 -7 193 -40l-38 -63c-48 25 -105 33 -164 33
c-136 0 -208 -100 -228 -265c58 61 138 91 238 91c116 0 212 -65 212 -204c0 -169 -97 -276 -292 -276z" />
    <glyph glyph-name="seven.tf" 
d="M263 0h-85c36 254 165 471 374 630h-429l9 70h493l19 -70c-237 -164 -358 -382 -381 -630z" />
    <glyph glyph-name="eight.tf" 
d="M409 378c99 27 134 74 134 143c0 70 -46 122 -156 122c-129 0 -192 -53 -192 -134c0 -91 94 -111 202 -129zM307 57c136 0 209 47 209 132c0 88 -90 108 -174 123l-63 11c-114 -25 -142 -84 -142 -141c0 -72 55 -125 170 -125zM480 345c68 -20 114 -77 114 -148
c0 -128 -87 -209 -293 -209c-167 0 -241 86 -241 188c0 91 49 157 153 187c-55 21 -95 81 -95 142c0 113 87 207 278 207c157 0 224 -92 224 -185c0 -83 -37 -147 -140 -182z" />
    <glyph glyph-name="nine.tf" 
d="M358 642c-140 0 -205 -73 -205 -203c0 -100 57 -141 154 -141c91 0 164 40 224 108c1 9 1 25 1 32c0 133 -38 204 -174 204zM367 712c168 0 243 -96 243 -275c0 -217 -73 -449 -322 -449c-65 0 -129 7 -193 40l38 63c48 -25 105 -33 164 -33c136 0 208 100 228 265
c-58 -61 -138 -91 -238 -91c-116 0 -212 65 -212 204c0 169 97 276 292 276z" />
    <glyph glyph-name="cent.tf" 
d="M491 18c-37 -19 -84 -27 -135 -29l-12 -101h-61l12 102c-97 10 -167 77 -167 208c0 211 88 314 233 328l13 102h61l-12 -101c48 -2 95 -12 133 -32l-34 -60c-40 20 -83 27 -118 27c-118 0 -201 -49 -201 -268c0 -107 49 -142 145 -142c35 0 78 7 121 26z" />
    <glyph glyph-name="sterling.tf" 
d="M562 0h-449l-11 70c80 67 101 153 101 247h-108l10 68h93c-4 34 -8 72 -8 105c0 131 47 222 244 222c64 0 128 -12 186 -44l-36 -62c-43 25 -97 36 -159 36c-132 0 -158 -57 -158 -144c0 -34 1 -72 7 -113h203l-10 -68h-188c0 -93 -16 -179 -89 -247h380z" />
    <glyph glyph-name="yen.tf" 
d="M328 0h-77l18 144h-166l8 56h164l9 70h-164l8 56h137l-165 363l81 19l153 -362l245 354h89l-266 -374h141l-8 -56h-174l-8 -70h172l-8 -56h-171z" />
    <glyph glyph-name="section.tf" 
d="M112 -42c49 -27 111 -43 171 -43c84 0 150 20 150 96c0 75 -75 97 -154 122c-87 28 -179 63 -179 161c0 74 40 119 105 146c-31 22 -43 62 -43 104c0 126 99 168 230 168c69 0 140 -15 200 -48l-34 -61c-52 27 -113 42 -170 42c-84 0 -150 -20 -150 -96
c0 -75 75 -97 154 -122c87 -28 179 -63 179 -161c0 -74 -40 -119 -105 -146c31 -22 43 -62 43 -104c0 -126 -99 -168 -230 -168c-69 0 -138 16 -198 49zM416 159c55 17 79 53 79 101c0 54 -54 72 -128 95c-41 13 -84 27 -112 46c-55 -17 -79 -53 -79 -101
c0 -54 54 -72 128 -95c41 -13 84 -27 112 -46z" />
    <glyph glyph-name="uni2007.tf" 
 />
    <glyph glyph-name="Euro.tf" 
d="M453 255h-234c5 -133 59 -198 180 -198c60 0 112 10 154 32l22 -65c-46 -25 -110 -36 -178 -36c-161 0 -249 91 -256 267h-81l8 56h73c1 24 3 49 6 75h-70l8 56h73c32 140 117 270 310 270c67 0 127 -14 167 -37l-32 -61c-38 20 -84 29 -131 29
c-150 0 -210 -86 -237 -201h243l-8 -56h-245c-3 -25 -5 -50 -6 -75h241z" />
    <glyph glyph-name="parenleft.case" horiz-adv-x="302" 
d="M206 -61l-58 -28c-64 99 -107 222 -107 363c0 218 81 375 210 515l52 -37c-125 -142 -191 -260 -191 -476c0 -123 34 -243 94 -337z" />
    <glyph glyph-name="parenright.case" horiz-adv-x="302" 
d="M41 -89l-52 37c125 142 191 260 191 476c0 123 -34 243 -94 337l58 28c64 -99 107 -222 107 -363c0 -218 -81 -375 -210 -515z" />
    <glyph glyph-name="hyphen.case" horiz-adv-x="442" 
d="M367 314h-311l9 72h311z" />
    <glyph glyph-name="bracketleft.case" horiz-adv-x="319" 
d="M216 -79h-196l106 858h196l-8 -65h-126l-90 -728h126z" />
    <glyph glyph-name="bracketright.case" horiz-adv-x="319" 
d="M193 -79h-196l8 65h126l90 728h-126l8 65h196z" />
    <glyph glyph-name="braceleft.case" horiz-adv-x="357" 
d="M250 -15l-8 -64h-4c-128 0 -154 72 -154 160c0 50 8 104 8 148c0 50 -11 87 -58 92l-5 63c78 5 88 83 99 168c14 108 31 227 198 227h20l-8 -64h-17c-105 0 -116 -87 -127 -176c-9 -78 -18 -159 -89 -187c43 -21 53 -64 53 -114s-10 -107 -10 -154c0 -25 3 -48 12 -65
c12 -23 36 -34 79 -34h11z" />
    <glyph glyph-name="braceright.case" horiz-adv-x="357" 
d="M7 -15h17c105 0 116 87 127 176c9 78 18 159 89 187c-43 21 -53 64 -53 114s10 107 10 154c0 25 -3 48 -12 65c-12 23 -36 34 -79 34h-11l8 64h4c128 0 154 -72 154 -160c0 -50 -8 -104 -8 -148c0 -50 11 -87 58 -92l5 -63c-78 -5 -88 -83 -99 -168
c-14 -108 -31 -227 -198 -227h-20z" />
    <glyph glyph-name="guillemotleft.case" horiz-adv-x="669" 
d="M265 137l-232 185l7 62l268 178l32 -62l-243 -152l206 -152zM539 137l-232 185l7 62l268 178l32 -62l-243 -152l206 -152z" />
    <glyph glyph-name="uni00AD.case" horiz-adv-x="442" 
d="M367 314h-311l9 72h311z" />
    <glyph glyph-name="guillemotright.case" horiz-adv-x="669" 
d="M72 144l-32 62l243 152l-206 152l38 59l232 -185l-7 -62zM346 144l-32 62l243 152l-206 152l38 59l232 -185l-7 -62z" />
    <glyph glyph-name="gravecomb.case" horiz-adv-x="1" 
d="M-251 763l-54 -6l-74 171l79 6z" />
    <glyph glyph-name="acutecomb.case" horiz-adv-x="1" 
d="M-274 757l-55 6l92 171l79 -6z" />
    <glyph glyph-name="uni0302.case" horiz-adv-x="1" 
d="M-140 755l-130 98l-154 -98l-34 38l163 121h57l138 -125z" />
    <glyph glyph-name="tildecomb.case" horiz-adv-x="1" 
d="M-75 816c-41 -42 -88 -61 -138 -61c-65 0 -90 56 -141 56c-39 0 -72 -20 -104 -49l-27 53c41 42 88 59 138 59c65 0 91 -56 142 -56c39 0 71 21 103 50z" />
    <glyph glyph-name="uni0308.case" horiz-adv-x="1" 
d="M-260 757c-26 0 -41 14 -41 37c0 35 20 49 52 49c27 0 41 -15 41 -39c0 -34 -23 -47 -52 -47zM-65 757c-26 0 -41 14 -41 37c0 35 20 49 52 49c27 0 41 -15 41 -39c0 -34 -23 -47 -52 -47z" />
    <glyph glyph-name="uni030A.case" horiz-adv-x="1" 
d="M-136 658c-75 0 -111 40 -111 99c0 83 51 122 138 122c74 0 110 -40 110 -98c0 -84 -49 -123 -137 -123zM-131 702c51 0 77 22 77 77c0 33 -19 56 -60 56c-50 0 -78 -24 -78 -77c0 -35 19 -56 61 -56z" />
    <glyph glyph-name="uni030C.case" horiz-adv-x="1" 
d="M-193 759h-57l-137 125l38 34l130 -98l154 98l35 -39z" />
    <glyph glyph-name="endash.case" horiz-adv-x="576" 
d="M501 314h-445l9 72h445z" />
    <glyph glyph-name="emdash.case" horiz-adv-x="703" 
d="M628 314h-572l9 72h572z" />
    <glyph glyph-name="guilsinglleft.case" horiz-adv-x="395" 
d="M265 137l-232 185l7 62l268 178l32 -62l-243 -152l206 -152z" />
    <glyph glyph-name="guilsinglright.case" horiz-adv-x="395" 
d="M72 144l-32 62l243 152l-206 152l38 59l232 -185l-7 -62z" />
    <glyph glyph-name="f_f_j" horiz-adv-x="873" 
d="M797 610c-27 0 -43 13 -43 37c0 36 21 49 54 49c27 0 43 -14 43 -39c0 -35 -23 -47 -54 -47zM614 -169l-33 57c83 40 104 107 120 234l39 321h-239l-54 -443h-74l54 443h-240l-54 -443h-74l54 443h-88l8 63h86c-3 19 -5 38 -5 56c0 99 52 168 172 168c19 0 40 -2 58 -7
l-14 -63c-13 3 -27 4 -41 4c-70 0 -103 -31 -103 -103c0 -16 2 -35 5 -55h242c-3 19 -5 38 -5 56c0 99 52 168 172 168c19 0 40 -2 58 -7l-14 -63c-13 3 -27 4 -41 4c-70 0 -103 -31 -103 -103c0 -16 2 -35 5 -55h243l76 10l-54 -439c-15 -118 -56 -206 -156 -246z" />
    <glyph glyph-name="f_j" horiz-adv-x="559" 
d="M483 610c-27 0 -43 13 -43 37c0 36 21 49 54 49c27 0 43 -14 43 -39c0 -35 -23 -47 -54 -47zM300 -169l-33 57c83 40 104 107 120 234l39 321h-239l-54 -443h-74l54 443h-88l8 63h86c-3 19 -5 38 -5 56c0 99 52 168 172 168c19 0 40 -2 58 -7l-14 -63c-13 3 -27 4 -41 4
c-70 0 -103 -31 -103 -103c0 -16 2 -35 5 -55h243l76 10l-54 -439c-15 -118 -56 -206 -156 -246z" />
    </font>
</defs>
</svg>
