<?xml version="1.0" standalone="no"?>
<!DOCTYPE svg PUBLIC "-//W3C//DTD SVG 1.1//EN" "http://www.w3.org/Graphics/SVG/1.1/DTD/svg11.dtd" >
<svg xmlns="http://www.w3.org/2000/svg" xmlns:xlink="http://www.w3.org/1999/xlink" version="1.1">
<metadata>
Created by FontForge 20161116 at Wed May  7 10:29:24 2008
 By Jimmy Wärting

</metadata>
<defs>
<font id="EnzoOT-Medi" horiz-adv-x="680" >
  <font-face 
    font-family="EnzoOT-Medi"
    font-weight="500"
    font-stretch="normal"
    units-per-em="1000"
    panose-1="2 1 6 4 1 1 1 1 1 4"
    ascent="828"
    descent="-172"
    x-height="516"
    cap-height="700"
    bbox="-546 -204 1369 935"
    underline-thickness="46"
    underline-position="-131"
    stemh="70"
    stemv="74"
    unicode-range="U+000D-FB04"
  />
<missing-glyph horiz-adv-x="538" 
d="M51 0v700h436v-700h-436zM97 46h344v608h-344v-608z" />
    <glyph glyph-name="fi" unicode="fi" horiz-adv-x="571" 
d="M459 610c-30 0 -48 13 -48 43s18 43 48 43s48 -13 48 -43s-18 -43 -48 -43zM512 0h-71c-16 50 -19 110 -19 178v265h-240v-443h-74v443h-88v63h86c-4 24 -7 49 -7 72c0 87 35 152 147 152c21 0 42 -3 61 -8l-12 -63c-14 4 -29 6 -42 6c-68 0 -83 -29 -83 -92
c0 -20 2 -46 8 -67h244l74 10v-342c0 -59 2 -119 16 -174z" />
    <glyph glyph-name="fl" unicode="fl" horiz-adv-x="571" 
d="M182 0h-74v443h-88v63h86c-4 24 -7 49 -7 72c0 87 35 152 147 152c21 0 42 -3 61 -8l-12 -63c-14 4 -29 6 -42 6c-68 0 -83 -29 -83 -92c0 -20 2 -46 8 -67h120l-7 -63h-109v-443zM512 0h-71c-16 50 -19 110 -19 178v530l74 10v-544c0 -59 2 -119 16 -174z" />
    <glyph glyph-name="uniFB03" unicode="ffi" horiz-adv-x="885" 
d="M773 610c-30 0 -48 13 -48 43s18 43 48 43s48 -13 48 -43s-18 -43 -48 -43zM826 0h-71c-16 50 -19 110 -19 178v265h-240v-443h-74v443h-240v-443h-74v443h-88v63h86c-4 24 -7 49 -7 72c0 87 35 152 147 152c21 0 42 -3 61 -8l-12 -63c-14 4 -29 6 -42 6
c-68 0 -83 -29 -83 -92c0 -20 2 -46 8 -67h242c-4 24 -7 49 -7 72c0 87 35 152 147 152c21 0 42 -3 61 -8l-12 -63c-14 4 -29 6 -42 6c-68 0 -83 -29 -83 -92c0 -20 2 -46 8 -67h244l74 10v-342c0 -59 2 -119 16 -174z" />
    <glyph glyph-name="uniFB04" unicode="ffl" horiz-adv-x="885" 
d="M826 0h-71c-16 50 -19 110 -19 178v530l74 10v-544c0 -59 2 -119 16 -174zM496 0h-74v443h-240v-443h-74v443h-88v63h86c-4 24 -7 49 -7 72c0 87 35 152 147 152c21 0 42 -3 61 -8l-12 -63c-14 4 -29 6 -42 6c-68 0 -83 -29 -83 -92c0 -20 2 -46 8 -67h242
c-4 24 -7 49 -7 72c0 87 35 152 147 152c21 0 42 -3 61 -8l-12 -63c-14 4 -29 6 -42 6c-68 0 -83 -29 -83 -92c0 -20 2 -46 8 -67h120l-7 -63h-109v-443z" />
    <glyph glyph-name=".notdef" horiz-adv-x="538" 
d="M51 0v700h436v-700h-436zM97 46h344v608h-344v-608z" />
    <glyph glyph-name=".null" horiz-adv-x="0" 
 />
    <glyph glyph-name=".null" horiz-adv-x="0" 
 />
    <glyph glyph-name="CR" unicode="&#xd;" horiz-adv-x="203" 
 />
    <glyph glyph-name="space" unicode=" " horiz-adv-x="203" 
 />
    <glyph glyph-name="exclam" unicode="!" horiz-adv-x="257" 
d="M166 180h-61c-2 54 -11 469 -12 516l84 9c0 -55 -10 -471 -11 -525zM135 -5c-33 0 -51 17 -51 50s18 50 51 50s51 -17 51 -50s-18 -50 -51 -50z" />
    <glyph glyph-name="quotedbl" unicode="&#x22;" horiz-adv-x="312" 
d="M264 405h-59c-2 51 -7 272 -8 313h75c0 -41 -7 -262 -8 -313zM107 405h-59c-2 51 -7 272 -8 313h75c0 -41 -7 -262 -8 -313z" />
    <glyph glyph-name="numbersign" unicode="#" horiz-adv-x="833" 
d="M531 0h-74l34 170h-222l-32 -170h-75l34 170h-141l13 66h141l45 228h-141l14 66h140l31 170h77l-34 -170h221l32 170h76l-32 -170h140l-14 -66h-140l-47 -228h142l-13 -66h-142zM503 236l46 228h-221l-46 -228h221z" />
    <glyph glyph-name="dollar" unicode="$" horiz-adv-x="562" 
d="M313 -117h-64v107c-81 5 -154 26 -209 61l28 67c63 -36 140 -60 220 -60c88 0 156 33 156 134c0 87 -88 102 -178 129c-99 29 -207 69 -207 199c0 124 82 182 190 191v106h64v-106c60 -3 117 -15 168 -40l-26 -68c-53 27 -112 39 -170 39c-84 0 -149 -29 -149 -120
c0 -82 72 -103 158 -129c102 -31 228 -65 228 -202c0 -131 -83 -195 -209 -202v-106z" />
    <glyph glyph-name="percent" unicode="%" horiz-adv-x="998" 
d="M242 260c-134 0 -187 72 -187 226s53 226 187 226s187 -72 187 -226s-53 -226 -187 -226zM242 314c105 0 123 65 123 172s-18 172 -123 172s-123 -65 -123 -172s18 -172 123 -172zM756 -12c-134 0 -187 72 -187 226s53 226 187 226s187 -72 187 -226s-53 -226 -187 -226z
M756 42c105 0 123 65 123 172s-18 172 -123 172s-123 -65 -123 -172s18 -172 123 -172zM374 -9l-52 18l298 700l52 -18z" />
    <glyph glyph-name="ampersand" unicode="&#x26;" horiz-adv-x="676" 
d="M533 0h-244c-152 0 -232 53 -232 189c0 113 78 163 148 170c-69 11 -119 62 -119 152c0 110 60 164 142 187l24 -65c-53 -17 -90 -54 -90 -129c0 -108 89 -116 156 -116h138v160l77 10v-167l111 -10v-61h-111v-320zM456 68v252h-147c-89 0 -171 -17 -171 -123
c0 -120 73 -129 227 -129h91z" />
    <glyph glyph-name="quotesingle" unicode="'" horiz-adv-x="155" 
d="M107 405h-59c-2 51 -7 272 -8 313h75c0 -41 -7 -262 -8 -313z" />
    <glyph glyph-name="parenleft" unicode="(" horiz-adv-x="288" 
d="M241 -117l-55 -33c-78 111 -146 253 -146 439s68 328 146 439l55 -33c-86 -119 -130 -238 -130 -406s44 -287 130 -406z" />
    <glyph glyph-name="parenright" unicode=")" horiz-adv-x="288" 
d="M102 -150l-55 33c86 119 130 238 130 406s-44 287 -130 406l55 33c78 -111 146 -253 146 -439s-68 -328 -146 -439z" />
    <glyph glyph-name="asterisk" unicode="*" horiz-adv-x="483" 
d="M334 319l-93 135l-93 -134l-50 36l99 130l-156 46l20 59l154 -54c-2 50 -3 119 -4 163h63c-1 -44 -4 -114 -5 -163l153 54l20 -59l-157 -47l98 -129z" />
    <glyph glyph-name="plus" unicode="+" 
d="M377 50h-74v205h-203v72h203v205h74v-205h203v-72h-203v-205z" />
    <glyph glyph-name="comma" unicode="," horiz-adv-x="222" 
d="M92 -140h-56l67 321l83 5z" />
    <glyph glyph-name="hyphen" unicode="-" horiz-adv-x="443" 
d="M377 255h-311v72h311v-72z" />
    <glyph glyph-name="period" unicode="." horiz-adv-x="232" 
d="M116 -6c-34 0 -51 18 -51 52s17 52 51 52s51 -18 51 -52s-17 -52 -51 -52z" />
    <glyph glyph-name="slash" unicode="/" horiz-adv-x="316" 
d="M280 693l-178 -700l-66 14l178 700z" />
    <glyph glyph-name="zero" unicode="0" horiz-adv-x="628" 
d="M314 -12c-184 0 -257 115 -257 362s73 362 257 362s257 -115 257 -362s-73 -362 -257 -362zM314 58c153 0 179 110 179 292s-26 292 -179 292s-179 -110 -179 -292s26 -292 179 -292z" />
    <glyph glyph-name="one" unicode="1" horiz-adv-x="237" 
d="M157 0h-77v689l77 11v-700z" />
    <glyph glyph-name="two" unicode="2" horiz-adv-x="543" 
d="M487 0h-418l-15 70c198 135 355 264 355 425c0 108 -57 147 -156 147c-67 0 -125 -15 -178 -46l-27 65c71 42 139 51 223 51c143 0 219 -82 219 -201c0 -166 -119 -298 -327 -441h324v-70z" />
    <glyph glyph-name="three" unicode="3" horiz-adv-x="559" 
d="M69 110c57 -35 129 -52 200 -52c99 0 167 39 167 160c0 94 -69 130 -163 130c-14 0 -28 -1 -42 -2l-54 -5l-21 71l231 218h-332v70h415l17 -70l-246 -221c14 1 28 2 41 2c164 0 233 -86 233 -200c0 -117 -64 -223 -241 -223c-88 0 -170 14 -236 56z" />
    <glyph glyph-name="four" unicode="4" 
d="M496 0h-77v190h-330l-23 67c94 148 109 281 119 447l82 -9c-17 -165 -51 -320 -122 -438h274v276l77 11v-287h131v-67h-131v-190z" />
    <glyph glyph-name="five" unicode="5" horiz-adv-x="556" 
d="M69 110c60 -36 131 -52 201 -52c101 0 168 39 168 160c0 109 -76 140 -164 140c-59 0 -120 -14 -174 -31l-36 69l33 304h362v-70h-298l-26 -226c44 14 94 23 143 23c122 0 239 -55 239 -216c0 -117 -62 -223 -242 -223c-88 0 -170 14 -236 56z" />
    <glyph glyph-name="six" unicode="6" horiz-adv-x="595" 
d="M129 382c47 58 109 86 203 86c130 0 219 -85 219 -231c0 -138 -67 -249 -241 -249c-185 0 -258 115 -258 362c0 248 92 362 252 362c69 0 138 -7 194 -41l-30 -66c-46 25 -98 37 -152 37c-136 0 -184 -93 -187 -260zM132 297c2 -168 52 -239 178 -239
c119 0 166 74 166 185c0 112 -68 157 -156 157c-80 0 -148 -32 -188 -103z" />
    <glyph glyph-name="seven" unicode="7" horiz-adv-x="508" 
d="M242 0h-83c12 251 61 469 227 630h-345v70h418l14 -70c-185 -150 -224 -382 -231 -630z" />
    <glyph glyph-name="eight" unicode="8" horiz-adv-x="596" 
d="M420 348c77 -23 124 -77 124 -160c0 -115 -77 -200 -245 -200c-177 0 -248 94 -248 209c0 71 35 143 124 166c-76 22 -107 77 -107 157c0 101 72 192 231 192c160 0 232 -96 232 -197c0 -73 -30 -136 -111 -167zM299 57c118 0 168 51 168 127c0 94 -95 113 -215 138
l-20 4c-77 -23 -104 -72 -104 -125c0 -89 49 -144 171 -144zM357 378c73 29 97 72 97 129c0 82 -44 136 -155 136c-109 0 -154 -47 -154 -123c0 -113 113 -121 212 -142z" />
    <glyph glyph-name="nine" unicode="9" horiz-adv-x="595" 
d="M466 318c-47 -58 -109 -86 -203 -86c-130 0 -219 85 -219 231c0 138 67 249 241 249c185 0 258 -115 258 -362c0 -248 -92 -362 -252 -362c-69 0 -138 7 -194 41l30 66c46 -25 98 -37 152 -37c136 0 184 93 187 260zM463 403c-2 168 -52 239 -178 239
c-119 0 -166 -74 -166 -185c0 -112 68 -157 156 -157c80 0 148 32 188 103z" />
    <glyph glyph-name="colon" unicode=":" horiz-adv-x="232" 
d="M116 -6c-34 0 -51 18 -51 52s17 52 51 52s51 -18 51 -52s-17 -52 -51 -52zM116 319c-34 0 -51 18 -51 52s17 52 51 52s51 -18 51 -52s-17 -52 -51 -52z" />
    <glyph glyph-name="semicolon" unicode=";" horiz-adv-x="259" 
d="M91 -140h-56l67 321l83 5zM141 319c-34 0 -51 18 -51 52s17 52 51 52s51 -18 51 -52s-17 -52 -51 -52z" />
    <glyph glyph-name="less" unicode="&#x3c;" 
d="M544 47l-444 211v66l444 212l36 -72l-406 -173l406 -173z" />
    <glyph glyph-name="equal" unicode="=" 
d="M580 358h-480v70h480v-70zM580 154h-480v70h480v-70z" />
    <glyph glyph-name="greater" unicode="&#x3e;" 
d="M136 46l-36 72l405 173l-405 173l36 71l444 -211v-66z" />
    <glyph glyph-name="question" unicode="?" horiz-adv-x="462" 
d="M229 180h-62c-1 38 -5 120 -5 168c132 13 181 56 181 134c0 118 -76 166 -236 166c-13 0 -26 -1 -39 -2l8 64c20 2 39 2 57 2c192 0 291 -100 291 -217c0 -100 -46 -175 -192 -194c-1 -34 -1 -81 -3 -121zM197 -5c-33 0 -51 17 -51 50s18 50 51 50s51 -17 51 -50
s-18 -50 -51 -50z" />
    <glyph glyph-name="at" unicode="@" horiz-adv-x="906" 
d="M663 -83c-73 -46 -162 -69 -268 -69c-217 0 -340 110 -340 384c0 363 186 480 450 480c235 0 346 -125 346 -322c0 -213 -96 -330 -283 -348l-8 77c-33 -51 -80 -83 -166 -83c-104 0 -153 79 -153 194c0 265 115 309 231 309c61 0 127 -13 184 -36l-40 -323l3 -83
c99 30 170 110 170 287c0 176 -73 272 -289 272c-231 0 -383 -98 -383 -419c0 -234 78 -334 283 -334c93 0 170 22 239 65zM556 190l32 272c-32 13 -75 21 -119 21c-90 0 -163 -42 -163 -247c0 -91 21 -145 104 -145c77 0 109 38 146 99z" />
    <glyph glyph-name="A" unicode="A" horiz-adv-x="582" 
d="M478 -5l-53 169h-272l-50 -164h-83l231 696l78 9l233 -700zM405 231l-116 375l-115 -375h231z" />
    <glyph glyph-name="B" unicode="B" horiz-adv-x="576" 
d="M146 388h138c67 0 156 8 156 116c0 112 -83 140 -180 140c-39 0 -80 -6 -114 -13v-243zM146 68h91c154 0 227 9 227 129c0 106 -82 123 -171 123h-147v-252zM69 0v689c56 12 125 23 190 23c133 0 257 -43 257 -201c0 -90 -50 -141 -119 -152c70 -7 148 -57 148 -170
c0 -136 -80 -189 -232 -189h-244z" />
    <glyph glyph-name="C" unicode="C" horiz-adv-x="561" 
d="M495 98l31 -65c-55 -37 -126 -45 -197 -45c-161 0 -274 83 -274 362s113 362 274 362c71 0 142 -8 197 -45l-31 -65c-51 30 -106 40 -162 40c-122 0 -200 -47 -200 -292s78 -292 200 -292c56 0 111 10 162 40z" />
    <glyph glyph-name="D" unicode="D" horiz-adv-x="650" 
d="M70 0v688c81 14 161 24 234 24c167 0 293 -66 293 -362c0 -260 -91 -350 -291 -350h-236zM147 70h159c148 0 213 56 213 280c0 242 -85 292 -211 292c-50 0 -109 -5 -161 -14v-558z" />
    <glyph glyph-name="E" unicode="E" horiz-adv-x="529" 
d="M474 0h-404v700h404v-70h-327v-222h268l-7 -70h-261v-268h327v-70z" />
    <glyph glyph-name="F" unicode="F" horiz-adv-x="499" 
d="M147 0h-77v700h404v-70h-327v-245h268l-7 -70h-261v-315z" />
    <glyph glyph-name="G" unicode="G" horiz-adv-x="647" 
d="M592 44c-73 -41 -157 -56 -244 -56c-188 0 -293 81 -293 362c0 264 135 362 296 362c71 0 140 -6 210 -43l-32 -65c-58 30 -117 38 -178 38c-135 0 -218 -77 -218 -292c0 -223 55 -292 217 -292c57 0 116 7 165 32v190h-179v70h256v-306z" />
    <glyph glyph-name="H" unicode="H" horiz-adv-x="621" 
d="M551 0h-77v335h-327v-335h-77v700h77v-295h327v295h77v-700z" />
    <glyph glyph-name="I" unicode="I" horiz-adv-x="217" 
d="M147 0h-77v700h77v-700z" />
    <glyph glyph-name="J" unicode="J" horiz-adv-x="248" 
d="M64 -167l-44 53c63 45 81 90 81 172v642h77v-639c0 -105 -36 -183 -114 -228z" />
    <glyph glyph-name="K" unicode="K" horiz-adv-x="549" 
d="M461 -10l-314 355v-345h-77v700h77v-329l294 336l69 -32l-280 -315l303 -332z" />
    <glyph glyph-name="L" unicode="L" horiz-adv-x="517" 
d="M484 0h-415v700h77v-630h338v-70z" />
    <glyph glyph-name="M" unicode="M" horiz-adv-x="793" 
d="M661 -4l-38 584l-189 -580h-73l-195 580l-34 -580h-79l55 700h97l194 -588l187 588h100l54 -698z" />
    <glyph glyph-name="N" unicode="N" horiz-adv-x="638" 
d="M568 0h-83l-345 581v-581h-70v689l85 17l343 -578v572h70v-700z" />
    <glyph glyph-name="O" unicode="O" horiz-adv-x="676" 
d="M338 58c175 0 205 110 205 292s-30 292 -205 292s-205 -110 -205 -292s30 -292 205 -292zM338 -12c-203 0 -283 115 -283 362s80 362 283 362s283 -115 283 -362s-80 -362 -283 -362z" />
    <glyph glyph-name="P" unicode="P" horiz-adv-x="564" 
d="M147 0h-77v689c59 14 125 23 186 23c167 0 288 -59 288 -245c0 -175 -130 -232 -279 -232c-39 0 -79 4 -118 10v-245zM147 312c34 -6 70 -9 106 -9c131 0 213 33 213 162c0 139 -87 177 -203 177c-40 0 -80 -4 -116 -13v-317z" />
    <glyph glyph-name="Q" unicode="Q" horiz-adv-x="676" 
d="M439 -153c-49 41 -85 93 -109 141c-195 2 -275 117 -275 362c0 247 80 362 283 362s283 -115 283 -362c0 -218 -65 -336 -220 -357c24 -38 66 -80 111 -110zM338 58c175 0 205 110 205 292s-30 292 -205 292s-205 -110 -205 -292s30 -292 205 -292z" />
    <glyph glyph-name="R" unicode="R" horiz-adv-x="580" 
d="M146 326h159c89 0 149 51 149 151c0 126 -77 165 -190 165c-39 0 -80 -6 -118 -15v-301zM469 -9l-149 265h-174v-256h-77v689c60 14 128 23 191 23c153 0 272 -55 272 -238c0 -117 -60 -175 -141 -197l160 -267z" />
    <glyph glyph-name="S" unicode="S" horiz-adv-x="562" 
d="M40 51l28 67c63 -38 140 -60 220 -60c88 0 156 33 156 134c0 87 -88 102 -178 129c-99 29 -207 69 -207 199c0 135 98 192 220 192c72 0 142 -11 202 -41l-26 -68c-53 28 -112 39 -170 39c-84 0 -149 -29 -149 -120c0 -82 72 -103 158 -129c102 -31 228 -65 228 -202
c0 -139 -93 -203 -232 -203c-97 0 -185 22 -250 63z" />
    <glyph glyph-name="T" unicode="T" horiz-adv-x="563" 
d="M320 0h-77v630h-205v70h487v-70h-205v-630z" />
    <glyph glyph-name="U" unicode="U" horiz-adv-x="656" 
d="M591 700v-350c0 -247 -76 -362 -263 -362c-189 0 -263 115 -263 362v350h77v-350c0 -199 44 -292 187 -292s185 93 185 292v350h77z" />
    <glyph glyph-name="V" unicode="V" horiz-adv-x="580" 
d="M330 0h-78l-231 692l82 16l190 -613l188 613l78 -17z" />
    <glyph glyph-name="W" unicode="W" horiz-adv-x="854" 
d="M572 0l-141 584l-138 -584h-88l-184 693l83 15l146 -611l138 597l84 12l143 -609l138 611l80 -16l-176 -692h-85z" />
    <glyph glyph-name="X" unicode="X" horiz-adv-x="596" 
d="M494 -12l-200 317l-183 -305h-90l229 367l-209 321l83 21l173 -285l164 276h88l-209 -335l235 -352z" />
    <glyph glyph-name="Y" unicode="Y" horiz-adv-x="574" 
d="M323 0h-77v258l-223 432l82 19l180 -377l180 368h86l-228 -442v-258z" />
    <glyph glyph-name="Z" unicode="Z" horiz-adv-x="550" 
d="M501 0h-440l-20 70l357 560h-346v70h421l17 -68l-358 -562h377z" />
    <glyph glyph-name="bracketleft" unicode="[" horiz-adv-x="319" 
d="M264 -140h-196v858h196v-65h-126v-728h126v-65z" />
    <glyph glyph-name="backslash" unicode="\" horiz-adv-x="314" 
d="M101 708l177 -700l-65 -16l-177 700z" />
    <glyph glyph-name="bracketright" unicode="]" horiz-adv-x="319" 
d="M251 -140h-196v65h126v728h-126v65h196v-858z" />
    <glyph glyph-name="asciicircum" unicode="^" horiz-adv-x="445" 
d="M409 382l-61 -25l-126 292l-126 -292l-61 25l156 336h61z" />
    <glyph glyph-name="underscore" unicode="_" horiz-adv-x="500" 
d="M502 -154h-504v46h504v-46z" />
    <glyph glyph-name="grave" unicode="`" horiz-adv-x="222" 
d="M186 597l-55 -6l-95 171l80 6z" />
    <glyph glyph-name="a" unicode="a" horiz-adv-x="527" 
d="M414 -6c-9 25 -16 51 -21 77c-31 -54 -83 -83 -168 -83c-118 0 -175 40 -175 152c0 101 79 150 334 161v12c0 114 -58 149 -130 149c-50 0 -99 -11 -144 -33l-24 60c51 27 107 39 168 39c110 0 204 -55 204 -207v-134c0 -62 4 -124 18 -179zM384 154v86
c-173 -8 -261 -33 -261 -100c0 -62 21 -91 116 -91c75 0 112 39 145 105z" />
    <glyph glyph-name="b" unicode="b" horiz-adv-x="537" 
d="M70 20v688l74 10v-265c29 50 79 75 157 75c130 0 186 -91 186 -270c0 -218 -97 -270 -215 -270c-70 0 -140 8 -202 32zM144 69c39 -16 86 -18 131 -18c85 0 137 41 137 207c0 128 -22 208 -123 208c-75 0 -112 -38 -145 -104v-293z" />
    <glyph glyph-name="c" unicode="c" horiz-adv-x="441" 
d="M407 20c-41 -23 -85 -32 -138 -32c-150 0 -219 83 -219 270s69 270 219 270c53 0 97 -9 138 -32l-28 -58c-35 18 -73 24 -110 24c-104 0 -144 -49 -144 -204s40 -204 144 -204c37 0 75 6 110 24z" />
    <glyph glyph-name="d" unicode="d" horiz-adv-x="536" 
d="M485 8l-62 -14c-9 25 -16 51 -21 77c-31 -54 -84 -83 -166 -83c-130 0 -186 91 -186 270c0 225 106 270 210 270c50 0 93 -8 136 -30c-3 34 -3 69 -3 104v106l74 10v-531c0 -62 4 -124 18 -179zM393 154v281c-41 23 -84 31 -126 31c-89 0 -142 -39 -142 -208
c0 -128 22 -208 123 -208c75 0 112 38 145 104z" />
    <glyph glyph-name="e" unicode="e" horiz-adv-x="517" 
d="M448 34c-52 -34 -111 -46 -173 -46c-136 0 -225 56 -225 270c0 224 103 270 215 270c130 0 205 -62 205 -282v-9l-344 -28c3 -121 57 -158 149 -158c53 0 99 12 146 40zM124 267l273 26c-2 130 -51 172 -132 172c-87 0 -141 -48 -141 -187v-11z" />
    <glyph glyph-name="f" unicode="f" horiz-adv-x="321" 
d="M182 0h-74v443h-88v63h86c-4 24 -7 49 -7 72c0 87 35 152 147 152c21 0 42 -3 61 -8l-12 -63c-14 4 -29 6 -42 6c-68 0 -83 -29 -83 -92c0 -20 2 -46 8 -67h120l-7 -63h-109v-443z" />
    <glyph glyph-name="g" unicode="g" horiz-adv-x="537" 
d="M393 165v282c-39 16 -86 18 -131 18c-85 0 -137 -40 -137 -200c0 -123 22 -200 123 -200c75 0 112 37 145 100zM145 -78c37 -18 80 -26 125 -26c77 0 123 34 123 144v34c-29 -50 -79 -72 -157 -72c-130 0 -186 88 -186 263c0 212 97 263 215 263c70 0 140 -8 202 -32
v-460c0 -141 -76 -202 -198 -202c-47 0 -98 6 -144 27z" />
    <glyph glyph-name="h" unicode="h" horiz-adv-x="538" 
d="M476 0h-74v282c0 113 -6 184 -114 184c-75 0 -112 -38 -145 -104v-362h-74v708l74 10v-265c29 50 79 75 159 75c149 0 174 -111 174 -232v-296z" />
    <glyph glyph-name="i" unicode="i" horiz-adv-x="224" 
d="M165 0h-71c-16 50 -19 110 -19 178v328l74 10v-342c0 -59 2 -119 16 -174zM112 610c-30 0 -48 13 -48 43s18 43 48 43s48 -13 48 -43s-18 -43 -48 -43z" />
    <glyph glyph-name="j" unicode="j" horiz-adv-x="228" 
d="M46 -169l-41 51c62 44 75 73 75 167v457l74 10v-464c0 -122 -29 -173 -108 -221zM117 610c-30 0 -48 13 -48 43s18 43 48 43s48 -13 48 -43s-18 -43 -48 -43z" />
    <glyph glyph-name="k" unicode="k" horiz-adv-x="467" 
d="M380 -10l-236 283v-273h-74v708l74 10v-427l220 231l67 -31l-205 -209l222 -255z" />
    <glyph glyph-name="l" unicode="l" horiz-adv-x="224" 
d="M165 0h-71c-16 50 -19 110 -19 178v530l74 10v-544c0 -59 2 -119 16 -174z" />
    <glyph glyph-name="m" unicode="m" horiz-adv-x="853" 
d="M791 0h-74v282c0 113 -6 184 -110 184c-72 0 -108 -38 -140 -104v-362h-74v337c0 72 -18 129 -110 129c-72 0 -108 -38 -140 -104v-362h-74v329c0 62 -4 124 -18 179l62 14c9 -25 16 -51 21 -77c30 54 81 83 164 83c82 0 125 -35 148 -89c37 61 91 89 176 89
c145 0 169 -111 169 -232v-296z" />
    <glyph glyph-name="n" unicode="n" horiz-adv-x="538" 
d="M476 0h-74v282c0 113 -6 184 -114 184c-75 0 -112 -38 -145 -104v-362h-74v329c0 62 -4 124 -18 179l62 14c9 -25 16 -51 21 -77c31 54 83 83 168 83c149 0 174 -111 174 -232v-296z" />
    <glyph glyph-name="o" unicode="o" horiz-adv-x="550" 
d="M275 -12c-161 0 -225 86 -225 270s64 270 225 270s225 -86 225 -270s-64 -270 -225 -270zM275 51c128 0 150 78 150 207s-22 207 -150 207s-150 -78 -150 -207s22 -207 150 -207z" />
    <glyph glyph-name="p" unicode="p" horiz-adv-x="536" 
d="M143 81c41 -23 84 -31 126 -31c89 0 142 39 142 208c0 128 -22 208 -123 208c-75 0 -112 -38 -145 -104v-281zM143 -154h-74v483c0 62 -4 124 -18 179l62 14c9 -25 16 -51 21 -77c31 54 84 83 166 83c130 0 186 -91 186 -270c0 -225 -106 -270 -210 -270
c-50 0 -93 8 -136 30c3 -34 3 -66 3 -98v-74z" />
    <glyph glyph-name="q" unicode="q" horiz-adv-x="537" 
d="M467 -144l-74 -10v217c-29 -50 -79 -75 -157 -75c-130 0 -186 91 -186 270c0 218 97 270 215 270c70 0 140 -8 202 -32v-640zM393 154v293c-39 16 -86 18 -131 18c-85 0 -137 -41 -137 -207c0 -128 22 -208 123 -208c75 0 112 38 145 104z" />
    <glyph glyph-name="r" unicode="r" horiz-adv-x="324" 
d="M143 0h-74v329c0 62 -4 124 -18 179l62 14c10 -27 18 -58 24 -89c28 57 75 89 155 95l10 -80c-82 -1 -130 -36 -159 -110v-338z" />
    <glyph glyph-name="s" unicode="s" horiz-adv-x="444" 
d="M64 92c47 -27 104 -40 164 -40c68 0 109 18 109 80c0 57 -35 67 -114 90c-87 24 -168 51 -168 166c0 97 76 140 169 140c57 0 110 -8 157 -34l-25 -58c-35 19 -79 28 -126 28c-59 0 -103 -12 -103 -80c0 -56 51 -73 116 -91c79 -22 166 -44 166 -153
c0 -110 -68 -152 -177 -152c-74 0 -139 12 -192 45z" />
    <glyph glyph-name="t" unicode="t" horiz-adv-x="311" 
d="M197 -15c-83 66 -89 149 -89 262v206h-88v63h88v157l74 10v-167h115l-7 -63h-108v-227c0 -88 1 -138 65 -199z" />
    <glyph glyph-name="u" unicode="u" horiz-adv-x="538" 
d="M425 -6c-9 25 -16 51 -21 77c-31 -54 -83 -83 -168 -83c-149 0 -174 111 -174 232v286l74 10v-282c0 -113 6 -184 114 -184c75 0 112 38 145 104v352l74 10v-329c0 -62 4 -124 18 -179z" />
    <glyph glyph-name="v" unicode="v" horiz-adv-x="464" 
d="M275 0h-84l-171 507l79 15l136 -454l137 454l72 -15z" />
    <glyph glyph-name="w" unicode="w" horiz-adv-x="760" 
d="M502 0l-116 424l-123 -424h-87l-156 508l77 14l127 -450l123 439l76 9l120 -448l123 450l74 -12l-151 -510h-87z" />
    <glyph glyph-name="x" unicode="x" horiz-adv-x="477" 
d="M379 -11l-143 227l-133 -216h-81l170 268l-157 236l81 21l122 -205l114 196h84l-155 -244l174 -256z" />
    <glyph glyph-name="y" unicode="y" horiz-adv-x="464" 
d="M112 -169l-32 52c71 36 99 73 111 126l-171 498l79 15l136 -451l137 451l72 -14l-153 -454c-34 -102 -82 -184 -179 -223z" />
    <glyph glyph-name="z" unicode="z" horiz-adv-x="464" 
d="M423 0h-375l-13 63l290 390h-275v63h354l12 -63l-288 -390h301z" />
    <glyph glyph-name="braceleft" unicode="{" horiz-adv-x="357" 
d="M297 -140c-96 0 -177 21 -177 161c0 167 -15 234 -90 239l-5 63c93 8 94 88 94 233c0 138 69 165 178 165v-64c-84 0 -111 -10 -111 -124c0 -145 -15 -220 -83 -242c69 -22 83 -100 83 -245c0 -111 27 -122 111 -122v-64z" />
    <glyph glyph-name="bar" unicode="|" horiz-adv-x="269" 
d="M169 -140h-69v934h69v-934z" />
    <glyph glyph-name="braceright" unicode="}" horiz-adv-x="357" 
d="M60 -140v64c84 0 111 11 111 122c0 145 14 223 83 245c-68 22 -83 97 -83 242c0 114 -27 124 -111 124v64c109 0 178 -27 178 -165c0 -145 1 -225 94 -233l-5 -63c-75 -5 -90 -72 -90 -239c0 -140 -81 -161 -177 -161z" />
    <glyph glyph-name="asciitilde" unicode="~" horiz-adv-x="551" 
d="M485 299c-38 -49 -88 -67 -135 -67c-62 0 -102 56 -153 56c-35 0 -64 -17 -92 -49l-39 45c38 49 88 67 135 67c62 0 102 -56 153 -56c35 0 64 17 92 49z" />
    <glyph glyph-name="uni00A0" unicode="&#xa0;" horiz-adv-x="203" 
 />
    <glyph glyph-name="exclamdown" unicode="&#xa1;" horiz-adv-x="257" 
d="M174 -173l-84 -9c0 55 10 471 11 525h61c2 -54 11 -469 12 -516zM132 428c-33 0 -51 17 -51 50s18 50 51 50s51 -17 51 -50s-18 -50 -51 -50z" />
    <glyph glyph-name="cent" unicode="&#xa2;" horiz-adv-x="441" 
d="M284 -112h-61v103c-118 16 -173 100 -173 267c0 166 55 250 173 267v103h61v-100c46 -2 86 -11 123 -32l-28 -58c-35 18 -73 24 -110 24c-104 0 -144 -49 -144 -204s40 -204 144 -204c37 0 75 6 110 24l28 -58c-37 -21 -77 -30 -123 -32v-100z" />
    <glyph glyph-name="sterling" unicode="&#xa3;" horiz-adv-x="557" 
d="M509 0h-420l-14 70c45 53 63 110 63 168c0 25 -1 52 -5 79h-94v68h84c-11 54 -20 106 -20 156c0 123 95 171 205 171c67 0 130 -11 186 -45l-29 -64c-37 21 -98 39 -153 39c-68 0 -129 -27 -129 -108c0 -45 8 -96 18 -149h184v-68h-175c3 -25 4 -50 4 -73
c0 -62 -12 -120 -54 -174h349v-70z" />
    <glyph glyph-name="currency" unicode="&#xa4;" horiz-adv-x="637" 
d="M318 151c-43 0 -70 4 -97 22l-70 -70l-45 45l69 69c-14 25 -24 62 -24 98c0 40 8 72 25 98l-69 70l44 44l71 -71c26 14 60 23 96 23c35 0 70 -9 96 -23l71 71l45 -45l-69 -69c17 -26 24 -59 24 -98c0 -40 -7 -73 -24 -99l69 -68l-45 -45l-71 71c-26 -14 -61 -23 -96 -23z
M318 205c73 0 107 36 107 110s-34 110 -107 110s-107 -36 -107 -110s34 -110 107 -110z" />
    <glyph glyph-name="yen" unicode="&#xa5;" horiz-adv-x="574" 
d="M323 0h-77v144h-152v56h152v70h-152v56h123l-194 364l82 19l180 -362l180 353h86l-201 -374h129v-56h-156v-70h156v-56h-156v-144z" />
    <glyph glyph-name="brokenbar" unicode="&#xa6;" horiz-adv-x="269" 
d="M169 381h-69v413h69v-413zM169 -140h-69v413h69v-413z" />
    <glyph glyph-name="section" unicode="&#xa7;" horiz-adv-x="537" 
d="M354 156c33 14 66 44 66 95c0 70 -67 95 -138 117c-35 11 -71 21 -99 36c-33 -14 -66 -46 -66 -95c0 -60 29 -78 110 -109c42 -16 87 -24 127 -44zM103 -43c45 -25 100 -42 157 -42c78 0 127 18 127 92c0 84 -124 99 -185 121c-80 29 -159 65 -159 166
c0 72 30 119 80 148c-35 19 -50 62 -50 107c0 117 95 163 196 163c70 0 137 -15 193 -48l-29 -61c-45 25 -100 42 -157 42c-68 0 -126 -17 -126 -92c0 -77 98 -94 154 -112c91 -29 190 -62 190 -176c0 -72 -31 -119 -81 -146c35 -20 51 -63 51 -109
c0 -117 -95 -162 -197 -162c-70 0 -137 15 -193 48z" />
    <glyph glyph-name="dieresis" unicode="&#xa8;" horiz-adv-x="391" 
d="M98 611c-29 0 -46 14 -46 43s17 43 46 43s46 -14 46 -43s-17 -43 -46 -43zM293 611c-29 0 -46 14 -46 43s17 43 46 43s46 -14 46 -43s-17 -43 -46 -43z" />
    <glyph glyph-name="copyright" unicode="&#xa9;" horiz-adv-x="807" 
d="M403 40c195 0 294 104 294 310s-99 310 -294 310c-194 0 -293 -104 -293 -310s99 -310 293 -310zM403 -12c-226 0 -348 128 -348 362c0 235 122 362 348 362c227 0 349 -127 349 -362c0 -234 -122 -362 -349 -362zM538 133c-46 -26 -90 -33 -133 -33
c-109 0 -189 69 -189 248s80 248 189 248c43 0 87 -7 133 -33l-22 -49c-34 19 -73 27 -109 27c-92 0 -131 -53 -131 -193s39 -193 131 -193c36 0 75 8 109 27z" />
    <glyph glyph-name="ordfeminine" unicode="&#xaa;" horiz-adv-x="345" 
d="M235 490v51c-116 -7 -138 -16 -138 -56c0 -31 8 -50 59 -50c43 0 62 21 79 55zM294 407l-40 -9c-6 13 -10 28 -13 42c-14 -27 -47 -45 -95 -45c-68 0 -99 32 -99 89c0 69 49 92 188 98c0 70 -26 87 -71 87c-29 0 -55 -6 -78 -19l-19 38c27 16 61 24 103 24
c62 0 115 -38 115 -123v-71c0 -37 0 -76 9 -111zM298 319h-242v40h242v-40z" />
    <glyph glyph-name="guillemotleft" unicode="&#xab;" horiz-adv-x="668" 
d="M306 71l-251 182v62l251 182l34 -61l-224 -152l224 -153zM580 71l-251 182v62l251 182l34 -61l-224 -152l224 -153z" />
    <glyph glyph-name="logicalnot" unicode="&#xac;" 
d="M580 102h-75v153h-405v72h480v-225z" />
    <glyph glyph-name="uni00AD" unicode="&#xad;" horiz-adv-x="443" 
d="M377 255h-311v72h311v-72z" />
    <glyph glyph-name="registered" unicode="&#xae;" horiz-adv-x="807" 
d="M541 113l-100 170h-125v-167h-60v463c42 10 91 18 138 18c102 0 195 -37 195 -165c0 -81 -40 -122 -89 -140l99 -154zM316 335h115c47 0 98 16 98 97c0 84 -60 110 -130 110c-27 0 -56 -4 -83 -10v-197zM403 40c195 0 294 104 294 310s-99 310 -294 310
c-194 0 -293 -104 -293 -310s99 -310 293 -310zM403 -12c-226 0 -348 128 -348 362c0 235 122 362 348 362c227 0 349 -127 349 -362c0 -234 -122 -362 -349 -362z" />
    <glyph glyph-name="macron" unicode="&#xaf;" horiz-adv-x="454" 
d="M414 593h-374v63h374v-63z" />
    <glyph glyph-name="degree" unicode="&#xb0;" horiz-adv-x="400" 
d="M200 493c64 0 96 33 96 95s-32 95 -96 95s-96 -33 -96 -95s32 -95 96 -95zM200 446c-97 0 -148 51 -148 142s51 142 148 142c98 0 148 -51 148 -142s-50 -142 -148 -142z" />
    <glyph glyph-name="plusminus" unicode="&#xb1;" 
d="M580 0h-480v72h480v-72zM377 135h-74v187h-203v72h203v186h74v-186h203v-72h-203v-187z" />
    <glyph glyph-name="twosuperior" unicode="&#xb2;" horiz-adv-x="360" 
d="M305 305h-241l-11 54c99 68 191 133 191 219c0 55 -22 75 -78 75c-37 0 -68 -9 -98 -26l-19 51c37 23 84 29 132 29c80 0 125 -45 125 -115c0 -89 -60 -157 -170 -233h169v-54z" />
    <glyph glyph-name="threesuperior" unicode="&#xb3;" horiz-adv-x="369" 
d="M65 382c34 -21 76 -30 112 -30c51 0 83 21 83 76c0 47 -35 63 -76 63c-10 0 -20 0 -30 -1l-29 -4l-14 54l120 106h-176v54h239l13 -54l-132 -111c6 1 13 2 19 2c92 -1 127 -47 127 -111c0 -62 -32 -128 -142 -128c-48 0 -97 7 -136 34z" />
    <glyph glyph-name="acute" unicode="&#xb4;" horiz-adv-x="222" 
d="M91 591l-55 6l71 171l79 -6z" />
    <glyph glyph-name="mu" unicode="&#xb5;" horiz-adv-x="546" 
d="M495 8l-62 -14c-9 25 -16 51 -21 77c-31 -55 -83 -83 -168 -83c-43 0 -80 12 -100 40v-182h-74v660l74 10v-282c0 -113 6 -184 114 -184c75 0 112 38 145 104v352l74 10v-329c0 -62 4 -124 18 -179z" />
    <glyph glyph-name="paragraph" unicode="&#xb6;" horiz-adv-x="510" 
d="M432 0h-63v636c-21 7 -46 9 -67 9v-645h-63v302c-143 0 -208 93 -208 204c0 135 96 205 254 205c45 0 94 -7 147 -20v-691z" />
    <glyph glyph-name="periodcentered" unicode="&#xb7;" horiz-adv-x="232" 
d="M116 285c-34 0 -51 18 -51 52s17 52 51 52s51 -18 51 -52s-17 -52 -51 -52z" />
    <glyph glyph-name="cedilla" unicode="&#xb8;" horiz-adv-x="235" 
d="M40 -162l14 48c14 -6 31 -9 48 -9c21 0 36 7 36 25c0 17 -20 30 -62 30l14 68h58l-9 -39c39 -5 56 -29 56 -60c0 -53 -39 -74 -89 -74c-17 0 -39 3 -66 11z" />
    <glyph glyph-name="onesuperior" unicode="&#xb9;" horiz-adv-x="207" 
d="M133 305h-59v387l59 8v-395z" />
    <glyph glyph-name="ordmasculine" unicode="&#xba;" horiz-adv-x="360" 
d="M180 437c71 0 83 44 83 117c0 72 -12 116 -83 116s-83 -44 -83 -116c0 -73 12 -117 83 -117zM300 319h-240v40h240v-40zM180 395c-95 0 -133 50 -133 159c0 108 38 158 133 158s133 -50 133 -158c0 -109 -38 -159 -133 -159z" />
    <glyph glyph-name="guillemotright" unicode="&#xbb;" horiz-adv-x="668" 
d="M613 253l-251 -182l-34 60l224 153l-224 152l34 61l251 -182v-62zM339 253l-251 -182l-34 60l224 153l-224 152l34 61l251 -182v-62z" />
    <glyph glyph-name="onequarter" unicode="&#xbc;" horiz-adv-x="650" 
d="M136 305h-59v387l59 8v-395zM549 0h-59v102h-165l-16 52c45 74 53 155 57 244l64 -6c-9 -90 -27 -176 -62 -239h122v144l59 8v-152h49v-51h-49v-102zM419 692l-298 -701l-47 19l298 701z" />
    <glyph glyph-name="onehalf" unicode="&#xbd;" horiz-adv-x="649" 
d="M136 305h-59v387l59 8v-395zM594 0h-241l-11 54c99 68 191 133 191 219c0 55 -22 75 -78 75c-37 0 -68 -9 -98 -26l-19 51c37 23 84 29 132 29c80 0 125 -45 125 -115c0 -89 -60 -157 -170 -233h169v-54zM419 692l-298 -701l-47 19l298 701z" />
    <glyph glyph-name="threequarters" unicode="&#xbe;" horiz-adv-x="801" 
d="M700 0h-59v102h-165l-16 52c45 74 53 155 57 244l64 -6c-9 -90 -27 -176 -62 -239h122v144l59 8v-152h49v-51h-49v-102zM65 382c34 -21 76 -30 112 -30c51 0 83 21 83 76c0 47 -35 63 -76 63c-10 0 -20 0 -30 -1l-29 -4l-14 54l120 106h-176v54h239l13 -54l-132 -111
c6 1 13 2 19 2c92 -1 127 -47 127 -111c0 -62 -32 -128 -142 -128c-48 0 -97 7 -136 34zM570 692l-298 -701l-47 19l298 701z" />
    <glyph glyph-name="questiondown" unicode="&#xbf;" horiz-adv-x="462" 
d="M408 -187c-20 -2 -39 -2 -57 -2c-192 0 -291 100 -291 217c0 100 46 175 192 194c1 34 1 81 3 121h62c1 -38 5 -120 5 -168c-132 -13 -181 -56 -181 -134c0 -118 76 -166 236 -166c13 0 26 1 39 2zM287 428c-33 0 -51 17 -51 50s18 50 51 50s51 -17 51 -50
s-18 -50 -51 -50z" />
    <glyph glyph-name="Agrave" unicode="&#xc0;" horiz-adv-x="582" 
d="M478 -5l-53 169h-272l-50 -164h-83l231 696l78 9l233 -700zM405 231l-116 375l-115 -375h231zM331 763l-55 -6l-95 171l80 6z" />
    <glyph glyph-name="Aacute" unicode="&#xc1;" horiz-adv-x="582" 
d="M478 -5l-53 169h-272l-50 -164h-83l231 696l78 9l233 -700zM405 231l-116 375l-115 -375h231zM301 757l-55 6l71 171l79 -6z" />
    <glyph glyph-name="Acircumflex" unicode="&#xc2;" horiz-adv-x="582" 
d="M478 -5l-53 169h-272l-50 -164h-83l231 696l78 9l233 -700zM405 231l-116 375l-115 -375h231zM431 748l-142 98l-142 -98l-39 34l153 125h57l153 -125z" />
    <glyph glyph-name="Atilde" unicode="&#xc3;" horiz-adv-x="582" 
d="M478 -5l-53 169h-272l-50 -164h-83l231 696l78 9l233 -700zM405 231l-116 375l-115 -375h231zM499 822c-38 -49 -88 -67 -135 -67c-62 0 -102 56 -153 56c-35 0 -64 -17 -92 -49l-39 45c38 49 88 67 135 67c62 0 102 -56 153 -56c35 0 64 17 92 49z" />
    <glyph glyph-name="Adieresis" unicode="&#xc4;" horiz-adv-x="582" 
d="M478 -5l-53 169h-272l-50 -164h-83l231 696l78 9l233 -700zM405 231l-116 375l-115 -375h231zM193 757c-29 0 -46 14 -46 43s17 43 46 43s46 -14 46 -43s-17 -43 -46 -43zM388 757c-29 0 -46 14 -46 43s17 43 46 43s46 -14 46 -43s-17 -43 -46 -43z" />
    <glyph glyph-name="Aring" unicode="&#xc5;" horiz-adv-x="582" 
d="M478 -5l-53 169h-272l-50 -164h-83l220 663c-50 13 -74 49 -74 105c0 71 41 111 123 111s123 -40 123 -111c0 -54 -23 -89 -70 -103l220 -660zM405 231l-116 375l-115 -375h231zM289 702c47 0 68 22 68 66s-21 67 -68 67s-68 -23 -68 -67s21 -66 68 -66z" />
    <glyph glyph-name="AE" unicode="&#xc6;" horiz-adv-x="901" 
d="M850 0h-404v164h-245l-91 -164h-90l398 700h432v-70h-327v-222h268l-7 -70h-261v-268h327v-70zM446 231v376l-210 -376h210z" />
    <glyph glyph-name="Ccedilla" unicode="&#xc7;" horiz-adv-x="561" 
d="M241 -162l14 48c14 -6 31 -9 48 -9c21 0 36 7 36 25c0 17 -20 30 -62 30l12 58c-140 13 -234 104 -234 360c0 279 113 362 274 362c70 0 142 -10 197 -47l-31 -61c-53 30 -106 39 -162 39c-122 0 -200 -47 -200 -293s78 -293 200 -293c56 0 109 9 162 39l31 -61
c-51 -34 -116 -45 -180 -47l-6 -27c39 -5 56 -29 56 -60c0 -53 -39 -74 -89 -74c-17 0 -39 3 -66 11z" />
    <glyph glyph-name="Egrave" unicode="&#xc8;" horiz-adv-x="529" 
d="M474 0h-404v700h404v-70h-327v-222h268l-7 -70h-261v-268h327v-70zM313 764l-55 -6l-95 171l80 6z" />
    <glyph glyph-name="Eacute" unicode="&#xc9;" horiz-adv-x="529" 
d="M474 0h-404v700h404v-70h-327v-222h268l-7 -70h-261v-268h327v-70zM270 758l-55 6l71 171l79 -6z" />
    <glyph glyph-name="Ecircumflex" unicode="&#xca;" horiz-adv-x="529" 
d="M474 0h-404v700h404v-70h-327v-222h268l-7 -70h-261v-268h327v-70zM412 748l-142 98l-142 -98l-39 34l153 125h57l153 -125z" />
    <glyph glyph-name="Edieresis" unicode="&#xcb;" horiz-adv-x="529" 
d="M474 0h-404v700h404v-70h-327v-222h268l-7 -70h-261v-268h327v-70zM176 757c-29 0 -46 14 -46 43s17 43 46 43s46 -14 46 -43s-17 -43 -46 -43zM371 757c-29 0 -46 14 -46 43s17 43 46 43s46 -14 46 -43s-17 -43 -46 -43z" />
    <glyph glyph-name="Igrave" unicode="&#xcc;" horiz-adv-x="217" 
d="M147 0h-77v700h77v-700zM146 763l-55 -6l-95 171l80 6z" />
    <glyph glyph-name="Iacute" unicode="&#xcd;" horiz-adv-x="217" 
d="M147 0h-77v700h77v-700zM121 757l-55 6l71 171l79 -6z" />
    <glyph glyph-name="Icircumflex" unicode="&#xce;" horiz-adv-x="217" 
d="M147 0h-77v700h77v-700zM250 752l-142 98l-142 -98l-39 34l153 125h57l153 -125z" />
    <glyph glyph-name="Idieresis" unicode="&#xcf;" horiz-adv-x="217" 
d="M147 0h-77v700h77v-700zM11 755c-29 0 -46 14 -46 43s17 43 46 43s46 -14 46 -43s-17 -43 -46 -43zM206 755c-29 0 -46 14 -46 43s17 43 46 43s46 -14 46 -43s-17 -43 -46 -43z" />
    <glyph glyph-name="Eth" unicode="&#xd0;" horiz-adv-x="686" 
d="M106 0v314h-75v70h75v304c81 14 161 24 234 24c167 0 293 -66 293 -362c0 -260 -91 -350 -291 -350h-236zM183 70h159c148 0 213 56 213 280c0 242 -85 292 -211 292c-50 0 -109 -5 -161 -14v-244h129v-70h-129v-244z" />
    <glyph glyph-name="Ntilde" unicode="&#xd1;" horiz-adv-x="638" 
d="M568 0h-83l-345 581v-581h-70v689l85 17l343 -578v572h70v-700zM533 822c-38 -49 -88 -67 -135 -67c-62 0 -102 56 -153 56c-35 0 -64 -17 -92 -49l-39 45c38 49 88 67 135 67c62 0 102 -56 153 -56c35 0 64 17 92 49z" />
    <glyph glyph-name="Ograve" unicode="&#xd2;" horiz-adv-x="676" 
d="M338 58c175 0 205 110 205 292s-30 292 -205 292s-205 -110 -205 -292s30 -292 205 -292zM338 -12c-203 0 -283 115 -283 362s80 362 283 362s283 -115 283 -362s-80 -362 -283 -362zM378 763l-55 -6l-95 171l80 6z" />
    <glyph glyph-name="Oacute" unicode="&#xd3;" horiz-adv-x="676" 
d="M338 58c175 0 205 110 205 292s-30 292 -205 292s-205 -110 -205 -292s30 -292 205 -292zM338 -12c-203 0 -283 115 -283 362s80 362 283 362s283 -115 283 -362s-80 -362 -283 -362zM351 757l-55 6l71 171l79 -6z" />
    <glyph glyph-name="Ocircumflex" unicode="&#xd4;" horiz-adv-x="676" 
d="M338 58c175 0 205 110 205 292s-30 292 -205 292s-205 -110 -205 -292s30 -292 205 -292zM338 -12c-203 0 -283 115 -283 362s80 362 283 362s283 -115 283 -362s-80 -362 -283 -362zM480 753l-142 98l-142 -98l-39 34l153 125h57l153 -125z" />
    <glyph glyph-name="Otilde" unicode="&#xd5;" horiz-adv-x="676" 
d="M338 58c175 0 205 110 205 292s-30 292 -205 292s-205 -110 -205 -292s30 -292 205 -292zM338 -12c-203 0 -283 115 -283 362s80 362 283 362s283 -115 283 -362s-80 -362 -283 -362zM548 822c-38 -49 -88 -67 -135 -67c-62 0 -102 56 -153 56c-35 0 -64 -17 -92 -49
l-39 45c38 49 88 67 135 67c62 0 102 -56 153 -56c35 0 64 17 92 49z" />
    <glyph glyph-name="Odieresis" unicode="&#xd6;" horiz-adv-x="676" 
d="M338 58c175 0 205 110 205 292s-30 292 -205 292s-205 -110 -205 -292s30 -292 205 -292zM338 -12c-203 0 -283 115 -283 362s80 362 283 362s283 -115 283 -362s-80 -362 -283 -362zM241 757c-29 0 -46 14 -46 43s17 43 46 43s46 -14 46 -43s-17 -43 -46 -43zM436 757
c-29 0 -46 14 -46 43s17 43 46 43s46 -14 46 -43s-17 -43 -46 -43z" />
    <glyph glyph-name="multiply" unicode="&#xd7;" 
d="M558 126l-53 -53l-165 166l-165 -165l-52 52l165 165l-166 165l53 53l165 -166l165 165l52 -52l-165 -165z" />
    <glyph glyph-name="Oslash" unicode="&#xd8;" horiz-adv-x="676" 
d="M204 -85h-81l49 113c-82 52 -117 158 -117 322c0 247 80 362 283 362c50 0 92 -7 128 -21l34 79h82l-53 -118c64 -58 92 -157 92 -302c0 -247 -80 -362 -283 -362c-36 0 -69 4 -97 11zM338 58c175 0 205 110 205 292s-30 292 -205 292s-205 -110 -205 -292
s30 -292 205 -292z" />
    <glyph glyph-name="Ugrave" unicode="&#xd9;" horiz-adv-x="656" 
d="M591 700v-350c0 -247 -76 -362 -263 -362c-189 0 -263 115 -263 362v350h77v-350c0 -199 44 -292 187 -292s185 93 185 292v350h77zM370 764l-55 -6l-95 171l80 6z" />
    <glyph glyph-name="Uacute" unicode="&#xda;" horiz-adv-x="656" 
d="M591 700v-350c0 -247 -76 -362 -263 -362c-189 0 -263 115 -263 362v350h77v-350c0 -199 44 -292 187 -292s185 93 185 292v350h77zM342 758l-55 6l71 171l79 -6z" />
    <glyph glyph-name="Ucircumflex" unicode="&#xdb;" horiz-adv-x="656" 
d="M591 700v-350c0 -247 -76 -362 -263 -362c-189 0 -263 115 -263 362v350h77v-350c0 -199 44 -292 187 -292s185 93 185 292v350h77zM471 751l-142 98l-142 -98l-39 34l153 125h57l153 -125z" />
    <glyph glyph-name="Udieresis" unicode="&#xdc;" horiz-adv-x="656" 
d="M591 700v-350c0 -247 -76 -362 -263 -362c-189 0 -263 115 -263 362v350h77v-350c0 -199 44 -292 187 -292s185 93 185 292v350h77zM232 757c-29 0 -46 14 -46 43s17 43 46 43s46 -14 46 -43s-17 -43 -46 -43zM427 757c-29 0 -46 14 -46 43s17 43 46 43s46 -14 46 -43
s-17 -43 -46 -43z" />
    <glyph glyph-name="Yacute" unicode="&#xdd;" horiz-adv-x="574" 
d="M323 0h-77v258l-223 432l82 19l180 -377l180 368h86l-228 -442v-258zM301 757l-55 6l71 171l79 -6z" />
    <glyph glyph-name="Thorn" unicode="&#xde;" horiz-adv-x="564" 
d="M147 0h-77v700h77v-121c44 10 90 17 135 17c139 0 262 -59 262 -247c0 -175 -130 -232 -279 -232c-39 0 -79 4 -118 10v-127zM147 194c34 -6 70 -9 106 -9c131 0 213 33 213 162c0 142 -80 179 -184 179c-45 0 -92 -8 -135 -18v-314z" />
    <glyph glyph-name="germandbls" unicode="&#xdf;" horiz-adv-x="597" 
d="M224 80c38 -19 82 -30 121 -30c100 0 141 37 141 129c0 97 -60 140 -173 140h-12l-8 59c77 11 147 25 147 126c0 94 -33 150 -146 150c-128 0 -151 -78 -151 -207v-447h-74v447c0 184 64 270 225 270c168 0 220 -99 220 -204c0 -93 -53 -149 -135 -157
c118 -4 184 -64 184 -181c0 -126 -76 -187 -203 -187c-55 0 -113 7 -161 35z" />
    <glyph glyph-name="agrave" unicode="&#xe0;" horiz-adv-x="527" 
d="M414 -6c-9 25 -16 51 -21 77c-31 -54 -83 -83 -168 -83c-118 0 -175 40 -175 152c0 101 79 150 334 161v12c0 114 -58 149 -130 149c-50 0 -99 -11 -144 -33l-24 60c51 27 107 39 168 39c110 0 204 -55 204 -207v-134c0 -62 4 -124 18 -179zM384 154v86
c-173 -8 -261 -33 -261 -100c0 -62 21 -91 116 -91c75 0 112 39 145 105zM313 597l-55 -6l-95 171l80 6z" />
    <glyph glyph-name="aacute" unicode="&#xe1;" horiz-adv-x="527" 
d="M414 -6c-9 25 -16 51 -21 77c-31 -54 -83 -83 -168 -83c-118 0 -175 40 -175 152c0 101 79 150 334 161v12c0 114 -58 149 -130 149c-50 0 -99 -11 -144 -33l-24 60c51 27 107 39 168 39c110 0 204 -55 204 -207v-134c0 -62 4 -124 18 -179zM384 154v86
c-173 -8 -261 -33 -261 -100c0 -62 21 -91 116 -91c75 0 112 39 145 105zM272 591l-55 6l71 171l79 -6z" />
    <glyph glyph-name="acircumflex" unicode="&#xe2;" horiz-adv-x="527" 
d="M414 -6c-9 25 -16 51 -21 77c-31 -54 -83 -83 -168 -83c-118 0 -175 40 -175 152c0 101 79 150 334 161v12c0 114 -58 149 -130 149c-50 0 -99 -11 -144 -33l-24 60c51 27 107 39 168 39c110 0 204 -55 204 -207v-134c0 -62 4 -124 18 -179zM384 154v86
c-173 -8 -261 -33 -261 -100c0 -62 21 -91 116 -91c75 0 112 39 145 105zM407 586l-142 98l-142 -98l-39 34l153 125h57l153 -125z" />
    <glyph glyph-name="atilde" unicode="&#xe3;" horiz-adv-x="527" 
d="M414 -6c-9 25 -16 51 -21 77c-31 -54 -83 -83 -168 -83c-118 0 -175 40 -175 152c0 101 79 150 334 161v12c0 114 -58 149 -130 149c-50 0 -99 -11 -144 -33l-24 60c51 27 107 39 168 39c110 0 204 -55 204 -207v-134c0 -62 4 -124 18 -179zM384 154v86
c-173 -8 -261 -33 -261 -100c0 -62 21 -91 116 -91c75 0 112 39 145 105zM474 656c-38 -49 -88 -67 -135 -67c-62 0 -102 56 -153 56c-35 0 -64 -17 -92 -49l-39 45c38 49 88 67 135 67c62 0 102 -56 153 -56c35 0 64 17 92 49z" />
    <glyph glyph-name="adieresis" unicode="&#xe4;" horiz-adv-x="527" 
d="M414 -6c-9 25 -16 51 -21 77c-31 -54 -83 -83 -168 -83c-118 0 -175 40 -175 152c0 101 79 150 334 161v12c0 114 -58 149 -130 149c-50 0 -99 -11 -144 -33l-24 60c51 27 107 39 168 39c110 0 204 -55 204 -207v-134c0 -62 4 -124 18 -179zM384 154v86
c-173 -8 -261 -33 -261 -100c0 -62 21 -91 116 -91c75 0 112 39 145 105zM166 611c-29 0 -46 14 -46 43s17 43 46 43s46 -14 46 -43s-17 -43 -46 -43zM361 611c-29 0 -46 14 -46 43s17 43 46 43s46 -14 46 -43s-17 -43 -46 -43z" />
    <glyph glyph-name="aring" unicode="&#xe5;" horiz-adv-x="527" 
d="M414 -6c-9 25 -16 51 -21 77c-31 -54 -83 -83 -168 -83c-118 0 -175 40 -175 152c0 101 79 150 334 161v12c0 114 -58 149 -130 149c-50 0 -99 -11 -144 -33l-24 60c51 27 107 39 168 39c110 0 204 -55 204 -207v-134c0 -62 4 -124 18 -179zM384 154v86
c-173 -8 -261 -33 -261 -100c0 -62 21 -91 116 -91c75 0 112 39 145 105zM260 588c-82 0 -123 39 -123 110s41 111 123 111s123 -40 123 -111s-41 -110 -123 -110zM260 632c47 0 68 22 68 66s-21 67 -68 67s-68 -23 -68 -67s21 -66 68 -66z" />
    <glyph glyph-name="ae" unicode="&#xe6;" horiz-adv-x="851" 
d="M384 154v86c-173 -8 -261 -33 -261 -100c0 -62 21 -91 116 -91c75 0 112 39 145 105zM458 267l273 26c-2 130 -51 172 -132 172c-87 0 -141 -48 -141 -187v-11zM782 36c-52 -33 -111 -48 -173 -48c-123 0 -176 48 -194 114c-31 -69 -86 -114 -190 -114
c-118 0 -175 40 -175 152c0 101 79 150 334 161v12c0 114 -58 149 -130 149c-50 0 -99 -11 -144 -33l-24 60c52 27 107 39 168 39c86 0 147 -29 171 -110c26 85 107 110 174 110c130 0 205 -62 205 -282v-9l-344 -28c3 -121 57 -158 149 -158c53 0 99 12 146 40z" />
    <glyph glyph-name="ccedilla" unicode="&#xe7;" horiz-adv-x="441" 
d="M171 -162l14 48c14 -6 31 -9 48 -9c21 0 36 7 36 25c0 17 -20 30 -62 30l12 60c-115 17 -169 101 -169 266c0 187 69 270 219 270c53 0 97 -9 138 -32l-28 -58c-35 18 -73 24 -110 24c-104 0 -144 -49 -144 -204s40 -204 144 -204c37 0 75 6 110 24l28 -58
c-41 -23 -81 -31 -131 -32l-6 -27c39 -5 56 -29 56 -60c0 -53 -39 -74 -89 -74c-17 0 -39 3 -66 11z" />
    <glyph glyph-name="egrave" unicode="&#xe8;" horiz-adv-x="517" 
d="M448 34c-52 -34 -111 -46 -173 -46c-136 0 -225 56 -225 270c0 224 103 270 215 270c130 0 205 -62 205 -282v-9l-344 -28c3 -121 57 -158 149 -158c53 0 99 12 146 40zM124 267l273 26c-2 130 -51 172 -132 172c-87 0 -141 -48 -141 -187v-11zM302 597l-55 -6l-95 171
l80 6z" />
    <glyph glyph-name="eacute" unicode="&#xe9;" horiz-adv-x="517" 
d="M448 34c-52 -34 -111 -46 -173 -46c-136 0 -225 56 -225 270c0 224 103 270 215 270c130 0 205 -62 205 -282v-9l-344 -28c3 -121 57 -158 149 -158c53 0 99 12 146 40zM124 267l273 26c-2 130 -51 172 -132 172c-87 0 -141 -48 -141 -187v-11zM272 591l-55 6l71 171
l79 -6z" />
    <glyph glyph-name="ecircumflex" unicode="&#xea;" horiz-adv-x="517" 
d="M448 34c-52 -34 -111 -46 -173 -46c-136 0 -225 56 -225 270c0 224 103 270 215 270c130 0 205 -62 205 -282v-9l-344 -28c3 -121 57 -158 149 -158c53 0 99 12 146 40zM124 267l273 26c-2 130 -51 172 -132 172c-87 0 -141 -48 -141 -187v-11zM403 586l-142 98l-142 -98
l-39 34l153 125h57l153 -125z" />
    <glyph glyph-name="edieresis" unicode="&#xeb;" horiz-adv-x="517" 
d="M448 34c-52 -34 -111 -46 -173 -46c-136 0 -225 56 -225 270c0 224 103 270 215 270c130 0 205 -62 205 -282v-9l-344 -28c3 -121 57 -158 149 -158c53 0 99 12 146 40zM124 267l273 26c-2 130 -51 172 -132 172c-87 0 -141 -48 -141 -187v-11zM161 611
c-29 0 -46 14 -46 43s17 43 46 43s46 -14 46 -43s-17 -43 -46 -43zM356 611c-29 0 -46 14 -46 43s17 43 46 43s46 -14 46 -43s-17 -43 -46 -43z" />
    <glyph glyph-name="igrave" unicode="&#xec;" horiz-adv-x="224" 
d="M165 0h-71c-16 50 -19 110 -19 178v328l74 10v-342c0 -59 2 -119 16 -174zM153 597l-55 -6l-95 171l80 6z" />
    <glyph glyph-name="iacute" unicode="&#xed;" horiz-adv-x="224" 
d="M165 0h-71c-16 50 -19 110 -19 178v328l74 10v-342c0 -59 2 -119 16 -174zM122 591l-55 6l71 171l79 -6z" />
    <glyph glyph-name="icircumflex" unicode="&#xee;" horiz-adv-x="224" 
d="M165 0h-71c-16 50 -19 110 -19 178v328l74 10v-342c0 -59 2 -119 16 -174zM253 586l-142 98l-142 -98l-39 34l153 125h57l153 -125z" />
    <glyph glyph-name="idieresis" unicode="&#xef;" horiz-adv-x="224" 
d="M165 0h-71c-16 50 -19 110 -19 178v328l74 10v-342c0 -59 2 -119 16 -174zM14 611c-29 0 -46 14 -46 43s17 43 46 43s46 -14 46 -43s-17 -43 -46 -43zM209 611c-29 0 -46 14 -46 43s17 43 46 43s46 -14 46 -43s-17 -43 -46 -43z" />
    <glyph glyph-name="eth" unicode="&#xf0;" horiz-adv-x="550" 
d="M275 -12c-161 0 -225 86 -225 270s61 267 222 267c60 0 117 -14 157 -80c-23 69 -55 115 -95 146l-34 -46l-57 34l34 46c-31 15 -65 25 -102 35l24 70c46 -12 86 -29 120 -49l36 49l57 -34l-40 -54c101 -90 128 -227 128 -366v-18c0 -184 -64 -270 -225 -270zM275 51
c128 0 150 78 150 207s-22 207 -150 207s-150 -78 -150 -207s22 -207 150 -207z" />
    <glyph glyph-name="ntilde" unicode="&#xf1;" horiz-adv-x="538" 
d="M476 0h-74v282c0 113 -6 184 -114 184c-75 0 -112 -38 -145 -104v-362h-74v329c0 62 -4 124 -18 179l62 14c9 -25 16 -51 21 -77c31 54 83 83 168 83c149 0 174 -111 174 -232v-296zM469 656c-38 -49 -88 -67 -135 -67c-62 0 -102 56 -153 56c-35 0 -64 -17 -92 -49
l-39 45c38 49 88 67 135 67c62 0 102 -56 153 -56c35 0 64 17 92 49z" />
    <glyph glyph-name="ograve" unicode="&#xf2;" horiz-adv-x="550" 
d="M275 -12c-161 0 -225 86 -225 270s64 270 225 270s225 -86 225 -270s-64 -270 -225 -270zM275 51c128 0 150 78 150 207s-22 207 -150 207s-150 -78 -150 -207s22 -207 150 -207zM314 597l-55 -6l-95 171l80 6z" />
    <glyph glyph-name="oacute" unicode="&#xf3;" horiz-adv-x="550" 
d="M275 -12c-161 0 -225 86 -225 270s64 270 225 270s225 -86 225 -270s-64 -270 -225 -270zM275 51c128 0 150 78 150 207s-22 207 -150 207s-150 -78 -150 -207s22 -207 150 -207zM285 591l-55 6l71 171l79 -6z" />
    <glyph glyph-name="ocircumflex" unicode="&#xf4;" horiz-adv-x="550" 
d="M275 -12c-161 0 -225 86 -225 270s64 270 225 270s225 -86 225 -270s-64 -270 -225 -270zM275 51c128 0 150 78 150 207s-22 207 -150 207s-150 -78 -150 -207s22 -207 150 -207zM417 586l-142 98l-142 -98l-39 34l153 125h57l153 -125z" />
    <glyph glyph-name="otilde" unicode="&#xf5;" horiz-adv-x="550" 
d="M275 -12c-161 0 -225 86 -225 270s64 270 225 270s225 -86 225 -270s-64 -270 -225 -270zM275 51c128 0 150 78 150 207s-22 207 -150 207s-150 -78 -150 -207s22 -207 150 -207zM485 656c-38 -49 -88 -67 -135 -67c-62 0 -102 56 -153 56c-35 0 -64 -17 -92 -49l-39 45
c38 49 88 67 135 67c62 0 102 -56 153 -56c35 0 64 17 92 49z" />
    <glyph glyph-name="odieresis" unicode="&#xf6;" horiz-adv-x="550" 
d="M275 -12c-161 0 -225 86 -225 270s64 270 225 270s225 -86 225 -270s-64 -270 -225 -270zM275 51c128 0 150 78 150 207s-22 207 -150 207s-150 -78 -150 -207s22 -207 150 -207zM178 611c-29 0 -46 14 -46 43s17 43 46 43s46 -14 46 -43s-17 -43 -46 -43zM373 611
c-29 0 -46 14 -46 43s17 43 46 43s46 -14 46 -43s-17 -43 -46 -43z" />
    <glyph glyph-name="divide" unicode="&#xf7;" 
d="M580 255h-480v72h480v-72zM340 418c-34 0 -51 18 -51 52s17 52 51 52s51 -18 51 -52s-17 -52 -51 -52zM340 60c-34 0 -51 18 -51 52s17 52 51 52s51 -18 51 -52s-17 -52 -51 -52z" />
    <glyph glyph-name="oslash" unicode="&#xf8;" horiz-adv-x="550" 
d="M154 -67h-75l47 96c-54 43 -77 118 -77 229c0 184 64 270 225 270c33 0 62 -4 88 -12l33 65h75l-47 -96c53 -42 76 -117 76 -227c0 -184 -64 -270 -225 -270c-34 0 -63 4 -88 11zM274 51c128 0 150 78 150 207s-22 207 -150 207s-150 -78 -150 -207s22 -207 150 -207z
" />
    <glyph glyph-name="ugrave" unicode="&#xf9;" horiz-adv-x="538" 
d="M425 -6c-9 25 -16 51 -21 77c-31 -54 -83 -83 -168 -83c-149 0 -174 111 -174 232v286l74 10v-282c0 -113 6 -184 114 -184c75 0 112 38 145 104v352l74 10v-329c0 -62 4 -124 18 -179zM307 597l-55 -6l-95 171l80 6z" />
    <glyph glyph-name="uacute" unicode="&#xfa;" horiz-adv-x="538" 
d="M425 -6c-9 25 -16 51 -21 77c-31 -54 -83 -83 -168 -83c-149 0 -174 111 -174 232v286l74 10v-282c0 -113 6 -184 114 -184c75 0 112 38 145 104v352l74 10v-329c0 -62 4 -124 18 -179zM279 591l-55 6l71 171l79 -6z" />
    <glyph glyph-name="ucircumflex" unicode="&#xfb;" horiz-adv-x="538" 
d="M425 -6c-9 25 -16 51 -21 77c-31 -54 -83 -83 -168 -83c-149 0 -174 111 -174 232v286l74 10v-282c0 -113 6 -184 114 -184c75 0 112 38 145 104v352l74 10v-329c0 -62 4 -124 18 -179zM408 586l-142 98l-142 -98l-39 34l153 125h57l153 -125z" />
    <glyph glyph-name="udieresis" unicode="&#xfc;" horiz-adv-x="538" 
d="M425 -6c-9 25 -16 51 -21 77c-31 -54 -83 -83 -168 -83c-149 0 -174 111 -174 232v286l74 10v-282c0 -113 6 -184 114 -184c75 0 112 38 145 104v352l74 10v-329c0 -62 4 -124 18 -179zM171 611c-29 0 -46 14 -46 43s17 43 46 43s46 -14 46 -43s-17 -43 -46 -43zM366 611
c-29 0 -46 14 -46 43s17 43 46 43s46 -14 46 -43s-17 -43 -46 -43z" />
    <glyph glyph-name="yacute" unicode="&#xfd;" horiz-adv-x="464" 
d="M112 -169l-32 52c71 36 99 73 111 126l-171 498l79 15l136 -451l137 451l72 -14l-153 -454c-34 -102 -82 -184 -179 -223zM247 591l-55 6l71 171l79 -6z" />
    <glyph glyph-name="thorn" unicode="&#xfe;" horiz-adv-x="537" 
d="M144 81c41 -23 84 -31 126 -31c89 0 142 39 142 208c0 128 -22 208 -123 208c-75 0 -112 -38 -145 -104v-281zM144 -154h-74v862l74 10v-274c30 54 78 84 157 84c130 0 186 -91 186 -270c0 -225 -106 -270 -210 -270c-50 0 -93 8 -136 30c3 -34 3 -69 3 -104v-68z" />
    <glyph glyph-name="ydieresis" unicode="&#xff;" horiz-adv-x="464" 
d="M112 -169l-32 52c71 36 99 73 111 126l-171 498l79 15l136 -451l137 451l72 -14l-153 -454c-34 -102 -82 -184 -179 -223zM138 611c-29 0 -46 14 -46 43s17 43 46 43s46 -14 46 -43s-17 -43 -46 -43zM333 611c-29 0 -46 14 -46 43s17 43 46 43s46 -14 46 -43
s-17 -43 -46 -43z" />
    <glyph glyph-name="dotlessi" unicode="&#x131;" horiz-adv-x="224" 
d="M165 0h-71c-16 50 -19 110 -19 178v328l74 10v-342c0 -59 2 -119 16 -174z" />
    <glyph glyph-name="Lslash" unicode="&#x141;" horiz-adv-x="543" 
d="M510 0h-416v302l-60 -26v72l60 26v326h77v-292l123 54v-72l-123 -54v-266h339v-70z" />
    <glyph glyph-name="lslash" unicode="&#x142;" horiz-adv-x="350" 
d="M225 0h-71c-16 50 -19 110 -19 178v154l-97 -43v73l97 42v304l74 10v-281l103 45v-72l-103 -46v-190c0 -59 2 -119 16 -174z" />
    <glyph glyph-name="OE" unicode="&#x152;" horiz-adv-x="1001" 
d="M946 0h-389v124c-22 -78 -92 -136 -220 -136c-202 0 -282 115 -282 362s80 362 282 362c128 0 198 -58 220 -136v124h389v-70h-327v-222h268l-7 -70h-261v-268h327v-70zM337 58c175 0 205 110 205 292s-30 292 -205 292s-205 -110 -205 -292s30 -292 205 -292z" />
    <glyph glyph-name="oe" unicode="&#x153;" horiz-adv-x="892" 
d="M275 51c128 0 150 78 150 207s-22 207 -150 207s-150 -78 -150 -207s22 -207 150 -207zM823 36c-52 -33 -111 -48 -173 -48c-98 0 -165 26 -188 116c-25 -81 -89 -116 -187 -116c-161 0 -225 86 -225 270s64 270 225 270c98 0 162 -35 187 -116c25 81 86 116 178 116
c130 0 205 -62 205 -282v-9l-344 -28c3 -121 57 -158 149 -158c53 0 99 12 146 40zM499 267l273 26c-2 130 -51 172 -132 172c-87 0 -141 -48 -141 -187v-11z" />
    <glyph glyph-name="Scaron" unicode="&#x160;" horiz-adv-x="562" 
d="M40 51l28 67c63 -38 140 -60 220 -60c88 0 156 33 156 134c0 87 -88 102 -178 129c-99 29 -207 69 -207 199c0 135 98 192 220 192c72 0 142 -11 202 -41l-26 -68c-53 28 -112 39 -170 39c-84 0 -149 -29 -149 -120c0 -82 72 -103 158 -129c102 -31 228 -65 228 -202
c0 -139 -93 -203 -232 -203c-97 0 -185 22 -250 63zM308 759h-57l-153 125l39 34l142 -98l142 98l40 -34z" />
    <glyph glyph-name="scaron" unicode="&#x161;" horiz-adv-x="444" 
d="M64 92c47 -27 104 -40 164 -40c68 0 109 18 109 80c0 57 -35 67 -114 90c-87 24 -168 51 -168 166c0 97 76 140 169 140c57 0 110 -8 157 -34l-25 -58c-35 19 -79 28 -126 28c-59 0 -103 -12 -103 -80c0 -56 51 -73 116 -91c79 -22 166 -44 166 -153
c0 -110 -68 -152 -177 -152c-74 0 -139 12 -192 45zM250 593h-57l-153 125l39 34l142 -98l142 98l40 -34z" />
    <glyph glyph-name="Ydieresis" unicode="&#x178;" horiz-adv-x="574" 
d="M323 0h-77v258l-223 432l82 19l180 -377l180 368h86l-228 -442v-258zM188 783c-29 0 -46 14 -46 43s17 43 46 43s46 -14 46 -43s-17 -43 -46 -43zM383 783c-29 0 -46 14 -46 43s17 43 46 43s46 -14 46 -43s-17 -43 -46 -43z" />
    <glyph glyph-name="Zcaron" unicode="&#x17d;" horiz-adv-x="550" 
d="M501 0h-440l-20 70l357 560h-346v70h421l17 -68l-358 -562h377zM301 759h-57l-153 125l39 34l142 -98l142 98l40 -34z" />
    <glyph glyph-name="zcaron" unicode="&#x17e;" horiz-adv-x="464" 
d="M423 0h-375l-13 63l290 390h-275v63h354l12 -63l-288 -390h301zM265 593h-57l-153 125l39 34l142 -98l142 98l40 -34z" />
    <glyph glyph-name="florin" unicode="&#x192;" horiz-adv-x="321" 
d="M182 -140h-74v565h-88v63h86c-4 24 -7 49 -7 72c0 87 35 152 147 152c21 0 42 -3 61 -8l-12 -63c-14 4 -29 6 -42 6c-68 0 -83 -29 -83 -92c0 -20 2 -46 8 -67h120l-7 -63h-109v-565z" />
    <glyph glyph-name="circumflex" unicode="&#x2c6;" horiz-adv-x="443" 
d="M363 586l-142 98l-142 -98l-39 34l153 125h57l153 -125z" />
    <glyph glyph-name="caron" unicode="&#x2c7;" horiz-adv-x="443" 
d="M250 593h-57l-153 125l39 34l142 -98l142 98l40 -34z" />
    <glyph glyph-name="breve" unicode="&#x2d8;" horiz-adv-x="416" 
d="M376 766c-8 -125 -72 -181 -168 -181s-160 56 -168 181l69 6c5 -88 37 -126 99 -126s94 38 99 126z" />
    <glyph glyph-name="dotaccent" unicode="&#x2d9;" horiz-adv-x="176" 
d="M88 610c-30 0 -48 13 -48 43s18 43 48 43s48 -13 48 -43s-18 -43 -48 -43z" />
    <glyph glyph-name="ring" unicode="&#x2da;" horiz-adv-x="325" 
d="M162 586c-82 0 -123 39 -123 110s41 111 123 111s123 -40 123 -111s-41 -110 -123 -110zM162 630c47 0 68 22 68 66s-21 67 -68 67s-68 -23 -68 -67s21 -66 68 -66z" />
    <glyph glyph-name="ogonek" unicode="&#x2db;" horiz-adv-x="242" 
d="M186 -113l16 -43c-24 -11 -52 -17 -77 -17c-52 0 -85 27 -85 79c0 39 24 71 62 94h61c-46 -34 -67 -57 -67 -90c0 -19 12 -34 38 -34c12 0 31 2 52 11z" />
    <glyph glyph-name="tilde" unicode="&#x2dc;" horiz-adv-x="499" 
d="M459 656c-38 -49 -88 -67 -135 -67c-62 0 -102 56 -153 56c-35 0 -64 -17 -92 -49l-39 45c38 49 88 67 135 67c62 0 102 -56 153 -56c35 0 64 17 92 49z" />
    <glyph glyph-name="hungarumlaut" unicode="&#x2dd;" horiz-adv-x="412" 
d="M88 589l-48 18l93 138l76 -8zM252 589l-49 18l92 138l77 -8z" />
    <glyph glyph-name="gravecomb" unicode="&#x300;" horiz-adv-x="1" 
d="M-235 597l-55 -6l-95 171l80 6z" />
    <glyph glyph-name="acutecomb" unicode="&#x301;" horiz-adv-x="1" 
d="M-264 591l-55 6l71 171l79 -6z" />
    <glyph glyph-name="uni0302" unicode="&#x302;" horiz-adv-x="1" 
d="M-132 586l-142 98l-142 -98l-39 34l153 125h57l153 -125z" />
    <glyph glyph-name="tildecomb" unicode="&#x303;" horiz-adv-x="1" 
d="M-64 656c-38 -49 -88 -67 -135 -67c-62 0 -102 56 -153 56c-35 0 -64 -17 -92 -49l-39 45c38 49 88 67 135 67c62 0 102 -56 153 -56c35 0 64 17 92 49z" />
    <glyph glyph-name="uni0308" unicode="&#x308;" horiz-adv-x="1" 
d="M-292 611c-29 0 -46 14 -46 43s17 43 46 43s46 -14 46 -43s-17 -43 -46 -43zM-97 611c-29 0 -46 14 -46 43s17 43 46 43s46 -14 46 -43s-17 -43 -46 -43z" />
    <glyph glyph-name="uni030A" unicode="&#x30a;" horiz-adv-x="1" 
d="M-162 588c-82 0 -123 39 -123 110s41 111 123 111s123 -40 123 -111s-41 -110 -123 -110zM-162 632c47 0 68 22 68 66s-21 67 -68 67s-68 -23 -68 -67s21 -66 68 -66z" />
    <glyph glyph-name="uni030C" unicode="&#x30c;" horiz-adv-x="1" 
d="M-198 593h-57l-153 125l39 34l142 -98l142 98l40 -34z" />
    <glyph glyph-name="uni0394" unicode="&#x394;" horiz-adv-x="701" 
d="M616 0h-531l-19 68l246 632h77l246 -632zM552 68l-204 541l-203 -541h407z" />
    <glyph glyph-name="uni03A9" unicode="&#x3a9;" horiz-adv-x="796" 
d="M730 0h-260v70c115 39 133 133 133 280c0 182 -30 292 -205 292s-205 -110 -205 -292c0 -147 18 -241 133 -280v-70h-260v70h136c-69 58 -87 152 -87 280c0 247 80 362 283 362s283 -115 283 -362c0 -128 -18 -222 -87 -280h136v-70z" />
    <glyph glyph-name="uni03BC" unicode="&#x3bc;" horiz-adv-x="546" 
d="M495 8l-62 -14c-9 25 -16 51 -21 77c-31 -55 -83 -83 -168 -83c-43 0 -80 12 -100 40v-182h-74v660l74 10v-282c0 -113 6 -184 114 -184c75 0 112 38 145 104v352l74 10v-329c0 -62 4 -124 18 -179z" />
    <glyph glyph-name="pi" unicode="&#x3c0;" horiz-adv-x="736" 
d="M620 27l-50 -42c-83 66 -89 149 -89 262v199h-233v-446h-74v446h-108v70h604l-7 -70h-108v-220c0 -88 1 -138 65 -199z" />
    <glyph glyph-name="uni2007" unicode="&#x2007;" horiz-adv-x="628" 
 />
    <glyph glyph-name="uni2008" unicode="&#x2008;" horiz-adv-x="232" 
 />
    <glyph glyph-name="uni200B" unicode="&#x200b;" horiz-adv-x="0" 
 />
    <glyph glyph-name="endash" unicode="&#x2013;" horiz-adv-x="576" 
d="M511 255h-445v72h445v-72z" />
    <glyph glyph-name="emdash" unicode="&#x2014;" horiz-adv-x="704" 
d="M638 255h-572v72h572v-72z" />
    <glyph glyph-name="quoteleft" unicode="&#x2018;" horiz-adv-x="222" 
d="M119 397l-83 -5l94 326h56z" />
    <glyph glyph-name="quoteright" unicode="&#x2019;" horiz-adv-x="222" 
d="M92 395h-56l67 321l83 5z" />
    <glyph glyph-name="quotesinglbase" unicode="&#x201a;" horiz-adv-x="222" 
d="M92 -140h-56l67 321l83 5z" />
    <glyph glyph-name="quotedblleft" unicode="&#x201c;" horiz-adv-x="372" 
d="M269 397l-83 -5l94 326h56zM119 397l-83 -5l94 326h56z" />
    <glyph glyph-name="quotedblright" unicode="&#x201d;" horiz-adv-x="372" 
d="M92 395h-56l67 321l83 5zM242 395h-56l67 321l83 5z" />
    <glyph glyph-name="quotedblbase" unicode="&#x201e;" horiz-adv-x="372" 
d="M92 -140h-56l67 321l83 5zM242 -140h-56l67 321l83 5z" />
    <glyph glyph-name="dagger" unicode="&#x2020;" horiz-adv-x="520" 
d="M299 0h-77c0 26 4 284 6 428l-176 -6v72l175 -6c-1 71 -4 191 -4 212l74 5c0 -17 -4 -182 -5 -217l176 6v-72l-177 6c3 -144 7 -402 8 -428z" />
    <glyph glyph-name="daggerdbl" unicode="&#x2021;" horiz-adv-x="520" 
d="M299 0h-77c0 12 2 140 3 212c-54 -2 -166 -5 -173 -5v72l175 -6c0 53 1 102 1 155l-176 -6v72l175 -6c-1 71 -4 191 -4 212l74 5c0 -17 -4 -182 -5 -217l176 6v-72l-177 6c0 -53 1 -102 1 -155l176 6v-72c-6 0 -113 3 -174 5c2 -72 5 -195 5 -212z" />
    <glyph glyph-name="bullet" unicode="&#x2022;" horiz-adv-x="284" 
d="M142 236c-59 0 -89 29 -89 88s30 88 89 88s89 -29 89 -88s-30 -88 -89 -88z" />
    <glyph glyph-name="ellipsis" unicode="&#x2026;" horiz-adv-x="585" 
d="M112 -6c-34 0 -51 18 -51 52s17 52 51 52s51 -18 51 -52s-17 -52 -51 -52zM292 -6c-34 0 -51 18 -51 52s17 52 51 52s51 -18 51 -52s-17 -52 -51 -52zM473 -6c-34 0 -51 18 -51 52s17 52 51 52s51 -18 51 -52s-17 -52 -51 -52z" />
    <glyph glyph-name="perthousand" unicode="&#x2030;" horiz-adv-x="1424" 
d="M242 260c-134 0 -187 72 -187 226s53 226 187 226s187 -72 187 -226s-53 -226 -187 -226zM242 314c105 0 123 65 123 172s-18 172 -123 172s-123 -65 -123 -172s18 -172 123 -172zM756 -12c-134 0 -187 72 -187 226s53 226 187 226s187 -72 187 -226s-53 -226 -187 -226z
M756 42c105 0 123 65 123 172s-18 172 -123 172s-123 -65 -123 -172s18 -172 123 -172zM374 -9l-52 18l298 700l52 -18zM1182 -12c-134 0 -187 72 -187 226s53 226 187 226s187 -72 187 -226s-53 -226 -187 -226zM1182 42c105 0 123 65 123 172s-18 172 -123 172
s-123 -65 -123 -172s18 -172 123 -172z" />
    <glyph glyph-name="guilsinglleft" unicode="&#x2039;" horiz-adv-x="394" 
d="M306 71l-251 182v62l251 182l34 -61l-224 -152l224 -153z" />
    <glyph glyph-name="guilsinglright" unicode="&#x203a;" horiz-adv-x="394" 
d="M339 253l-251 -182l-34 60l224 153l-224 152l34 61l251 -182v-62z" />
    <glyph glyph-name="fraction" unicode="&#x2044;" horiz-adv-x="125" 
d="M235 692l-298 -701l-47 19l298 701z" />
    <glyph glyph-name="uni2070" unicode="&#x2070;" horiz-adv-x="408" 
d="M204 298c-106 0 -148 65 -148 204c0 140 42 205 148 205s148 -65 148 -205c0 -139 -42 -204 -148 -204zM204 653c-78 0 -88 -53 -88 -151c0 -97 10 -150 88 -150s88 53 88 150c0 98 -10 151 -88 151z" />
    <glyph glyph-name="uni2074" unicode="&#x2074;" horiz-adv-x="382" 
d="M281 305h-59v102h-165l-16 52c45 74 53 155 57 244l64 -6c-9 -90 -27 -176 -62 -239h122v144l59 8v-152h49v-51h-49v-102z" />
    <glyph glyph-name="uni2075" unicode="&#x2075;" horiz-adv-x="368" 
d="M64 382c32 -20 76 -30 111 -30c45 0 84 20 84 79c0 55 -45 64 -79 64c-35 0 -73 -10 -97 -17l-28 54l19 168h212v-54h-161l-14 -110c19 7 45 12 70 12c64 0 139 -24 139 -122c0 -61 -33 -128 -142 -128c-47 0 -98 8 -137 34z" />
    <glyph glyph-name="uni2076" unicode="&#x2076;" horiz-adv-x="387" 
d="M112 528c23 26 55 41 104 41c75 0 124 -47 124 -130c0 -76 -39 -141 -139 -141c-106 0 -149 65 -149 204c0 140 51 205 146 205c42 0 84 -4 115 -24l-21 -50c-26 14 -57 20 -84 20c-74 0 -93 -42 -96 -125zM114 467c1 -83 25 -115 87 -115c59 0 81 36 81 91
c0 61 -36 75 -78 75c-37 0 -75 -20 -90 -51z" />
    <glyph glyph-name="uni2077" unicode="&#x2077;" horiz-adv-x="340" 
d="M170 305h-63c10 138 36 255 125 341h-187v54h242l10 -54c-101 -77 -121 -206 -127 -341z" />
    <glyph glyph-name="uni2078" unicode="&#x2078;" horiz-adv-x="389" 
d="M272 504c42 -13 65 -44 65 -91c0 -65 -43 -115 -141 -115c-108 0 -144 54 -144 119c0 40 17 76 66 92c-42 12 -55 43 -55 86c0 57 40 112 133 112s133 -55 133 -112c0 -42 -16 -76 -57 -91zM279 410c0 49 -45 58 -110 70l-9 2c-38 -13 -50 -37 -50 -62
c0 -46 27 -71 86 -71c60 0 83 24 83 61zM225 524c34 15 46 38 46 65c0 42 -19 67 -75 67c-55 0 -75 -23 -75 -59c0 -55 47 -63 104 -73z" />
    <glyph glyph-name="uni2079" unicode="&#x2079;" horiz-adv-x="386" 
d="M273 477c-23 -26 -55 -41 -104 -41c-75 0 -124 47 -124 130c0 76 39 141 139 141c106 0 149 -65 149 -204c0 -140 -51 -205 -146 -205c-42 0 -84 4 -115 24l21 50c26 -14 57 -20 84 -20c74 0 93 42 96 125zM271 538c-1 83 -25 115 -87 115c-59 0 -81 -36 -81 -91
c0 -61 36 -75 78 -75c37 0 75 20 90 51z" />
    <glyph glyph-name="uni2080" unicode="&#x2080;" horiz-adv-x="408" 
d="M204 -204c-106 0 -148 65 -148 204c0 140 42 205 148 205s148 -65 148 -205c0 -139 -42 -204 -148 -204zM204 151c-78 0 -88 -53 -88 -151c0 -97 10 -150 88 -150s88 53 88 150c0 98 -10 151 -88 151z" />
    <glyph glyph-name="uni2081" unicode="&#x2081;" horiz-adv-x="206" 
d="M133 -197h-59v387l59 8v-395z" />
    <glyph glyph-name="uni2082" unicode="&#x2082;" horiz-adv-x="360" 
d="M305 -197h-241l-11 54c99 68 191 133 191 219c0 55 -22 75 -78 75c-37 0 -68 -9 -98 -26l-19 51c37 23 84 29 132 29c80 0 125 -45 125 -115c0 -89 -60 -157 -170 -233h169v-54z" />
    <glyph glyph-name="uni2083" unicode="&#x2083;" horiz-adv-x="369" 
d="M65 -120c34 -21 76 -30 112 -30c51 0 83 21 83 76c0 47 -35 63 -76 63c-10 0 -20 0 -30 -1l-29 -4l-14 54l120 106h-176v54h239l13 -54l-132 -111c6 1 13 2 19 2c92 -1 127 -47 127 -111c0 -62 -32 -128 -142 -128c-48 0 -97 7 -136 34z" />
    <glyph glyph-name="uni2084" unicode="&#x2084;" horiz-adv-x="382" 
d="M281 -197h-59v102h-165l-16 52c45 74 53 155 57 244l64 -6c-9 -90 -27 -176 -62 -239h122v144l59 8v-152h49v-51h-49v-102z" />
    <glyph glyph-name="uni2085" unicode="&#x2085;" horiz-adv-x="368" 
d="M64 -120c32 -20 76 -30 111 -30c45 0 84 20 84 79c0 55 -45 64 -79 64c-35 0 -73 -10 -97 -17l-28 54l19 168h212v-54h-161l-14 -110c19 7 45 12 70 12c64 0 139 -24 139 -122c0 -61 -33 -128 -142 -128c-47 0 -98 8 -137 34z" />
    <glyph glyph-name="uni2086" unicode="&#x2086;" horiz-adv-x="387" 
d="M112 26c23 26 55 41 104 41c75 0 124 -47 124 -130c0 -76 -39 -141 -139 -141c-106 0 -149 65 -149 204c0 140 51 205 146 205c42 0 84 -4 115 -24l-21 -50c-26 14 -57 20 -84 20c-74 0 -93 -42 -96 -125zM114 -35c1 -83 25 -115 87 -115c59 0 81 36 81 91
c0 61 -36 75 -78 75c-37 0 -75 -20 -90 -51z" />
    <glyph glyph-name="uni2087" unicode="&#x2087;" horiz-adv-x="340" 
d="M170 -197h-63c10 138 36 255 125 341h-187v54h242l10 -54c-101 -77 -121 -206 -127 -341z" />
    <glyph glyph-name="uni2088" unicode="&#x2088;" horiz-adv-x="389" 
d="M272 2c42 -13 65 -44 65 -91c0 -65 -43 -115 -141 -115c-108 0 -144 54 -144 119c0 40 17 76 66 92c-42 12 -55 43 -55 86c0 57 40 112 133 112s133 -55 133 -112c0 -42 -16 -76 -57 -91zM279 -92c0 49 -45 58 -110 70l-9 2c-38 -13 -50 -37 -50 -62c0 -46 27 -71 86 -71
c60 0 83 24 83 61zM225 22c34 15 46 38 46 65c0 42 -19 67 -75 67c-55 0 -75 -23 -75 -59c0 -55 47 -63 104 -73z" />
    <glyph glyph-name="uni2089" unicode="&#x2089;" horiz-adv-x="386" 
d="M273 -25c-23 -26 -55 -41 -104 -41c-75 0 -124 47 -124 130c0 76 39 141 139 141c106 0 149 -65 149 -204c0 -140 -51 -205 -146 -205c-42 0 -84 4 -115 24l21 50c26 -14 57 -20 84 -20c74 0 93 42 96 125zM271 36c-1 83 -25 115 -87 115c-59 0 -81 -36 -81 -91
c0 -61 36 -75 78 -75c37 0 75 20 90 51z" />
    <glyph glyph-name="Euro" unicode="&#x20ac;" horiz-adv-x="575" 
d="M495 87l31 -63c-41 -24 -98 -36 -165 -36c-155 0 -231 91 -250 267h-70v56h66v39c0 12 1 28 1 36h-67v56h70c15 150 74 270 250 270c67 0 124 -12 165 -36l-31 -63c-38 21 -83 30 -122 30c-114 0 -172 -53 -184 -201h217v-56h-220c-1 -7 -1 -22 -1 -38s0 -32 1 -37h220
v-56h-216c7 -136 65 -198 179 -198c43 0 88 9 126 30z" />
    <glyph glyph-name="trademark" unicode="&#x2122;" horiz-adv-x="658" 
d="M184 399h-43v260h-96v41h234v-41h-95v-260zM551 396l-15 230l-68 -227h-40l-76 227l-10 -227h-45l24 301h49l78 -239l70 239h53l24 -300z" />
    <glyph glyph-name="Omega" unicode="&#x2126;" horiz-adv-x="796" 
d="M730 0h-260v70c115 39 133 133 133 280c0 182 -30 292 -205 292s-205 -110 -205 -292c0 -147 18 -241 133 -280v-70h-260v70h136c-69 58 -87 152 -87 280c0 247 80 362 283 362s283 -115 283 -362c0 -128 -18 -222 -87 -280h136v-70z" />
    <glyph glyph-name="partialdiff" unicode="&#x2202;" horiz-adv-x="582" 
d="M291 -12c-161 0 -225 86 -225 270s61 267 222 267c60 0 117 -14 157 -80c-48 147 -139 186 -254 215l24 70c247 -63 301 -255 301 -454v-18c0 -184 -64 -270 -225 -270zM291 51c128 0 150 78 150 207s-22 207 -150 207s-150 -78 -150 -207s22 -207 150 -207z" />
    <glyph glyph-name="Delta" unicode="&#x2206;" horiz-adv-x="701" 
d="M616 0h-531l-19 68l246 632h77l246 -632zM552 68l-204 541l-203 -541h407z" />
    <glyph glyph-name="product" unicode="&#x220f;" horiz-adv-x="621" 
d="M551 -140h-77v770h-327v-770h-77v840h481v-840z" />
    <glyph glyph-name="summation" unicode="&#x2211;" horiz-adv-x="565" 
d="M499 -140h-416l-17 70l266 350l-266 350l17 70h416v-70h-336l244 -326v-48l-244 -326h336v-70z" />
    <glyph glyph-name="minus" unicode="&#x2212;" 
d="M580 255h-480v72h480v-72z" />
    <glyph glyph-name="uni2219" unicode="&#x2219;" 
d="M340 202c-59 0 -89 29 -89 88s30 88 89 88s89 -29 89 -88s-30 -88 -89 -88z" />
    <glyph glyph-name="radical" unicode="&#x221a;" horiz-adv-x="782" 
d="M440 -139h-78l-132 394h-164v72h222l115 -371l233 748l80 -10z" />
    <glyph glyph-name="infinity" unicode="&#x221e;" horiz-adv-x="886" 
d="M443 210c-32 -72 -96 -112 -173 -112c-113 0 -203 64 -203 193c0 130 89 194 203 194c88 0 141 -50 173 -117c35 76 93 117 173 117c114 0 203 -64 203 -194c0 -129 -90 -193 -203 -193c-79 0 -141 42 -173 112zM474 291c23 -81 70 -134 142 -134c79 0 140 47 140 134
c0 89 -63 135 -140 135c-72 0 -123 -56 -142 -135zM412 290c-28 82 -70 136 -142 136c-75 0 -140 -45 -140 -133s61 -136 140 -136c77 0 125 54 142 133z" />
    <glyph glyph-name="integral" unicode="&#x222b;" horiz-adv-x="414" 
d="M66 -70h55c37 0 49 25 49 65v570c0 86 32 135 123 135h55v-70h-55c-37 0 -49 -25 -49 -65v-570c0 -86 -32 -135 -123 -135h-55v70z" />
    <glyph glyph-name="approxequal" unicode="&#x2248;" 
d="M580 368c-51 -25 -95 -33 -131 -33c-93 0 -138 49 -221 49c-38 0 -78 -14 -128 -37v70c49 25 88 34 128 34c91 0 140 -50 221 -50c40 0 80 11 131 37v-70zM580 164c-51 -25 -95 -33 -131 -33c-93 0 -138 49 -221 49c-38 0 -78 -14 -128 -37v70c49 25 88 34 128 34
c91 0 140 -50 221 -50c40 0 80 11 131 37v-70z" />
    <glyph glyph-name="notequal" unicode="&#x2260;" 
d="M441 520l-27 -92h166v-70h-187l-39 -134h226v-70h-246l-30 -103h-71l30 103h-163v70h184l39 134h-223v70h244l27 92h70z" />
    <glyph glyph-name="lessequal" unicode="&#x2264;" 
d="M580 0h-480v70h480v-70zM544 127l-444 198v60l444 198l36 -72l-405 -156l405 -157z" />
    <glyph glyph-name="greaterequal" unicode="&#x2265;" 
d="M580 0h-480v70h480v-70zM136 127l-36 72l405 156l-405 157l36 71l444 -198v-60z" />
    <glyph glyph-name="dotmath" unicode="&#x22c5;" 
d="M340 239c-34 0 -51 18 -51 52s17 52 51 52s51 -18 51 -52s-17 -52 -51 -52z" />
    <glyph glyph-name="lozenge" unicode="&#x25ca;" horiz-adv-x="698" 
d="M388 0h-78l-244 350l244 350h78l244 -350zM351 70l190 277l-194 283l-190 -277z" />
    <glyph glyph-name="zero.numr" horiz-adv-x="408" 
d="M204 298c-106 0 -148 65 -148 204c0 140 42 205 148 205s148 -65 148 -205c0 -139 -42 -204 -148 -204zM204 653c-78 0 -88 -53 -88 -151c0 -97 10 -150 88 -150s88 53 88 150c0 98 -10 151 -88 151z" />
    <glyph glyph-name="one.numr" horiz-adv-x="206" 
d="M133 305h-59v387l59 8v-395z" />
    <glyph glyph-name="two.numr" horiz-adv-x="360" 
d="M305 305h-241l-11 54c99 68 191 133 191 219c0 55 -22 75 -78 75c-37 0 -68 -9 -98 -26l-19 51c37 23 84 29 132 29c80 0 125 -45 125 -115c0 -89 -60 -157 -170 -233h169v-54z" />
    <glyph glyph-name="three.numr" horiz-adv-x="369" 
d="M65 382c34 -21 76 -30 112 -30c51 0 83 21 83 76c0 47 -35 63 -76 63c-10 0 -20 0 -30 -1l-29 -4l-14 54l120 106h-176v54h239l13 -54l-132 -111c6 1 13 2 19 2c92 -1 127 -47 127 -111c0 -62 -32 -128 -142 -128c-48 0 -97 7 -136 34z" />
    <glyph glyph-name="four.numr" horiz-adv-x="382" 
d="M281 305h-59v102h-165l-16 52c45 74 53 155 57 244l64 -6c-9 -90 -27 -176 -62 -239h122v144l59 8v-152h49v-51h-49v-102z" />
    <glyph glyph-name="five.numr" horiz-adv-x="368" 
d="M64 382c32 -20 76 -30 111 -30c45 0 84 20 84 79c0 55 -45 64 -79 64c-35 0 -73 -10 -97 -17l-28 54l19 168h212v-54h-161l-14 -110c19 7 45 12 70 12c64 0 139 -24 139 -122c0 -61 -33 -128 -142 -128c-47 0 -98 8 -137 34z" />
    <glyph glyph-name="six.numr" horiz-adv-x="387" 
d="M112 528c23 26 55 41 104 41c75 0 124 -47 124 -130c0 -76 -39 -141 -139 -141c-106 0 -149 65 -149 204c0 140 51 205 146 205c42 0 84 -4 115 -24l-21 -50c-26 14 -57 20 -84 20c-74 0 -93 -42 -96 -125zM114 467c1 -83 25 -115 87 -115c59 0 81 36 81 91
c0 61 -36 75 -78 75c-37 0 -75 -20 -90 -51z" />
    <glyph glyph-name="seven.numr" horiz-adv-x="340" 
d="M170 305h-63c10 138 36 255 125 341h-187v54h242l10 -54c-101 -77 -121 -206 -127 -341z" />
    <glyph glyph-name="eight.numr" horiz-adv-x="389" 
d="M272 504c42 -13 65 -44 65 -91c0 -65 -43 -115 -141 -115c-108 0 -144 54 -144 119c0 40 17 76 66 92c-42 12 -55 43 -55 86c0 57 40 112 133 112s133 -55 133 -112c0 -42 -16 -76 -57 -91zM279 410c0 49 -45 58 -110 70l-9 2c-38 -13 -50 -37 -50 -62
c0 -46 27 -71 86 -71c60 0 83 24 83 61zM225 524c34 15 46 38 46 65c0 42 -19 67 -75 67c-55 0 -75 -23 -75 -59c0 -55 47 -63 104 -73z" />
    <glyph glyph-name="nine.numr" horiz-adv-x="386" 
d="M273 477c-23 -26 -55 -41 -104 -41c-75 0 -124 47 -124 130c0 76 39 141 139 141c106 0 149 -65 149 -204c0 -140 -51 -205 -146 -205c-42 0 -84 4 -115 24l21 50c26 -14 57 -20 84 -20c74 0 93 42 96 125zM271 538c-1 83 -25 115 -87 115c-59 0 -81 -36 -81 -91
c0 -61 36 -75 78 -75c37 0 75 20 90 51z" />
    <glyph glyph-name="zero.dnom" horiz-adv-x="408" 
d="M204 -7c-106 0 -148 65 -148 204c0 140 42 205 148 205s148 -65 148 -205c0 -139 -42 -204 -148 -204zM204 348c-78 0 -88 -53 -88 -151c0 -97 10 -150 88 -150s88 53 88 150c0 98 -10 151 -88 151z" />
    <glyph glyph-name="one.dnom" horiz-adv-x="206" 
d="M133 0h-59v387l59 8v-395z" />
    <glyph glyph-name="two.dnom" horiz-adv-x="360" 
d="M305 0h-241l-11 54c99 68 191 133 191 219c0 55 -22 75 -78 75c-37 0 -68 -9 -98 -26l-19 51c37 23 84 29 132 29c80 0 125 -45 125 -115c0 -89 -60 -157 -170 -233h169v-54z" />
    <glyph glyph-name="three.dnom" horiz-adv-x="369" 
d="M65 77c34 -21 76 -30 112 -30c51 0 83 21 83 76c0 47 -35 63 -76 63c-10 0 -20 0 -30 -1l-29 -4l-14 54l120 106h-176v54h239l13 -54l-132 -111c6 1 13 2 19 2c92 -1 127 -47 127 -111c0 -62 -32 -128 -142 -128c-48 0 -97 7 -136 34z" />
    <glyph glyph-name="four.dnom" horiz-adv-x="382" 
d="M281 0h-59v102h-165l-16 52c45 74 53 155 57 244l64 -6c-9 -90 -27 -176 -62 -239h122v144l59 8v-152h49v-51h-49v-102z" />
    <glyph glyph-name="five.dnom" horiz-adv-x="368" 
d="M64 77c32 -20 76 -30 111 -30c45 0 84 20 84 79c0 55 -45 64 -79 64c-35 0 -73 -10 -97 -17l-28 54l19 168h212v-54h-161l-14 -110c19 7 45 12 70 12c64 0 139 -24 139 -122c0 -61 -33 -128 -142 -128c-47 0 -98 8 -137 34z" />
    <glyph glyph-name="six.dnom" horiz-adv-x="387" 
d="M112 223c23 26 55 41 104 41c75 0 124 -47 124 -130c0 -76 -39 -141 -139 -141c-106 0 -149 65 -149 204c0 140 51 205 146 205c42 0 84 -4 115 -24l-21 -50c-26 14 -57 20 -84 20c-74 0 -93 -42 -96 -125zM114 162c1 -83 25 -115 87 -115c59 0 81 36 81 91
c0 61 -36 75 -78 75c-37 0 -75 -20 -90 -51z" />
    <glyph glyph-name="seven.dnom" horiz-adv-x="340" 
d="M170 0h-63c10 138 36 255 125 341h-187v54h242l10 -54c-101 -77 -121 -206 -127 -341z" />
    <glyph glyph-name="eight.dnom" horiz-adv-x="389" 
d="M272 199c42 -13 65 -44 65 -91c0 -65 -43 -115 -141 -115c-108 0 -144 54 -144 119c0 40 17 76 66 92c-42 12 -55 43 -55 86c0 57 40 112 133 112s133 -55 133 -112c0 -42 -16 -76 -57 -91zM279 105c0 49 -45 58 -110 70l-9 2c-38 -13 -50 -37 -50 -62
c0 -46 27 -71 86 -71c60 0 83 24 83 61zM225 219c34 15 46 38 46 65c0 42 -19 67 -75 67c-55 0 -75 -23 -75 -59c0 -55 47 -63 104 -73z" />
    <glyph glyph-name="nine.dnom" horiz-adv-x="386" 
d="M273 172c-23 -26 -55 -41 -104 -41c-75 0 -124 47 -124 130c0 76 39 141 139 141c106 0 149 -65 149 -204c0 -140 -51 -205 -146 -205c-42 0 -84 4 -115 24l21 50c26 -14 57 -20 84 -20c74 0 93 42 96 125zM271 233c-1 83 -25 115 -87 115c-59 0 -81 -36 -81 -91
c0 -61 36 -75 78 -75c37 0 75 20 90 51z" />
    <glyph glyph-name="numbersign.tf" 
d="M404 0h-74l34 170h-121l-32 -170h-75l34 170h-141l13 66h141l45 228h-141l14 66h140l31 170h77l-34 -170h120l32 170h76l-32 -170h140l-14 -66h-140l-47 -228h142l-13 -66h-142zM376 236l46 228h-120l-46 -228h120z" />
    <glyph glyph-name="dollar.tf" 
d="M373 -117h-64v107c-89 4 -170 26 -230 61l30 66c69 -36 154 -59 238 -59c100 0 175 33 175 134c0 79 -94 101 -184 124c-100 26 -238 61 -238 204c0 124 89 183 209 191v106h64v-106c64 -3 126 -15 182 -40l-28 -67c-57 28 -122 38 -183 38c-96 0 -167 -29 -167 -120
c0 -83 86 -105 181 -131c115 -31 242 -64 242 -200c0 -131 -91 -195 -227 -202v-106z" />
    <glyph glyph-name="zero.tf" 
d="M340 -12c-198 0 -278 115 -278 362s80 362 278 362s278 -115 278 -362s-80 -362 -278 -362zM340 58c171 0 200 110 200 292s-29 292 -200 292c-172 0 -200 -110 -200 -292s28 -292 200 -292z" />
    <glyph glyph-name="one.tf" 
d="M134 0v70h196v545l-190 -18l-11 65l278 38v-630h173v-70h-446z" />
    <glyph glyph-name="two.tf" 
d="M594 0h-484l-16 70c216 135 388 264 388 425c0 108 -62 147 -174 147c-72 0 -134 -17 -190 -47l-30 64c75 42 155 53 240 53c153 0 236 -82 236 -201c0 -166 -128 -298 -358 -441h388v-70z" />
    <glyph glyph-name="three.tf" 
d="M337 -12c-94 0 -183 16 -255 58l31 65c62 -34 139 -53 219 -53c111 0 187 39 187 160c0 97 -78 130 -184 130c-20 0 -54 -1 -102 -7l-22 71l254 218h-365v70h448l19 -70l-267 -223c19 3 36 4 46 4c176 0 252 -86 252 -200c0 -117 -70 -223 -261 -223z" />
    <glyph glyph-name="four.tf" 
d="M496 0h-77v190h-330l-23 67c94 148 109 281 119 447l82 -9c-17 -165 -51 -320 -122 -438h274v276l77 11v-287h131v-67h-131v-190z" />
    <glyph glyph-name="five.tf" 
d="M338 -12c-93 0 -183 18 -255 60l30 66c63 -35 141 -56 220 -56c113 0 188 39 188 160c0 109 -84 140 -184 140c-64 0 -128 -11 -187 -31l-40 69l36 304h390v-70h-326l-29 -226c45 14 100 23 160 23c131 0 259 -55 259 -216c0 -117 -68 -223 -262 -223z" />
    <glyph glyph-name="six.tf" 
d="M153 379c52 62 126 89 225 89c140 0 237 -85 237 -231c0 -138 -74 -249 -261 -249c-199 0 -279 115 -279 362c0 248 101 362 273 362c73 0 145 -9 209 -41l-32 -65c-50 25 -108 36 -164 36c-151 0 -206 -93 -208 -263zM154 297c5 -169 60 -239 201 -239
c134 0 184 74 184 185c0 112 -73 157 -174 157c-91 0 -164 -34 -211 -103z" />
    <glyph glyph-name="seven.tf" 
d="M311 0h-85c14 251 110 469 293 630h-433v70h505l16 -70c-202 -150 -289 -382 -296 -630z" />
    <glyph glyph-name="eight.tf" 
d="M475 348c81 -23 132 -77 132 -160c0 -115 -84 -200 -265 -200c-190 0 -268 95 -268 209c0 69 43 140 132 166c-74 25 -113 82 -113 157c0 101 78 192 249 192c172 0 251 -96 251 -197c0 -78 -33 -137 -118 -167zM342 57c133 0 187 49 187 125c0 93 -96 115 -218 137
l-44 8c-94 -24 -115 -76 -115 -127c0 -90 53 -143 190 -143zM411 375c83 29 105 79 105 133c0 80 -49 135 -174 135c-123 0 -172 -47 -172 -122c0 -117 131 -117 241 -146z" />
    <glyph glyph-name="nine.tf" 
d="M527 321c-52 -62 -126 -89 -225 -89c-140 0 -237 85 -237 231c0 138 74 249 261 249c199 0 279 -115 279 -362c0 -248 -101 -362 -273 -362c-73 0 -145 9 -209 41l32 65c50 -25 108 -36 164 -36c151 0 206 93 208 263zM526 403c-5 169 -60 239 -201 239
c-134 0 -184 -74 -184 -185c0 -112 73 -157 174 -157c91 0 164 34 211 103z" />
    <glyph glyph-name="cent.tf" 
d="M338 -112v103c-143 14 -193 97 -193 267c0 169 48 253 193 267v103h61v-100c47 -2 96 -11 137 -32l-26 -59c-39 19 -85 25 -129 25c-122 0 -161 -49 -161 -204s37 -204 161 -204c44 0 90 6 129 25l26 -59c-41 -21 -90 -30 -137 -32v-100h-61z" />
    <glyph glyph-name="sterling.tf" 
d="M599 0h-453l-16 70c50 53 70 110 70 168c0 25 -1 52 -5 79h-103v68h92c-12 54 -22 106 -22 156c0 123 103 171 220 171c70 0 139 -11 201 -45l-32 -63c-49 25 -105 38 -164 38c-80 0 -145 -25 -145 -108c0 -45 9 -96 20 -149h201v-68h-191c3 -25 4 -50 4 -73
c0 -62 -13 -120 -59 -174h382v-70z" />
    <glyph glyph-name="yen.tf" 
d="M376 0h-77v144h-167v56h167v70h-167v56h138l-215 364l82 19l201 -362l201 353h86l-222 -374h143v-56h-170v-70h170v-56h-170v-144z" />
    <glyph glyph-name="section.tf" 
d="M496 119c35 -21 55 -64 55 -108c0 -117 -104 -163 -212 -163c-73 0 -147 14 -208 48l32 60c51 -27 110 -41 169 -41c78 0 142 17 142 92c0 77 -86 87 -173 113c-98 29 -205 61 -205 175c0 71 33 117 85 147c-35 19 -52 61 -52 107c0 117 104 163 212 163
c73 0 147 -14 208 -48l-32 -60c-51 27 -110 41 -169 41c-78 0 -142 -17 -142 -92c0 -77 86 -87 173 -113c98 -29 205 -61 205 -175c0 -73 -35 -121 -88 -146zM434 156c45 16 75 44 75 95c0 77 -78 96 -153 116c-55 15 -89 27 -110 37c-45 -16 -75 -44 -75 -95
c0 -77 78 -96 153 -116c55 -15 89 -27 110 -37z" />
    <glyph glyph-name="uni2007.tf" 
 />
    <glyph glyph-name="Euro.tf" 
d="M575 87l29 -63c-44 -24 -104 -36 -174 -36c-166 0 -249 91 -270 267h-77v56h72c0 25 1 54 2 75h-74v56h77c16 150 81 270 270 270c70 0 130 -12 174 -36l-29 -63c-38 21 -83 30 -132 30c-136 0 -187 -59 -205 -201h240v-56h-244c-1 -13 -2 -29 -2 -44c0 -11 1 -22 1 -31
h245v-56h-240c14 -132 65 -198 201 -198c52 0 98 9 136 30z" />
    <glyph glyph-name="parenleft.case" horiz-adv-x="288" 
d="M241 -56l-55 -33c-78 111 -146 253 -146 439s68 328 146 439l55 -33c-86 -119 -130 -238 -130 -406s44 -287 130 -406z" />
    <glyph glyph-name="parenright.case" horiz-adv-x="288" 
d="M102 -89l-55 33c86 119 130 238 130 406s-44 287 -130 406l55 33c78 -111 146 -253 146 -439s-68 -328 -146 -439z" />
    <glyph glyph-name="hyphen.case" horiz-adv-x="443" 
d="M377 314h-311v72h311v-72z" />
    <glyph glyph-name="bracketleft.case" horiz-adv-x="319" 
d="M264 -79h-196v858h196v-65h-126v-728h126v-65z" />
    <glyph glyph-name="bracketright.case" horiz-adv-x="319" 
d="M251 -79h-196v65h126v728h-126v65h196v-858z" />
    <glyph glyph-name="braceleft.case" horiz-adv-x="357" 
d="M297 -81c-96 0 -177 21 -177 161c0 167 -15 234 -90 239l-5 63c93 8 94 88 94 233c0 138 69 165 178 165v-64c-84 0 -111 -10 -111 -124c0 -145 -15 -220 -83 -242c69 -22 83 -100 83 -245c0 -111 27 -122 111 -122v-64z" />
    <glyph glyph-name="braceright.case" horiz-adv-x="357" 
d="M60 -81v64c84 0 111 11 111 122c0 145 14 223 83 245c-68 22 -83 97 -83 242c0 114 -27 124 -111 124v64c109 0 178 -27 178 -165c0 -145 1 -225 94 -233l-5 -63c-75 -5 -90 -72 -90 -239c0 -140 -81 -161 -177 -161z" />
    <glyph glyph-name="guillemotleft.case" horiz-adv-x="668" 
d="M306 137l-251 182v62l251 182l34 -61l-224 -152l224 -153zM580 137l-251 182v62l251 182l34 -61l-224 -152l224 -153z" />
    <glyph glyph-name="uni00AD.case" horiz-adv-x="443" 
d="M377 314h-311v72h311v-72z" />
    <glyph glyph-name="guillemotright.case" horiz-adv-x="668" 
d="M613 319l-251 -182l-34 60l224 153l-224 152l34 61l251 -182v-62zM339 319l-251 -182l-34 60l224 153l-224 152l34 61l251 -182v-62z" />
    <glyph glyph-name="gravecomb.case" horiz-adv-x="1" 
d="M-297 763l-55 -6l-95 171l80 6z" />
    <glyph glyph-name="acutecomb.case" horiz-adv-x="1" 
d="M-324 757l-55 6l71 171l79 -6z" />
    <glyph glyph-name="uni0302.case" horiz-adv-x="1" 
d="M-195 753l-142 98l-142 -98l-39 34l153 125h57l153 -125z" />
    <glyph glyph-name="tildecomb.case" horiz-adv-x="1" 
d="M-127 822c-38 -49 -88 -67 -135 -67c-62 0 -102 56 -153 56c-35 0 -64 -17 -92 -49l-39 45c38 49 88 67 135 67c62 0 102 -56 153 -56c35 0 64 17 92 49z" />
    <glyph glyph-name="uni0308.case" horiz-adv-x="1" 
d="M-292 757c-29 0 -46 14 -46 43s17 43 46 43s46 -14 46 -43s-17 -43 -46 -43zM-97 757c-29 0 -46 14 -46 43s17 43 46 43s46 -14 46 -43s-17 -43 -46 -43z" />
    <glyph glyph-name="uni030A.case" horiz-adv-x="1" 
d="M-162 658c-82 0 -123 39 -123 110s41 111 123 111s123 -40 123 -111s-41 -110 -123 -110zM-162 702c47 0 68 22 68 66s-21 67 -68 67s-68 -23 -68 -67s21 -66 68 -66z" />
    <glyph glyph-name="uni030C.case" horiz-adv-x="1" 
d="M-248 759h-57l-153 125l39 34l142 -98l142 98l40 -34z" />
    <glyph glyph-name="endash.case" horiz-adv-x="576" 
d="M511 314h-445v72h445v-72z" />
    <glyph glyph-name="emdash.case" horiz-adv-x="704" 
d="M638 314h-572v72h572v-72z" />
    <glyph glyph-name="guilsinglleft.case" horiz-adv-x="394" 
d="M306 137l-251 182v62l251 182l34 -61l-224 -152l224 -153z" />
    <glyph glyph-name="guilsinglright.case" horiz-adv-x="394" 
d="M339 319l-251 -182l-34 60l224 153l-224 152l34 61l251 -182v-62z" />
    <glyph glyph-name="f_f_j" horiz-adv-x="884" 
d="M773 610c-30 0 -48 13 -48 43s18 43 48 43s48 -13 48 -43s-18 -43 -48 -43zM702 -169l-41 51c62 44 75 73 75 167v394h-240v-443h-74v443h-240v-443h-74v443h-88v63h86c-4 24 -7 49 -7 72c0 87 35 152 147 152c21 0 42 -3 61 -8l-12 -63c-14 4 -29 6 -42 6
c-68 0 -83 -29 -83 -92c0 -20 2 -46 8 -67h242c-4 24 -7 49 -7 72c0 87 35 152 147 152c21 0 42 -3 61 -8l-12 -63c-14 4 -29 6 -42 6c-68 0 -83 -29 -83 -92c0 -20 2 -46 8 -67h244l74 10v-464c0 -122 -29 -173 -108 -221z" />
    <glyph glyph-name="f_j" horiz-adv-x="570" 
d="M459 610c-30 0 -48 13 -48 43s18 43 48 43s48 -13 48 -43s-18 -43 -48 -43zM388 -169l-41 51c62 44 75 73 75 167v394h-240v-443h-74v443h-88v63h86c-4 24 -7 49 -7 72c0 87 35 152 147 152c21 0 42 -3 61 -8l-12 -63c-14 4 -29 6 -42 6c-68 0 -83 -29 -83 -92
c0 -20 2 -46 8 -67h244l74 10v-464c0 -122 -29 -173 -108 -221z" />
    </font>
</defs>
</svg>
